<svg width="12" height="12" viewBox="0 0 12 12" fill="none" xmlns="http://www.w3.org/2000/svg">
<path fill-rule="evenodd" clip-rule="evenodd" d="M6.7998 1.59922C6.7998 1.3783 6.97889 1.19922 7.1998 1.19922H11.5998C11.8207 1.19922 11.9998 1.3783 11.9998 1.59922C11.9998 1.82013 11.8207 1.99922 11.5998 1.99922H7.1998C6.97889 1.99922 6.7998 1.82013 6.7998 1.59922Z" fill="#D0D0D2"/>
<path fill-rule="evenodd" clip-rule="evenodd" d="M8 3.20078C8 2.97987 8.17909 2.80078 8.4 2.80078H11.6C11.8209 2.80078 12 2.97987 12 3.20078C12 3.4217 11.8209 3.60078 11.6 3.60078H8.4C8.17909 3.60078 8 3.4217 8 3.20078Z" fill="#D0D0D2"/>
<path fill-rule="evenodd" clip-rule="evenodd" d="M9.6001 4.80039C9.6001 4.57948 9.77918 4.40039 10.0001 4.40039H11.6001C11.821 4.40039 12.0001 4.57948 12.0001 4.80039C12.0001 5.0213 11.821 5.20039 11.6001 5.20039H10.0001C9.77918 5.20039 9.6001 5.0213 9.6001 4.80039Z" fill="#D0D0D2"/>
<path fill-rule="evenodd" clip-rule="evenodd" d="M4.4 3.20039C3.51634 3.20039 2.8 3.91674 2.8 4.80039C2.8 5.68405 3.51634 6.40039 4.4 6.40039C5.28366 6.40039 6 5.68405 6 4.80039C6 3.91674 5.28366 3.20039 4.4 3.20039ZM2 4.80039C2 3.47491 3.07452 2.40039 4.4 2.40039C5.72548 2.40039 6.8 3.47491 6.8 4.80039C6.8 6.12587 5.72548 7.20039 4.4 7.20039C3.07452 7.20039 2 6.12587 2 4.80039Z" fill="#D0D0D2"/>
<path fill-rule="evenodd" clip-rule="evenodd" d="M4.40019 8.39961C2.56038 8.39961 1.05428 9.7381 0.829358 11.4517C0.800608 11.6707 0.599738 11.825 0.380703 11.7962C0.161668 11.7675 0.00741155 11.5666 0.036162 11.3476C0.314692 9.22557 2.16923 7.59961 4.40019 7.59961C6.63116 7.59961 8.48569 9.22557 8.76423 11.3476C8.79298 11.5666 8.63872 11.7675 8.41968 11.7962C8.20065 11.825 7.99978 11.6707 7.97103 11.4517C7.74611 9.7381 6.24 8.39961 4.40019 8.39961Z" fill="#D0D0D2"/>
</svg>
