<svg width="30" height="30" viewBox="0 0 30 30" fill="none" xmlns="http://www.w3.org/2000/svg">
<path fill-rule="evenodd" clip-rule="evenodd" d="M4.85868 10.0218C4.66511 10.217 4.40256 10.3267 4.1288 10.3267C3.85505 10.3267 3.5925 10.217 3.39893 10.0218C3.20535 9.8266 3.0966 9.56186 3.0966 9.28582V7.20416H1.0322C0.758444 7.20416 0.4959 7.0945 0.302325 6.8993C0.10875 6.70411 0 6.43937 0 6.16333C0 5.88728 0.10875 5.62254 0.302325 5.42735C0.4959 5.23215 0.758444 5.12249 1.0322 5.12249H3.0966V3.04083C3.0966 2.76479 3.20535 2.50005 3.39893 2.30485C3.5925 2.10966 3.85505 2 4.1288 2C4.40256 2 4.66511 2.10966 4.85868 2.30485C5.05226 2.50005 5.16101 2.76479 5.16101 3.04083V5.12249H7.22541C7.49916 5.12249 7.76171 5.23215 7.95528 5.42735C8.14886 5.62254 8.25761 5.88728 8.25761 6.16333C8.25761 6.43937 8.14886 6.70411 7.95528 6.8993C7.76171 7.0945 7.49916 7.20416 7.22541 7.20416H5.16101V9.28582C5.16101 9.56186 5.05226 9.8266 4.85868 10.0218ZM26.9611 5.10167H10.5388C10.265 5.10167 10.0025 5.21133 9.8089 5.40653C9.61532 5.60172 9.50657 5.86646 9.50657 6.1425C9.50657 6.41855 9.61532 6.68329 9.8089 6.87848C10.0025 7.07368 10.265 7.18334 10.5388 7.18334H26.9611C27.5494 7.18334 27.9933 7.83906 27.9933 8.61968V21.5572L24.5045 17.3939C24.2532 17.0874 23.9378 16.8407 23.5809 16.6715C23.224 16.5024 22.8344 16.415 22.4401 16.4155C22.0465 16.4137 21.6574 16.4995 21.3006 16.6668C20.9437 16.8342 20.6279 17.0789 20.3757 17.3835L16.7113 21.8278L12.9954 17.4147C12.7422 17.1112 12.4262 16.8672 12.0696 16.7C11.713 16.5328 11.3243 16.4463 10.931 16.4467C10.5361 16.4489 10.1464 16.5386 9.78967 16.7094C9.43292 16.8803 9.1178 17.1282 8.86661 17.4355L5.20229 21.9423V13.0848C5.20229 12.8088 5.09354 12.5441 4.89997 12.3489C4.70639 12.1537 4.44385 12.044 4.17009 12.044C3.89634 12.044 3.63379 12.1537 3.44022 12.3489C3.24664 12.5441 3.13789 12.8088 3.13789 13.0848V24.534V24.992C3.16651 25.1931 3.21138 25.3915 3.27208 25.5852V25.7518L3.32369 25.8767C3.3947 26.064 3.48101 26.245 3.58174 26.4179L3.7056 26.6157C3.7988 26.7552 3.90232 26.8874 4.01526 27.0112L4.17009 27.1673C4.33313 27.3227 4.51321 27.4589 4.70684 27.5732H4.7378C5.18689 27.8548 5.7057 28.0027 6.2345 28H26.8785C27.3293 27.9953 27.7732 27.8881 28.1772 27.6862C28.5811 27.4844 28.9346 27.1931 29.2113 26.8342C29.4892 26.4872 29.7026 26.0922 29.8409 25.6685C29.924 25.3836 29.9759 25.0905 29.9958 24.7942V24.4715V8.61968C30.0392 7.75141 29.7474 6.89994 29.1815 6.24399C28.6157 5.58804 27.8199 5.17862 26.9611 5.10167ZM15.6895 14.032C16.8296 14.032 17.7539 13.1 17.7539 11.9503C17.7539 10.8007 16.8296 9.86868 15.6895 9.86868C14.5493 9.86868 13.6251 10.8007 13.6251 11.9503C13.6251 13.1 14.5493 14.032 15.6895 14.032Z" fill="black"/>
</svg>
