<svg width="30" height="30" viewBox="0 0 30 30" fill="none" xmlns="http://www.w3.org/2000/svg">
<path fill-rule="evenodd" clip-rule="evenodd" d="M1 8.20001C1 7.53727 1.53726 7.00001 2.2 7.00001L25.3 7C25.9627 7 26.5 7.53726 26.5 8.2C26.5 8.86274 25.9627 9.4 25.3 9.4L2.2 9.40001C1.53726 9.40001 1 8.86275 1 8.20001Z" fill="black"/>
<path fill-rule="evenodd" clip-rule="evenodd" d="M1 14.8C1 14.1373 1.53726 13.6 2.2 13.6L20.8 13.6C21.4627 13.6 22 14.1373 22 14.8C22 15.4627 21.4627 16 20.8 16L2.2 16C1.53726 16 1 15.4627 1 14.8Z" fill="black"/>
<path fill-rule="evenodd" clip-rule="evenodd" d="M1 21.8C1 21.1373 1.53726 20.6 2.2 20.6L13.8 20.6C14.4627 20.6 15 21.1373 15 21.8C15 22.4627 14.4627 23 13.8 23L2.2 23C1.53726 23 1 22.4628 1 21.8Z" fill="black"/>
<path fill-rule="evenodd" clip-rule="evenodd" d="M23 19C23.5523 19 24 19.4477 24 20L24 28C24 28.5523 23.5523 29 23 29C22.4477 29 22 28.5523 22 28L22 20C22 19.4477 22.4477 19 23 19Z" fill="black"/>
<path fill-rule="evenodd" clip-rule="evenodd" d="M18 24C18 23.4477 18.4477 23 19 23H27C27.5523 23 28 23.4477 28 24C28 24.5523 27.5523 25 27 25H19C18.4477 25 18 24.5523 18 24Z" fill="black"/>
</svg>
