<svg width="12" height="12" viewBox="0 0 12 12" fill="none" xmlns="http://www.w3.org/2000/svg">
<path fill-rule="evenodd" clip-rule="evenodd" d="M0 6.2001C0 5.86873 0.268629 5.6001 0.6 5.6001H11.4C11.7314 5.6001 12 5.86873 12 6.2001C12 6.53147 11.7314 6.8001 11.4 6.8001H0.6C0.268629 6.8001 0 6.53147 0 6.2001Z" fill="#D0D0D2"/>
<path fill-rule="evenodd" clip-rule="evenodd" d="M2.80005 9.3998C2.80005 9.06843 3.06868 8.7998 3.40005 8.7998L8.60005 8.79981C8.93142 8.79981 9.20005 9.06843 9.20005 9.3998C9.20005 9.73117 8.93142 9.9998 8.60005 9.9998L3.40005 9.9998C3.06868 9.9998 2.80005 9.73117 2.80005 9.3998Z" fill="#D0D0D2"/>
<path fill-rule="evenodd" clip-rule="evenodd" d="M2.80005 2.9999C2.80005 2.66853 3.06868 2.3999 3.40005 2.3999L8.60005 2.3999C8.93142 2.3999 9.20005 2.66853 9.20005 2.9999C9.20005 3.33127 8.93142 3.5999 8.60005 3.5999L3.40005 3.5999C3.06868 3.5999 2.80005 3.33127 2.80005 2.9999Z" fill="#D0D0D2"/>
</svg>
