<svg width="30" height="30" viewBox="0 0 30 30" fill="none" xmlns="http://www.w3.org/2000/svg">
<path fill-rule="evenodd" clip-rule="evenodd" d="M1 0.5C1 0.223858 0.776142 0 0.5 0C0.223858 0 0 0.223858 0 0.5V29.5C0 29.7761 0.223856 30 0.499999 30C0.776141 30 0.999999 29.7761 0.999999 29.5L1 0.5ZM4.5 6C3.67157 6 3 6.67157 3 7.5C3 8.32843 3.67157 9 4.5 9H28.5C29.3284 9 30 8.32843 30 7.5C30 6.67157 29.3284 6 28.5 6H4.5ZM4.5 14C3.67157 14 3 14.6716 3 15.5C3 16.3284 3.67157 17 4.5 17H15.5C16.3284 17 17 16.3284 17 15.5C17 14.6716 16.3284 14 15.5 14H4.5ZM3 23.5C3 22.6716 3.67157 22 4.5 22H22.5C23.3284 22 24 22.6716 24 23.5C24 24.3284 23.3284 25 22.5 25H4.5C3.67157 25 3 24.3284 3 23.5Z" fill="black"/>
</svg>
