<svg width="30" height="30" viewBox="0 0 30 30" fill="none" xmlns="http://www.w3.org/2000/svg">
<path fill-rule="evenodd" clip-rule="evenodd" d="M30 0.5C30 0.223858 29.7761 0 29.5 0C29.2239 0 29 0.223858 29 0.5V29.5C29 29.7761 29.2239 30 29.5 30C29.7761 30 30 29.7761 30 29.5V0.5ZM1.5 6C0.671573 6 0 6.67157 0 7.5C0 8.32843 0.671574 9 1.5 9H25.5C26.3284 9 27 8.32843 27 7.5C27 6.67157 26.3284 6 25.5 6H1.5ZM14.5 14C13.6716 14 13 14.6716 13 15.5C13 16.3284 13.6716 17 14.5 17H25.5C26.3284 17 27 16.3284 27 15.5C27 14.6716 26.3284 14 25.5 14H14.5ZM6 23.5C6 22.6716 6.67157 22 7.5 22H25.5C26.3284 22 27 22.6716 27 23.5C27 24.3284 26.3284 25 25.5 25H7.5C6.67157 25 6 24.3284 6 23.5Z" fill="black"/>
</svg>
