<svg width="30" height="30" viewBox="0 0 30 30" fill="none" xmlns="http://www.w3.org/2000/svg">
<g clip-path="url(#clip0)">
<path fill-rule="evenodd" clip-rule="evenodd" d="M20.1386 5.58408L19.2762 4.7217C18.8011 4.24654 18.7982 3.47902 19.2773 2.99998C19.753 2.52427 20.5264 2.52637 20.999 2.99897L27.3177 9.31768C27.7928 9.79284 27.7957 10.5604 27.3167 11.0394C26.8409 11.5151 26.0676 11.513 25.595 11.0404L24.7326 10.178L19.9008 15.0098C19.9008 15.0098 22.0089 20.9411 18.178 24.772L17.0295 25.9205L11.2871 20.178L5.31154 26.1536C4.99178 26.4734 4.47767 26.4777 4.15832 26.1583C3.84117 25.8412 3.84037 25.3278 4.16305 25.0051L10.1386 19.0295L4.39618 13.2871L5.54467 12.1386C9.35884 8.32445 15.3068 10.4159 15.3068 10.4159L20.1386 5.58408ZM15.7324 12.2872C15.7324 12.2872 9.85149 10.1288 6.69315 13.2871L17.0295 23.6235C20.475 20.178 18.0267 14.5869 18.0267 14.5869L23.5841 9.02954L21.2871 6.73257L15.7324 12.2872Z" fill="black"/>
</g>
<defs>
<clipPath id="clip0">
<rect width="30" height="30" fill="white"/>
</clipPath>
</defs>
</svg>
