<svg width="30" height="30" viewBox="0 0 30 30" fill="none" xmlns="http://www.w3.org/2000/svg">
<path fill-rule="evenodd" clip-rule="evenodd" d="M19.2434 10.757C19.6339 11.1475 19.6339 11.7807 19.2434 12.1712L12.1723 19.2423C11.7818 19.6328 11.1486 19.6328 10.7581 19.2423C10.3675 18.8518 10.3675 18.2186 10.7581 17.8281L17.8291 10.757C18.2197 10.3665 18.8528 10.3665 19.2434 10.757Z" fill="black"/>
<path fill-rule="evenodd" clip-rule="evenodd" d="M15.741 5.13437C18.2794 2.59596 22.3949 2.59596 24.9334 5.13437C27.4718 7.67278 27.4718 11.7884 24.9334 14.3268L21.7453 17.5148C21.3548 17.9054 20.7216 17.9054 20.3311 17.5148C19.9405 17.1243 19.9405 16.4911 20.3311 16.1006L23.5191 12.9125C25.2765 11.1552 25.2765 8.30594 23.5191 6.54859C21.7618 4.79123 18.9125 4.79123 17.1552 6.54858L14.1595 9.54426C13.769 9.93479 13.1358 9.93479 12.7453 9.54426C12.3548 9.15374 12.3548 8.52057 12.7453 8.13005L15.741 5.13437ZM17.5148 20.3311C17.9054 20.7216 17.9054 21.3548 17.5148 21.7453L14.3268 24.9334C11.7883 27.4718 7.67277 27.4718 5.13436 24.9334C2.59595 22.395 2.59596 18.2794 5.13436 15.741L8.13005 12.7453C8.52058 12.3548 9.15374 12.3548 9.54426 12.7453C9.93479 13.1358 9.93479 13.769 9.54426 14.1595L6.54858 17.1552C4.79122 18.9125 4.79122 21.7618 6.54858 23.5191C8.30594 25.2765 11.1552 25.2765 12.9125 23.5191L16.1006 20.3311C16.4911 19.9405 17.1243 19.9405 17.5148 20.3311Z" fill="black"/>
</svg>
