<svg width="30" height="30" viewBox="0 0 30 30" fill="none" xmlns="http://www.w3.org/2000/svg">
<path fill-rule="evenodd" clip-rule="evenodd" d="M6.5 12.5V20.5H10.5V12.5H6.5ZM6 11C5.44772 11 5 11.4477 5 12V21C5 21.5523 5.44772 22 6 22H11C11.5523 22 12 21.5523 12 21V12C12 11.4477 11.5523 11 11 11H6Z" fill="black"/>
<path fill-rule="evenodd" clip-rule="evenodd" d="M12.5 2.5V10.5H16.5V2.5H12.5ZM12 1C11.4477 1 11 1.44771 11 2V11C11 11.5523 11.4477 12 12 12H17C17.5523 12 18 11.5523 18 11V2C18 1.44772 17.5523 1 17 1H12Z" fill="black"/>
<path d="M17 12C17 11.4477 17.4477 11 18 11H23C23.5523 11 24 11.4477 24 12V27C24 27.5523 23.5523 28 23 28H18C17.4477 28 17 27.5523 17 27V12Z" fill="black"/>
</svg>
