<svg width="30" height="30" viewBox="0 0 30 30" fill="none" xmlns="http://www.w3.org/2000/svg">
<path fill-rule="evenodd" clip-rule="evenodd" d="M3.5 20.5V27.5H6.5V20.5H3.5ZM3 19C2.44772 19 2 19.4477 2 20V28C2 28.5523 2.44772 29 3 29H7C7.55228 29 8 28.5523 8 28V20C8 19.4477 7.55228 19 7 19H3Z" fill="black"/>
<path fill-rule="evenodd" clip-rule="evenodd" d="M8.5 11.5V18.5H11.5V11.5H8.5ZM8 10C7.44772 10 7 10.4477 7 11V19C7 19.5523 7.44772 20 8 20H12C12.5523 20 13 19.5523 13 19V11C13 10.4477 12.5523 10 12 10H8Z" fill="black"/>
<path fill-rule="evenodd" clip-rule="evenodd" d="M13.5 2.5V9.5H16.5V2.5H13.5ZM13 1C12.4477 1 12 1.44772 12 2V10C12 10.5523 12.4477 11 13 11H17C17.5523 11 18 10.5523 18 10V2C18 1.44772 17.5523 1 17 1H13Z" fill="black"/>
<path d="M17 11C17 10.4477 17.4477 10 18 10H22C22.5523 10 23 10.4477 23 11V19C23 19.5523 22.5523 20 22 20H18C17.4477 20 17 19.5523 17 19V11Z" fill="black"/>
<path d="M22 20C22 19.4477 22.4477 19 23 19H27C27.5523 19 28 19.4477 28 20V28C28 28.5523 27.5523 29 27 29H23C22.4477 29 22 28.5523 22 28V20Z" fill="black"/>
</svg>
