<svg width="30" height="30" viewBox="0 0 30 30" fill="none" xmlns="http://www.w3.org/2000/svg">
<path fill-rule="evenodd" clip-rule="evenodd" d="M22.7894 0.75C23.4798 0.75 24.0394 1.30964 24.0394 2V20.0403H27C27.6903 20.0403 28.25 20.6 28.25 21.2903C28.25 21.9807 27.6903 22.5403 27 22.5403H24.0394V28C24.0394 28.6904 23.4798 29.25 22.7894 29.25C22.0991 29.25 21.5394 28.6904 21.5394 28V8.70161H18.5789C17.8886 8.70161 17.3289 8.14197 17.3289 7.45161C17.3289 6.76126 17.8886 6.20161 18.5789 6.20161H21.5394V2C21.5394 1.30964 22.0991 0.75 22.7894 0.75Z" fill="#C93B3B"/>
<path d="M7.21053 0.75C7.90088 0.75 8.46053 1.30964 8.46053 2V9.55645H11.8421C12.5325 9.55645 13.0921 10.1161 13.0921 10.8065C13.0921 11.4968 12.5325 12.0565 11.8421 12.0565H8.46053V28C8.46053 28.6904 7.90088 29.25 7.21053 29.25C6.52017 29.25 5.96053 28.6904 5.96053 28V23.7984H3C2.30964 23.7984 1.75 23.2387 1.75 22.5484C1.75 21.858 2.30964 21.2984 3 21.2984H5.96053V2C5.96053 1.30964 6.52017 0.75 7.21053 0.75Z" fill="#4895F5"/>
</svg>
