<svg width="30" height="30" viewBox="0 0 30 30" fill="none" xmlns="http://www.w3.org/2000/svg">
<path fill-rule="evenodd" clip-rule="evenodd" d="M19.3568 11.9987C18.2856 13.1 17.1787 14.9081 15.8573 17.1089C15.1437 18.2976 14.3417 19.0756 13.4091 19.4252C12.4575 19.7818 11.5553 19.6238 10.802 19.3303C10.1425 19.0734 9.50964 18.6755 8.99184 18.3499C8.93971 18.3171 8.88874 18.285 8.83904 18.2539C8.23311 17.8749 7.8229 17.6444 7.49463 17.5685C7.29592 17.5225 6.98246 17.5292 6.54172 17.6414C6.11198 17.7509 5.63081 17.9427 5.13426 18.1883C4.13969 18.6801 3.18502 19.3365 2.6214 19.7835C2.18869 20.1267 1.5597 20.0541 1.21651 19.6214C0.873319 19.1887 0.945888 18.5597 1.3786 18.2165C2.02831 17.7012 3.10165 16.9622 4.24774 16.3955C4.82153 16.1118 5.43886 15.8585 6.04803 15.7033C6.64621 15.551 7.31209 15.4734 7.94538 15.6199C8.65711 15.7846 9.35189 16.2157 9.89972 16.5584C9.94347 16.5857 9.98669 16.6128 10.0294 16.6396C10.583 16.9866 11.0554 17.2826 11.528 17.4668C12.0097 17.6544 12.375 17.6769 12.7072 17.5524C13.0583 17.4208 13.5563 17.056 14.1427 16.0795C15.4213 13.9498 16.6544 11.9086 17.9232 10.6042C18.5649 9.94445 19.2916 9.39047 20.1238 9.14073C21.0008 8.87755 21.8959 8.98211 22.7654 9.46481C23.6775 9.97118 24.1844 10.758 24.5205 11.486C24.6873 11.8476 24.8222 12.2178 24.9401 12.5473C24.9535 12.5848 24.9666 12.6217 24.9796 12.658C25.0852 12.9542 25.1772 13.212 25.28 13.4534C25.5138 14.0021 25.7228 14.2594 25.963 14.3858C26.1962 14.5084 26.6818 14.6214 27.7321 14.3293C28.2642 14.1814 28.8155 14.4928 28.9634 15.0248C29.1114 15.5569 28.8 16.1082 28.2679 16.2562C26.9782 16.6149 25.9038 16.6144 25.032 16.1558C24.1672 15.701 23.7262 14.9091 23.44 14.2372C23.3119 13.9364 23.1986 13.6184 23.0959 13.3302C23.0827 13.2931 23.0697 13.2566 23.0568 13.2206C22.939 12.8911 22.8302 12.5964 22.7045 12.3242C22.4556 11.7847 22.1825 11.4288 21.7946 11.2134C21.3641 10.9744 21.0242 10.9586 20.6987 11.0563C20.3284 11.1675 19.8851 11.4555 19.3568 11.9987Z" fill="black"/>
</svg>
