<svg width="30" height="30" viewBox="0 0 30 30" fill="none" xmlns="http://www.w3.org/2000/svg">
<path d="M11 21C11 20.4477 11.4477 20 12 20H18C18.5523 20 19 20.4477 19 21V24C19 24.5523 18.5523 25 18 25H12C11.4477 25 11 24.5523 11 24V21Z" fill="black"/>
<path d="M20 4C20 3.44772 20.4477 3 21 3H27C27.5523 3 28 3.44772 28 4V20C28 20.5523 27.5523 21 27 21H21C20.4477 21 20 20.5523 20 20V4Z" fill="black"/>
<path d="M2 25C2 24.4477 2.44772 24 3 24H9C9.55228 24 10 24.4477 10 25V26C10 26.5523 9.55228 27 9 27H3C2.44772 27 2 26.5523 2 26V25Z" fill="black"/>
</svg>
