<svg width="30" height="30" viewBox="0 0 30 30" fill="none" xmlns="http://www.w3.org/2000/svg">
<path d="M17.5 3H19V1C19 0.447715 19.4477 0 20 0C20.5523 0 21 0.447715 21 1V3H22.5C23.0523 3 23.5 3.44772 23.5 4L23.5 15.5C23.5 16.0523 23.0523 16.5 22.5 16.5H21V18.5C21 19.0523 20.5523 19.5 20 19.5C19.4477 19.5 19 19.0523 19 18.5V16.5H17.5C16.9477 16.5 16.5 16.0523 16.5 15.5L16.5 4C16.5 3.44772 16.9477 3 17.5 3Z" fill="black"/>
<path d="M8 13H9.5V11C9.5 10.4477 9.94772 10 10.5 10C11.0523 10 11.5 10.4477 11.5 11V13H13C13.5523 13 14 13.4477 14 14L14 25.5C14 26.0523 13.5523 26.5 13 26.5H11.5V28.5C11.5 29.0523 11.0523 29.5 10.5 29.5C9.94772 29.5 9.5 29.0523 9.5 28.5V26.5H8C7.44772 26.5 7 26.0523 7 25.5L7 14C7 13.4477 7.44772 13 8 13Z" fill="black"/>
</svg>
