<svg width="30" height="30" viewBox="0 0 30 30" fill="none" xmlns="http://www.w3.org/2000/svg">
<path d="M18.5 3H20V1C20 0.447715 20.4477 0 21 0C21.5523 0 22 0.447715 22 1V3H23.5C24.0523 3 24.5 3.44772 24.5 4V26C24.5 26.5523 24.0523 27 23.5 27H22V29C22 29.5523 21.5523 30 21 30C20.4477 30 20 29.5523 20 29V27H18.5C17.9477 27 17.5 26.5523 17.5 26V4C17.5 3.44772 17.9477 3 18.5 3Z" fill="black"/>
<path fill-rule="evenodd" clip-rule="evenodd" d="M8 8.5V21.5H11V8.5H8ZM7 23.5H8.5V25.5C8.5 26.0523 8.94772 26.5 9.5 26.5C10.0523 26.5 10.5 26.0523 10.5 25.5V23.5H12C12.5523 23.5 13 23.0523 13 22.5V7.5C13 6.94772 12.5523 6.5 12 6.5H10.5V4.5C10.5 3.94772 10.0523 3.5 9.5 3.5C8.94772 3.5 8.5 3.94772 8.5 4.5V6.5H7C6.44772 6.5 6 6.94772 6 7.5V22.5C6 23.0523 6.44772 23.5 7 23.5Z" fill="black"/>
</svg>
