<svg width="30" height="30" viewBox="0 0 30 30" fill="none" xmlns="http://www.w3.org/2000/svg">
<path d="M11 21C11 20.4477 11.4477 20 12 20H18C18.5523 20 19 20.4477 19 21V24C19 24.5523 18.5523 25 18 25H12C11.4477 25 11 24.5523 11 24V21Z" fill="black"/>
<path d="M2 25C2 24.4477 2.44772 24 3 24H9C9.55228 24 10 24.4477 10 25V26C10 26.5523 9.55228 27 9 27H3C2.44772 27 2 26.5523 2 26V25Z" fill="black"/>
<path d="M20 3.5H21.5V1.5C21.5 0.947715 21.9477 0.5 22.5 0.5C23.0523 0.5 23.5 0.947715 23.5 1.5V3.5H25C25.5523 3.5 26 3.94772 26 4.5L26 19.5C26 20.0523 25.5523 20.5 25 20.5H23.5V22.5C23.5 23.0523 23.0523 23.5 22.5 23.5C21.9477 23.5 21.5 23.0523 21.5 22.5V20.5H20C19.4477 20.5 19 20.0523 19 19.5L19 4.5C19 3.94772 19.4477 3.5 20 3.5Z" fill="black"/>
</svg>
