<svg width="30" height="30" viewBox="0 0 30 30" fill="none" xmlns="http://www.w3.org/2000/svg">
<path fill-rule="evenodd" clip-rule="evenodd" d="M20.5652 7C20.5652 5.34315 21.9084 4 23.5652 4H25C26.6569 4 28 5.34315 28 7V25C28 25.5523 27.5523 26 27 26C26.4477 26 26 25.5523 26 25V7C26 6.44772 25.5523 6 25 6H23.5652C23.0129 6 22.5652 6.44772 22.5652 7V16.5C22.5652 18.1569 21.2221 19.5 19.5652 19.5H18.1304C16.4736 19.5 15.1304 18.1569 15.1304 16.5V12.5C15.1304 11.9477 14.6827 11.5 14.1304 11.5H13.7826C13.2303 11.5 12.7826 11.9477 12.7826 12.5V23.5C12.7826 25.1569 11.4395 26.5 9.78261 26.5H7.26087C5.60402 26.5 4.26087 25.1569 4.26087 23.5V22.5C4.26087 21.9477 3.81315 21.5 3.26087 21.5H3C2.44772 21.5 2 21.0523 2 20.5C2 19.9477 2.44772 19.5 3 19.5H4.26087C5.36544 19.5 6.26087 20.3954 6.26087 21.5V23.5C6.26087 24.0523 6.70858 24.5 7.26087 24.5H9.78261C10.3349 24.5 10.7826 24.0523 10.7826 23.5V12.5C10.7826 10.8431 12.1258 9.5 13.7826 9.5H14.1304C15.7873 9.5 17.1304 10.8431 17.1304 12.5V16.5C17.1304 17.0523 17.5781 17.5 18.1304 17.5H19.5652C20.1175 17.5 20.5652 17.0523 20.5652 16.5V7Z" fill="black"/>
</svg>
