<svg width="30" height="30" viewBox="0 0 30 30" fill="none" xmlns="http://www.w3.org/2000/svg">
<g clip-path="url(#clip0)">
<path fill-rule="evenodd" clip-rule="evenodd" d="M3.63392 21.1753C3.41047 20.9518 3.0482 20.9518 2.82475 21.1753C2.6013 21.3987 2.6013 21.761 2.82475 21.9844L4.84032 24L2.82475 26.0156C2.6013 26.239 2.6013 26.6013 2.82475 26.8247C3.0482 27.0482 3.41048 27.0482 3.63392 26.8247L5.6495 24.8092L7.67243 26.8321C7.89588 27.0556 8.25816 27.0556 8.4816 26.8321C8.70505 26.6087 8.70505 26.2464 8.4816 26.0229L6.45867 24L8.4816 21.9771C8.70505 21.7536 8.70505 21.3913 8.4816 21.1679C8.25816 20.9444 7.89588 20.9444 7.67243 21.1679L5.6495 23.1908L3.63392 21.1753Z" fill="black"/>
<path fill-rule="evenodd" clip-rule="evenodd" d="M3.63392 13.1753C3.41047 12.9518 3.0482 12.9518 2.82475 13.1753C2.6013 13.3987 2.6013 13.761 2.82475 13.9844L4.84032 16L2.82475 18.0156C2.6013 18.239 2.6013 18.6013 2.82475 18.8247C3.0482 19.0482 3.41048 19.0482 3.63392 18.8247L5.6495 16.8092L7.67243 18.8321C7.89588 19.0556 8.25816 19.0556 8.4816 18.8321C8.70505 18.6087 8.70505 18.2464 8.4816 18.0229L6.45867 16L8.4816 13.9771C8.70505 13.7536 8.70505 13.3913 8.4816 13.1679C8.25816 12.9444 7.89588 12.9444 7.67243 13.1679L5.6495 15.1908L3.63392 13.1753Z" fill="black"/>
<path fill-rule="evenodd" clip-rule="evenodd" d="M23.2908 13.1753C23.0673 12.9518 22.705 12.9518 22.4816 13.1753C22.2581 13.3987 22.2581 13.761 22.4816 13.9844L24.4972 16L22.4816 18.0156C22.2582 18.239 22.2582 18.6013 22.4816 18.8247C22.705 19.0482 23.0673 19.0482 23.2908 18.8247L25.3063 16.8092L27.3293 18.8321C27.5527 19.0556 27.915 19.0556 28.1385 18.8321C28.3619 18.6087 28.3619 18.2464 28.1385 18.0229L26.1155 16L28.1385 13.9771C28.3619 13.7536 28.3619 13.3913 28.1385 13.1679C27.915 12.9444 27.5527 12.9444 27.3293 13.1679L25.3063 15.1908L23.2908 13.1753Z" fill="black"/>
<path fill-rule="evenodd" clip-rule="evenodd" d="M3.63392 4.83211C3.41047 4.60867 3.0482 4.60867 2.82475 4.83211C2.6013 5.05556 2.6013 5.41784 2.82475 5.64129L4.84032 7.65686L2.82475 9.67243C2.6013 9.89588 2.6013 10.2582 2.82475 10.4816C3.0482 10.7051 3.41048 10.7051 3.63392 10.4816L5.6495 8.46603L7.67243 10.489C7.89588 10.7124 8.25816 10.7124 8.4816 10.489C8.70505 10.2655 8.70505 9.90324 8.4816 9.67979L6.45867 7.65686L8.4816 5.63393C8.70505 5.41048 8.70505 5.0482 8.4816 4.82476C8.25816 4.60131 7.89588 4.60131 7.67243 4.82476L5.6495 6.84769L3.63392 4.83211Z" fill="black"/>
<path fill-rule="evenodd" clip-rule="evenodd" d="M23.2908 4.83211C23.0673 4.60867 22.705 4.60867 22.4816 4.83211C22.2581 5.05556 22.2581 5.41784 22.4816 5.64129L24.4972 7.65686L22.4816 9.67243C22.2582 9.89588 22.2582 10.2582 22.4816 10.4816C22.705 10.7051 23.0673 10.7051 23.2908 10.4816L25.3063 8.46603L27.3293 10.489C27.5527 10.7124 27.915 10.7124 28.1385 10.489C28.3619 10.2655 28.3619 9.90324 28.1385 9.67979L26.1155 7.65686L28.1385 5.63393C28.3619 5.41048 28.3619 5.0482 28.1385 4.82476C27.915 4.60131 27.5527 4.60131 27.3293 4.82476L25.3063 6.84769L23.2908 4.83211Z" fill="black"/>
<path fill-rule="evenodd" clip-rule="evenodd" d="M15.6569 17.9C16.7062 17.9 17.5569 17.0493 17.5569 16C17.5569 14.9507 16.7062 14.1 15.6569 14.1C14.6075 14.1 13.7569 14.9507 13.7569 16C13.7569 17.0493 14.6075 17.9 15.6569 17.9ZM15.6569 19C17.3137 19 18.6569 17.6569 18.6569 16C18.6569 14.3431 17.3137 13 15.6569 13C14 13 12.6569 14.3431 12.6569 16C12.6569 17.6569 14 19 15.6569 19Z" fill="black"/>
<path fill-rule="evenodd" clip-rule="evenodd" d="M15.6569 25.9C16.7062 25.9 17.5569 25.0493 17.5569 24C17.5569 22.9507 16.7062 22.1 15.6569 22.1C14.6075 22.1 13.7569 22.9507 13.7569 24C13.7569 25.0493 14.6075 25.9 15.6569 25.9ZM15.6569 27C17.3137 27 18.6569 25.6569 18.6569 24C18.6569 22.3431 17.3137 21 15.6569 21C14 21 12.6569 22.3431 12.6569 24C12.6569 25.6569 14 27 15.6569 27Z" fill="black"/>
</g>
<defs>
<clipPath id="clip0">
<rect width="30" height="30" fill="white"/>
</clipPath>
</defs>
</svg>
