<svg width="10" height="10" viewBox="0 0 10 10" fill="none" xmlns="http://www.w3.org/2000/svg">
<path fill-rule="evenodd" clip-rule="evenodd" d="M3.69993 1.29032V2.15054C3.69993 2.18766 3.6952 2.22369 3.68629 2.25806H6.31358C6.30467 2.22369 6.29993 2.18766 6.29993 2.15054V1.29032C6.29993 1.05278 6.10592 0.860216 5.8666 0.860216H4.13327C3.89394 0.860216 3.69993 1.05278 3.69993 1.29032ZM7.15295 2.25806C7.16186 2.22369 7.1666 2.18766 7.1666 2.15054V1.29032C7.1666 0.577698 6.58457 0 5.8666 0H4.13327C3.4153 0 2.83327 0.577698 2.83327 1.29032V2.15054C2.83327 2.18766 2.83801 2.22369 2.84692 2.25806H1.09996C0.860636 2.25806 0.666626 2.45062 0.666626 2.68816C0.666626 2.92571 0.860636 3.11827 1.09996 3.11827H1.53331V8.70968C1.53331 9.4223 2.11534 10 2.83331 10H7.16664C7.88461 10 8.46664 9.4223 8.46664 8.70968V3.11827H8.89996C9.13928 3.11827 9.33329 2.92571 9.33329 2.68816C9.33329 2.45062 9.13928 2.25806 8.89996 2.25806H7.15295ZM2.39997 8.70968V3.11827H7.59997V8.70968C7.59997 8.94722 7.40596 9.13978 7.16664 9.13978H2.83331C2.59398 9.13978 2.39997 8.94722 2.39997 8.70968Z" fill="#A1A2A5"/>
</svg>
