<svg width="30" height="30" viewBox="0 0 30 30" fill="none" xmlns="http://www.w3.org/2000/svg">
<path d="M2.30946 18.604C1.79625 19.1172 0.898123 19.1172 0.38491 18.604C-0.128303 18.0908 -0.128303 17.1926 0.38491 16.6794L11.2907 5.90195C11.8039 5.38874 12.702 5.38874 13.2152 5.90195L17.7058 10.3926L25.2757 2.69437H23.0946C22.4531 2.69437 21.8115 2.05285 21.8115 1.41134C21.8115 0.641516 22.4531 0 23.0946 0H28.6116C29.3814 0 29.8947 0.641516 29.8947 1.41134V6.80007C29.8947 7.56989 29.3814 8.21141 28.6116 8.21141C27.8418 8.21141 27.2003 7.56989 27.2003 6.80007V4.61892L18.604 13.2152C18.0908 13.7284 17.1926 13.7284 16.6794 13.2152L12.1888 8.72462L2.30946 18.604Z" fill="black"/>
<path d="M2.05304 22.0683C2.05304 21.2984 2.56625 20.6569 3.33607 20.6569C4.10589 20.6569 4.74741 21.2984 4.74741 22.0683V27.9702C4.74741 28.74 4.10589 29.3815 3.33607 29.3815C2.56625 29.3815 2.05304 28.74 2.05304 27.9702V22.0683Z" fill="black"/>
<path d="M9.75122 15.1399C9.75122 14.4984 10.2644 13.8568 11.0343 13.8568C11.8041 13.8568 12.4456 14.4984 12.4456 15.1399V27.9702C12.4456 28.74 11.8041 29.3815 11.0343 29.3815C10.2644 29.3815 9.75122 28.74 9.75122 27.9702V15.1399Z" fill="black"/>
<path d="M17.4493 17.3209C17.4493 16.5511 18.0908 16.0378 18.8606 16.0378C19.5021 16.0378 20.1436 16.5511 20.1436 17.3209V27.97C20.1436 28.7399 19.5021 29.3814 18.8606 29.3814C18.0908 29.3814 17.4493 28.7399 17.4493 27.97V17.3209Z" fill="black"/>
<path d="M25.1473 10.9057C25.1473 10.2642 25.7889 9.6227 26.5587 9.6227C27.3285 9.6227 27.8417 10.2642 27.8417 10.9057V27.9701C27.8417 28.7399 27.3285 29.3814 26.5587 29.3814C25.7889 29.3814 25.1473 28.7399 25.1473 27.9701V10.9057Z" fill="black"/>
</svg>
