<svg width="30" height="30" viewBox="0 0 30 30" fill="none" xmlns="http://www.w3.org/2000/svg">
<path d="M18.1852 18.0564C18.1852 17.452 18.6661 16.9621 19.2593 16.9621H28.9259C29.5191 16.9621 30 17.452 30 18.0564V27.9056C30 28.51 29.5191 29 28.9259 29H19.2593C18.6661 29 18.1852 28.51 18.1852 27.9056V18.0564Z" fill="black"/>
<path d="M13.5743 7.19063C13.1548 6.76326 13.1548 6.07035 13.5743 5.64297L17.8166 1.32053C18.2361 0.893157 18.9161 0.893157 19.3356 1.32053L23.5779 5.64297C23.9974 6.07035 23.9974 6.76326 23.5779 7.19063L19.3356 11.5131C18.9161 11.9404 18.2361 11.9404 17.8166 11.5131L13.5743 7.19063Z" fill="black"/>
<path d="M9.66667 14.2262C9.66667 16.946 7.50271 19.1508 4.83333 19.1508C2.16396 19.1508 0 16.946 0 14.2262C0 11.5064 2.16396 9.30156 4.83333 9.30156C7.50271 9.30156 9.66667 11.5064 9.66667 14.2262Z" fill="black"/>
</svg>
