<svg width="12" height="12" viewBox="0 0 12 12" fill="none" xmlns="http://www.w3.org/2000/svg">
<rect width="12" height="12" fill="#24262C"/>
<path fill-rule="evenodd" clip-rule="evenodd" d="M1.2 0C0.537258 0 0 0.537259 0 1.2V10.8C0 11.4627 0.537259 12 1.2 12H10.8C11.4627 12 12 11.4627 12 10.8V1.2C12 0.537258 11.4627 0 10.8 0H1.2ZM0.8 1.2C0.8 0.979086 0.979086 0.8 1.2 0.8H8.4V2.8H5.59821C5.578 2.57574 5.38952 2.4 5.16 2.4H3.24C2.99699 2.4 2.8 2.59699 2.8 2.84V3.56C2.8 3.803 2.99699 4 3.24 4H5.16C5.38952 4 5.578 3.82426 5.59821 3.6H8.4V5.6H5.59821C5.578 5.37574 5.38952 5.2 5.16 5.2H3.24C2.99699 5.2 2.8 5.397 2.8 5.64V6.36C2.8 6.603 2.99699 6.8 3.24 6.8H5.16C5.38952 6.8 5.578 6.62426 5.59821 6.4H8.4V11.2H1.2C0.979086 11.2 0.8 11.0209 0.8 10.8V1.2Z" fill="#4895F5"/>
</svg>
