<svg width="12" height="12" viewBox="0 0 12 12" fill="none" xmlns="http://www.w3.org/2000/svg">
<path fill-rule="evenodd" clip-rule="evenodd" d="M0.8 6C0.8 3.12812 3.12812 0.8 6 0.8C8.87188 0.8 11.2 3.12812 11.2 6C11.2 8.87188 8.87188 11.2 6 11.2C3.12812 11.2 0.8 8.87188 0.8 6ZM6 0C2.68629 0 0 2.68629 0 6C0 9.31371 2.68629 12 6 12C9.31371 12 12 9.31371 12 6C12 2.68629 9.31371 0 6 0ZM6.4 2.8C6.4 2.57909 6.22091 2.4 6 2.4C5.77909 2.4 5.6 2.57909 5.6 2.8V6V6.4H6H9.2C9.42091 6.4 9.6 6.22091 9.6 6C9.6 5.77909 9.42091 5.6 9.2 5.6H6.4V2.8Z" fill="#A1A2A5"/>
</svg>
