<svg width="10" height="10" viewBox="0 0 10 10" fill="none" xmlns="http://www.w3.org/2000/svg">
<g clip-path="url(#clip0)">
<path fill-rule="evenodd" clip-rule="evenodd" d="M0.78458 8.25678C0.598677 8.44269 0.598677 8.74409 0.78458 8.93C0.970483 9.1159 1.27189 9.1159 1.45779 8.93L4.99999 5.3878L8.5422 8.93001C8.7281 9.11591 9.02951 9.11591 9.21541 8.93C9.40132 8.7441 9.40132 8.44269 9.21541 8.25679L5.67321 4.71458L8.93004 1.45775C9.11594 1.27184 9.11594 0.970436 8.93004 0.784534C8.74414 0.598631 8.44273 0.598631 8.25683 0.784534L4.99999 4.04137L1.74316 0.784542C1.55726 0.598639 1.25585 0.59864 1.06995 0.784542C0.884047 0.970445 0.884047 1.27185 1.06995 1.45776L4.32678 4.71458L0.78458 8.25678Z" fill="white"/>
</g>
<defs>
<clipPath id="clip0">
<path d="M0.63623 1.63623C0.63623 1.08395 1.08395 0.63623 1.63623 0.63623H8.3635C8.91579 0.63623 9.3635 1.08395 9.3635 1.63623V8.3635C9.3635 8.91579 8.91579 9.3635 8.3635 9.3635H1.63623C1.08395 9.3635 0.63623 8.91579 0.63623 8.3635V1.63623Z" fill="white"/>
</clipPath>
</defs>
</svg>
