<svg width="30" height="30" viewBox="0 0 30 30" fill="none" xmlns="http://www.w3.org/2000/svg">
<g clip-path="url(#clip0)">
<path fill-rule="evenodd" clip-rule="evenodd" d="M3.0971 24.1962C2.57218 24.7211 2.57218 25.5722 3.09711 26.0971C3.62203 26.622 4.4731 26.622 4.99803 26.0971L15 16.0952L25.002 26.0971C25.5269 26.6221 26.378 26.6221 26.9029 26.0971C27.4278 25.5722 27.4278 24.7211 26.9029 24.1962L16.9009 14.1942L26.0971 4.99802C26.622 4.4731 26.622 3.62202 26.0971 3.0971C25.5722 2.57217 24.7211 2.57217 24.1962 3.0971L15 12.2933L5.80382 3.09712C5.27889 2.5722 4.42782 2.5722 3.90289 3.09712C3.37796 3.62205 3.37796 4.47312 3.90289 4.99805L13.0991 14.1942L3.0971 24.1962Z" fill="black"/>
</g>
<defs>
<clipPath id="clip0">
</clipPath>
</defs>
</svg>
