<svg width="30" height="30" viewBox="0 0 30 30" fill="none" xmlns="http://www.w3.org/2000/svg">
<path fill-rule="evenodd" clip-rule="evenodd" d="M5.48106 2.22808C5.48106 1.19167 6.32033 0.350006 7.35747 0.350006C8.39461 0.350006 9.23389 1.19167 9.23389 2.22808V9.00196H11.9017C12.9388 9.00196 13.7781 9.84363 13.7781 10.88C13.7781 11.9164 12.9388 12.7581 11.9017 12.7581H9.23389V27.7719C9.23389 28.8083 8.39462 29.65 7.35747 29.65C6.32033 29.65 5.48106 28.8083 5.48106 27.7719V24.294H3.22639C2.18925 24.294 1.34998 23.4524 1.34998 22.416C1.34998 21.3796 2.18925 20.5379 3.22639 20.5379H5.48106V2.22808ZM7.35747 1.65001C7.03995 1.65001 6.78106 1.90799 6.78106 2.22808V21.8379H3.22639C2.90887 21.8379 2.64998 22.0959 2.64998 22.416C2.64998 22.7361 2.90887 22.994 3.22639 22.994H6.78106V27.7719C6.78106 28.092 7.03995 28.35 7.35747 28.35C7.67499 28.35 7.93389 28.092 7.93389 27.7719V11.4581H11.9017C12.2192 11.4581 12.4781 11.2001 12.4781 10.88C12.4781 10.5599 12.2192 10.302 11.9017 10.302H7.93389V2.22808C7.93389 1.90799 7.67499 1.65001 7.35747 1.65001ZM20.7661 2.22808C20.7661 1.19167 21.6053 0.350006 22.6425 0.350006C23.6796 0.350006 24.5189 1.19167 24.5189 2.22808V19.3019H26.7736C27.8107 19.3019 28.65 20.1436 28.65 21.18C28.65 22.2164 27.8107 23.058 26.7736 23.058H24.5189V27.7719C24.5189 28.8083 23.6796 29.65 22.6425 29.65C21.6053 29.65 20.7661 28.8083 20.7661 27.7719V9.46212H18.5114C17.4743 9.46212 16.635 8.62045 16.635 7.58405C16.635 6.54764 17.4743 5.70598 18.5114 5.70598H20.7661V2.22808ZM22.6425 1.65001C22.325 1.65001 22.0661 1.90799 22.0661 2.22808V7.00598H18.5114C18.1939 7.00598 17.935 7.26396 17.935 7.58405C17.935 7.90413 18.1939 8.16212 18.5114 8.16212H22.0661V27.7719C22.0661 28.092 22.325 28.35 22.6425 28.35C22.96 28.35 23.2189 28.092 23.2189 27.7719V21.758H26.7736C27.0911 21.758 27.35 21.5001 27.35 21.18C27.35 20.8599 27.0911 20.6019 26.7736 20.6019H23.2189V2.22808C23.2189 1.90799 22.96 1.65001 22.6425 1.65001Z" fill="black"/>
</svg>
