<svg width="14" height="14" viewBox="0 0 14 14" fill="none" xmlns="http://www.w3.org/2000/svg">
<path fill-rule="evenodd" clip-rule="evenodd" d="M0 0.466667C0 0.208934 0.208934 0 0.466667 0H7.93333C8.19107 0 8.4 0.208934 8.4 0.466667V2.33333C8.4 2.59107 8.19107 2.8 7.93333 2.8H0.466667C0.208934 2.8 0 2.59107 0 2.33333C0 2.0756 0.208934 1.86667 0.466667 1.86667H7.46667V0.933333H0.466667C0.208934 0.933333 0 0.7244 0 0.466667Z" fill="white"/>
<path fill-rule="evenodd" clip-rule="evenodd" d="M0 7.93151C0 7.67378 0.208934 7.46484 0.466667 7.46484H10.7333C10.9911 7.46484 11.2 7.67378 11.2 7.93151V9.79818C11.2 10.0559 10.9911 10.2648 10.7333 10.2648H0.466667C0.208934 10.2648 0 10.0559 0 9.79818C0 9.54044 0.208934 9.33151 0.466667 9.33151H10.2667V8.39818H0.466667C0.208934 8.39818 0 8.18924 0 7.93151Z" fill="white"/>
<path fill-rule="evenodd" clip-rule="evenodd" d="M0 11.6659C0 11.4082 0.208934 11.1992 0.466667 11.1992H5.6C5.85773 11.1992 6.06667 11.4082 6.06667 11.6659V13.5326C6.06667 13.7903 5.85773 13.9992 5.6 13.9992H0.466667C0.208934 13.9992 0 13.7903 0 13.5326C0 13.2748 0.208934 13.0659 0.466667 13.0659H5.13333V12.1326H0.466667C0.208934 12.1326 0 11.9236 0 11.6659Z" fill="white"/>
<path fill-rule="evenodd" clip-rule="evenodd" d="M0 4.20104C0 3.94331 0.208934 3.73438 0.466667 3.73438H13.5333C13.7911 3.73438 14 3.94331 14 4.20104V6.06771C14 6.32544 13.7911 6.53437 13.5333 6.53437H0.466667C0.208934 6.53437 0 6.32544 0 6.06771C0 5.80998 0.208934 5.60104 0.466667 5.60104H13.0667V4.66771H0.466667C0.208934 4.66771 0 4.45877 0 4.20104Z" fill="white"/>
</svg>
