<svg width="20" height="20" viewBox="0 0 20 20" fill="none" xmlns="http://www.w3.org/2000/svg">
<path fill-rule="evenodd" clip-rule="evenodd" d="M9.99999 5.37774C7.44721 5.37774 5.37777 7.44718 5.37777 9.99996C5.37777 12.5527 7.44721 14.6222 9.99999 14.6222C12.5528 14.6222 14.6222 12.5527 14.6222 9.99996C14.6222 7.44718 12.5528 5.37774 9.99999 5.37774ZM4.66666 9.99996C4.66666 7.05444 7.05447 4.66663 9.99999 4.66663C12.9455 4.66663 15.3333 7.05444 15.3333 9.99996C15.3333 12.9455 12.9455 15.3333 9.99999 15.3333C7.05447 15.3333 4.66666 12.9455 4.66666 9.99996Z" fill="#009950"/>
<ellipse cx="9.99999" cy="5.33333" rx="1.33333" ry="1.33333" fill="#009950"/>
<circle cx="5.99999" cy="13.2381" r="1.33333" fill="#009950"/>
<circle cx="14" cy="13.3333" r="1.33333" fill="#009950"/>
<circle opacity="0.2" cx="10" cy="10" r="10" fill="#009950"/>
</svg>
