<svg width="30" height="30" viewBox="0 0 30 30" fill="none" xmlns="http://www.w3.org/2000/svg">
<path d="M28.7271 5.02142H21.3991L21.055 2.53664C21.0206 1.68658 20.2294 1 19.3349 1H10.6651C9.77064 1 8.97936 1.68658 8.94495 2.53664L8.60092 5.02142H1.27294C0.550459 5.02142 0 5.54453 0 6.23112C0 6.9177 0.550459 7.44081 1.27294 7.44081H2.88991L6.15826 28.4961C6.19266 29.3461 6.98394 30 7.87844 30H22.0528C22.9472 30 23.6697 29.3461 23.7729 28.4961L27.0413 7.47351H28.7271C29.4495 7.47351 30 6.95039 30 6.26381C30 5.57723 29.4495 5.02142 28.7271 5.02142ZM11.3876 3.48478H18.5436L18.75 5.02142H11.2156L11.3876 3.48478ZM21.3303 27.5806H8.66973L5.53899 7.47351H24.461L21.3303 27.5806Z" fill="black"/>
<path fill-rule="evenodd" clip-rule="evenodd" d="M11.8936 11.074C12.5215 11.0391 13.0589 11.5198 13.0937 12.1478L13.6631 22.3964C13.698 23.0243 13.2172 23.5617 12.5893 23.5965C11.9614 23.6314 11.424 23.1507 11.3891 22.5227L10.8198 12.2741C10.7849 11.6462 11.2657 11.1088 11.8936 11.074ZM18.283 11.074C18.9109 11.1088 19.3917 11.6462 19.3568 12.2741L18.7874 22.5227C18.7525 23.1507 18.2152 23.6314 17.5873 23.5965C16.9593 23.5617 16.4786 23.0243 16.5135 22.3964L17.0828 12.1478C17.1177 11.5198 17.655 11.0391 18.283 11.074Z" fill="black"/>
</svg>
