<svg width="189" height="50" viewBox="0 0 189 50" fill="none" xmlns="http://www.w3.org/2000/svg">
<path d="M50.4643 2.39576C49.8027 1.64443 48.973 1.05996 48.0429 0.689938C47.056 0.280909 45.8843 0.0759742 44.5279 0.0751343H35.6133V29.7721H44.5304C45.9137 29.7721 47.0984 29.5802 48.0844 29.1964C49.0138 28.851 49.8447 28.2835 50.5046 27.5435C51.1518 26.7918 51.625 25.9065 51.8904 24.9507C52.198 23.8435 52.3469 22.6982 52.3326 21.5492V8.37498C52.3454 7.23754 52.1901 6.10445 51.8715 5.01246C51.5911 4.05119 51.1116 3.15966 50.4643 2.39576ZM47.6397 21.5454C47.6508 22.1826 47.5993 22.8193 47.486 23.4465C47.4092 23.8917 47.2172 24.3091 46.9292 24.6572C46.6436 24.9725 46.268 25.1925 45.8533 25.2871C45.2926 25.4146 44.7184 25.4726 44.1437 25.4597H40.3011V4.37498H44.1437C45.4757 4.37498 46.3912 4.66894 46.8901 5.25687C47.389 5.84479 47.6389 6.88206 47.6397 8.36868V21.5454Z" fill="#999999"/>
<path d="M70.3862 7.75638C69.7153 7.02064 68.8788 6.45532 67.9459 6.10725C66.959 5.72257 65.7744 5.53066 64.3919 5.5315H63.316C61.9579 5.5315 60.7862 5.73013 59.801 6.1274C58.8688 6.48693 58.0332 7.05893 57.3607 7.79796C56.7021 8.54717 56.2169 9.43246 55.9396 10.3907C55.6217 11.4695 55.4659 12.5896 55.4772 13.7142V21.5517C55.4646 22.6878 55.6135 23.82 55.9195 24.9142C56.1853 25.8735 56.6646 26.7603 57.3217 27.5082C57.9941 28.2472 58.8297 28.8192 59.762 29.1788C60.7488 29.5769 61.9209 29.7755 63.2782 29.7747H71.5768V25.4685H63.2782C62.2796 25.4685 61.5111 25.2892 60.9727 24.9306C60.4343 24.5719 60.1651 23.9445 60.1651 23.0484V22.0493V22.0405H68.0606C68.574 22.0421 69.0804 21.9213 69.5379 21.6882C69.9953 21.4551 70.3907 21.1164 70.6911 20.7L70.7024 20.6836C71.2295 19.9191 71.6137 19.0654 71.8363 18.1639C72.1013 17.1216 72.2304 16.0494 72.2205 14.974V13.7117C72.2328 12.5756 72.0844 11.4436 71.7796 10.3491C71.5153 9.39139 71.0391 8.5053 70.3862 7.75638ZM67.5037 14.9791C67.5037 15.8761 67.4336 16.5807 67.2933 17.0931C67.191 17.5378 66.9642 17.9442 66.6394 18.2647C66.3457 18.5351 65.9774 18.7107 65.5824 18.7687C65.1118 18.8364 64.6368 18.8684 64.1613 18.8644H60.1651V13.7117C60.1582 13.1011 60.197 12.4909 60.281 11.8861C60.3329 11.4512 60.4913 11.0358 60.7421 10.6767C60.9839 10.3616 61.3204 10.1324 61.7021 10.0228C62.2279 9.88061 62.7716 9.81609 63.316 9.83134H64.3919C64.9476 9.81628 65.5029 9.87431 66.0435 10.0039C66.418 10.0959 66.75 10.3128 66.9846 10.6187C67.2246 10.9732 67.3703 11.3829 67.408 11.8093C67.479 12.4408 67.511 13.0762 67.5037 13.7117V14.9791Z" fill="#999999"/>
<path d="M160.436 7.75638C159.766 7.02087 158.931 6.45554 157.999 6.10725C157.013 5.72257 155.828 5.53066 154.445 5.5315H153.369C152.011 5.5315 150.84 5.73013 149.855 6.1274C148.922 6.48693 148.087 7.05893 147.414 7.79796C146.757 8.54781 146.271 9.43289 145.993 10.3907C145.676 11.4697 145.521 12.5897 145.532 13.7142V21.5517C145.519 22.6878 145.668 23.82 145.974 24.9142C146.239 25.8739 146.718 26.761 147.376 27.5082C148.048 28.2473 148.884 28.8193 149.815 29.1788C150.802 29.5769 151.974 29.7755 153.332 29.7747H161.63V25.4685H153.332C152.333 25.4685 151.565 25.2892 151.026 24.9306C150.488 24.5719 150.219 23.9445 150.22 23.0484V22.0493L150.227 22.0405H158.123C158.636 22.0422 159.142 21.9215 159.6 21.6884C160.057 21.4552 160.452 21.1164 160.752 20.7L160.763 20.6836C161.291 19.9191 161.675 19.0654 161.897 18.1639C162.162 17.1215 162.291 16.0494 162.282 14.974V13.7117C162.294 12.5755 162.145 11.4434 161.839 10.3491C161.573 9.39028 161.093 8.50401 160.436 7.75638ZM157.555 14.9791C157.555 15.8761 157.484 16.5807 157.343 17.0931C157.241 17.5378 157.014 17.9442 156.689 18.2647C156.396 18.5351 156.028 18.7107 155.633 18.7687C155.162 18.8363 154.687 18.8683 154.211 18.8644H150.216V13.7117C150.209 13.1012 150.247 12.491 150.331 11.8861C150.383 11.4512 150.541 11.0358 150.792 10.6767C151.034 10.3612 151.371 10.132 151.753 10.0228C152.278 9.8806 152.822 9.81609 153.366 9.83134H154.442C154.998 9.81636 155.553 9.87438 156.095 10.0039C156.469 10.0962 156.801 10.313 157.036 10.6187C157.275 10.9736 157.42 11.3832 157.458 11.8093C157.529 12.4408 157.562 13.0761 157.555 13.7117V14.9791Z" fill="#4895F5"/>
<path d="M112.232 7.87103C111.559 7.13093 110.723 6.55804 109.79 6.19796C108.804 5.79985 107.632 5.60121 106.274 5.60205H97.978V9.90567H106.277C107.276 9.90567 108.045 10.085 108.582 10.4436C109.12 10.8023 109.388 11.4297 109.388 12.3258V13.3249V13.3324H101.483C100.97 13.3309 100.463 13.4518 100.006 13.6851C99.5486 13.9185 99.1536 14.2576 98.8536 14.6742L98.8423 14.6906C98.3155 15.4552 97.9313 16.3088 97.7084 17.2102C97.4441 18.2527 97.3149 19.3248 97.3242 20.4002V21.6676C97.3117 22.8037 97.4606 23.9358 97.7664 25.0301C98.0328 25.9888 98.5121 26.8751 99.1686 27.6228C99.8386 28.3605 100.675 28.9272 101.609 29.2758C102.596 29.6604 103.78 29.8523 105.163 29.8515H106.239C107.597 29.8515 108.769 29.6529 109.754 29.2556C110.686 28.8961 111.522 28.3241 112.194 27.585C112.852 26.8348 113.337 25.9493 113.615 24.991C113.932 23.9121 114.088 22.7921 114.076 21.6676V13.825C114.089 12.6889 113.94 11.5568 113.634 10.4625C113.369 9.50377 112.889 8.61771 112.232 7.87103ZM109.388 21.665C109.396 22.2756 109.357 22.8857 109.274 23.4906C109.222 23.9255 109.064 24.3409 108.813 24.7C108.571 25.0155 108.234 25.2447 107.851 25.3539C107.326 25.4967 106.783 25.5613 106.239 25.5454H105.163C104.607 25.561 104.051 25.5029 103.51 25.3728C103.136 25.2805 102.804 25.0637 102.569 24.758C102.33 24.4031 102.185 23.9935 102.147 23.5674C102.075 22.9359 102.043 22.3006 102.05 21.665V20.3951C102.05 19.4981 102.12 18.7934 102.262 18.2811C102.364 17.8365 102.591 17.4302 102.915 17.1095C103.209 16.839 103.576 16.6634 103.971 16.6055C104.442 16.5368 104.918 16.5043 105.393 16.5085H109.388V21.665Z" fill="#999999"/>
<path d="M80.0302 0.0650635H75.3423V29.7722H80.0302V0.0650635Z" fill="#999999"/>
<path d="M87.9447 1.68518H83.2568V21.5504C83.2568 24.291 83.8397 26.3462 85.0055 27.716C86.1713 29.0859 88.0728 29.7713 90.7101 29.7721H95.859V25.4685H90.9457C90.2796 25.4685 89.7547 25.4047 89.3708 25.277C89.0067 25.163 88.6896 24.9335 88.4675 24.6231C88.2296 24.2608 88.0846 23.8454 88.0455 23.4137C87.975 22.7952 87.943 22.1729 87.9497 21.5504V10.0619H95.8641V5.72046H87.9447V1.68518Z" fill="#999999"/>
<path d="M131.712 0.697489C131.335 1.00577 131.06 1.42076 130.923 1.88804C130.718 2.52328 130.571 3.17553 130.482 3.83702L127.71 21.626C127.611 22.2532 127.457 22.8705 127.249 23.4704C127.097 23.9158 126.84 24.3181 126.5 24.6433C126.16 24.9468 125.751 25.163 125.309 25.2732C124.75 25.4112 124.175 25.4756 123.599 25.4647H122.1V0.0713472H117.414V29.7721H123.335C126.049 29.7721 128.144 29.0292 129.618 27.5435C131.092 26.0577 132.02 24.0839 132.403 21.6222L135.822 0.00205547C134.949 -0.0105071 134.077 0.0345259 133.21 0.13686C132.567 0.228408 132.068 0.415284 131.712 0.697489Z" fill="#4895F5"/>
<path d="M142.351 5.72046H137.663V29.7734H142.351V5.72046Z" fill="#4895F5"/>
<path d="M184.121 5.72046V21.5504C184.134 22.2078 184.076 22.8646 183.947 23.5094C183.883 23.9605 183.674 24.3785 183.352 24.7007C183.03 25.0228 182.612 25.2317 182.161 25.2959C181.516 25.4238 180.859 25.4817 180.202 25.4685H179.395V5.72046H174.707V25.4685H173.977C173.319 25.4817 172.663 25.4239 172.018 25.2959C171.567 25.2121 171.148 25.006 170.807 24.7C170.488 24.3731 170.274 23.9586 170.192 23.5094C170.065 22.8645 170.007 22.2077 170.02 21.5504V5.72046H165.332V21.5504C165.319 22.6861 165.468 23.8178 165.774 24.9117C166.039 25.8679 166.512 26.7537 167.16 27.5057C167.822 28.247 168.652 28.8197 169.58 29.1762C170.566 29.5743 171.751 29.773 173.134 29.7721H181.011C182.394 29.7721 183.578 29.5735 184.565 29.1762C185.497 28.8167 186.332 28.2447 187.005 27.5057C187.661 26.7576 188.139 25.8708 188.405 24.9117C188.71 23.8178 188.859 22.6861 188.847 21.5504V5.72046H184.121Z" fill="#4895F5"/>
<path d="M11.8173 14.9262L0 3.10883V26.7435L11.8173 14.9262Z" fill="#999999"/>
<path d="M3.05011 29.7923H29.7323V3.10883L3.05011 29.7923Z" fill="#4895F5"/>
<path d="M3.05011 0.0599976L14.8662 11.8773L26.6835 0.0599976H3.05011Z" fill="#999999"/>
<path d="M134.267 40.3988C135.11 40.3988 135.765 40.6879 136.229 41.266C136.698 41.8402 136.933 42.6547 136.933 43.7094C136.933 44.764 136.696 45.5844 136.224 46.1703C135.755 46.7523 135.102 47.0433 134.267 47.0433C133.849 47.0433 133.466 46.9672 133.118 46.8148C132.774 46.6586 132.485 46.4203 132.251 46.1H132.181L131.975 46.9261H131.278V37.809H132.251V40.0238C132.251 40.5199 132.235 40.9652 132.204 41.3597H132.251C132.704 40.7191 133.376 40.3988 134.267 40.3988ZM134.126 41.2133C133.462 41.2133 132.983 41.4047 132.69 41.7875C132.397 42.1664 132.251 42.807 132.251 43.7094C132.251 44.6117 132.401 45.2582 132.702 45.6488C133.003 46.0355 133.485 46.2289 134.149 46.2289C134.747 46.2289 135.192 46.0121 135.485 45.5785C135.778 45.141 135.925 44.514 135.925 43.6976C135.925 42.8617 135.778 42.2386 135.485 41.8285C135.192 41.4183 134.739 41.2133 134.126 41.2133Z" fill="#999999"/>
<path d="M137.618 40.5043H138.661L140.067 44.1664C140.376 45.0023 140.567 45.6058 140.642 45.9769H140.688C140.739 45.7777 140.845 45.4379 141.005 44.9574C141.169 44.473 141.7 42.9886 142.599 40.5043H143.642L140.882 47.8168C140.608 48.5394 140.288 49.0511 139.921 49.3519C139.558 49.6566 139.11 49.809 138.579 49.809C138.282 49.809 137.989 49.7758 137.7 49.7094V48.9301C137.915 48.9769 138.155 49.0004 138.421 49.0004C139.089 49.0004 139.565 48.6254 139.85 47.8754L140.208 46.9613L137.618 40.5043Z" fill="#999999"/>
<path d="M155.831 34.9267L160.634 47.3821H158.853L157.75 44.5156H152.13L151.027 47.3821H149.247L154.05 34.9267H155.831ZM152.808 42.7353H157.064L154.945 37.2457L152.808 42.7353Z" fill="#999999"/>
<path d="M169.198 47.3817L164.551 38.2528V47.3817H162.77V34.9262H164.716L169.458 44.3066L174.209 34.9262H176.146V47.3817H174.375V38.2528L169.728 47.3817H169.198Z" fill="#999999"/>
<path d="M181.132 42.0486C180.894 42.0497 180.659 42.0007 180.442 41.9051C180.23 41.8136 180.037 41.6841 179.873 41.5229C179.707 41.3586 179.575 41.163 179.486 40.9474C179.396 40.7318 179.351 40.5005 179.351 40.2671V36.7069C179.351 36.4735 179.396 36.2422 179.486 36.0266C179.575 35.811 179.707 35.6153 179.873 35.4511C180.037 35.2904 180.23 35.161 180.441 35.0693C180.659 34.9737 180.894 34.925 181.132 34.9262H187.177C187.415 34.925 187.65 34.9738 187.868 35.0693C188.079 35.1613 188.271 35.2908 188.436 35.4515C188.602 35.6158 188.734 35.8114 188.823 36.027C188.913 36.2426 188.958 36.4739 188.957 36.7073V38.3135H187.177V36.7069H181.132V40.2679H187.177C187.414 40.2668 187.649 40.3141 187.868 40.4069C188.297 40.5873 188.639 40.9287 188.819 41.358C188.912 41.5763 188.959 41.8114 188.958 42.0486V45.6005C188.959 45.8378 188.912 46.0728 188.819 46.2912C188.639 46.7204 188.297 47.0619 187.868 47.2422C187.649 47.335 187.414 47.3823 187.177 47.3812H180.958C180.721 47.3823 180.486 47.335 180.268 47.2422C179.839 47.0619 179.497 46.7204 179.317 46.2912C179.224 46.0728 179.177 45.8378 179.178 45.6005V44.0027H180.958V45.6005H187.177V42.0486H181.132Z" fill="#999999"/>
</svg>
