<svg width="30" height="30" viewBox="0 0 30 30" fill="none" xmlns="http://www.w3.org/2000/svg">
<path d="M19.2762 4.7217L20.1386 5.58408L16.3969 9.32583L17.5454 10.4743L21.2871 6.73257L23.5841 9.02955L19.8423 12.7713L20.9908 13.9198L24.7326 10.178L25.595 11.0404C26.0676 11.513 26.8409 11.5151 27.3167 11.0394C27.7957 10.5604 27.7928 9.79285 27.3177 9.31769L20.999 2.99897C20.5264 2.52637 19.753 2.52427 19.2773 2.99999C18.7982 3.47902 18.8011 4.24654 19.2762 4.7217Z" fill="black"/>
<path d="M20.3574 20.3574L18.87 18.87C18.8582 20.4621 18.4324 22.2206 17.0295 23.6235L6.69315 13.2871C8.04423 11.936 9.89353 11.5579 11.5675 11.5676L9.96464 9.96466C8.46009 10.1982 6.87298 10.8103 5.54467 12.1386L4.39618 13.2871L10.1386 19.0296L4.16305 25.0051C3.84037 25.3278 3.84117 25.8412 4.15832 26.1583C4.47767 26.4777 4.99178 26.4734 5.31154 26.1536L11.2871 20.178L17.0295 25.9205L18.178 24.772C19.5084 23.4416 20.1225 21.858 20.3574 20.3574Z" fill="black"/>
<path fill-rule="evenodd" clip-rule="evenodd" d="M7.70711 4.29289C8.09763 3.90237 8.7308 3.90237 9.12132 4.29289L26.7071 21.8787C27.0976 22.2692 27.0976 22.9024 26.7071 23.2929C26.3166 23.6834 25.6834 23.6834 25.2929 23.2929L7.70711 5.70711C7.31658 5.31658 7.31658 4.68342 7.70711 4.29289Z" fill="black"/>
</svg>
