<svg width="30" height="30" viewBox="0 0 30 30" fill="none" xmlns="http://www.w3.org/2000/svg">
<path fill-rule="evenodd" clip-rule="evenodd" d="M24.0007 20.9999C24.0007 20.4476 24.4484 19.9999 25.0007 19.9999H29.0007C29.553 19.9999 30.0007 20.4476 30.0007 20.9999C30.0007 21.5522 29.553 21.9999 29.0007 21.9999H25.0007C24.4484 21.9999 24.0007 21.5522 24.0007 20.9999ZM21.0007 23.9999C21.553 23.9999 22.0007 24.4476 22.0007 24.9999V28.9999C22.0007 29.5522 21.553 29.9999 21.0007 29.9999C20.4484 29.9999 20.0007 29.5522 20.0007 28.9999V24.9999C20.0007 24.4476 20.4484 23.9999 21.0007 23.9999ZM24.293 24.2928C24.6835 23.9023 25.3167 23.9023 25.7072 24.2928L28.7072 27.2928C29.0977 27.6834 29.0977 28.3165 28.7072 28.707C28.3167 29.0976 27.6835 29.0976 27.293 28.707L24.293 25.707C23.9025 25.3165 23.9025 24.6834 24.293 24.2928Z" fill="black"/>
<path fill-rule="evenodd" clip-rule="evenodd" d="M9.00067 -0.00012207C9.55296 -0.00012207 10.0007 0.447593 10.0007 0.999878V4.99988C10.0007 5.55216 9.55296 5.99988 9.00067 5.99988C8.44839 5.99988 8.00067 5.55216 8.00067 4.99988V0.999878C8.00067 0.447593 8.44839 -0.00012207 9.00067 -0.00012207ZM1.29299 1.29284C1.68351 0.90232 2.31668 0.90232 2.7072 1.29284L5.7072 4.29284C6.09773 4.68337 6.09773 5.31653 5.7072 5.70706C5.31668 6.09758 4.68352 6.09758 4.29299 5.70706L1.29299 2.70706C0.902466 2.31653 0.902466 1.68337 1.29299 1.29284ZM0.000671387 8.99988C0.000671387 8.44759 0.448387 7.99988 1.00067 7.99988H5.00067C5.55296 7.99988 6.00067 8.44759 6.00067 8.99988C6.00067 9.55216 5.55296 9.99988 5.00067 9.99988H1.00067C0.448387 9.99988 0.000671387 9.55216 0.000671387 8.99988Z" fill="black"/>
<path fill-rule="evenodd" clip-rule="evenodd" d="M15.741 5.13437C18.2794 2.59596 22.3949 2.59596 24.9334 5.13437C27.4718 7.67278 27.4718 11.7884 24.9334 14.3268L21.7453 17.5148C21.3548 17.9054 20.7216 17.9054 20.3311 17.5148C19.9405 17.1243 19.9405 16.4911 20.3311 16.1006L23.5191 12.9125C25.2765 11.1552 25.2765 8.30594 23.5191 6.54859C21.7618 4.79123 18.9125 4.79123 17.1552 6.54858L14.1595 9.54426C13.769 9.93479 13.1358 9.93479 12.7453 9.54426C12.3548 9.15374 12.3548 8.52057 12.7453 8.13005L15.741 5.13437ZM17.5148 20.3311C17.9054 20.7216 17.9054 21.3548 17.5148 21.7453L14.3268 24.9334C11.7883 27.4718 7.67277 27.4718 5.13436 24.9334C2.59595 22.395 2.59596 18.2794 5.13436 15.741L8.13005 12.7453C8.52058 12.3548 9.15374 12.3548 9.54426 12.7453C9.93479 13.1358 9.93479 13.769 9.54426 14.1595L6.54858 17.1552C4.79122 18.9125 4.79122 21.7618 6.54858 23.5191C8.30594 25.2765 11.1552 25.2765 12.9125 23.5191L16.1006 20.3311C16.4911 19.9405 17.1243 19.9405 17.5148 20.3311Z" fill="black"/>
</svg>
