<svg width="13" height="13" viewBox="0 0 13 13" fill="none" xmlns="http://www.w3.org/2000/svg">
<path d="M11.1162 7.6495L11.3165 7.84983C11.4272 7.96048 11.4272 8.13985 11.3165 8.2505L10.5652 9.00182C10.5376 9.02945 10.5376 9.07436 10.5652 9.10199L11.3165 9.85331C11.4272 9.96396 11.4272 10.1433 11.3165 10.254L11.1162 10.4543C11.0055 10.565 10.8262 10.565 10.7155 10.4543L9.96419 9.70299C9.93656 9.67536 9.89165 9.67536 9.86402 9.70299L9.1127 10.4543C9.00205 10.565 8.82268 10.565 8.71203 10.4543L8.5117 10.254C8.40105 10.1433 8.40105 9.96396 8.5117 9.85331L9.26302 9.10199C9.29065 9.07436 9.29065 9.02945 9.26302 9.00182L8.5117 8.2505C8.40105 8.13985 8.40105 7.96048 8.5117 7.84983L8.71203 7.6495C8.82268 7.53885 9.00205 7.53885 9.1127 7.6495L9.86402 8.40082C9.89165 8.42845 9.93656 8.42845 9.96419 8.40082L10.7155 7.6495C10.8262 7.53871 11.0055 7.53871 11.1162 7.6495Z" fill="#D0D0D2"/>
<path d="M12.9199 2.81622L11.5747 0.53959C11.465 0.353991 11.1964 0.353991 11.0868 0.53959L9.74152 2.81622C9.62988 3.00508 9.76603 3.24367 9.98549 3.24367H10.8349C10.874 3.24367 10.9057 3.2754 10.9057 3.3145V3.81038C10.9057 4.74928 10.1445 5.51052 9.20555 5.51052H4.9552C3.54677 5.51052 2.40498 6.65231 2.40498 8.06073V8.3414C2.40498 8.37328 2.38331 8.40034 2.35256 8.40856C1.50731 8.6351 0.901208 9.44607 0.998541 10.3828C1.08667 11.2314 1.77154 11.9218 2.61934 12.016C3.73081 12.1394 4.67184 11.2726 4.67184 10.1859C4.67184 9.33414 4.09294 8.61923 3.30762 8.4087C3.27673 8.40034 3.25505 8.37314 3.25505 8.34126V8.06073C3.25505 7.12183 4.01629 6.36059 4.9552 6.36059H9.20555C10.614 6.36059 11.7558 5.21881 11.7558 3.81038V3.3145C11.7558 3.2754 11.7875 3.24367 11.8266 3.24367H12.676C12.8954 3.24367 13.0316 3.00508 12.9199 2.81622ZM3.82177 10.1859C3.82177 10.7328 3.3769 11.1777 2.83002 11.1777C2.28314 11.1777 1.83827 10.7328 1.83827 10.1859C1.83827 9.63903 2.28314 9.19416 2.83002 9.19416C3.3769 9.19416 3.82177 9.63903 3.82177 10.1859Z" fill="#D0D0D2"/>
<path d="M5.44918 1.41708L5.64952 1.61741C5.76017 1.72806 5.76017 1.90743 5.64952 2.01808L4.8982 2.7694C4.87057 2.79703 4.87057 2.84194 4.8982 2.86957L5.64952 3.62089C5.76017 3.73154 5.76017 3.9109 5.64952 4.02155L5.44918 4.22189C5.33853 4.33254 5.15917 4.33254 5.04852 4.22189L4.29719 3.47057C4.26957 3.44294 4.22466 3.44294 4.19703 3.47057L3.44571 4.22189C3.33506 4.33254 3.15569 4.33254 3.04504 4.22189L2.84471 4.02155C2.73406 3.9109 2.73406 3.73154 2.84471 3.62089L3.59603 2.86957C3.62366 2.84194 3.62366 2.79703 3.59603 2.7694L2.84471 2.01808C2.73406 1.90743 2.73406 1.72806 2.84471 1.61741L3.04504 1.41708C3.15569 1.30643 3.33506 1.30643 3.44571 1.41708L4.19703 2.1684C4.22466 2.19603 4.26957 2.19603 4.29719 2.1684L5.04852 1.41708C5.15917 1.30629 5.33853 1.30629 5.44918 1.41708Z" fill="#D0D0D2"/>
</svg>
