<svg width="30" height="30" viewBox="0 0 30 30" fill="none" xmlns="http://www.w3.org/2000/svg">
<path fill-rule="evenodd" clip-rule="evenodd" d="M17.8025 7.8541C18.5416 7.12831 19 6.11769 19 5C19 2.79086 17.2091 1 15 1C12.7909 1 11 2.79086 11 5C11 6.11769 11.4584 7.12831 12.1975 7.8541L5.0971 20.1523C4.74848 20.0531 4.38044 20 4 20C1.79086 20 0 21.7909 0 24C0 26.2091 1.79086 28 4 28C5.67869 28 7.11585 26.9659 7.70924 25.5H22.2908C22.8841 26.9659 24.3213 28 26 28C28.2091 28 30 26.2091 30 24C30 21.7909 28.2091 20 26 20C25.6196 20 25.2515 20.0531 24.9029 20.1523L17.8025 7.8541ZM13.929 8.85501C14.2699 8.9495 14.629 9 15 9C15.371 9 15.7301 8.9495 16.071 8.85501L23.1782 21.165C22.5617 21.7787 22.1442 22.5921 22.0309 23.5H7.96905C7.85584 22.5921 7.43834 21.7787 6.82184 21.165L13.929 8.85501Z" fill="black"/>
</svg>
