<svg width="12" height="12" viewBox="0 0 12 12" fill="none" xmlns="http://www.w3.org/2000/svg">
<path d="M3.35918 5.0314C4.23184 4.15857 5.57966 4.05046 6.57115 4.70738L11.1286 0.149529C11.328 -0.0498431 11.6516 -0.0498431 11.8505 0.149529C12.0498 0.348902 12.0498 0.671389 11.8505 0.871834L7.29298 5.42938C7.94944 6.42027 7.84133 7.7681 6.96851 8.64093L5.07178 11.8017C4.9351 12.0295 4.62075 12.0682 4.43291 11.8804L0.119631 7.56703C-0.0682068 7.37919 -0.0295153 7.06484 0.198266 6.92816L3.35918 5.0314ZM6.24667 5.75371C5.64856 5.15559 4.67912 5.15559 4.08086 5.75371L6.24667 7.91909C6.84478 7.32097 6.84433 6.35136 6.24667 5.75371ZM5.6824 8.79927L3.20069 6.31691L1.39625 7.40014L4.5998 10.6037L5.6824 8.79927Z" fill="#D0D0D2"/>
<path d="M7.23333 11.1992H11.5667C11.806 11.1992 12 11.3783 12 11.5992C12 11.8201 11.806 11.9992 11.5667 11.9992H7.23333C6.99401 11.9992 6.8 11.8201 6.8 11.5992C6.8 11.3783 6.99401 11.1992 7.23333 11.1992Z" fill="#D0D0D2"/>
<path d="M8.0001 9.19922H9.2001C9.42101 9.19922 9.6001 9.3783 9.6001 9.59922C9.6001 9.82013 9.42101 9.99922 9.2001 9.99922H8.0001C7.77918 9.99922 7.6001 9.82013 7.6001 9.59922C7.6001 9.3783 7.77918 9.19922 8.0001 9.19922Z" fill="#D0D0D2"/>
</svg>
