<svg width="14" height="14" viewBox="0 0 14 14" fill="none" xmlns="http://www.w3.org/2000/svg">
<path d="M3.34139 13.58C5.15841 13.58 6.63139 12.107 6.63139 10.29C6.63139 8.47298 5.15841 7 3.34139 7C1.52437 7 0.0513916 8.47298 0.0513916 10.29C0.0513916 12.107 1.52437 13.58 3.34139 13.58Z" fill="#D0D0D2"/>
<path d="M7.34064 6.24524C8.64992 6.24524 9.7113 5.18386 9.7113 3.87457C9.7113 2.56529 8.64992 1.50391 7.34064 1.50391C6.03135 1.50391 4.96997 2.56529 4.96997 3.87457C4.96997 5.18386 6.03135 6.24524 7.34064 6.24524Z" fill="#D0D0D2"/>
<path d="M12.0353 10.3507C12.9606 10.3507 13.7107 9.60059 13.7107 8.67533C13.7107 7.75007 12.9606 7 12.0353 7C11.1101 7 10.36 7.75007 10.36 8.67533C10.36 9.60059 11.1101 10.3507 12.0353 10.3507Z" fill="#D0D0D2"/>
</svg>
