<svg width="12" height="12" viewBox="0 0 12 12" fill="none" xmlns="http://www.w3.org/2000/svg">
<path fill-rule="evenodd" clip-rule="evenodd" d="M0 2.7002C0 2.42405 0.223858 2.2002 0.5 2.2002H11.5C11.7761 2.2002 12 2.42405 12 2.7002C12 2.97634 11.7761 3.2002 11.5 3.2002H0.5C0.223858 3.2002 0 2.97634 0 2.7002Z" fill="#51535A"/>
<path fill-rule="evenodd" clip-rule="evenodd" d="M0 6.09961C0 5.82347 0.223858 5.59961 0.5 5.59961H11.5C11.7761 5.59961 12 5.82347 12 6.09961C12 6.37575 11.7761 6.59961 11.5 6.59961H0.5C0.223858 6.59961 0 6.37575 0 6.09961Z" fill="#51535A"/>
<path fill-rule="evenodd" clip-rule="evenodd" d="M0 9.5C0 9.22386 0.223858 9 0.5 9H11.5C11.7761 9 12 9.22386 12 9.5C12 9.77614 11.7761 10 11.5 10H0.5C0.223858 10 0 9.77614 0 9.5Z" fill="#51535A"/>
</svg>
