<svg width="30" height="30" viewBox="0 0 30 30" fill="none" xmlns="http://www.w3.org/2000/svg">
<path fill-rule="evenodd" clip-rule="evenodd" d="M8 3C8 1.34315 9.34315 0 11 0H27C28.6569 0 30 1.34315 30 3V19C30 20.6569 28.6569 22 27 22H11C9.34315 22 8 20.6569 8 19V3ZM11 2C10.4477 2 10 2.44772 10 3V19C10 19.5523 10.4477 20 11 20H27C27.5523 20 28 19.5523 28 19V3C28 2.44772 27.5523 2 27 2H11Z" fill="black"/>
<path fill-rule="evenodd" clip-rule="evenodd" d="M3 12C2.44772 12 2 12.4477 2 13V27C2 27.5523 2.44772 28 3 28H17C17.5523 28 18 27.5523 18 27V25.5C18 24.9477 18.4477 24.5 19 24.5C19.5523 24.5 20 24.9477 20 25.5V27C20 28.6569 18.6569 30 17 30H3C1.34315 30 0 28.6569 0 27V13C0 11.3431 1.34315 10 3 10H4C4.55228 10 5 10.4477 5 11C5 11.5523 4.55228 12 4 12H3Z" fill="black"/>
<path fill-rule="evenodd" clip-rule="evenodd" d="M20.0769 5.07692C20.0769 4.48215 19.5948 4 19 4C18.4052 4 17.9231 4.48215 17.9231 5.07692V9.92308L13.0769 9.92308C12.4822 9.92308 12 10.4052 12 11C12 11.5948 12.4822 12.0769 13.0769 12.0769L17.9231 12.0769V16.9231C17.9231 17.5178 18.4052 18 19 18C19.5948 18 20.0769 17.5178 20.0769 16.9231V12.0769L24.9231 12.0769C25.5178 12.0769 26 11.5948 26 11C26 10.4052 25.5178 9.92308 24.9231 9.92308L20.0769 9.92308V5.07692Z" fill="black"/>
</svg>
