<svg width="30" height="30" viewBox="0 0 30 30" fill="none" xmlns="http://www.w3.org/2000/svg">
<path d="M26.6089 3.3887C25.6207 2.46226 24.3036 1.96359 22.9464 2.00207C21.5892 2.04055 20.3027 2.61303 19.3692 3.59396L3.99577 18.9099C3.57663 19.3282 3.28685 19.8574 3.16079 20.4346L2.04094 25.7517C1.9754 26.0604 1.98872 26.3805 2.07967 26.6827C2.17063 26.985 2.33632 27.2597 2.56157 27.4817C2.91136 27.8191 3.38095 28.0053 3.86807 27.9997C4.02015 28.0023 4.17196 27.9859 4.31994 27.9509L9.53609 26.7291C10.0912 26.6017 10.5987 26.3204 10.9998 25.9179L26.3928 10.5922C27.38 9.6646 27.9572 8.38531 27.9977 7.0349C28.0382 5.68448 27.5388 4.37321 26.6089 3.3887ZM9.61468 24.53C9.47466 24.6756 9.29281 24.7746 9.09405 24.8134L3.99577 26.0058L5.08615 20.8647C5.13028 20.6581 5.23248 20.4683 5.38085 20.3173L17.4438 8.27572L21.6973 12.5079L9.61468 24.53ZM25.0077 9.20426L23.0431 11.1591L18.8289 6.89758L20.7936 4.94278C21.3585 4.32952 22.1439 3.96291 22.979 3.92265C23.8141 3.88238 24.6314 4.17171 25.2533 4.72775C25.5342 5.03693 25.7508 5.3984 25.8906 5.79129C26.0304 6.18419 26.0906 6.60074 26.0678 7.01691C26.045 7.43308 25.9395 7.84063 25.7576 8.21605C25.5756 8.59147 25.3208 8.92733 25.0077 9.20426Z" fill="black"/>
</svg>
