<svg width="30" height="30" viewBox="0 0 30 30" fill="none" xmlns="http://www.w3.org/2000/svg">
<path d="M21.5586 2.00541L18.187 2C14.3991 2 11.9512 4.51147 11.9512 8.39863V11.3488H8.56116C8.26822 11.3488 8.03101 11.5863 8.03101 11.8793V16.1538C8.03101 16.4467 8.26849 16.6839 8.56116 16.6839H11.9512V27.4698C11.9512 27.7628 12.1884 28 12.4813 28H16.9043C17.1973 28 17.4345 27.7625 17.4345 27.4698V16.6839H21.3982C21.6911 16.6839 21.9283 16.4467 21.9283 16.1538L21.93 11.8793C21.93 11.7386 21.874 11.6039 21.7747 11.5044C21.6754 11.4048 21.5402 11.3488 21.3995 11.3488H17.4345V8.84791C17.4345 7.64587 17.7209 7.03565 19.2868 7.03565L21.558 7.03484C21.8507 7.03484 22.0879 6.79735 22.0879 6.50469V2.53556C22.0879 2.24317 21.851 2.00595 21.5586 2.00541Z" fill="black"/>
</svg>
