<svg width="14" height="14" viewBox="0 0 14 14" fill="none" xmlns="http://www.w3.org/2000/svg">
<path opacity="0.8" d="M0 0H8.16667C8.22855 0 8.2879 0.0245833 8.33166 0.0683418C8.37542 0.1121 8.4 0.171449 8.4 0.233333V2.56667C8.4 2.62855 8.37542 2.6879 8.33166 2.73166C8.2879 2.77542 8.22855 2.8 8.16667 2.8H0V0Z" fill="#D0D0D2"/>
<path opacity="0.5" d="M0 2.80078H10.9667C11.0286 2.80078 11.0879 2.82536 11.1317 2.86912C11.1754 2.91288 11.2 2.97223 11.2 3.03411V5.36745C11.2 5.42933 11.1754 5.48868 11.1317 5.53244C11.0879 5.5762 11.0286 5.60078 10.9667 5.60078H0V2.80078Z" fill="#D0D0D2"/>
<path opacity="0.6" d="M0 5.60156H6.76667C6.82855 5.60156 6.8879 5.62615 6.93166 5.6699C6.97542 5.71366 7 5.77301 7 5.8349V8.16823C7 8.23011 6.97542 8.28946 6.93166 8.33322C6.8879 8.37698 6.82855 8.40156 6.76667 8.40156H0V5.60156Z" fill="#D0D0D2"/>
<path opacity="0.4" d="M0 8.39844H12.1333C12.1952 8.39844 12.2546 8.42302 12.2983 8.46678C12.3421 8.51054 12.3667 8.56989 12.3667 8.63177V10.9651C12.3667 11.027 12.3421 11.0863 12.2983 11.1301C12.2546 11.1739 12.1952 11.1984 12.1333 11.1984H0V8.39844Z" fill="#D0D0D2"/>
<path opacity="0.2" d="M0 11.1992H9.38467C9.44655 11.1992 9.5059 11.2238 9.54966 11.2676C9.59342 11.3113 9.618 11.3707 9.618 11.4326V13.7659C9.618 13.8278 9.59342 13.8871 9.54966 13.9309C9.5059 13.9746 9.44655 13.9992 9.38467 13.9992H0V11.1992Z" fill="#D0D0D2"/>
</svg>
