<svg width="30" height="30" viewBox="0 0 30 30" fill="none" xmlns="http://www.w3.org/2000/svg">
<g clip-path="url(#clip0)">
<path fill-rule="evenodd" clip-rule="evenodd" d="M26.949 3.03611C27.2745 2.56263 27.1546 1.91491 26.6811 1.58939C26.2076 1.26388 25.5599 1.38382 25.2344 1.8573L18.7031 11.3573C13.8237 10.7518 9.91874 7.97932 8.33382 4.45463C8.09818 3.93059 7.48234 3.6968 6.9583 3.93244C6.43426 4.16808 6.20047 4.78392 6.43611 5.30796C8.24276 9.32576 12.3794 12.3284 17.3958 13.2589L14.699 17.1814C8.41009 15.466 3.55695 10.6974 2.02002 4.78887C1.87208 4.22014 1.30797 3.88358 0.760033 4.03713C0.212101 4.19069 -0.112158 4.77621 0.0357819 5.34494C1.72181 11.8266 6.85083 16.9657 13.4317 19.0248L7.2861 27.9639C6.96058 28.4374 7.08053 29.0851 7.55401 29.4106C8.02749 29.7361 8.6752 29.6162 9.00072 29.1427L15.5784 19.5751C16.9602 19.8537 18.3922 20 19.8582 20C23.308 20 26.5632 19.1917 29.4189 17.7606C29.93 17.5044 30.1443 16.8668 29.8975 16.3363C29.6508 15.8058 29.0364 15.5834 28.5253 15.8395C25.9475 17.1314 22.9976 17.8667 19.8582 17.8667C18.8515 17.8667 17.865 17.7913 16.9044 17.6465L19.7307 13.5354C19.8887 13.5438 20.0473 13.5501 20.2064 13.5544C23.2426 13.6366 26.1004 12.9655 28.5132 11.7321C29.0248 11.4706 29.2275 10.8439 28.966 10.3323C28.7045 9.82064 28.0777 9.6179 27.5661 9.87942C25.7021 10.8323 23.5082 11.41 21.1477 11.4744L26.949 3.03611Z" fill="black"/>
</g>
</svg>
