<svg width="30" height="30" viewBox="0 0 30 30" fill="none" xmlns="http://www.w3.org/2000/svg">
<path fill-rule="evenodd" clip-rule="evenodd" d="M19.8215 10.6667C19.8215 10.0735 20.3011 9.59259 20.8929 9.59259H27.8572C29.0406 9.59259 30 10.5543 30 11.7407V27.8518C30 29.0382 29.0406 30 27.8572 30H11.7857C10.6023 30 9.64288 29.0382 9.64288 27.8518V21.9444C9.64288 21.3512 10.1226 20.8704 10.7143 20.8704C11.306 20.8704 11.7857 21.3512 11.7857 21.9444V27.8518H27.8572V11.7407H20.8929C20.3011 11.7407 19.8215 11.2599 19.8215 10.6667Z" fill="black"/>
<path fill-rule="evenodd" clip-rule="evenodd" d="M9 3C5.13401 3 2 6.13401 2 10C2 13.866 5.13401 17 9 17C12.866 17 16 13.866 16 10C16 6.13401 12.866 3 9 3ZM0 10C0 5.02944 4.02944 1 9 1C13.9706 1 18 5.02944 18 10C18 14.9706 13.9706 19 9 19C4.02944 19 0 14.9706 0 10Z" fill="black"/>
</svg>
