<svg width="10" height="9" viewBox="0 0 10 9" fill="none" xmlns="http://www.w3.org/2000/svg">
<path d="M8.75 2.33332H6.16667C6.0625 2.33332 5.95833 2.29166 5.875 2.22916L4.58333 0.99999C4.35417 0.770823 4.04167 0.666656 3.72917 0.666656H1.25C0.5625 0.666656 0 1.22916 0 1.91666V7.74999C0 8.43749 0.5625 8.99999 1.25 8.99999H8.75C9.4375 8.99999 10 8.43749 10 7.74999V3.58332C10 2.89582 9.4375 2.33332 8.75 2.33332ZM9.16667 7.74999C9.16667 7.97916 8.97917 8.16666 8.75 8.16666H1.25C1.02083 8.16666 0.833333 7.97916 0.833333 7.74999V1.91666C0.833333 1.68749 1.02083 1.49999 1.25 1.49999H3.72917C3.83333 1.49999 3.9375 1.54166 4.02083 1.60416L5.3125 2.81249C5.54167 3.04166 5.85417 3.14582 6.16667 3.14582H8.75C8.97917 3.14582 9.16667 3.33332 9.16667 3.56249V7.74999Z" fill="#D0D0D2"/>
</svg>
