<svg width="30" height="30" viewBox="0 0 30 30" fill="none" xmlns="http://www.w3.org/2000/svg">
<path d="M19.7216 23.964C19.818 24.0603 19.7783 24.2283 19.6486 24.27C11.9486 26.736 3.61665 22.7666 1.05498 15.3273C0.982649 15.117 0.982649 14.883 1.05498 14.6726C1.79765 12.5156 3.04498 10.6253 4.64332 9.09931C4.70398 9.04164 4.80132 9.0433 4.86032 9.1023L9.16198 13.404C9.19165 13.434 9.20332 13.4763 9.19265 13.517C8.07665 17.862 12.141 21.912 16.469 20.8106C16.5183 20.798 16.5643 20.8066 16.6003 20.8426C16.9583 21.2006 19.045 23.2873 19.7216 23.964Z" fill="black"/>
<path d="M23.68 22.266C26.0857 20.5743 27.961 18.187 28.946 15.3253C29.0183 15.115 29.0183 14.8853 28.946 14.675C26.954 8.88767 21.35 5 15 5C12.521 5 10.1593 5.59733 8.079 6.66467L2.707 1.293C2.31633 0.902333 1.68367 0.902333 1.293 1.293C0.902333 1.68367 0.902333 2.31633 1.293 2.707L27.293 28.707C27.6837 29.0977 28.3163 29.0977 28.707 28.707C29.0977 28.3163 29.0977 27.6837 28.707 27.293L23.68 22.266ZM15 9C18.3087 9 21 11.6913 21 15C21 16.2937 20.5843 17.49 19.885 18.471L11.529 10.115C12.51 9.41567 13.7063 9 15 9Z" fill="black"/>
</svg>
