<svg width="14" height="14" viewBox="0 0 14 14" fill="none" xmlns="http://www.w3.org/2000/svg">
<path fill-rule="evenodd" clip-rule="evenodd" d="M0.00463867 0.474479C0.00463867 0.216746 0.213572 0.0078125 0.471305 0.0078125H8.53997C8.7977 0.0078125 9.00664 0.216746 9.00664 0.474479V3.38648H10.6026C10.8604 3.38648 11.0693 3.59541 11.0693 3.85315V6.02781C11.0693 6.28555 10.8604 6.49448 10.6026 6.49448H6.45864V7.95981H9.28197C9.5397 7.95981 9.74864 8.16875 9.74864 8.42648V10.0271H12.1193C12.377 10.0271 12.586 10.2361 12.586 10.4938V13.5318C12.586 13.7895 12.377 13.9985 12.1193 13.9985H0.471305C0.213572 13.9985 0.00463867 13.7895 0.00463867 13.5318C0.00463867 13.2741 0.213572 13.0651 0.471305 13.0651H11.6526V10.9605H9.28197C9.02424 10.9605 8.8153 10.7515 8.8153 10.4938V8.89315H5.99197C5.73424 8.89315 5.52531 8.68421 5.52531 8.42648V6.02781C5.52531 5.77008 5.73424 5.56115 5.99197 5.56115H10.136V4.31981H8.53997C8.28224 4.31981 8.07331 4.11088 8.07331 3.85315V0.941146H0.471305C0.213572 0.941146 0.00463867 0.732212 0.00463867 0.474479Z" fill="#D0D0D2"/>
</svg>
