<svg width="14" height="12" viewBox="0 0 14 12" fill="none" xmlns="http://www.w3.org/2000/svg">
<path fill-rule="evenodd" clip-rule="evenodd" d="M1.4 1.65599C1.14227 1.65599 0.933333 1.86492 0.933333 2.12266V9.85532C0.933333 10.1131 1.14227 10.322 1.4 10.322H12.5953C12.8531 10.322 13.062 10.1131 13.062 9.85532V2.12266C13.062 1.86492 12.8531 1.65599 12.5953 1.65599H1.4ZM0 2.12266C0 1.34946 0.626801 0.722656 1.4 0.722656H12.5953C13.3685 0.722656 13.9953 1.34946 13.9953 2.12266V9.85532C13.9953 10.6285 13.3685 11.2553 12.5953 11.2553H1.4C0.626801 11.2553 0 10.6285 0 9.85532V2.12266Z" fill="#D0D0D2"/>
</svg>
