<svg width="14" height="14" viewBox="0 0 14 14" fill="none" xmlns="http://www.w3.org/2000/svg">
<path fill-rule="evenodd" clip-rule="evenodd" d="M9.17932 5.32515C8.51446 6.05687 7.92794 6.8561 7.42932 7.70982C7.15381 8.19688 6.72348 8.57794 6.20666 8.79249C5.77968 8.93234 5.3171 8.91747 4.89999 8.75049C4.58524 8.62149 4.28232 8.46535 3.99466 8.28382L3.91999 8.24182C3.71681 8.11067 3.49711 8.0071 3.26666 7.93382C3.11019 7.91381 2.95128 7.92652 2.79999 7.97115C2.55782 8.0332 2.32192 8.11756 2.09532 8.22315C1.65404 8.43148 1.23369 8.6815 0.839989 8.96982C0.728412 9.05111 0.589603 9.08585 0.452888 9.06669C0.316173 9.04753 0.192259 8.97598 0.107323 8.86715C0.0693291 8.81855 0.0413472 8.76291 0.0249954 8.70343C0.00864353 8.64395 0.00424615 8.58182 0.0120576 8.52063C0.019869 8.45944 0.0397342 8.40041 0.0705043 8.34694C0.101274 8.29348 0.142339 8.24665 0.191323 8.20915C0.64088 7.88127 1.12059 7.59688 1.62399 7.35982C1.91279 7.22289 2.2145 7.11503 2.52466 7.03782C2.82931 6.95809 3.1474 6.94378 3.45799 6.99582C3.80434 7.09337 4.13451 7.24116 4.43799 7.43449L4.49866 7.47182C4.73678 7.62355 4.98827 7.7532 5.24999 7.85915C5.43469 7.9429 5.64326 7.9578 5.83799 7.90115C6.14749 7.75696 6.40029 7.51401 6.55666 7.21048C7.08588 6.29534 7.71168 5.43957 8.42332 4.65782C8.72918 4.34405 9.10734 4.1101 9.52466 3.97648C9.96743 3.85116 10.4417 3.90479 10.8453 4.12582C11.2319 4.33273 11.54 4.66055 11.7227 5.05915C11.8067 5.22715 11.872 5.39982 11.9327 5.55382V5.60515C11.9887 5.74515 12.0307 5.86649 12.082 5.97849C12.1422 6.15939 12.2646 6.31314 12.4273 6.41248C12.7154 6.5073 13.0278 6.49738 13.3093 6.38449C13.4343 6.35138 13.5671 6.36663 13.6813 6.42719C13.7955 6.48774 13.8826 6.58915 13.9253 6.71115C13.9413 6.77154 13.945 6.83453 13.9362 6.89638C13.9274 6.95823 13.9063 7.01768 13.8741 7.07121C13.8419 7.12474 13.7993 7.17126 13.7487 7.20801C13.6982 7.24476 13.6408 7.27099 13.58 7.28515C13.0523 7.46601 12.477 7.44943 11.9607 7.23849C11.6153 7.04467 11.3468 6.7383 11.2 6.37048C11.1393 6.23048 11.0787 6.08115 11.0273 5.95048V5.89915C10.9773 5.7555 10.918 5.61521 10.85 5.47915C10.7596 5.25733 10.5945 5.0741 10.3833 4.96115C10.3021 4.91241 10.2118 4.88066 10.118 4.86783C10.0241 4.85499 9.92865 4.86134 9.83732 4.88648C9.58604 4.97794 9.36039 5.12838 9.17932 5.32515Z" fill="#D0D0D2"/>
</svg>
