<svg width="14" height="14" viewBox="0 0 14 14" fill="none" xmlns="http://www.w3.org/2000/svg">
<path fill-rule="evenodd" clip-rule="evenodd" d="M0 2.7987C0 2.54096 0.208934 2.33203 0.466667 2.33203H13.5333C13.7911 2.33203 14 2.54096 14 2.7987C14 3.05643 13.7911 3.26536 13.5333 3.26536H0.466667C0.208934 3.26536 0 3.05643 0 2.7987Z" fill="#D0D0D2"/>
<path fill-rule="evenodd" clip-rule="evenodd" d="M0 5.59948C0 5.34175 0.208934 5.13281 0.466667 5.13281H13.5333C13.7911 5.13281 14 5.34175 14 5.59948C14 5.85721 13.7911 6.06615 13.5333 6.06615H0.466667C0.208934 6.06615 0 5.85721 0 5.59948Z" fill="#D0D0D2"/>
<path fill-rule="evenodd" clip-rule="evenodd" d="M0 8.40026C0 8.14253 0.208934 7.93359 0.466667 7.93359H13.5333C13.7911 7.93359 14 8.14253 14 8.40026C14 8.65799 13.7911 8.86693 13.5333 8.86693H0.466667C0.208934 8.86693 0 8.65799 0 8.40026Z" fill="#D0D0D2"/>
<path fill-rule="evenodd" clip-rule="evenodd" d="M0 11.201C0 10.9433 0.208934 10.7344 0.466667 10.7344H13.5333C13.7911 10.7344 14 10.9433 14 11.201C14 11.4588 13.7911 11.6677 13.5333 11.6677H0.466667C0.208934 11.6677 0 11.4588 0 11.201Z" fill="#D0D0D2"/>
</svg>
