<svg width="30" height="30" viewBox="0 0 30 30" fill="none" xmlns="http://www.w3.org/2000/svg">
<path fill-rule="evenodd" clip-rule="evenodd" d="M3 8.1C3 7.49249 3.49249 7 4.1 7H25.9C26.5075 7 27 7.49249 27 8.1C27 8.70751 26.5075 9.2 25.9 9.2H4.1C3.49249 9.2 3 8.70751 3 8.1Z" fill="black"/>
<path fill-rule="evenodd" clip-rule="evenodd" d="M3 15.3C3 14.6925 3.49249 14.2 4.1 14.2H20.9C21.5075 14.2 22 14.6925 22 15.3C22 15.9075 21.5075 16.4 20.9 16.4H4.1C3.49249 16.4 3 15.9075 3 15.3Z" fill="black"/>
<path fill-rule="evenodd" clip-rule="evenodd" d="M3 22.1C3 21.4925 3.49249 21 4.1 21H25.9C26.5075 21 27 21.4925 27 22.1C27 22.7075 26.5075 23.2 25.9 23.2H4.1C3.49249 23.2 3 22.7075 3 22.1Z" fill="black"/>
</svg>
