<svg id="Шар_1" data-name="Шар 1" xmlns="http://www.w3.org/2000/svg" viewBox="0 0 30 30">
  <g>
    <path d="M23.47,11H21.35V6.2a6.36,6.36,0,0,0-12.71,0V11H6.53A3.52,3.52,0,0,0,3,14.53v12A3.53,3.53,0,0,0,6.53,30H23.47A3.53,3.53,0,0,0,27,26.48v-12A3.52,3.52,0,0,0,23.47,11ZM11,6.2a4,4,0,0,1,8,0V11H11ZM24.65,26.48a1.18,1.18,0,0,1-1.18,1.18H6.53a1.18,1.18,0,0,1-1.18-1.18v-12a1.18,1.18,0,0,1,1.18-1.17H23.47a1.18,1.18,0,0,1,1.18,1.17Z"/>
    <path d="M15,16.64a2,2,0,0,0-1.09,3.72v2.41a1.09,1.09,0,0,0,2.18,0v-2.4A2,2,0,0,0,15,16.64Z"/>
  </g>
</svg>
