<svg width="30" height="30" viewBox="0 0 30 30" fill="none" xmlns="http://www.w3.org/2000/svg">
<path fill-rule="evenodd" clip-rule="evenodd" d="M4.06349 5.09524C4.06349 4.52542 4.52542 4.06349 5.09524 4.06349H18.9894C19.5592 4.06349 20.0212 3.60156 20.0212 3.03175C20.0212 2.46193 19.5592 2 18.9894 2H5.09524C3.38579 2 2 3.38578 2 5.09524V24.9048C2 26.6142 3.38578 28 5.09524 28H18.9894C19.5592 28 20.0212 27.5381 20.0212 26.9683C20.0212 26.3984 19.5592 25.9365 18.9894 25.9365H5.09524C4.52542 25.9365 4.06349 25.4746 4.06349 24.9048V5.09524ZM23.2097 9.78235C22.8068 9.37943 22.1535 9.37943 21.7506 9.78235C21.3477 10.1853 21.3477 10.8385 21.7506 11.2415L24.4774 13.9683H11.0106C10.4408 13.9683 9.97884 14.4302 9.97884 15C9.97884 15.5698 10.4408 16.0317 11.0106 16.0317H24.4774L21.7506 18.7585C21.3477 19.1615 21.3477 19.8147 21.7506 20.2177C22.1535 20.6206 22.8068 20.6206 23.2097 20.2177L27.6978 15.7296C28.1007 15.3266 28.1007 14.6734 27.6978 14.2704L23.2097 9.78235Z" fill="black"/>
</svg>
