<svg width="256" height="256" viewBox="0 0 256 256" fill="none" xmlns="http://www.w3.org/2000/svg">
<circle cx="128" cy="128" r="120" fill="white"/>
<path fill-rule="evenodd" clip-rule="evenodd" d="M128 240C189.856 240 240 189.856 240 128C240 66.1441 189.856 16 128 16C66.1441 16 16 66.1441 16 128C16 189.856 66.1441 240 128 240ZM128 248C194.274 248 248 194.274 248 128C248 61.7258 194.274 8 128 8C61.7258 8 8 61.7258 8 128C8 194.274 61.7258 248 128 248Z" fill="black"/>
<path fill-rule="evenodd" clip-rule="evenodd" d="M80.7741 159.085C80.7741 161.051 82.3677 162.645 84.3335 162.645C86.2993 162.645 87.893 161.051 87.893 159.085L87.893 151.966C93.7905 151.966 98.5713 147.185 98.5713 141.288L98.5713 86.0989C98.5713 80.2014 93.7905 75.4206 87.893 75.4206L87.893 68.3017C87.893 66.3359 86.2994 64.7422 84.3335 64.7422C82.3677 64.7422 80.7741 66.3359 80.7741 68.3017L80.7741 75.4206C74.8766 75.4206 70.0957 80.2014 70.0957 86.0989L70.0957 141.288C70.0957 147.185 74.8766 151.966 80.7741 151.966L80.7741 159.085ZM127.047 197.323C125.081 197.323 123.487 195.729 123.487 193.763L123.487 186.645C117.59 186.645 112.809 181.864 112.809 175.966L112.809 117.253C112.809 111.355 117.59 106.575 123.487 106.575L123.487 99.4556C123.487 97.4898 125.081 95.8962 127.047 95.8962C129.013 95.8962 130.606 97.4898 130.606 99.4556L130.606 106.575C136.504 106.575 141.285 111.355 141.285 117.253L141.285 175.966C141.285 181.864 136.504 186.645 130.606 186.645L130.606 193.763C130.606 195.729 129.013 197.323 127.047 197.323ZM134.166 175.966C134.166 177.932 132.572 179.526 130.606 179.526L123.487 179.526C121.522 179.526 119.928 177.932 119.928 175.966L119.928 117.253C119.928 115.287 121.522 113.693 123.487 113.693L130.606 113.693C132.572 113.693 134.166 115.287 134.166 117.253L134.166 175.966Z" fill="black"/>
<path fill-rule="evenodd" clip-rule="evenodd" d="M173.322 62.0634C173.322 60.0975 171.729 58.5039 169.763 58.5039C167.797 58.5039 166.203 60.0975 166.203 62.0634L166.203 69.1822C160.306 69.1822 155.525 73.9631 155.525 79.8606L155.525 186.644C155.525 192.541 160.306 197.322 166.203 197.322L166.203 204.441C166.203 206.407 167.797 208.001 169.763 208.001C171.728 208.001 173.322 206.407 173.322 204.441L173.322 197.322C179.22 197.322 184 192.541 184 186.644L184 79.8606C184 73.9631 179.22 69.1823 173.322 69.1823L173.322 62.0634Z" fill="black"/>
</svg>
