<svg width="10" height="10" viewBox="0 0 10 10" fill="none" xmlns="http://www.w3.org/2000/svg">
<g clip-path="url(#clip0)">
<path d="M3.08755 8.92578C3.26652 8.92578 3.41161 8.78069 3.41161 8.60172C3.41161 8.42274 3.26652 8.27765 3.08755 8.27765L2.03434 8.27765L3.8437 6.4683C3.97033 6.34166 3.96995 6.13623 3.84285 6.01006C3.71641 5.88455 3.51227 5.88492 3.38629 6.0109L1.57525 7.82194L1.57525 6.76536C1.57525 6.58638 1.43017 6.4413 1.25119 6.4413C1.07222 6.4413 0.927127 6.58638 0.927127 6.76536L0.927127 8.60172C0.927127 8.78069 1.07222 8.92578 1.25119 8.92578L3.08755 8.92578Z" fill="white"/>
<path d="M6.91245 0.928711C6.73347 0.928711 6.58839 1.0738 6.58839 1.25277C6.58839 1.43175 6.73347 1.57684 6.91245 1.57684L7.96566 1.57684L6.1563 3.38619C6.02967 3.51283 6.03004 3.71826 6.15715 3.84443C6.28359 3.96995 6.48773 3.96957 6.61371 3.84359L8.42475 2.03255L8.42475 3.08913C8.42475 3.26811 8.56983 3.4132 8.74881 3.4132C8.92778 3.4132 9.07287 3.26811 9.07287 3.08913L9.07287 1.25278C9.07287 1.0738 8.92778 0.928711 8.74881 0.928711L6.91245 0.928711Z" fill="white"/>
<path d="M9.07275 6.76694C9.07275 6.58797 8.92767 6.44288 8.74869 6.44288C8.56972 6.44288 8.42463 6.58797 8.42463 6.76694L8.42463 7.82015L6.61527 6.0108C6.48864 5.88416 6.2832 5.88454 6.15703 6.01164C6.03152 6.13808 6.03189 6.34222 6.15787 6.4682L7.96891 8.27924L6.91233 8.27924C6.73336 8.27924 6.58827 8.42433 6.58827 8.6033C6.58827 8.78228 6.73336 8.92736 6.91233 8.92736L8.74869 8.92736C8.92767 8.92736 9.07275 8.78228 9.07275 8.6033L9.07275 6.76694Z" fill="white"/>
<path d="M0.927246 3.08755C0.927246 3.26652 1.07233 3.41161 1.25131 3.41161C1.43028 3.41161 1.57537 3.26652 1.57537 3.08755L1.57537 2.03434L3.38472 3.8437C3.51136 3.97033 3.7168 3.96995 3.84297 3.84285C3.96848 3.71641 3.96811 3.51227 3.84213 3.38629L2.03109 1.57525L3.08767 1.57525C3.26664 1.57525 3.41173 1.43017 3.41173 1.25119C3.41173 1.07221 3.26664 0.927127 3.08767 0.927127L1.25131 0.927126C1.07233 0.927126 0.927246 1.07221 0.927246 1.25119L0.927246 3.08755Z" fill="white"/>
</g>
<defs>
<clipPath id="clip0">
<path d="M0.63623 1.63623C0.63623 1.08395 1.08395 0.63623 1.63623 0.63623H8.3635C8.91579 0.63623 9.3635 1.08395 9.3635 1.63623V8.3635C9.3635 8.91579 8.91579 9.3635 8.3635 9.3635H1.63623C1.08395 9.3635 0.63623 8.91579 0.63623 8.3635V1.63623Z" fill="white"/>
</clipPath>
</defs>
</svg>
