<svg width="28" height="25" viewBox="0 0 28 25" fill="none" xmlns="http://www.w3.org/2000/svg">
<path fill-rule="evenodd" clip-rule="evenodd" d="M2.22222 6C0.994923 6 0 7.00078 0 8.23529V22.7647C0 23.9992 0.994923 25 2.22222 25H19.7778C21.0051 25 22 23.9992 22 22.7647V8.23529C22 7.00078 21.0051 6 19.7778 6H2.22222ZM20.4444 9.57647H1.55556V22.3176C1.55556 23.0584 2.15251 23.6588 2.88889 23.6588H19.1111C19.8475 23.6588 20.4444 23.0584 20.4444 22.3176V9.57647Z" fill="black"/>
<path d="M8.22222 0C6.99492 0 6 1.00078 6 2.23529V8.44444H7.55556V3.57647H26.4444V16.3176C26.4444 17.0584 25.8475 17.6588 25.1111 17.6588H20.9918V19H25.7778C27.0051 19 28 17.9992 28 16.7647V2.23529C28 1.00078 27.0051 0 25.7778 0H8.22222Z" fill="black"/>
</svg>
