<svg width="30" height="30" viewBox="0 0 30 30" fill="none" xmlns="http://www.w3.org/2000/svg">
<path fill-rule="evenodd" clip-rule="evenodd" d="M3.22222 9C1.99492 9 1 10.0008 1 11.2353V25.7647C1 26.9992 1.99492 28 3.22222 28H20.7778C22.0051 28 23 26.9992 23 25.7647V11.2353C23 10.0008 22.0051 9 20.7778 9H3.22222ZM21.4444 12.5765H2.55556V25.3176C2.55556 26.0584 3.15251 26.6588 3.88889 26.6588H20.1111C20.8475 26.6588 21.4444 26.0584 21.4444 25.3176V12.5765Z" fill="black"/>
<path d="M9.22222 3C7.99492 3 7 4.00078 7 5.23529V11.4444H8.55556V6.57647H27.4444V19.3176C27.4444 20.0584 26.8475 20.6588 26.1111 20.6588H21.9918V22H26.7778C28.0051 22 29 20.9992 29 19.7647V5.23529C29 4.00078 28.0051 3 26.7778 3H9.22222Z" fill="black"/>
</svg>
