<svg width="30" height="30" viewBox="0 0 30 30" fill="none" xmlns="http://www.w3.org/2000/svg">
<path d="M9.47994 26.9907C10.0168 26.9907 10.4519 26.5555 10.4519 26.0187C10.4519 25.4819 10.0168 25.0467 9.47994 25.0467L6.32097 25.0467L11.7479 19.6197C12.1278 19.2399 12.1266 18.6237 11.7454 18.2453C11.3661 17.8688 10.7539 17.8699 10.376 18.2478L4.94398 23.6798L4.94398 20.5107C4.94398 19.9739 4.50881 19.5387 3.97199 19.5387C3.43517 19.5387 3 19.9739 3 20.5107L3 26.0187C3 26.5555 3.43517 26.9907 3.97199 26.9907L9.47994 26.9907Z" fill="black"/>
<path d="M20.9514 3.00507C20.4146 3.00507 19.9794 3.44024 19.9794 3.97706C19.9794 4.51387 20.4146 4.94905 20.9514 4.94905L24.1104 4.94905L18.6834 10.376C18.3036 10.7558 18.3047 11.372 18.6859 11.7505C19.0652 12.1269 19.6775 12.1258 20.0553 11.7479L25.4873 6.31591L25.4873 9.48501C25.4873 10.0218 25.9225 10.457 26.4593 10.457C26.9961 10.457 27.4313 10.0218 27.4313 9.48501L27.4313 3.97706C27.4313 3.44024 26.9961 3.00507 26.4593 3.00507L20.9514 3.00507Z" fill="black"/>
<path d="M27.4314 20.5158C27.4314 19.979 26.9962 19.5438 26.4594 19.5438C25.9225 19.5438 25.4874 19.979 25.4874 20.5158L25.4874 23.6748L20.0604 18.2478C19.6806 17.868 19.0644 17.8691 18.686 18.2504C18.3095 18.6296 18.3106 19.2419 18.6885 19.6198L24.1205 25.0518L20.9514 25.0518C20.4146 25.0518 19.9794 25.4869 19.9794 26.0238C19.9794 26.5606 20.4146 26.9957 20.9514 26.9957L26.4594 26.9957C26.9962 26.9957 27.4314 26.5606 27.4314 26.0238L27.4314 20.5158Z" fill="black"/>
<path d="M2.99997 9.47996C2.99997 10.0168 3.43514 10.4519 3.97196 10.4519C4.50878 10.4519 4.94395 10.0168 4.94395 9.47996L4.94395 6.32098L10.3709 11.7479C10.7507 12.1278 11.3669 12.1266 11.7454 11.7454C12.1218 11.3661 12.1207 10.7539 11.7428 10.376L6.31082 4.944L9.47991 4.944C10.0167 4.944 10.4519 4.50882 10.4519 3.972C10.4519 3.43519 10.0167 3.00001 9.47991 3.00001L3.97196 3.00001C3.43515 3.00001 2.99997 3.43519 2.99997 3.972L2.99997 9.47996Z" fill="black"/>
</svg>
