<svg width="30" height="30" viewBox="0 0 30 30" fill="none" xmlns="http://www.w3.org/2000/svg">
<g clip-path="url(#clip0)">
<path d="M29.286 6.28594L24.0104 1.01043C23.1596 0.159536 21.7465 0.162582 20.8919 1.01715L1.01715 20.8919C0.162588 21.7465 0.159543 23.1595 1.01043 24.0104L6.26164 29.2616C7.11252 30.1125 8.52562 30.1095 9.38018 29.2549L29.2549 9.38017C30.1338 8.54992 30.1368 7.13683 29.286 6.28594ZM7.97014 27.8449C7.89689 27.9181 7.79943 27.9183 7.7265 27.8454L2.45098 22.5699C2.37805 22.4969 2.37826 22.3995 2.45151 22.3262L3.96531 20.8124L5.88589 22.733C6.27487 23.122 6.93263 23.1449 7.34771 22.7299C7.76278 22.3148 7.76415 21.6813 7.35086 21.2681L5.43028 19.3475L7.06616 17.7116L8.98674 19.6322C9.37572 20.0212 10.0335 20.0441 10.4486 19.629C10.8636 19.2139 10.865 18.5805 10.4517 18.1672L8.53113 16.2466L10.167 14.6107L13.1087 17.5524C13.4976 17.9414 14.1554 17.9643 14.5705 17.5492C14.9856 17.1342 14.9869 16.5007 14.5736 16.0874L11.632 13.1458L13.2679 11.5099L15.1884 13.4305C15.5774 13.8195 16.2352 13.8424 16.6503 13.4273C17.0409 13.0367 17.0667 12.3788 16.6534 11.9655L14.7328 10.0449L16.3687 8.40904L18.2893 10.3296C18.6783 10.7186 19.336 10.7415 19.7511 10.3265C20.1418 9.93581 20.1675 9.27794 19.7543 8.86465L17.8337 6.94407L19.3719 5.40586L22.3135 8.3475C22.7025 8.73648 23.3603 8.75943 23.7754 8.34435C24.166 7.95369 24.1918 7.29582 23.7785 6.88253L20.8369 3.94089L22.3263 2.4515C22.3995 2.37825 22.497 2.37804 22.5699 2.45098L27.8211 7.70218C27.894 7.77511 27.8938 7.87257 27.8206 7.94582L7.94582 27.8206L7.97014 27.8449Z" fill="black"/>
</g>
</svg>
