<svg width="30" height="30" viewBox="0 0 30 30" fill="none" xmlns="http://www.w3.org/2000/svg">
<path fill-rule="evenodd" clip-rule="evenodd" d="M24 21.6C24 22.2627 23.4627 22.8 22.8 22.8L2.19999 22.8C1.53725 22.8 0.999996 22.2627 0.999996 21.6C0.999997 20.9372 1.53725 20.4 2.19999 20.4L22.8 20.4C23.4627 20.4 24 20.9372 24 21.6Z" fill="black"/>
<path fill-rule="evenodd" clip-rule="evenodd" d="M29 14.2C29 14.8627 28.4627 15.4 27.8 15.4L7.2 15.4C6.53726 15.4 6 14.8627 6 14.2C6 13.5372 6.53726 13 7.2 13L27.8 13C28.4627 13 29 13.5373 29 14.2Z" fill="black"/>
<path fill-rule="evenodd" clip-rule="evenodd" d="M24 6.99995C24 7.66269 23.4627 8.19995 22.8 8.19995L2.2 8.19995C1.53726 8.19995 1 7.66269 1 6.99995C1 6.33721 1.53726 5.79995 2.2 5.79995L22.8 5.79995C23.4627 5.79995 24 6.33721 24 6.99995Z" fill="black"/>
</svg>
