<svg width="30" height="30" viewBox="0 0 30 30" fill="none" xmlns="http://www.w3.org/2000/svg">
<path d="M4.06042 2.68344C3.68257 2.30558 3.07028 2.30445 2.69103 2.68091C2.3098 3.05934 2.30866 3.67553 2.6885 4.05536L8.12557 9.49244H4.95648C4.41966 9.49244 3.98448 9.92761 3.98448 10.4644C3.98448 11.0012 4.41966 11.4364 4.95648 11.4364H10.4644C11.0012 11.4364 11.4364 11.0012 11.4364 10.4644V4.95647C11.4364 4.41966 11.0012 3.98448 10.4644 3.98448C9.92761 3.98448 9.49244 4.41966 9.49244 4.95648V8.11545L4.06042 2.68344ZM27.3097 2.68091C26.9305 2.30445 26.3182 2.30558 25.9404 2.68344L20.5083 8.11545V4.95648C20.5083 4.41966 20.0732 3.98448 19.5364 3.98448C18.9995 3.98448 18.5644 4.41966 18.5644 4.95648V10.4644C18.5644 11.0012 18.9995 11.4364 19.5364 11.4364H25.0443C25.5811 11.4364 26.0163 11.0012 26.0163 10.4644C26.0163 9.92761 25.5811 9.49244 25.0443 9.49244H21.8752L27.3123 4.05536C27.6921 3.67553 27.691 3.05934 27.3097 2.68091ZM4.95647 18.5644C4.41966 18.5644 3.98448 18.9995 3.98448 19.5364C3.98448 20.0732 4.41966 20.5083 4.95648 20.5083H8.11545L2.6885 25.9353C2.30866 26.3151 2.3098 26.9313 2.69103 27.3097C3.07028 27.6862 3.68257 27.6851 4.06043 27.3072L9.49244 21.8752V25.0443C9.49244 25.5811 9.92761 26.0163 10.4644 26.0163C11.0012 26.0163 11.4364 25.5811 11.4364 25.0443V19.5364C11.4364 18.9995 11.0012 18.5644 10.4644 18.5644H4.95647ZM19.5364 18.5644C18.9995 18.5644 18.5644 18.9995 18.5644 19.5364V25.0443C18.5644 25.5811 18.9995 26.0163 19.5364 26.0163C20.0732 26.0163 20.5083 25.5811 20.5083 25.0443V21.8752L25.9404 27.3072C26.3182 27.6851 26.9305 27.6862 27.3097 27.3097C27.691 26.9313 27.6921 26.3151 27.3123 25.9353L21.8853 20.5083H25.0443C25.5811 20.5083 26.0163 20.0732 26.0163 19.5364C26.0163 18.9995 25.5811 18.5644 25.0443 18.5644H19.5364Z" fill="black"/>
</svg>
