<svg width="30" height="30" viewBox="0 0 30 30" fill="none" xmlns="http://www.w3.org/2000/svg">
<g clip-path="url(#clip0)">
<path d="M2.29341 0.704502C1.9039 0.314996 1.27275 0.313832 0.881811 0.701898L0.712335 0.870129C0.319349 1.26022 0.318177 1.8954 0.709721 2.28695L7.06831 8.64553H3.2899C2.73761 8.64553 2.2899 9.09325 2.2899 9.64553V9.8887C2.2899 10.441 2.73761 10.8887 3.2899 10.8887H9.76712H9.8887C10.441 10.8887 10.8887 10.441 10.8887 9.8887V9.76712V3.2899C10.8887 2.73761 10.441 2.2899 9.8887 2.2899H9.64553C9.09325 2.2899 8.64553 2.73761 8.64553 3.2899V7.05662L2.29341 0.704502ZM29.1205 0.701898C28.7296 0.313832 28.0984 0.314997 27.7089 0.704502L21.3568 7.05662V3.2899C21.3568 2.73761 20.9091 2.2899 20.3568 2.2899H20.1136C19.5614 2.2899 19.1136 2.73761 19.1136 3.2899V9.76712V9.8887C19.1136 10.441 19.5614 10.8887 20.1136 10.8887H20.2352H26.7124C27.2647 10.8887 27.7124 10.441 27.7124 9.8887V9.64553C27.7124 9.09325 27.2647 8.64553 26.7124 8.64553H22.934L29.2926 2.28695C29.6842 1.8954 29.683 1.26022 29.29 0.870129L29.1205 0.701898ZM3.2899 19.1136C2.73761 19.1136 2.2899 19.5614 2.2899 20.1136V20.3568C2.2899 20.9091 2.73761 21.3568 3.2899 21.3568H7.05662L0.70972 27.7037C0.318176 28.0953 0.319349 28.7304 0.712334 29.1205L0.881812 29.2888C1.27275 29.6768 1.90391 29.6757 2.29341 29.2862L8.64553 22.934V26.7124C8.64553 27.2647 9.09325 27.7124 9.64553 27.7124H9.8887C10.441 27.7124 10.8887 27.2647 10.8887 26.7124V20.2352V20.1136C10.8887 19.5614 10.441 19.1136 9.8887 19.1136H9.76712H3.2899ZM20.1136 19.1136C19.5614 19.1136 19.1136 19.5614 19.1136 20.1136V20.2352V26.7124C19.1136 27.2647 19.5614 27.7124 20.1136 27.7124H20.3568C20.9091 27.7124 21.3568 27.2647 21.3568 26.7124V22.934L27.7089 29.2862C28.0984 29.6757 28.7296 29.6768 29.1205 29.2888L29.29 29.1205C29.683 28.7304 29.6842 28.0953 29.2926 27.7037L22.9457 21.3568H26.7124C27.2647 21.3568 27.7124 20.9091 27.7124 20.3568V20.1136C27.7124 19.5614 27.2647 19.1136 26.7124 19.1136H20.2352H20.1136Z" fill="black"/>
</g>
<defs>
<clipPath id="clip0">
<rect width="30" height="30" fill="white"/>
</clipPath>
</defs>
</svg>
