<svg width="30" height="30" viewBox="0 0 30 30" fill="none" xmlns="http://www.w3.org/2000/svg">
<g clip-path="url(#clip0)">
<path d="M20.0589 24.6043C20.1621 24.7075 20.1196 24.8875 19.9807 24.9321C11.7307 27.5743 2.80355 23.3214 0.0589032 15.3507C-0.0185968 15.1253 -0.0185968 14.8746 0.0589032 14.6493C0.854617 12.3382 2.19105 10.3128 3.90355 8.67784C3.96855 8.61605 4.07283 8.61784 4.13605 8.68105L8.74498 13.29C8.77676 13.3221 8.78926 13.3675 8.77783 13.4111C7.58212 18.0664 11.9368 22.4057 16.5739 21.2257C16.6268 21.2121 16.676 21.2214 16.7146 21.26C17.0982 21.6436 19.3339 23.8793 20.0589 24.6043Z" fill="black"/>
<path d="M24.3 22.785C26.8775 20.9725 28.8868 18.4146 29.9421 15.3486C30.0196 15.1232 30.0196 14.8771 29.9421 14.6518C27.8079 8.45107 21.8036 4.28571 15 4.28571C12.3439 4.28571 9.81357 4.92571 7.58464 6.06929L1.82893 0.313929C1.41036 -0.104643 0.7325 -0.104643 0.313929 0.313929C-0.104643 0.7325 -0.104643 1.41036 0.313929 1.82893L28.1711 29.6861C28.5896 30.1046 29.2675 30.1046 29.6861 29.6861C30.1046 29.2675 30.1046 28.5896 29.6861 28.1711L24.3 22.785ZM15 8.57143C18.545 8.57143 21.4286 11.455 21.4286 15C21.4286 16.3861 20.9832 17.6679 20.2339 18.7189L11.2811 9.76607C12.3321 9.01679 13.6139 8.57143 15 8.57143Z" fill="black"/>
</g>
</svg>
