<svg width="30" height="30" viewBox="0 0 30 30" fill="none" xmlns="http://www.w3.org/2000/svg">
<path fill-rule="evenodd" clip-rule="evenodd" d="M6.56309 16.7796C6.56309 17.4856 6.27425 18.1596 5.76077 18.6089L4.95846 19.3149C3.8994 20.2777 3.86731 21.9144 4.86218 22.9093C5.34357 23.3907 5.95333 23.6474 6.62727 23.6474H24.3103C24.9842 23.6474 25.594 23.3907 26.0754 22.9093C27.0702 21.9144 27.0382 20.2777 25.9791 19.3149L25.1768 18.6089C24.6633 18.1275 24.3745 17.4856 24.3745 16.7796V12.8643C24.3745 8.69226 21.1652 3.75 15.7095 3.75H15.2281C9.77234 3.75 6.56309 8.66017 6.56309 12.8643V16.7796ZM24.4084 21.0547L23.6007 20.344L23.5738 20.3187C22.6052 19.4107 22.0307 18.1571 22.0307 16.7796V12.8643C22.0307 9.60049 19.5157 6.09375 15.7095 6.09375H15.2281C11.4173 6.09375 8.90684 9.57377 8.90684 12.8643V16.7793C8.90684 18.1078 8.3652 19.4426 7.30722 20.37C7.3062 20.3709 7.30517 20.3718 7.30414 20.3727L6.52918 21.0547C6.46423 21.1192 6.47452 21.207 6.51946 21.252C6.55489 21.2874 6.57518 21.2959 6.57803 21.2971C6.58077 21.2982 6.58446 21.2995 6.59033 21.3007C6.59627 21.3019 6.60809 21.3037 6.62727 21.3037H24.3103C24.3295 21.3037 24.3413 21.3019 24.3472 21.3007C24.3503 21.3001 24.3528 21.2994 24.3548 21.2988C24.3567 21.2982 24.3582 21.2977 24.3595 21.2971C24.362 21.2961 24.3823 21.2878 24.4181 21.252C24.463 21.207 24.4733 21.1192 24.4084 21.0547Z" fill="black"/>
<path d="M15.453 28.4612C17.3143 28.4612 18.8227 26.9528 18.8227 25.0915H12.0833C12.0833 26.9528 13.5916 28.4612 15.453 28.4612Z" fill="black"/>
</svg>
