<svg width="14" height="14" viewBox="0 0 14 14" fill="none" xmlns="http://www.w3.org/2000/svg">
<path opacity="0.2" d="M14 7C14 10.866 10.866 14 7 14C3.13401 14 0 10.866 0 7C0 3.13401 3.13401 0 7 0C10.866 0 14 3.13401 14 7Z" fill="#D0D0D2"/>
<path d="M9.93327 3.2666H4.0666C3.62477 3.2666 3.2666 3.62477 3.2666 4.0666V9.93327C3.2666 10.3751 3.62477 10.7333 4.0666 10.7333H9.93327C10.3751 10.7333 10.7333 10.3751 10.7333 9.93327V4.0666C10.7333 3.62477 10.3751 3.2666 9.93327 3.2666ZM10.1999 9.93327C10.1999 10.0805 10.0805 10.1999 9.93325 10.1999H4.0666C3.91932 10.1999 3.79993 10.0805 3.79993 9.93327V4.0666C3.79993 3.91932 3.91932 3.79993 4.0666 3.79993H9.93327C10.0805 3.79993 10.1999 3.91932 10.1999 4.0666V9.93327H10.1999Z" fill="#D0D0D2"/>
<path d="M8.30339 4.8667H5.90339C5.75611 4.8667 5.63672 4.98609 5.63672 5.13337C5.63672 5.28065 5.75611 5.40004 5.90339 5.40004H8.30339C8.45067 5.40004 8.57006 5.28065 8.57006 5.13337C8.57006 4.98609 8.45065 4.8667 8.30339 4.8667Z" fill="#D0D0D2"/>
<path d="M8.30339 6.7334H5.90339C5.75611 6.7334 5.63672 6.85279 5.63672 7.00007C5.63672 7.14735 5.75611 7.26673 5.90339 7.26673H8.30339C8.45067 7.26673 8.57006 7.14734 8.57006 7.00005C8.57006 6.85277 8.45065 6.7334 8.30339 6.7334Z" fill="#D0D0D2"/>
<path d="M8.30339 8.59985H5.90339C5.75611 8.59985 5.63672 8.71924 5.63672 8.86652C5.63672 9.01381 5.75611 9.1332 5.90339 9.1332H8.30339C8.45067 9.1332 8.57006 9.01381 8.57006 8.86652C8.57006 8.71924 8.45065 8.59985 8.30339 8.59985Z" fill="#D0D0D2"/>
</svg>
