<svg id="Layer_1" data-name="Layer 1" xmlns="http://www.w3.org/2000/svg" viewBox="0 0 30 30">
  <path d="M30,15A15,15,0,1,1,15,0,15,15,0,0,1,30,15Z" style="fill: #d1d1d3;opacity: 0.200000002980232;isolation: isolate"/>
  <path d="M23.08,14.9A8.1,8.1,0,0,0,16.73,7a2,2,0,0,0-3.46,0A8.1,8.1,0,0,0,6.92,14.9a7.93,7.93,0,0,0,.78,3.44A2,2,0,0,0,7,19.86a2,2,0,0,0,3.25,1.57,8,8,0,0,0,9.47,0,2,2,0,0,0,2.57-3.08A7.93,7.93,0,0,0,23.08,14.9Zm-1.88,3-.26,0a2,2,0,0,0-2,2,2,2,0,0,0,.09.6,6.71,6.71,0,0,1-4,1.32,6.79,6.79,0,0,1-4.07-1.35,2.12,2.12,0,0,0,.08-.57,2,2,0,0,0-2-2H8.8a6.67,6.67,0,0,1-.68-3A6.9,6.9,0,0,1,13,8.31a2,2,0,0,0,4,0,6.9,6.9,0,0,1,4.9,6.59A6.75,6.75,0,0,1,21.2,17.87Z" style="fill: #d1d1d3"/>
</svg>
