<svg id="Шар_1" data-name="Шар 1" xmlns="http://www.w3.org/2000/svg" viewBox="0 0 30 30">
  <path d="M30,6.47A6.5,6.5,0,1,1,23.5,0,6.5,6.5,0,0,1,30,6.47Z" style="fill: #4895f5;fill-rule: evenodd"/>
  <g>
    <path d="M29.05,18.66l-1.17-1.13a4.94,4.94,0,0,1-1.48-3,8.61,8.61,0,0,1-2,.46,6.91,6.91,0,0,0,2,4l1.17,1.13a1.08,1.08,0,0,1,.34.79A1.11,1.11,0,0,1,26.89,22H3.11A1.11,1.11,0,0,1,2,20.89a1.08,1.08,0,0,1,.34-.79L3.51,19a7,7,0,0,0,2.12-5V11.37A9.37,9.37,0,0,1,15,2a10.19,10.19,0,0,1,1.24.08A8.35,8.35,0,0,1,17.67.32,11.22,11.22,0,0,0,15,0,11.37,11.37,0,0,0,3.63,11.37V14a4.91,4.91,0,0,1-1.51,3.55L1,18.66A3.1,3.1,0,0,0,3.11,24H26.89a3.1,3.1,0,0,0,2.16-5.34Z" style="fill-rule: evenodd"/>
    <path d="M15,30a4,4,0,0,0,4-4H11A4,4,0,0,0,15,30Z" style="fill-rule: evenodd"/>
  </g>
</svg>
