<svg width="30" height="30" viewBox="0 0 30 30" fill="none" xmlns="http://www.w3.org/2000/svg">
<path fill-rule="evenodd" clip-rule="evenodd" d="M13.4957 3.81305C8.68335 4.3976 5.88529 8.93874 5.88529 12.8643V16.7796C5.88529 17.4856 5.59646 18.1596 5.08298 18.6089L4.28066 19.3149C3.22161 20.2777 3.18951 21.9144 4.18438 22.9093C4.66577 23.3907 5.27553 23.6474 5.94948 23.6474H23.6325C24.3064 23.6474 24.9162 23.3907 25.3976 22.9093C26.3925 21.9144 26.3604 20.2777 25.3013 19.3149L24.499 18.6089C23.9855 18.1275 23.6967 17.4856 23.6967 16.7796V13.2866C22.9716 13.6287 22.1828 13.8581 21.3529 13.952V16.7796C21.3529 18.1571 21.9274 19.4107 22.896 20.3187L22.9229 20.344L23.7306 21.0547C23.7955 21.1192 23.7852 21.2071 23.7403 21.252C23.7049 21.2874 23.6846 21.2959 23.6817 21.2971L23.677 21.2988L23.6733 21.2999L23.6694 21.3007C23.6635 21.3019 23.6517 21.3037 23.6325 21.3037H5.94948C5.93029 21.3037 5.91848 21.3019 5.91253 21.3007C5.90666 21.2995 5.90298 21.2983 5.90023 21.2971C5.89738 21.2959 5.87709 21.2874 5.84166 21.252C5.79672 21.2071 5.78644 21.1192 5.85139 21.0547L6.62635 20.3727L6.62943 20.37C7.6874 19.4426 8.22904 18.1078 8.22904 16.7793V12.8643C8.22904 10.043 10.0745 7.08249 13.0027 6.29545C13.0261 5.42261 13.1986 4.58696 13.4957 3.81305ZM18.1448 25.0914C18.1448 26.9528 16.6364 28.4611 14.7751 28.4611C12.9137 28.4611 11.4054 26.9528 11.4054 25.0914H18.1448Z" fill="black"/>
</svg>
