<svg id="Шар_1" data-name="Шар 1" xmlns="http://www.w3.org/2000/svg" viewBox="0 0 30 30">
  <g>
    <path d="M29.05,18.66l-1.17-1.13A5,5,0,0,1,26.37,14V11.37a11.37,11.37,0,0,0-22.74,0V14a5,5,0,0,1-1.51,3.55L1,18.66A3.1,3.1,0,0,0,3.11,24H26.89a3.1,3.1,0,0,0,2.16-5.34ZM26.89,22H3.11A1.1,1.1,0,0,1,2,20.89a1.08,1.08,0,0,1,.34-.79L3.51,19a7,7,0,0,0,2.12-5V11.37a9.37,9.37,0,0,1,18.74,0V14a7,7,0,0,0,2.12,5l1.17,1.13a1.08,1.08,0,0,1,.34.79A1.1,1.1,0,0,1,26.89,22Z" style="fill-rule: evenodd"/>
    <path d="M15,30a4,4,0,0,0,4-4H11A4,4,0,0,0,15,30Z" style="fill-rule: evenodd"/>
  </g>
</svg>
