<svg width="14" height="14" viewBox="0 0 14 14" fill="none" xmlns="http://www.w3.org/2000/svg">
<path opacity="0.2" d="M14 7C14 10.866 10.866 14 7 14C3.13401 14 0 10.866 0 7C0 3.13401 3.13401 0 7 0C10.866 0 14 3.13401 14 7Z" fill="#C93B3B"/>
<path d="M7.00005 8.45044C6.76521 8.45044 6.56836 8.64729 6.56836 8.88213C6.56836 9.11697 6.76521 9.31382 7.00005 9.31382C7.22625 9.31382 7.43173 9.11697 7.42137 8.89249C7.43173 8.64556 7.23661 8.45044 7.00005 8.45044Z" fill="#C93B3B"/>
<path d="M10.9954 9.98043C11.2665 9.51248 11.2682 8.95474 10.9988 8.48852L8.29476 3.80558C8.02711 3.33418 7.54362 3.05444 7.00142 3.05444C6.45923 3.05444 5.97574 3.3359 5.70809 3.80385L3.00055 8.49198C2.73117 8.96338 2.7329 9.52457 3.00573 9.99252C3.2751 10.4553 3.75686 10.7333 4.29561 10.7333H9.69688C10.2374 10.7333 10.7226 10.4518 10.9954 9.98043ZM10.4083 9.64199C10.2581 9.901 9.99215 10.0547 9.69515 10.0547H4.29388C4.00034 10.0547 3.73614 9.90446 3.58937 9.65062C3.44087 9.39334 3.43914 9.08598 3.58764 8.82696L6.29518 4.14057C6.44196 3.88328 6.70442 3.73133 7.00142 3.73133C7.2967 3.73133 7.56089 3.88501 7.70767 4.1423L10.4135 8.82869C10.5585 9.0808 10.5568 9.3847 10.4083 9.64199Z" fill="#C93B3B"/>
<path d="M6.89283 5.42015C6.68735 5.47886 6.55957 5.66534 6.55957 5.89155C6.56993 6.02796 6.57856 6.1661 6.58892 6.30252C6.61828 6.82227 6.64763 7.33166 6.67699 7.85141C6.68735 8.02754 6.82376 8.15532 6.99989 8.15532C7.17602 8.15532 7.31416 8.0189 7.32279 7.84105C7.32279 7.73399 7.32279 7.63557 7.33315 7.52678C7.35215 7.19352 7.37287 6.86026 7.39186 6.52699C7.40222 6.31115 7.42122 6.09531 7.43158 5.87946C7.43158 5.80176 7.42122 5.73269 7.39186 5.66362C7.3038 5.47022 7.09831 5.3718 6.89283 5.42015Z" fill="#C93B3B"/>
</svg>
