<svg width="14" height="14" viewBox="0 0 14 14" fill="none" xmlns="http://www.w3.org/2000/svg">
<path fill-rule="evenodd" clip-rule="evenodd" d="M7.85809 3.36579C9.50631 3.7535 10.7333 5.23347 10.7333 7.00002C10.7333 7.57186 10.6047 8.11367 10.3749 8.59813C10.5931 8.76897 10.7333 9.0348 10.7333 9.33338C10.7333 9.84885 10.3154 10.2667 9.79993 10.2667C9.56198 10.2667 9.34482 10.1777 9.17997 10.0311C8.5666 10.473 7.81367 10.7334 6.99993 10.7334C6.16731 10.7334 5.39835 10.4608 4.77741 10C4.61854 10.1253 4.41797 10.2001 4.19993 10.2001C3.68447 10.2001 3.2666 9.7822 3.2666 9.26673C3.2666 8.97857 3.39719 8.72091 3.60243 8.5497C3.38678 8.07767 3.2666 7.55288 3.2666 7.00002C3.2666 5.23347 4.49356 3.7535 6.14178 3.36579C6.28448 3.03309 6.61499 2.80005 6.99993 2.80005C7.38488 2.80005 7.71539 3.03309 7.85809 3.36579ZM8.90908 9.61257C8.37393 10.0043 7.71394 10.2356 6.99993 10.2356C6.27772 10.2356 5.61077 9.99895 5.07239 9.599C5.11172 9.49578 5.13327 9.38377 5.13327 9.26673C5.13327 8.75127 4.7154 8.3334 4.19993 8.3334C4.151 8.3334 4.10294 8.33716 4.05604 8.34442C3.86876 7.93498 3.76438 7.47969 3.76438 7.00002C3.76438 5.53234 4.7416 4.2929 6.08087 3.89686C6.15816 4.33438 6.54024 4.66672 6.99993 4.66672C7.45963 4.66672 7.8417 4.33438 7.919 3.89686C9.25827 4.2929 10.2355 5.53234 10.2355 7.00002C10.2355 7.50427 10.1201 7.98158 9.91438 8.407C9.87688 8.40241 9.83868 8.40005 9.79993 8.40005C9.28447 8.40005 8.8666 8.81792 8.8666 9.33338C8.8666 9.43064 8.88148 9.52442 8.90908 9.61257Z" fill="#009950"/>
<path opacity="0.2" d="M14 7C14 10.866 10.866 14 7 14C3.13401 14 0 10.866 0 7C0 3.13401 3.13401 0 7 0C10.866 0 14 3.13401 14 7Z" fill="#009950"/>
</svg>
