<svg width="8" height="8" viewBox="0 0 8 8" fill="none" xmlns="http://www.w3.org/2000/svg">
<path d="M1.6 0H0V1.6H1.6V0Z" fill="white"/>
<path d="M4.8002 0H3.2002V1.6H4.8002V0Z" fill="white"/>
<path d="M6.3998 1.6001H4.7998V3.2001H6.3998V1.6001Z" fill="white"/>
<path d="M3.2001 1.6001H1.6001V3.2001H3.2001V1.6001Z" fill="white"/>
<path d="M7.9999 0H6.3999V1.6H7.9999V0Z" fill="white"/>
<path d="M1.6 3.2002H0V4.8002H1.6V3.2002Z" fill="white"/>
<path d="M4.8002 3.2002H3.2002V4.8002H4.8002V3.2002Z" fill="white"/>
<path d="M6.3998 4.7998H4.7998V6.3998H6.3998V4.7998Z" fill="white"/>
<path d="M3.2001 4.7998H1.6001V6.3998H3.2001V4.7998Z" fill="white"/>
<path d="M7.9999 3.2002H6.3999V4.8002H7.9999V3.2002Z" fill="white"/>
<path d="M1.6 6.3999H0V7.9999H1.6V6.3999Z" fill="white"/>
<path d="M4.8002 6.3999H3.2002V7.9999H4.8002V6.3999Z" fill="white"/>
<path d="M7.9999 6.3999H6.3999V7.9999H7.9999V6.3999Z" fill="white"/>
</svg>
