<svg width="20" height="20" viewBox="0 0 20 20" fill="none" xmlns="http://www.w3.org/2000/svg">
<circle opacity="0.2" cx="10" cy="10" r="10" fill="#C93B3B"/>
<path d="M14.1905 4.66663H5.80951C5.17833 4.66663 4.66666 5.1783 4.66666 5.80948V14.1904C4.66666 14.8216 5.17833 15.3333 5.80951 15.3333H14.1905C14.8216 15.3333 15.3333 14.8216 15.3333 14.1904V5.80948C15.3333 5.1783 14.8216 4.66663 14.1905 4.66663ZM14.5714 14.1904C14.5714 14.4008 14.4008 14.5714 14.1904 14.5714H5.80951C5.59911 14.5714 5.42855 14.4008 5.42855 14.1904V5.80948C5.42855 5.59908 5.59911 5.42852 5.80951 5.42852H14.1905C14.4009 5.42852 14.5714 5.59908 14.5714 5.80948V14.1904H14.5714Z" fill="#C93B3B"/>
<path d="M11.8624 6.95239H8.43388C8.22348 6.95239 8.05292 7.12295 8.05292 7.33335C8.05292 7.54375 8.22348 7.71431 8.43388 7.71431H11.8624C12.0728 7.71431 12.2434 7.54375 12.2434 7.33335C12.2434 7.12295 12.0728 6.95239 11.8624 6.95239Z" fill="#C93B3B"/>
<path d="M11.8624 9.61902H8.43388C8.22348 9.61902 8.05292 9.78958 8.05292 9.99998C8.05292 10.2104 8.22348 10.3809 8.43388 10.3809H11.8624C12.0728 10.3809 12.2434 10.2104 12.2434 9.99996C12.2434 9.78955 12.0728 9.61902 11.8624 9.61902Z" fill="#C93B3B"/>
<path d="M11.8624 12.2856H8.43388C8.22348 12.2856 8.05292 12.4562 8.05292 12.6666C8.05292 12.877 8.22348 13.0476 8.43388 13.0476H11.8624C12.0728 13.0476 12.2434 12.877 12.2434 12.6666C12.2434 12.4562 12.0728 12.2856 11.8624 12.2856Z" fill="#C93B3B"/>
</svg>
