<svg width="22" height="22" viewBox="0 0 22 22" fill="none" xmlns="http://www.w3.org/2000/svg">
<path fill-rule="evenodd" clip-rule="evenodd" d="M15.7124 4.77638C16.112 4.37059 16.7649 4.36561 17.1707 4.76525L20.6611 8.20275C20.9593 8.49643 21.0504 8.94122 20.8918 9.3285C20.7331 9.71579 20.356 9.96875 19.9375 9.96875H4.8125C4.24296 9.96875 3.78125 9.50704 3.78125 8.9375C3.78125 8.36796 4.24296 7.90625 4.8125 7.90625H17.4207L15.7235 6.23475C15.3177 5.83511 15.3127 5.18217 15.7124 4.77638Z" fill="white" fill-opacity="0.8"/>
<path fill-rule="evenodd" clip-rule="evenodd" d="M7.67723 17.8624C7.23135 18.3375 6.49884 18.3375 6.05296 17.8624L1.12433 12.6102C1.03055 12.5103 1.00509 12.3642 1.05954 12.2384C1.11399 12.1127 1.23795 12.0313 1.37499 12.0313L16.3935 12.0313C17.0421 12.0313 17.5313 12.5849 17.5313 13.2212C17.5313 13.8574 17.0421 14.4111 16.3935 14.4111L6.00289 14.4111L7.67723 16.1953C8.11143 16.658 8.11143 17.3997 7.67723 17.8624L7.67723 17.8624ZM6.55429 17.3919C6.7286 17.5777 7.00159 17.5777 7.1759 17.3919C7.36187 17.1938 7.36187 16.8639 7.17589 16.6657L4.95825 14.3025C4.86447 14.2026 4.83901 14.0565 4.89346 13.9307C4.94791 13.805 5.07187 13.7236 5.20892 13.7236L16.3935 13.7236C16.6219 13.7236 16.8438 13.5195 16.8438 13.2212C16.8438 12.9228 16.6219 12.7188 16.3935 12.7188L2.16897 12.7188L6.55429 17.3919Z" fill="white" fill-opacity="0.8"/>
</svg>
