<svg width="14" height="14" viewBox="0 0 14 14" fill="none" xmlns="http://www.w3.org/2000/svg">
  <path d="M12.6002 0.389295C12.5539 0.341566 12.4983 0.303568 12.4367 0.277604C12.3751 0.25164 12.3087 0.238253 12.2417 0.238253C12.1746 0.238253 12.1083 0.25164 12.0467 0.277604C11.985 0.303568 11.9294 0.341566 11.8832 0.389295L11.1491 1.09416L10.1761 0.137558C10.0784 0.0491021 9.9504 0 9.81758 0C9.68475 0 9.55679 0.0491021 9.45908 0.137558L5.32787 4.19892L6.06193 4.92057L9.81758 1.21164L10.1761 1.54729L6.53992 5.12196L5.82293 5.82682L0.735742 10.828C0.668541 10.8921 0.621187 10.9735 0.599173 11.063L0.0187547 13.3789C-0.00593213 13.4646 -0.00625339 13.5553 0.0178259 13.6411C0.0419052 13.7269 0.0894625 13.8046 0.155323 13.8656C0.252614 13.9544 0.381138 14.0025 0.513817 13.9999H0.633315L2.98913 13.4293L3.22812 13.295L13.0269 3.6451C13.1051 3.57014 13.1558 3.4719 13.1712 3.36567C13.1866 3.25944 13.1659 3.15117 13.1123 3.05771L13.8464 2.31928C13.8949 2.27383 13.9336 2.21915 13.96 2.15857C13.9864 2.09799 14 2.03276 14 1.96685C14 1.90094 13.9864 1.83571 13.96 1.77513C13.9336 1.71455 13.8949 1.65987 13.8464 1.61442L12.6002 0.389295ZM2.86963 12.221L1.81122 11.1972L6.53992 6.54847L7.58126 7.5722L2.86963 12.221Z" fill="#D0D0D2"/>
</svg>

