<svg width="13" height="13" viewBox="0 0 13 13" fill="none" xmlns="http://www.w3.org/2000/svg">
<path fill-rule="evenodd" clip-rule="evenodd" d="M8.76992 1.94849L8.31386 1.49242C8.06257 1.24114 8.06106 0.835237 8.31439 0.5819C8.56598 0.330318 8.97498 0.33143 9.22492 0.581363L12.5666 3.923C12.8178 4.17428 12.8194 4.58018 12.566 4.83352C12.3144 5.0851 11.9054 5.08399 11.6555 4.83406L11.1994 4.37799L8.64413 6.93328C8.64413 6.93328 9.75903 10.07 7.73307 12.096L7.1257 12.7033L4.08883 9.66646L0.928667 12.8266C0.759562 12.9957 0.487678 12.998 0.318788 12.8291C0.151066 12.6614 0.150641 12.3899 0.321292 12.2192L3.48145 9.05909L0.44458 6.02222L1.05195 5.41484C3.06907 3.39773 6.21464 4.50378 6.21464 4.50378L8.76992 1.94849Z" fill="white"/>
</svg>
