<svg width="30" height="30" viewBox="0 0 30 30" fill="none" xmlns="http://www.w3.org/2000/svg">
<path fill-rule="evenodd" clip-rule="evenodd" d="M29.3464 1.84285C29.3464 1.49807 29.2095 1.16741 28.9657 0.923608C28.7219 0.679811 28.3912 0.542847 28.0464 0.542847H16.3606C15.6426 0.542847 15.0606 1.12488 15.0606 1.84285C15.0606 2.56082 15.6426 3.14285 16.3606 3.14285L24.908 3.14285L13.9237 14.1271C13.416 14.6348 13.416 15.4579 13.9237 15.9656C14.4314 16.4733 15.2545 16.4733 15.7622 15.9656L26.7464 4.98133V13.5287C26.7464 14.2467 27.3285 14.8287 28.0464 14.8287C28.7644 14.8287 29.3464 14.2467 29.3464 13.5287V1.84285ZM3.99999 3.8C2.23268 3.8 0.799988 5.23269 0.799988 7V26C0.799988 27.7673 2.23268 29.2 3.99999 29.2H23C24.7673 29.2 26.2 27.7673 26.2 26V20C26.2 19.3373 25.6627 18.8 25 18.8C24.3372 18.8 23.8 19.3373 23.8 20V26C23.8 26.4418 23.4418 26.8 23 26.8H3.99999C3.55816 26.8 3.19999 26.4418 3.19999 26V7C3.19999 6.55817 3.55816 6.2 3.99999 6.2H9.99999C10.6627 6.2 11.2 5.66274 11.2 5C11.2 4.33726 10.6627 3.8 9.99999 3.8H3.99999Z" fill="black"/>
</svg>
