<svg width="30" height="30" viewBox="0 0 30 30" fill="none" xmlns="http://www.w3.org/2000/svg">
<path fill-rule="evenodd" clip-rule="evenodd" d="M12.2165 2.67551C12.2165 1.98515 12.7762 1.42551 13.4665 1.42551H19.5814C20.2717 1.42551 20.8314 1.98515 20.8314 2.67551C20.8314 3.36586 20.2717 3.92551 19.5814 3.92551H13.4665C12.7762 3.92551 12.2165 3.36586 12.2165 2.67551Z" fill="black"/>
<path fill-rule="evenodd" clip-rule="evenodd" d="M12.2165 27.3245C12.2165 26.6341 12.7762 26.0745 13.4665 26.0745H19.5814C20.2717 26.0745 20.8314 26.6341 20.8314 27.3245C20.8314 28.0148 20.2717 28.5745 19.5814 28.5745H13.4665C12.7762 28.5745 12.2165 28.0148 12.2165 27.3245Z" fill="black"/>
<path fill-rule="evenodd" clip-rule="evenodd" d="M16.5192 1.42551C17.2095 1.42551 17.7692 1.98515 17.7692 2.67551V26.4144C17.7692 27.1047 17.2095 27.6644 16.5192 27.6644C15.8288 27.6644 15.2692 27.1047 15.2692 26.4144V2.67551C15.2692 1.98515 15.8288 1.42551 16.5192 1.42551Z" fill="black"/>
<path fill-rule="evenodd" clip-rule="evenodd" d="M0.470196 11.2742C0.470196 10.5839 1.02984 10.0242 1.7202 10.0242H9.52255C10.2129 10.0242 10.7726 10.5839 10.7726 11.2742C10.7726 11.9646 10.2129 12.5242 9.52255 12.5242H1.7202C1.02984 12.5242 0.470196 11.9646 0.470196 11.2742Z" fill="black"/>
<path fill-rule="evenodd" clip-rule="evenodd" d="M0.470196 18.7258C0.470196 18.0354 1.02984 17.4758 1.7202 17.4758H9.52255C10.2129 17.4758 10.7726 18.0354 10.7726 18.7258C10.7726 19.4162 10.2129 19.9758 9.52255 19.9758H1.7202C1.02984 19.9758 0.470196 19.4162 0.470196 18.7258Z" fill="black"/>
<path fill-rule="evenodd" clip-rule="evenodd" d="M22.4649 11.2742C22.4649 10.5839 23.0245 10.0242 23.7149 10.0242H28C28.6904 10.0242 29.25 10.5839 29.25 11.2742C29.25 11.9646 28.6904 12.5242 28 12.5242H23.7149C23.0245 12.5242 22.4649 11.9646 22.4649 11.2742Z" fill="black"/>
<path fill-rule="evenodd" clip-rule="evenodd" d="M22.4649 18.7258C22.4649 18.0354 23.0245 17.4758 23.7149 17.4758H28C28.6904 17.4758 29.25 18.0354 29.25 18.7258C29.25 19.4162 28.6904 19.9758 28 19.9758H23.7149C23.0245 19.9758 22.4649 19.4162 22.4649 18.7258Z" fill="black"/>
</svg>
