<svg width="30" height="30" viewBox="0 0 30 30" fill="none" xmlns="http://www.w3.org/2000/svg">
<path fill-rule="evenodd" clip-rule="evenodd" d="M12.2029 4.8H15H17.7971C20.1221 4.8 22 6.67652 22 9.00599V17.3809H24.8V9.00599C24.8 5.12966 21.668 2 17.7971 2H15H12.2029V4.8ZM17.7971 24.4H15H12.2029C9.88628 24.4 8 22.5119 8 20.2001V13.2H5.2V20.2001C5.2 24.0576 8.33926 27.2 12.2029 27.2H15H17.7971V24.4Z" fill="black"/>
<path fill-rule="evenodd" clip-rule="evenodd" d="M7.58995 10.81C7.04322 10.2633 6.15678 10.2633 5.61005 10.81L1.41005 15.01C0.863317 15.5568 0.863317 16.4432 1.41005 16.9899C1.95678 17.5367 2.84322 17.5367 3.38995 16.9899L6.6 13.9L9.81005 16.9899C10.3568 17.5367 11.2432 17.5367 11.7899 16.9899C12.3367 16.4432 12.3367 15.5568 11.7899 15.01L7.58995 10.81Z" fill="black"/>
<path fill-rule="evenodd" clip-rule="evenodd" d="M23.4 15.3L20.19 12.2101C19.6432 11.6633 18.7568 11.6633 18.2101 12.2101C17.6633 12.7568 17.6633 13.6432 18.2101 14.19L22.4101 18.39C22.9568 18.9367 23.8432 18.9367 24.39 18.39L28.59 14.19C29.1367 13.6432 29.1367 12.7568 28.59 12.2101C28.0432 11.6633 27.1568 11.6633 26.6101 12.2101L23.4 15.3Z" fill="black"/>
</svg>
