<svg width="8" height="8" viewBox="0 0 8 8" fill="none" xmlns="http://www.w3.org/2000/svg">
<path fill-rule="evenodd" clip-rule="evenodd" d="M5.37062 0.156448C5.47328 0.315941 5.42895 0.529598 5.27163 0.633664L5.07227 0.765531C6.45554 1.17517 7.46671 2.46692 7.46671 3.99871C7.46671 4.99687 7.03674 5.89375 6.35525 6.50994C6.21505 6.6367 6.00004 6.62425 5.87501 6.48213C5.74997 6.34 5.76225 6.12203 5.90245 5.99526C6.44567 5.50408 6.78644 4.79168 6.78644 3.99871C6.78644 2.78886 5.99177 1.76508 4.89947 1.43302L5.08537 1.68331C5.19837 1.83544 5.16832 2.05164 5.01825 2.16619C4.86819 2.28075 4.65493 2.25028 4.54194 2.09815L3.86166 1.18227C3.80501 1.10599 3.78209 1.00932 3.79836 0.915274C3.81463 0.821229 3.86864 0.738234 3.94752 0.686059L4.8999 0.0560872C5.05722 -0.0479785 5.26797 -0.00304554 5.37062 0.156448ZM2.40892 1.50308C2.53298 1.64608 2.51921 1.86396 2.37815 1.98974C1.82688 2.48128 1.48032 3.19904 1.48032 3.99871C1.48032 5.20856 2.27499 6.23234 3.36729 6.5644L3.18139 6.31411C3.06839 6.16198 3.09844 5.94578 3.24851 5.83123C3.39858 5.71667 3.61183 5.74714 3.72483 5.89927L4.4051 6.81515C4.46169 6.89134 4.48462 6.98788 4.46846 7.08183C4.45229 7.17578 4.39847 7.25874 4.31979 7.31101L3.3674 7.94358C3.21027 8.04795 2.99944 8.00342 2.89649 7.84412C2.79354 7.68482 2.83747 7.47108 2.9946 7.36672L3.19663 7.23252C1.81227 6.82359 0.800049 5.53129 0.800049 3.99871C0.800049 2.99209 1.23734 2.08851 1.92888 1.47189C2.06993 1.34612 2.28485 1.36008 2.40892 1.50308Z" fill="#D0D0D2"/>
</svg>
