<svg width="11" height="12" viewBox="0 0 11 12" fill="none" xmlns="http://www.w3.org/2000/svg">
<path d="M2.30286 0.994662C2.2791 0.995231 2.25545 0.997998 2.23221 1.00293C1.88327 1.00521 1.57081 1.01118 1.31753 1.03976C0.955536 1.08061 0.637656 1.16922 0.402848 1.40427C0.168071 1.63932 0.0796968 1.95716 0.0390883 2.31895C-0.00152015 2.68075 7.47952e-06 3.118 7.47952e-06 3.69359V8.31125C7.47952e-06 8.88761 -0.00100835 9.32537 0.0398426 9.68739C0.0806935 10.0494 0.169306 10.3673 0.404357 10.6021C0.639407 10.8368 0.957245 10.9252 1.31904 10.9658C1.68083 11.0064 2.11809 11.0049 2.69368 11.0049H7.31134C7.8877 11.0049 8.32545 11.0059 8.68748 10.9651C9.04947 10.9242 9.36735 10.8356 9.60216 10.6006C9.83697 10.3655 9.92531 10.0477 9.96592 9.68589C10.0065 9.3241 10.005 8.88684 10.005 8.31125V4.4632C10.005 3.95337 10.0074 3.61416 9.83289 3.26518C9.65849 2.91647 9.37478 2.64753 8.86637 2.13932C8.35778 1.63053 8.09203 1.34697 7.74351 1.17204C7.40992 1.00462 7.08019 1.00077 6.60264 1.00068C6.56358 0.994364 6.52378 0.994111 6.48465 0.999927H2.6937C2.57612 0.999927 2.48688 1.00115 2.3803 1.00143C2.35479 0.99657 2.32882 0.994299 2.30286 0.994662ZM2.69367 1.76954H6.15691V3.30953H2.69367V1.76954ZM1.92406 1.77556V3.69431C1.92407 3.79636 1.96461 3.89423 2.03677 3.9664C2.10894 4.03856 2.20681 4.0791 2.30886 4.07911H6.54172C6.64377 4.0791 6.74164 4.03856 6.8138 3.9664C6.88597 3.89423 6.92651 3.79636 6.92652 3.69431V1.77929C7.13552 1.78793 7.28836 1.80556 7.39775 1.86046C7.56489 1.94434 7.813 2.17404 8.32144 2.68267C8.32169 2.68292 8.32194 2.68317 8.32219 2.68342C8.83052 3.19156 9.06013 3.44087 9.1444 3.60934C9.22865 3.77784 9.23534 3.95553 9.23534 4.46315V8.3112C9.23534 8.88656 9.23296 9.31323 9.20077 9.60014C9.16857 9.88706 9.11233 10.0027 9.05797 10.0571C9.00362 10.1115 8.88799 10.1683 8.60102 10.2006C8.31405 10.233 7.88728 10.2352 7.31131 10.2352H2.69365C2.11829 10.2352 1.69161 10.2329 1.4047 10.2006C1.11779 10.1684 1.00216 10.1122 0.947747 10.0579C0.893328 10.0035 0.836581 9.88786 0.804196 9.60089C0.771812 9.31393 0.769623 8.88716 0.769623 8.31118V3.69352C0.769623 3.11816 0.77199 2.69149 0.804196 2.40458C0.8364 2.11766 0.892639 2.00203 0.946993 1.94762C1.00135 1.8932 1.11698 1.83646 1.40395 1.80407C1.54301 1.78838 1.71825 1.78025 1.92406 1.77556Z" fill="#A1A2A5"/>
<path fill-rule="evenodd" clip-rule="evenodd" d="M3.00016 7.33317V10.6665H2.3335V7.09984C2.3335 6.86051 2.52751 6.6665 2.76683 6.6665H7.2335C7.47282 6.6665 7.66683 6.86051 7.66683 7.09984V10.6665H7.00016V7.33317H3.00016Z" fill="#A1A2A5"/>
</svg>
