<svg width="30" height="30" viewBox="0 0 30 30" fill="none" xmlns="http://www.w3.org/2000/svg">
<path fill-rule="evenodd" clip-rule="evenodd" d="M5.09524 25.9365C4.52542 25.9365 4.06349 25.4746 4.06349 24.9048L4.06349 17.0106C4.06349 16.4408 3.60156 15.9788 3.03175 15.9788C2.46193 15.9788 2 16.4408 2 17.0106L2 24.9048C2 26.6142 3.38578 28 5.09524 28L24.9048 28C26.6142 28 28 26.6142 28 24.9048L28 17.0106C28 16.4408 27.5381 15.9788 26.9683 15.9788C26.3984 15.9788 25.9365 16.4408 25.9365 17.0106L25.9365 24.9048C25.9365 25.4746 25.4746 25.9365 24.9048 25.9365L5.09524 25.9365ZM9.78235 6.79029C9.37943 7.19321 9.37943 7.84647 9.78235 8.24939C10.1853 8.65232 10.8385 8.65232 11.2415 8.24939L13.9683 5.5226L13.9683 18.9894C13.9683 19.5592 14.4302 20.0212 15 20.0212C15.5698 20.0212 16.0317 19.5592 16.0317 18.9894L16.0317 5.5226L18.7585 8.24939C19.1615 8.65232 19.8147 8.65232 20.2177 8.24939C20.6206 7.84647 20.6206 7.19321 20.2177 6.79029L15.7296 2.30219C15.3266 1.89927 14.6734 1.89927 14.2704 2.30219L9.78235 6.79029Z" fill="black"/>
</svg>
