<svg width="30" height="30" viewBox="0 0 30 30" fill="none" xmlns="http://www.w3.org/2000/svg">
<path d="M27.6158 25.6064L22.4595 20.7634C24.315 18.7909 25.4299 16.2435 25.6163 13.55C25.8027 10.8566 25.0493 8.18156 23.483 5.97531C21.9166 3.76906 19.6329 2.16629 17.0163 1.43682C14.3997 0.707356 11.6101 0.895738 9.11694 1.97025C6.62379 3.04477 4.57943 4.93981 3.328 7.33634C2.07658 9.73287 1.69451 12.4846 2.24611 15.1282C2.79772 17.7718 4.24931 20.1459 6.35653 21.8508C8.46375 23.5557 11.0979 24.4873 13.8156 24.4888C16.1202 24.4931 18.3745 23.819 20.2938 22.5516L25.6845 27.6181C25.9389 27.856 26.2728 27.992 26.622 28C26.9011 27.9944 27.1722 27.9065 27.4008 27.7473C27.6293 27.5882 27.8051 27.3651 27.9056 27.1064C28.0062 26.8478 28.0269 26.5652 27.9653 26.2948C27.9037 26.0243 27.7624 25.7782 27.5595 25.5878L27.6158 25.6064ZM13.8156 21.7133C12.0314 21.7152 10.2868 21.1913 8.80239 20.2079C7.318 19.2245 6.16057 17.8259 5.47651 16.1889C4.79246 14.5519 4.61252 12.7501 4.95945 11.0115C5.30639 9.27287 6.16461 7.67555 7.42556 6.42159C8.6865 5.16763 10.2935 4.31338 12.0432 3.96691C13.793 3.62045 15.6069 3.79734 17.2554 4.47519C18.9039 5.15305 20.3131 6.30143 21.3045 7.77503C22.2959 9.24864 22.8251 10.9813 22.8251 12.7537C22.8226 15.1276 21.8729 17.4037 20.1841 19.0831C18.4953 20.7626 16.2051 21.7084 13.8156 21.7133Z" fill="black"/>
</svg>
