<svg id="Шар_1" data-name="Шар 1" xmlns="http://www.w3.org/2000/svg" viewBox="0 0 30 30">
  <g>
    <path d="M27.77,10.84h-.24a.31.31,0,0,1-.29-.18l-.53-1.12a.32.32,0,0,1,.07-.36L27,9a2.23,2.23,0,0,0,0-3.2L24.12,3a2.24,2.24,0,0,0-3,0l-.32.28a.31.31,0,0,1-.33.06l-1.14-.45a.33.33,0,0,1-.2-.3V2.23A2.23,2.23,0,0,0,16.85,0h-3.7a2.23,2.23,0,0,0-2.24,2.23v.35a.33.33,0,0,1-.2.3l-1.18.47a.33.33,0,0,1-.32-.05l-.5-.41a2.24,2.24,0,0,0-3,.15L3,5.73A2.23,2.23,0,0,0,3.1,9l.27.24a.32.32,0,0,1,.08.37l-.51,1.08a.32.32,0,0,1-.29.18H2.23A2.23,2.23,0,0,0,0,13.08v3.75a2.23,2.23,0,0,0,2.39,2.23l.27,0a.32.32,0,0,1,.31.18l.5,1.06a.32.32,0,0,1-.07.36L3,21.06a2.23,2.23,0,0,0,0,3.17l2.71,2.68A2.23,2.23,0,0,0,8.76,27l.48-.44a.33.33,0,0,1,.33-.06l1.14.46a.3.3,0,0,1,.2.29v.49A2.23,2.23,0,0,0,13.21,30l3.71-.1a2.24,2.24,0,0,0,2.17-2.24v-.38a.3.3,0,0,1,.2-.29l1.14-.46a.33.33,0,0,1,.33.06l.48.44a2.23,2.23,0,0,0,3.07-.08l2.75-2.72a2.24,2.24,0,0,0,.07-3.1l-.4-.44a.31.31,0,0,1-.06-.34l.44-1a.32.32,0,0,1,.27-.19l.54,0A2.23,2.23,0,0,0,30,16.83V13.08A2.23,2.23,0,0,0,27.77,10.84Zm.32,6a.32.32,0,0,1-.3.32l-.55,0a2.24,2.24,0,0,0-1.89,1.34l-.44,1a2.22,2.22,0,0,0,.41,2.39l.4.45a.31.31,0,0,1,0,.44L23,25.56a.31.31,0,0,1-.43,0L22,25.13a2.24,2.24,0,0,0-2.32-.42l-1.14.46a2.22,2.22,0,0,0-1.41,2.07v.38a.31.31,0,0,1-.31.32l-3.7.11a.32.32,0,0,1-.33-.32v-.49a2.22,2.22,0,0,0-1.41-2.07l-1.14-.46A2.24,2.24,0,0,0,8,25.13l-.49.44a.31.31,0,0,1-.43,0L4.33,22.87a.33.33,0,0,1,0-.45L4.75,22a2.23,2.23,0,0,0,.45-2.53l-.5-1.06a2.22,2.22,0,0,0-2.18-1.28l-.26,0a.33.33,0,0,1-.35-.32V13.08a.32.32,0,0,1,.32-.32h.42a2.21,2.21,0,0,0,2-1.29l.51-1.07a2.24,2.24,0,0,0-.53-2.61l-.26-.24a.31.31,0,0,1,0-.46L7.08,4.4a.33.33,0,0,1,.43,0l.49.4a2.27,2.27,0,0,0,2.24.35l1.18-.47a2.25,2.25,0,0,0,1.41-2.08V2.23a.32.32,0,0,1,.32-.32h3.7a.32.32,0,0,1,.32.32v.35a2.25,2.25,0,0,0,1.41,2.08l1.15.45A2.24,2.24,0,0,0,22,4.7l.32-.29a.32.32,0,0,1,.43,0l2.86,2.72a.33.33,0,0,1,0,.46l-.22.22A2.24,2.24,0,0,0,25,10.36l.53,1.11a2.21,2.21,0,0,0,2,1.29h.24a.32.32,0,0,1,.32.32Z" style="fill-rule: evenodd"/>
    <path d="M15,7.66A7.34,7.34,0,1,0,22.34,15,7.34,7.34,0,0,0,15,7.66Zm0,12.77A5.43,5.43,0,1,1,20.43,15,5.43,5.43,0,0,1,15,20.43Z" style="fill-rule: evenodd"/>
  </g>
</svg>
