<svg width="30" height="30" viewBox="0 0 30 30" fill="none" xmlns="http://www.w3.org/2000/svg">
<path fill-rule="evenodd" clip-rule="evenodd" d="M13.3243 3.17309C13.165 3.17309 13.0359 3.30224 13.0359 3.46155V3.77395C13.0359 4.60123 12.5313 5.34482 11.7625 5.65039L10.6938 6.07516C10.0142 6.34528 9.24163 6.22682 8.67418 5.76548L8.2259 5.40103C8.11145 5.30798 7.94524 5.31627 7.84061 5.42024L5.39836 7.84703C5.28102 7.96363 5.28557 8.15482 5.40832 8.2657L5.64887 8.483C6.30828 9.07867 6.50077 10.0354 6.12302 10.8398L5.66613 11.8126C5.33339 12.5211 4.62116 12.9735 3.83842 12.9735H3.46154C3.30222 12.9735 3.17308 13.1026 3.17308 13.2619V16.6533C3.17308 16.8206 3.31502 16.9529 3.48196 16.941L3.72042 16.9241C4.55307 16.865 5.33624 17.3243 5.69109 18.0799L6.14078 19.0374C6.50349 19.8097 6.3416 20.7267 5.73634 21.3281L5.35821 21.7039C5.24469 21.8167 5.24469 22.0003 5.35821 22.1131L7.80116 24.5406C7.90988 24.6486 8.08411 24.6528 8.19785 24.55L8.6325 24.1574C9.20319 23.6419 10.0172 23.4953 10.7319 23.7793L11.7625 24.189C12.5313 24.4945 13.0359 25.2381 13.0359 26.0654V26.5053C13.0359 26.6678 13.1701 26.7982 13.3325 26.7936L16.6838 26.6985C16.8399 26.694 16.9641 26.5662 16.9641 26.4101V26.0654C16.9641 25.2381 17.4687 24.4945 18.2375 24.189L19.2681 23.7793C19.9828 23.4953 20.7968 23.6419 21.3675 24.1574L21.8021 24.55C21.9159 24.6528 22.0901 24.6486 22.1988 24.5406L24.6801 22.0751C24.7898 21.966 24.794 21.7898 24.6896 21.6757L24.3238 21.2759C23.7874 20.6896 23.6448 19.843 23.9595 19.1132L24.3562 18.1935C24.6549 17.5008 25.3149 17.0324 26.0674 16.979L26.5589 16.9442C26.7099 16.9334 26.8269 16.8078 26.8269 16.6564V13.2619C26.8269 13.1026 26.6978 12.9735 26.5385 12.9735H26.3233C25.5405 12.9735 24.8283 12.5211 24.4956 11.8126L24.0209 10.8019C23.6582 10.0296 23.8201 9.11266 24.4253 8.51124L24.6255 8.31237C24.7406 8.19801 24.7387 8.01126 24.6214 7.89918L22.045 5.43754C21.9362 5.33354 21.7657 5.33073 21.6534 5.43108L21.3637 5.69019C20.7932 6.20044 19.9831 6.34422 19.2718 6.0615L18.2375 5.65039C17.4687 5.34482 16.9641 4.60123 16.9641 3.77395V3.46155C16.9641 3.30224 16.835 3.17309 16.6756 3.17309H13.3243ZM11.3051 3.46155C11.3051 2.34636 12.2092 1.44232 13.3243 1.44232H16.6756C17.7908 1.44232 18.6949 2.34636 18.6949 3.46155V3.77395C18.6949 3.89213 18.767 3.99836 18.8768 4.04201L19.9111 4.45312C20.0127 4.49351 20.1284 4.47297 20.2099 4.40007L20.4997 4.14096C21.2852 3.43851 22.4788 3.45818 23.2407 4.18614L25.8171 6.64779C26.6382 7.43236 26.651 8.73957 25.8454 9.54009L25.6453 9.73896C25.5588 9.82488 25.5357 9.95587 25.5875 10.0662L26.0622 11.0769C26.1097 11.1781 26.2114 11.2427 26.3233 11.2427H26.5385C27.6537 11.2427 28.5577 12.1468 28.5577 13.2619V16.6564C28.5577 17.7161 27.7385 18.5956 26.6814 18.6706L26.1899 18.7055C26.0824 18.7131 25.9881 18.78 25.9454 18.879L25.5488 19.7987C25.5038 19.9029 25.5242 20.0239 25.6008 20.1076L25.9666 20.5074C26.6975 21.3063 26.6681 22.5395 25.9 23.3028L23.4188 25.7683C22.6577 26.5246 21.4381 26.5536 20.642 25.8344L20.2073 25.4417C20.1258 25.3681 20.0095 25.3471 19.9074 25.3877L18.8768 25.7974C18.767 25.841 18.6949 25.9472 18.6949 26.0654V26.4101C18.6949 27.503 17.8254 28.3975 16.733 28.4285L13.3817 28.5237C12.2445 28.556 11.3051 27.6429 11.3051 26.5053V26.0654C11.3051 25.9472 11.233 25.841 11.1232 25.7974L10.0926 25.3877C9.9905 25.3471 9.87421 25.3681 9.79269 25.4417L9.35804 25.8344C8.56188 26.5536 7.34228 26.5246 6.58121 25.7683L4.13826 23.3408C3.34365 22.5512 3.34365 21.2657 4.13826 20.4761L4.5164 20.1004C4.60286 20.0145 4.62599 19.8835 4.57417 19.7732L4.12448 18.8156C4.07379 18.7077 3.96191 18.6421 3.84296 18.6505L3.6045 18.6675C2.43595 18.7504 1.44231 17.8248 1.44231 16.6533V13.2619C1.44231 12.1467 2.34635 11.2427 3.46154 11.2427H3.83842C3.95024 11.2427 4.05199 11.1781 4.09952 11.0769L4.55641 10.104C4.61038 9.98911 4.58288 9.85243 4.48868 9.76733L4.24813 9.55004C3.38886 8.77383 3.35703 7.4355 4.17841 6.61931L6.62066 4.19252C7.35308 3.46473 8.51656 3.40674 9.31772 4.05809L9.766 4.42254C9.84706 4.48845 9.95742 4.50537 10.0545 4.46678L11.1232 4.04201C11.233 3.99836 11.3051 3.89213 11.3051 3.77395V3.46155Z" fill="black"/>
<path fill-rule="evenodd" clip-rule="evenodd" d="M15 10.0962C12.2917 10.0962 10.0962 12.2917 10.0962 15C10.0962 17.7083 12.2917 19.9038 15 19.9038C17.7083 19.9038 19.9038 17.7083 19.9038 15C19.9038 12.2917 17.7083 10.0962 15 10.0962ZM8.36539 15C8.36539 11.3358 11.3358 8.36539 15 8.36539C18.6642 8.36539 21.6346 11.3358 21.6346 15C21.6346 18.6642 18.6642 21.6346 15 21.6346C11.3358 21.6346 8.36539 18.6642 8.36539 15Z" fill="black"/>
</svg>
