<svg width="30" height="30" viewBox="0 0 30 30" fill="none" xmlns="http://www.w3.org/2000/svg">
<path d="M12.6589 1C11.4849 1 10.511 1.96597 10.511 3.13043V4.47147C9.27947 4.93108 8.17687 5.62138 7.19318 6.44973L5.97539 5.78397C4.94779 5.21868 3.61981 5.59374 3.05073 6.61141L1.26717 9.80707C0.700916 10.8197 1.06214 12.1414 2.09183 12.7079L3.30962 13.3832C3.23204 13.9155 3.14662 14.4475 3.14662 15C3.14662 15.5551 3.24091 16.0821 3.31922 16.6168L2.09183 17.2921C1.06214 17.8586 0.700916 19.1707 1.26717 20.1834L3.05073 23.3791C3.61981 24.3968 4.94775 24.7813 5.97539 24.216L7.20278 23.5408C8.18506 24.3668 9.28189 25.0603 10.511 25.519V26.8696C10.511 28.034 11.4849 29 12.6589 29H16.3411C17.5151 29 18.489 28.034 18.489 26.8696V25.519C19.7181 25.0603 20.8149 24.3668 21.7972 23.5408L23.0246 24.216C24.0522 24.7813 25.3802 24.3968 25.9493 23.3791L27.7328 20.1834C28.2991 19.1707 27.9379 17.8586 26.9082 17.2921L25.6808 16.6168C25.7591 16.0821 25.8534 15.5551 25.8534 15C25.8534 14.4475 25.7679 13.9155 25.6904 13.3832L26.9082 12.7079C27.9379 12.1414 28.2991 10.8197 27.7328 9.80707L25.9493 6.61141C25.3802 5.59374 24.0522 5.21868 23.0246 5.78397L21.8068 6.44973C20.8232 5.62139 19.7205 4.93109 18.489 4.47147V3.13043C18.489 1.96597 17.5151 1 16.3411 1H12.6589ZM12.6589 2.82609H16.3411C16.527 2.82609 16.6479 2.94602 16.6479 3.13043V5.1087C16.6513 5.49405 16.9283 5.86177 17.3 5.97418C18.7401 6.41253 20.0261 7.18735 21.0877 8.19973C21.3697 8.47259 21.8371 8.53359 22.1808 8.34239L23.926 7.38179C24.0877 7.29284 24.2478 7.334 24.3383 7.49592L26.1219 10.6916C26.2152 10.8585 26.1664 11.0223 26.0068 11.1101L24.2616 12.0707C23.9243 12.2588 23.7331 12.6742 23.8109 13.0503C23.9432 13.6768 24.0123 14.3309 24.0123 15C24.0123 15.669 23.9432 16.3137 23.8109 16.9402C23.7287 17.319 23.9207 17.7402 24.2616 17.9293L26.0068 18.8899C26.1664 18.9777 26.2152 19.132 26.1219 19.2989L24.3383 22.4946C24.2478 22.6565 24.0876 22.7072 23.926 22.6182L22.1808 21.6576C21.8391 21.464 21.372 21.5209 21.0877 21.7908C20.0261 22.8031 18.7401 23.578 17.3 24.0163C16.9253 24.1296 16.6473 24.5028 16.6479 24.8913V26.8696C16.6479 27.054 16.527 27.1739 16.3411 27.1739H12.6589C12.473 27.1739 12.3521 27.054 12.3521 26.8696V24.8913C12.3521 24.5028 12.0747 24.1296 11.7 24.0163C10.26 23.578 8.97382 22.8031 7.91234 21.7908C7.62801 21.5209 7.1609 21.464 6.81922 21.6576L5.07399 22.6182C4.91228 22.7072 4.75223 22.6565 4.66168 22.4946L2.87813 19.2989C2.78478 19.132 2.8336 18.9777 2.99319 18.8899L4.73839 17.9293C5.07933 17.7403 5.27126 17.319 5.18906 16.9402C5.05672 16.3137 4.98771 15.669 4.98771 15C4.98771 14.3309 5.05669 13.6768 5.18906 13.0503C5.26691 12.6742 5.07577 12.2588 4.73839 12.0707L2.99319 11.1101C2.8336 11.0223 2.78478 10.8585 2.87813 10.6916L4.66168 7.49592C4.75223 7.334 4.91228 7.29284 5.07399 7.38179L6.81922 8.34239C7.16286 8.53359 7.63025 8.47259 7.91234 8.19973C8.97382 7.18735 10.26 6.41253 11.7 5.97418C12.0717 5.86177 12.3487 5.49405 12.3521 5.1087V3.13043C12.3521 2.94602 12.473 2.82609 12.6589 2.82609ZM14.5 8.6087C10.9521 8.6087 8.05619 11.481 8.05619 15C8.05619 18.519 10.9521 21.3913 14.5 21.3913C18.0479 21.3913 20.9438 18.519 20.9438 15C20.9438 11.481 18.0479 8.6087 14.5 8.6087ZM14.5 10.4348C17.0529 10.4348 19.1027 12.4678 19.1027 15C19.1027 17.5321 17.0529 19.5652 14.5 19.5652C11.9471 19.5652 9.89727 17.5321 9.89727 15C9.89727 12.4678 11.9471 10.4348 14.5 10.4348Z" fill="black"/>
</svg>
