<svg width="14" height="14" viewBox="0 0 14 14" fill="none" xmlns="http://www.w3.org/2000/svg">
<g clip-path="url(#clip0)">
<path d="M8.55396 11.8242C8.44672 11.8271 8.34177 11.7929 8.25677 11.7275C8.17178 11.662 8.11192 11.5693 8.08729 11.4649L6.65929 5.3982L5.90796 8.1702C5.88282 8.26146 5.83052 8.34292 5.75801 8.40376C5.6855 8.4646 5.59619 8.50196 5.50196 8.51087C5.40676 8.52039 5.31094 8.50043 5.22747 8.45369C5.144 8.40694 5.07691 8.33567 5.03529 8.24953L4.54529 7.19487L3.73329 9.60287C3.70384 9.69347 3.64736 9.77289 3.57144 9.83045C3.49553 9.88801 3.40381 9.92096 3.30862 9.92487C3.21078 9.93251 3.11303 9.90912 3.02925 9.85801C2.94547 9.80691 2.87993 9.73069 2.84196 9.6402L1.98796 7.63353L0.84929 9.5002C0.823865 9.56188 0.785512 9.61739 0.736815 9.66299C0.688118 9.70859 0.630209 9.74322 0.566994 9.76455C0.503779 9.78587 0.436727 9.79339 0.370359 9.7866C0.303991 9.77981 0.239849 9.75888 0.182259 9.7252C0.12467 9.69152 0.0749702 9.64589 0.0365122 9.59137C-0.00194578 9.53686 -0.0282682 9.47473 -0.0406804 9.40918C-0.0530925 9.34363 -0.0513058 9.27618 -0.0354406 9.21138C-0.0195754 9.14658 0.0099993 9.08594 0.0512895 9.03353L1.66129 6.36887C1.70551 6.29582 1.76893 6.23632 1.84463 6.19682C1.92033 6.15732 2.00542 6.13935 2.09062 6.14487C2.17607 6.15065 2.25827 6.17983 2.32824 6.22922C2.3982 6.2786 2.45323 6.34629 2.48729 6.42487L3.26662 8.13753L4.04129 5.8042C4.07064 5.71659 4.12533 5.63967 4.19844 5.58318C4.27155 5.52669 4.35978 5.49317 4.45196 5.48687C4.54715 5.47734 4.64297 5.4973 4.72644 5.54404C4.80992 5.59079 4.877 5.66206 4.91862 5.7482L5.38529 6.71887L6.29062 3.37753C6.31797 3.27572 6.37898 3.18617 6.46372 3.12347C6.54846 3.06076 6.65193 3.02859 6.75729 3.0322C6.86452 3.02933 6.96947 3.0635 7.05447 3.12895C7.13947 3.19439 7.19932 3.28712 7.22396 3.39153L8.51662 8.90753L9.53396 1.86553C9.55083 1.75425 9.60735 1.65282 9.69311 1.57993C9.77887 1.50704 9.88808 1.46759 10.0006 1.46887C10.1091 1.46645 10.2151 1.50194 10.3003 1.56923C10.3855 1.63652 10.4445 1.7314 10.4673 1.83753L11.6666 7.59153L13.118 4.7542C13.1747 4.6451 13.2723 4.56282 13.3893 4.52525C13.5064 4.48767 13.6336 4.49784 13.7433 4.55353C13.7983 4.58123 13.8473 4.61954 13.8875 4.66626C13.9276 4.71299 13.9581 4.7672 13.9772 4.82576C13.9963 4.88433 14.0036 4.9461 13.9987 5.0075C13.9938 5.06891 13.9768 5.12873 13.9486 5.18353L11.8953 9.1922C11.8514 9.2783 11.7819 9.34865 11.6964 9.39356C11.6108 9.43846 11.5134 9.45571 11.4176 9.4429C11.3219 9.4301 11.2324 9.38788 11.1617 9.32208C11.0909 9.25627 11.0423 9.17013 11.0226 9.07553L10.0893 4.53953L9.01596 11.4322C8.99877 11.5387 8.9452 11.636 8.86437 11.7075C8.78354 11.7789 8.68044 11.8202 8.57262 11.8242H8.55396Z" fill="#D0D0D2"/>
</g>
<defs>
<clipPath id="clip0">
<rect width="14" height="14" fill="white"/>
</clipPath>
</defs>
</svg>
