<svg id="Шар_1" data-name="Шар 1" xmlns="http://www.w3.org/2000/svg" viewBox="0 0 30 30">
  <g>
    <path d="M28.22,23A7.55,7.55,0,0,0,23,28.22,1.42,1.42,0,0,0,24.39,30h.15a1.4,1.4,0,0,0,1.35-1A4.55,4.55,0,0,1,29,25.87a1.38,1.38,0,0,0,1-1.35v-.15A1.42,1.42,0,0,0,28.22,23Z"/>
    <path d="M28.4,16A14.37,14.37,0,0,0,16,28.41,1.44,1.44,0,0,0,17.45,30h.14A1.41,1.41,0,0,0,19,28.77,11.42,11.42,0,0,1,28.77,19,1.4,1.4,0,0,0,30,17.57v-.14A1.43,1.43,0,0,0,28.4,16Z"/>
    <path d="M28.43,8.3A22,22,0,0,0,8.32,28.43,1.45,1.45,0,0,0,9.75,30h.13a1.42,1.42,0,0,0,1.42-1.29A19,19,0,0,1,28.71,11.29,1.42,1.42,0,0,0,30,9.87V9.73A1.45,1.45,0,0,0,28.43,8.3Z"/>
    <path d="M28.46.06A30.26,30.26,0,0,0,.07,28.46,1.44,1.44,0,0,0,1.5,30h.14a1.45,1.45,0,0,0,1.43-1.38A27.25,27.25,0,0,1,28.62,3.06,1.45,1.45,0,0,0,30,1.63V1.49A1.44,1.44,0,0,0,28.46.06Z"/>
  </g>
</svg>
