<svg width="16" height="16" viewBox="0 0 16 16" fill="none" xmlns="http://www.w3.org/2000/svg">
<path fill-rule="evenodd" clip-rule="evenodd" d="M16 0.522699C16 0.231453 15.7664 -0.00711071 15.4753 0.000161994C7.91202 0.189079 0.209657 7.05056 0.000161171 15.4721C-0.00710106 15.764 0.231716 16 0.523752 16H1.85148C2.13576 16 2.36904 15.7766 2.39326 15.4934C2.95929 8.87553 8.07566 3.18586 15.5113 2.33029C15.7865 2.29862 16 2.06851 16 1.79148V0.522699ZM16 5.33736C16 5.04018 15.7569 4.79891 15.4603 4.81811C9.92116 5.17674 5.04092 9.96094 4.80591 15.4726C4.79346 15.7646 5.03282 16 5.32505 16H6.65483C6.92886 16 7.15699 15.7921 7.19508 15.5207C7.8569 10.8063 11.1488 7.85447 15.5277 7.18541C15.7959 7.14442 16 6.9176 16 6.64626V5.33736ZM15.4722 9.0839C15.7638 9.06044 16 9.30088 16 9.5934V11.0243C16 11.2836 15.8128 11.5031 15.5604 11.5621C13.4137 12.0631 12.0772 13.3719 11.6251 15.545C11.5711 15.8045 11.3485 16 11.0834 16H9.61827C9.31596 16 9.07208 15.7483 9.10773 15.4481C9.50303 12.1193 12.3143 9.3379 15.4722 9.0839ZM16 13.8759C16 13.5775 15.7529 13.3318 15.4609 13.3932C14.4314 13.6096 13.6231 14.3858 13.3958 15.4571C13.3336 15.7505 13.5799 16 13.8799 16H15.4665C15.7612 16 16 15.7611 16 15.4665V13.8759Z" fill="#A1A2A5"/>
</svg>
