<svg width="14" height="14" viewBox="0 0 14 14" fill="none" xmlns="http://www.w3.org/2000/svg">
<g clip-path="url(#clip0)">
<path d="M12.3107 10.7333H9.73933C9.67745 10.7333 9.6181 10.7088 9.57434 10.665C9.53058 10.6212 9.506 10.5619 9.506 10.5V8.75933C9.506 8.69745 9.48142 8.6381 9.43766 8.59434C9.3939 8.55058 9.33455 8.526 9.27267 8.526H6.20667C6.14478 8.526 6.08543 8.50142 6.04168 8.45766C5.99792 8.4139 5.97333 8.35455 5.97333 8.29267V6.188C5.97453 6.12649 5.9995 6.06783 6.043 6.02433C6.0865 5.98083 6.14516 5.95586 6.20667 5.95467H10.682C10.7439 5.95467 10.8032 5.93008 10.847 5.88632C10.8907 5.84257 10.9153 5.78322 10.9153 5.72133V3.85467C10.9153 3.79278 10.8907 3.73343 10.847 3.68968C10.8032 3.64592 10.7439 3.62133 10.682 3.62133H8.94133C8.87945 3.62133 8.8201 3.59675 8.77634 3.55299C8.73258 3.50923 8.708 3.44988 8.708 3.388V0.233333C8.708 0.171449 8.68342 0.1121 8.63966 0.0683418C8.5959 0.0245833 8.53655 0 8.47467 0L0 0V14H12.3107C12.3726 14 12.4319 13.9754 12.4757 13.9317C12.5194 13.8879 12.544 13.8286 12.544 13.7667V10.9667C12.544 10.9048 12.5194 10.8454 12.4757 10.8017C12.4319 10.7579 12.3726 10.7333 12.3107 10.7333Z" fill="#D0D0D2"/>
</g>
<defs>
<clipPath id="clip0">
<rect width="14" height="14" fill="white"/>
</clipPath>
</defs>
</svg>
