<svg width="20" height="20" viewBox="0 0 20 20" fill="none" xmlns="http://www.w3.org/2000/svg">
<circle opacity="0.2" cx="10" cy="10" r="10" fill="#C93B3B"/>
<path d="M9.99984 12.0723C9.66436 12.0723 9.38315 12.3535 9.38315 12.689C9.38315 13.0244 9.66436 13.3057 9.99984 13.3057C10.323 13.3057 10.6165 13.0244 10.6017 12.7038C10.6165 12.351 10.3378 12.0723 9.99984 12.0723Z" fill="#C93B3B"/>
<path d="M15.708 14.2578C16.0953 13.5893 16.0977 12.7925 15.7129 12.1265L11.8499 5.43658C11.4676 4.76314 10.7769 4.36353 10.0023 4.36353C9.22774 4.36353 8.53705 4.76561 8.15469 5.43411L4.28678 12.1314C3.90196 12.8049 3.90442 13.6066 4.29418 14.2751C4.67899 14.9362 5.36723 15.3333 6.13686 15.3333H13.853C14.6251 15.3333 15.3182 14.9312 15.708 14.2578ZM14.8693 13.7743C14.6547 14.1443 14.2748 14.3639 13.8505 14.3639H6.1344C5.71504 14.3639 5.33763 14.1493 5.12795 13.7866C4.91581 13.4191 4.91334 12.98 5.12548 12.61L8.9934 5.91513C9.20308 5.54758 9.57803 5.3305 10.0023 5.3305C10.4241 5.3305 10.8016 5.55005 11.0112 5.9176L14.8767 12.6125C15.0839 12.9726 15.0814 13.4068 14.8693 13.7743Z" fill="#C93B3B"/>
<path d="M9.84691 7.743C9.55336 7.82687 9.37082 8.09328 9.37082 8.41643C9.38562 8.6113 9.39795 8.80865 9.41275 9.00352C9.45469 9.74603 9.49662 10.4737 9.53856 11.2162C9.55336 11.4678 9.74824 11.6504 9.99985 11.6504C10.2515 11.6504 10.4488 11.4555 10.4611 11.2014C10.4611 11.0485 10.4611 10.9079 10.4759 10.7525C10.5031 10.2764 10.5327 9.80029 10.5598 9.3242C10.5746 9.01586 10.6017 8.70751 10.6165 8.39916C10.6165 8.28816 10.6017 8.18948 10.5598 8.09081C10.434 7.81453 10.1405 7.67393 9.84691 7.743Z" fill="#C93B3B"/>
</svg>
