<svg width="10" height="9" viewBox="0 0 10 9" fill="none" xmlns="http://www.w3.org/2000/svg">
<path d="M4.61463 0.850888C4.69446 0.605205 5.04204 0.605205 5.12186 0.850888L5.93095 3.34099C5.96665 3.45087 6.06904 3.52526 6.18456 3.52526H8.80281C9.06114 3.52526 9.16855 3.85582 8.95956 4.00766L6.84135 5.54663C6.74788 5.61454 6.70878 5.7349 6.74448 5.84477L7.55356 8.33488C7.63339 8.58056 7.35219 8.78486 7.1432 8.63302L5.02499 7.09405C4.93153 7.02615 4.80497 7.02615 4.71151 7.09405L2.5933 8.63302C2.38431 8.78486 2.10311 8.58056 2.18294 8.33488L2.99202 5.84477C3.02772 5.7349 2.98861 5.61454 2.89515 5.54663L0.776939 4.00766C0.567949 3.85582 0.675355 3.52526 0.933682 3.52526H3.55193C3.66746 3.52526 3.76985 3.45087 3.80555 3.34099L4.61463 0.850888Z" fill="#4895F5"/>
</svg>
