<svg width="10" height="9" viewBox="0 0 10 9" fill="none" xmlns="http://www.w3.org/2000/svg">
<path fill-rule="evenodd" clip-rule="evenodd" d="M4.61951 0.758815C4.73925 0.390296 5.26062 0.390285 5.38036 0.758815L6.21501 3.32761H8.916C9.3035 3.32761 9.4646 3.82346 9.15112 4.05122L6.96597 5.63882L7.80062 8.20761C7.92036 8.57613 7.49858 8.88259 7.18509 8.65483L4.99994 7.06723L2.81479 8.65483C2.50131 8.88258 2.07951 8.57614 2.19925 8.20761L3.03391 5.63882L0.848758 4.05122C0.535277 3.82346 0.696376 3.32761 1.08387 3.32761H3.78486L4.61951 0.758815ZM4.99994 1.74537L4.35903 3.71788C4.30548 3.88269 4.1519 3.99428 3.97861 3.99428H1.90459L3.5825 5.21336C3.7227 5.31521 3.78136 5.49576 3.72781 5.66057L3.08691 7.63308L4.76482 6.414C4.90502 6.31214 5.09486 6.31214 5.23505 6.414L6.91297 7.63308L6.27206 5.66057C6.21851 5.49576 6.27717 5.31521 6.41737 5.21336L8.09529 3.99428H6.02127C5.84798 3.99428 5.6944 3.88269 5.64085 3.71788L4.99994 1.74537Z" fill="#737377"/>
</svg>
