<svg width="30" height="30" viewBox="0 0 30 30" fill="none" xmlns="http://www.w3.org/2000/svg">
<path fill-rule="evenodd" clip-rule="evenodd" d="M28 1.07143C28 0.479695 27.5523 0 27 0C26.4477 0 26 0.479695 26 1.07143L26 28.9286C26 29.5203 26.4477 30 27 30C27.5523 30 28 29.5203 28 28.9286L28 1.07143ZM16.4607 20.7847L18.0361 26H23L15.3015 4H9.66879L2 26H6.96391L8.53928 20.7847H16.4607ZM12.8938 8.87057C13.0821 9.49001 13.9045 12.1626 15.3609 16.8883H9.69851C11.2442 11.8429 12.1805 8.68074 12.5074 7.40191C12.5867 7.76158 12.7155 8.25113 12.8938 8.87057Z" fill="black"/>
</svg>
