<svg width="30" height="30" viewBox="0 0 30 30" fill="none" xmlns="http://www.w3.org/2000/svg">
<path d="M8.41902 23.6842H5.88252V13.4951C5.88252 12.279 5.91131 11.3148 5.96887 10.6024C5.80337 10.7751 5.59829 10.9658 5.35364 11.1744C5.11618 11.3831 4.31026 12.0451 2.93587 13.1605L1.66223 11.5522L6.30347 7.90399H8.41902V23.6842Z" fill="black"/>
<path d="M27.5452 15.643C27.5452 18.2478 26.8221 20.2411 25.3757 21.6226C23.9294 22.997 21.8462 23.6842 19.1263 23.6842H14.7117V7.90399H19.5904C22.1017 7.90399 24.0553 8.58039 25.4513 9.93319C26.8473 11.286 27.5452 13.1893 27.5452 15.643ZM24.8253 15.7293C24.8253 11.9516 23.0587 10.0627 19.5256 10.0627H17.2913V21.5147H19.1263C22.9256 21.5147 24.8253 19.5863 24.8253 15.7293Z" fill="black"/>
</svg>
