<svg width="30" height="30" viewBox="0 0 30 30" fill="none" xmlns="http://www.w3.org/2000/svg">
<path d="M8.52941 18.5293C9.48071 18.5293 10.3426 18.1512 10.9772 17.5392L17.9706 21.036C17.9532 21.1785 17.9412 21.323 17.9412 21.4705C17.9412 23.4197 19.5214 25 21.4706 25C23.4198 25 25 23.4197 25 21.4705C25 19.5213 23.4198 17.9411 21.4706 17.9411C20.5193 17.9411 19.6574 18.3195 19.0228 18.9315L12.0294 15.4345C12.0468 15.2919 12.0588 15.1474 12.0588 14.9999C12.0588 14.8524 12.0468 14.7079 12.0294 14.5653L19.0228 11.0685C19.6576 11.6805 20.5193 12.0589 21.4706 12.0589C23.4198 12.0589 25 10.4787 25 8.52945C25 6.58025 23.4198 5 21.4706 5C19.5214 5 17.9412 6.58025 17.9412 8.52945C17.9412 8.67698 17.9532 8.82146 17.9706 8.96428L10.9772 12.4606C10.3426 11.8486 9.48071 11.4704 8.52941 11.4704C6.58024 11.4704 5 13.0507 5 14.9999C5 16.9491 6.58024 18.5293 8.52941 18.5293Z" fill="black"/>
</svg>
