<svg width="30" height="30" viewBox="0 0 30 30" fill="none" xmlns="http://www.w3.org/2000/svg">
<path d="M18 18C18 17.4477 18.4477 17 19 17H28C28.5523 17 29 17.4477 29 18V27C29 27.5523 28.5523 28 28 28H19C18.4477 28 18 27.5523 18 27V18Z" fill="black"/>
<path d="M13.7071 8.07108C13.3166 7.68055 13.3166 7.04739 13.7071 6.65686L17.6569 2.70711C18.0474 2.31658 18.6805 2.31658 19.0711 2.70711L23.0208 6.65686C23.4114 7.04739 23.4114 7.68055 23.0208 8.07108L19.0711 12.0208C18.6805 12.4114 18.0474 12.4114 17.6569 12.0208L13.7071 8.07108Z" fill="black"/>
<path d="M11 14.5C11 16.9853 8.98528 19 6.5 19C4.01472 19 2 16.9853 2 14.5C2 12.0147 4.01472 10 6.5 10C8.98528 10 11 12.0147 11 14.5Z" fill="black"/>
</svg>
