<svg width="30" height="30" viewBox="0 0 30 30" fill="none" xmlns="http://www.w3.org/2000/svg">
<path fill-rule="evenodd" clip-rule="evenodd" d="M18.0965 7.60892C19.3726 9.13826 19.9886 11.075 19.8113 13.0686C19.6383 15.0578 18.7043 16.8574 17.1786 18.1448C15.838 19.2706 14.1354 19.8921 12.3884 19.8921C10.1743 19.8921 8.08878 18.9195 6.66803 17.2208C4.0231 14.0612 4.43784 9.33607 7.58558 6.68486C8.93006 5.55904 10.6291 4.93761 12.3801 4.93761C14.5902 4.93761 16.6754 5.91014 18.0965 7.60892ZM26.24 26.0981C26.3006 25.4041 26.0832 24.726 25.6405 24.1936L20.9183 18.5562C23.6918 14.6905 23.5067 9.31164 20.4352 5.63982C18.4346 3.25105 15.496 1.875 12.3762 1.875C9.91248 1.875 7.51325 2.75059 5.62115 4.34456C1.18515 8.07706 0.605297 14.735 4.32895 19.1899C6.32563 21.5786 9.26854 22.9507 12.384 22.9507C13.9581 22.9507 15.5243 22.5914 16.9333 21.9136L21.6511 27.5466C22.1461 28.1397 22.8749 28.4786 23.6478 28.4786C24.2556 28.4786 24.8515 28.2607 25.3182 27.8694C25.8457 27.4217 26.1799 26.792 26.24 26.0981ZM12.4605 7.58566C12.9836 7.58566 13.4077 8.00971 13.4077 8.5328V11.3742H16.2491C16.7722 11.3742 17.1962 11.7983 17.1962 12.3214C17.1962 12.8445 16.7722 13.2685 16.2491 13.2685H13.4077V16.1099C13.4077 16.633 12.9836 17.0571 12.4605 17.0571C11.9374 17.0571 11.5134 16.633 11.5134 16.1099V13.2685H8.67194C8.14885 13.2685 7.7248 12.8445 7.7248 12.3214C7.7248 11.7983 8.14885 11.3742 8.67194 11.3742H11.5134V8.5328C11.5134 8.00971 11.9374 7.58566 12.4605 7.58566Z" fill="black"/>
</svg>
