<svg width="30" height="30" viewBox="0 0 30 30" fill="none" xmlns="http://www.w3.org/2000/svg">
<path d="M2.95156 10.1599H3.07381L6.09769 9.46536C6.38344 9.73907 6.74757 9.92516 7.14383 10C7.5401 10.0748 7.95062 10.0351 8.32325 9.88569C8.69589 9.73632 9.01383 9.48412 9.23669 9.16111C9.45956 8.83811 9.5773 8.45887 9.57495 8.07156C9.57407 7.96439 9.5627 7.85754 9.541 7.75241L13.8879 5.40635C14.2457 5.71067 14.7037 5.88461 15.1817 5.89771C15.6597 5.91081 16.1273 5.76223 16.5027 5.47799L21.0001 10.1201C20.8184 10.5723 20.8183 11.0731 21 11.5253C21.1817 11.9775 21.5321 12.3489 21.9832 12.5672C22.4344 12.7856 22.954 12.8354 23.4413 12.7069C23.9286 12.5784 24.3487 12.2809 24.62 11.8721L27.8166 12.3248H27.9253C28.1054 12.3343 28.2821 12.2748 28.4165 12.1594C28.5508 12.044 28.6319 11.8821 28.6418 11.7093C28.6517 11.5366 28.5897 11.3672 28.4693 11.2383C28.3489 11.1094 28.1801 11.0317 28 11.0222L24.8985 10.6086C24.8266 10.1437 24.5824 9.71922 24.2107 9.41298C23.839 9.10675 23.3646 8.93925 22.8746 8.9412C22.5474 8.9424 22.2256 9.02068 21.9374 9.16916L17.2361 4.36425C17.2661 4.22932 17.282 4.09188 17.2837 3.95393C17.2837 3.43571 17.069 2.93873 16.6869 2.57229C16.3048 2.20586 15.7866 2 15.2462 2C14.7059 2 14.1876 2.20586 13.8055 2.57229C13.4234 2.93873 13.2088 3.43571 13.2088 3.95393C13.2096 4.05679 13.221 4.15931 13.2427 4.26004L8.8958 6.61262C8.52186 6.29314 8.03831 6.11692 7.53749 6.11763C6.99712 6.11763 6.47889 6.32348 6.09679 6.68992C5.71469 7.05635 5.50003 7.55334 5.50003 8.07156C5.50003 8.12366 5.50003 8.17576 5.50003 8.23438L2.81573 8.8638C2.645 8.89556 2.49347 8.98892 2.39239 9.12463C2.2913 9.26035 2.24836 9.42809 2.27241 9.59327C2.29396 9.75095 2.37492 9.89562 2.50003 10C2.62514 10.1044 2.78574 10.1613 2.95156 10.1599ZM23.5538 10.8951C23.5538 11.0239 23.5139 11.1499 23.4393 11.257C23.3647 11.3641 23.2586 11.4476 23.1345 11.4969C23.0104 11.5462 22.8739 11.5591 22.7421 11.5339C22.6104 11.5088 22.4894 11.4468 22.3944 11.3557C22.2994 11.2646 22.2347 11.1485 22.2085 11.0222C22.1823 10.8959 22.1957 10.7649 22.2471 10.6459C22.2986 10.5269 22.3856 10.4251 22.4973 10.3536C22.609 10.282 22.7403 10.2438 22.8746 10.2438C23.0547 10.2438 23.2275 10.3124 23.3548 10.4346C23.4822 10.5567 23.5538 10.7224 23.5538 10.8951ZM15.2462 3.30262C15.3805 3.30262 15.5119 3.34082 15.6235 3.41238C15.7352 3.48395 15.8223 3.58567 15.8737 3.70468C15.9251 3.82369 15.9385 3.95465 15.9123 4.08099C15.8861 4.20733 15.8214 4.32339 15.7265 4.41447C15.6315 4.50556 15.5105 4.56759 15.3787 4.59272C15.247 4.61786 15.1104 4.60496 14.9863 4.55566C14.8622 4.50636 14.7562 4.42288 14.6815 4.31578C14.6069 4.20867 14.5671 4.08275 14.5671 3.95393C14.5671 3.78119 14.6386 3.61553 14.766 3.49338C14.8934 3.37124 15.0661 3.30262 15.2462 3.30262ZM7.53749 7.42025C7.64409 7.42175 7.74882 7.44729 7.84321 7.49482C7.9376 7.54234 8.019 7.6105 8.08082 7.6938C8.10395 7.73736 8.13124 7.77879 8.16231 7.81754C8.198 7.89787 8.21647 7.98425 8.21665 8.07156C8.21665 8.20037 8.17682 8.3263 8.10219 8.4334C8.02756 8.54051 7.92149 8.62399 7.79739 8.67329C7.67329 8.72258 7.53674 8.73548 7.405 8.71035C7.27325 8.68522 7.15224 8.62319 7.05726 8.5321C6.96228 8.44101 6.89759 8.32496 6.87139 8.19862C6.84518 8.07228 6.85863 7.94132 6.91004 7.82231C6.96144 7.7033 7.04849 7.60158 7.16017 7.53001C7.27186 7.45844 7.40317 7.42025 7.53749 7.42025Z" fill="black"/>
<path d="M14 10C13.4477 10 13 10.4477 13 11V27H10V15C10 14.4477 9.55229 14 9 14H7C6.44772 14 6 14.4477 6 15V27H1.5C1.22386 27 1 27.2239 1 27.5C1 27.7761 1.22386 28 1.5 28H27.5C27.7761 28 28 27.7761 28 27.5C28 27.2239 27.7761 27 27.5 27H24V20C24 19.4477 23.5523 19 23 19H21C20.4477 19 20 19.4477 20 20V27H17V11C17 10.4477 16.5523 10 16 10H14Z" fill="black"/>
</svg>
