<svg width="30" height="30" viewBox="0 0 30 30" fill="none" xmlns="http://www.w3.org/2000/svg">
  <g clip-path="url(#clip0)">
    <path d="M9.90626 24.4793L23.6295 10.7561L17.507 4.63364L3.78272 18.3558C3.71728 18.4202 3.67115 18.4996 3.64648 18.5865L1.50088 26.096C1.44724 26.2838 1.49873 26.4855 1.63713 26.6239C1.73904 26.7268 1.87636 26.7816 2.0169 26.7816C2.06624 26.7816 2.11559 26.7751 2.16494 26.7601L9.67453 24.6145C9.76143 24.5909 9.84189 24.5437 9.90626 24.4793ZM8.99009 23.6951L4.92418 24.857C4.60449 24.1886 4.07345 23.6586 3.4051 23.3379L4.56694 19.272H6.30809V21.954H8.99009V23.6951Z" fill="black"/>
    <path d="M27.3206 2.51384L25.749 0.942185C24.4927 -0.314062 22.4544 -0.314062 21.1982 0.942185L19.0258 3.1146L25.1482 9.23706L27.3206 7.06465C28.5769 5.8084 28.5769 3.77008 27.3206 2.51384Z" fill="black"/>
    <path d="M23.4731 27.8544H4.16276C3.56951 27.8544 3.08997 28.3351 3.08997 28.9272C3.08997 29.5194 3.56951 30 4.16276 30H23.4731C24.0664 30 24.5459 29.5194 24.5459 28.9272C24.5459 28.3351 24.0664 27.8544 23.4731 27.8544Z" fill="black"/>
  </g>
</svg>

