<svg width="30" height="30" viewBox="0 0 30 30" fill="none" xmlns="http://www.w3.org/2000/svg">
<g clip-path="url(#clip0)">
<path fill-rule="evenodd" clip-rule="evenodd" d="M6.68827 3.81864C7.19197 3.59215 7.78392 3.81687 8.01041 4.32057C9.69298 8.06241 14.0958 10.9223 19.4764 11.068C22.0684 11.1381 24.4827 10.5642 26.4964 9.53485C26.9882 9.28347 27.5906 9.47835 27.842 9.97011C28.0933 10.4619 27.8985 11.0643 27.4067 11.3157C25.0875 12.5012 22.3406 13.1462 19.4223 13.0672C13.4166 12.9047 8.23817 9.70383 6.18634 5.14079C5.95984 4.63709 6.18456 4.04514 6.68827 3.81864Z" fill="black"/>
<path fill-rule="evenodd" clip-rule="evenodd" d="M0.739343 4.03458C1.27254 3.89062 1.82148 4.20615 1.96544 4.73934C3.84956 11.7177 10.8552 17 19.3237 17C22.3787 17 25.2492 16.3106 27.7577 15.0995C28.255 14.8593 28.8529 15.0679 29.093 15.5652C29.3331 16.0625 29.1246 16.6604 28.6273 16.9005C25.8484 18.2423 22.6807 19 19.3237 19C10.0535 19 2.17988 13.2064 0.0345751 5.26067C-0.109385 4.72748 0.206151 4.17853 0.739343 4.03458Z" fill="black"/>
<path fill-rule="evenodd" clip-rule="evenodd" d="M25.6457 1.56653C26.1008 1.87941 26.2161 2.50199 25.9032 2.9571L8.65143 28.0506C8.33855 28.5057 7.71597 28.621 7.26086 28.3081C6.80576 27.9952 6.69046 27.3726 7.00335 26.9175L24.2551 1.82404C24.568 1.36894 25.1906 1.25364 25.6457 1.56653Z" fill="black"/>
</g>
<defs>
<clipPath id="clip0">
<rect width="30" height="30" fill="white"/>
</clipPath>
</defs>
</svg>
