<svg width="30" height="30" viewBox="0 0 30 30" fill="none" xmlns="http://www.w3.org/2000/svg">
<path d="M17.58 24.375L16.2213 19.9146H9.38965L8.03101 24.375H3.75L10.3638 5.55908H15.2216L21.861 24.375H17.58ZM15.2728 16.582C14.0167 12.5403 13.3075 10.2545 13.1451 9.72473C12.9913 9.19495 12.8802 8.77625 12.8119 8.46863C12.5299 9.56238 11.7224 12.2668 10.3894 16.582H15.2728Z" fill="black"/>
<path fill-rule="evenodd" clip-rule="evenodd" d="M25.3125 1.875C25.8303 1.875 26.25 2.29473 26.25 2.8125L26.25 27.1875C26.25 27.7053 25.8303 28.125 25.3125 28.125C24.7947 28.125 24.375 27.7053 24.375 27.1875L24.375 2.8125C24.375 2.29473 24.7947 1.875 25.3125 1.875Z" fill="black"/>
</svg>
