<svg width="30" height="30" viewBox="0 0 30 30" fill="none" xmlns="http://www.w3.org/2000/svg">
<g clip-path="url(#clip0)">
<path d="M27.8965 2.34303L1.92081 28.3187L2.33997 28.7379L28.3157 2.76219L27.8965 2.34303Z" fill="black"/>
<path d="M27.8965 1.92386L1.50168 28.3187L2.34001 29.1571L28.7349 2.76219L27.8965 1.92386Z" fill="black"/>
<path d="M9.78055 21.2216C6.87086 19.8412 4.25441 17.913 2.07428 15.5426C3.68667 13.8058 8.98621 8.65442 15.1157 8.65442C17.1329 8.69423 19.1157 9.18436 20.9191 10.089L22.2588 8.74927C20.0605 7.56592 17.6117 6.92375 15.1157 6.87605C6.92923 6.87605 0.473747 14.6475 0.201064 14.9499C0.0710408 15.1087 0 15.3077 0 15.513C0 15.7183 0.0710408 15.9173 0.201064 16.0762C2.49607 18.7484 5.29365 20.9437 8.43491 22.5376L9.78055 21.2216Z" fill="black"/>
<path d="M30.0302 14.9498C28.1173 12.725 25.8597 10.8217 23.3435 9.31235L22.0216 10.6343C24.2999 11.9555 26.3679 13.6099 28.157 15.5426C26.5446 17.2794 21.2451 22.4367 15.1156 22.4367C13.7006 22.4253 12.2976 22.1748 10.9661 21.6957L9.57303 23.0888C11.3311 23.8166 13.2129 24.1989 15.1156 24.2151C23.302 24.2151 29.7575 16.4377 30.0302 16.1116C30.1696 15.9502 30.2462 15.744 30.2462 15.5307C30.2462 15.3174 30.1696 15.1112 30.0302 14.9498Z" fill="black"/>
<path d="M12.0984 18.9038L16.7221 14.2801C16.4994 14.0582 16.368 13.7609 16.3537 13.4468C16.3395 13.1327 16.4435 12.8247 16.6452 12.5836C16.8469 12.3424 17.1317 12.1856 17.4433 12.1441C17.7549 12.1027 18.0708 12.1795 18.3286 12.3594C17.9093 11.9089 17.4023 11.5488 16.8388 11.3013C16.2753 11.0538 15.6671 10.924 15.0516 10.92C14.4362 10.9159 13.8264 11.0377 13.2597 11.2779C12.693 11.518 12.1813 11.8715 11.7561 12.3165C11.331 12.7615 11.0012 13.2887 10.7871 13.8657C10.573 14.4428 10.4791 15.0575 10.5112 15.6721C10.5432 16.2868 10.7005 16.8884 10.9735 17.44C11.2464 17.9917 11.6292 18.4818 12.0984 18.8801V18.9038Z" fill="black"/>
<path d="M18.8028 13.877C18.7373 14.038 18.6393 14.1838 18.5148 14.3052C18.3904 14.4266 18.2422 14.521 18.0796 14.5824L13.0764 19.5856C13.9249 20.0171 14.8879 20.1696 15.8282 20.0213C16.7684 19.873 17.6378 19.4314 18.3121 18.7597C18.9865 18.0879 19.4315 17.2203 19.5835 16.2807C19.7354 15.341 19.5867 14.3773 19.1585 13.5273L18.8028 13.877Z" fill="black"/>
</g>
<defs>
<clipPath id="clip0">
<rect width="30" height="30" fill="white"/>
</clipPath>
</defs>
</svg>
