<svg width="30" height="30" viewBox="0 0 30 30" fill="none" xmlns="http://www.w3.org/2000/svg">
<g clip-path="url(#clip0)">
<path fill-rule="evenodd" clip-rule="evenodd" d="M21.9404 5.32601C22.2988 5.69971 22.2988 6.3056 21.9404 6.6793L8.11316 21.0981C7.75479 21.4718 7.17375 21.4718 6.81538 21.0981C6.45701 20.7244 6.45701 20.1185 6.81538 19.7448L20.6426 5.32601C21.001 4.95231 21.582 4.95231 21.9404 5.32601Z" fill="black"/>
<path fill-rule="evenodd" clip-rule="evenodd" d="M27.0239 10.0516C27.3822 10.4253 27.3822 11.0312 27.0239 11.4049L13.1966 25.8236C12.8383 26.1973 12.2572 26.1973 11.8989 25.8236C11.5405 25.4499 11.5405 24.844 11.8989 24.4703L25.7261 10.0516C26.0845 9.67788 26.6655 9.67788 27.0239 10.0516Z" fill="black"/>
<path fill-rule="evenodd" clip-rule="evenodd" d="M17.6489 0.676578C18.0072 1.05028 18.0072 1.65617 17.6489 2.02987L3.82164 16.4486C3.46327 16.8223 2.88224 16.8223 2.52387 16.4486C2.1655 16.0749 2.1655 15.469 2.52387 15.0953L16.3511 0.676578C16.7095 0.302876 17.2905 0.302876 17.6489 0.676578Z" fill="black"/>
<path d="M24.0491 30H22.63V24.4885H20.8127V23.3075H25.8664V24.4885H24.0491V30Z" fill="black"/>
</g>
<defs>
<clipPath id="clip0">
<rect width="30" height="30" fill="white"/>
</clipPath>
</defs>
</svg>
