<svg width="30" height="30" viewBox="0 0 30 30" fill="none" xmlns="http://www.w3.org/2000/svg">
<path d="M24.5618 14.8985L19.3627 16.487C18.9649 16.6047 18.7944 17.0754 19.0217 17.4284L23.1981 24.0767C23.3685 24.3708 23.3117 24.7533 23.0276 24.9592L20.1297 26.9007C19.8456 27.0772 19.4763 27.0184 19.2774 26.7242L15.1011 20.0759C14.8738 19.7229 14.3908 19.6935 14.1351 20.0171L10.5838 24.2532C10.2429 24.665 9.58948 24.4591 9.50425 23.9296L7.00414 3.71997C6.94731 3.19046 7.48711 2.80804 7.94168 3.10221L24.7038 13.7512C25.1584 14.0454 25.0731 14.7514 24.5618 14.8985Z" fill="black"/>
</svg>
