<svg width="30" height="30" viewBox="0 0 30 30" fill="none" xmlns="http://www.w3.org/2000/svg">
<g clip-path="url(#clip0)">
<path fill-rule="evenodd" clip-rule="evenodd" d="M1.68549 2.14251C2.15907 1.85836 2.77333 2.01192 3.05748 2.4855C3.84409 3.79652 5.12114 5.76016 6.38849 7.38497C7.02451 8.20038 7.63599 8.90175 8.16533 9.3898C8.43054 9.63432 8.65145 9.80309 8.82414 9.9055C8.94238 9.97562 9.00501 9.99491 9.02036 9.99958C9.1223 9.99519 9.24188 9.95326 9.4372 9.72729C9.64444 9.48754 9.8239 9.17554 10.0655 8.75548C10.1035 8.68936 10.1431 8.62057 10.1846 8.54896C10.4536 8.08417 10.815 7.48004 11.3273 7.03721C11.8964 6.54525 12.6403 6.25959 13.5644 6.4136C13.8422 6.4599 14.1032 6.5769 14.316 6.69106C14.5414 6.81201 14.7799 6.96683 15.0237 7.14163C15.5116 7.49141 16.0791 7.96311 16.6956 8.5148C17.7236 9.43476 18.9325 10.6173 20.2087 11.9214C22.7473 8.5002 25.2124 5.00734 26.9751 2.43477C27.2872 1.97917 27.9096 1.8629 28.3652 2.17507C28.8208 2.48723 28.9371 3.10963 28.6249 3.56523C26.8072 6.21817 24.2447 9.84746 21.6167 13.3798C24.5665 16.4729 27.6946 19.9717 29.755 22.3443C30.1171 22.7613 30.0727 23.3929 29.6557 23.755C29.2387 24.1172 28.6071 24.0727 28.245 23.6557C26.2512 21.3598 23.2531 18.005 20.3996 15.002C19.8558 15.7204 19.3136 16.4277 18.7791 17.1143C17.0212 19.3723 15.3318 21.4253 13.9311 22.921C13.2331 23.6664 12.5855 24.2965 12.0222 24.7477C11.7411 24.9728 11.4587 25.1716 11.184 25.3185C10.9275 25.4555 10.5823 25.6 10.2 25.6C9.29366 25.6 8.57204 25.3312 8.06283 24.7757C7.60157 24.2725 7.43097 23.647 7.32984 23.2425C7.30489 23.1427 7.28348 23.0551 7.26457 22.9778C7.18767 22.6631 7.15214 22.5178 7.08725 22.4057C7.06926 22.4028 7.04105 22.4 6.99999 22.4C6.93167 22.4 6.66013 22.468 6.15442 22.8275C5.69061 23.1573 5.16325 23.6347 4.61727 24.1968C3.52841 25.3177 2.46032 26.676 1.81372 27.5812C1.49271 28.0306 0.86816 28.1347 0.418748 27.8137C-0.0306646 27.4927 -0.134756 26.8682 0.186253 26.4188C0.872985 25.4573 2.00489 24.0157 3.18271 22.8032C3.77005 22.1986 4.39269 21.6261 4.99556 21.1975C5.55651 20.7987 6.2683 20.4 6.99999 20.4C7.3853 20.4 7.75839 20.478 8.093 20.6693C8.42969 20.8617 8.65786 21.1289 8.81376 21.3961C9.04295 21.789 9.16028 22.2907 9.23511 22.6106C9.24791 22.6654 9.25947 22.7148 9.27013 22.7575C9.36901 23.153 9.44841 23.3275 9.53714 23.4243C9.57642 23.4671 9.69694 23.5904 10.1467 23.5995C10.1648 23.5924 10.1958 23.5788 10.2412 23.5546C10.3677 23.487 10.5438 23.3694 10.7718 23.1867C11.2268 22.8223 11.7997 22.2711 12.4713 21.554C13.8098 20.1247 15.4554 18.1277 17.2009 15.8857C17.7922 15.1261 18.3934 14.3406 18.996 13.5422C17.6549 12.1656 16.4015 10.9355 15.3619 10.0052C14.7696 9.47522 14.2627 9.05692 13.8585 8.76711C13.6562 8.62213 13.4941 8.51975 13.3705 8.45347C13.2743 8.40186 13.2278 8.38655 13.2222 8.38423C12.9546 8.34253 12.8008 8.40712 12.6352 8.55028C12.41 8.74496 12.1963 9.06582 11.9154 9.55103C11.8826 9.60776 11.8484 9.66766 11.8127 9.72997C11.5826 10.1329 11.2946 10.6368 10.9503 11.0352C10.5213 11.5315 9.89343 12 8.99999 12C8.54047 12 8.12544 11.8164 7.80396 11.6257C7.46727 11.4261 7.13193 11.1573 6.80964 10.8602C6.16398 10.2649 5.47546 9.46629 4.81148 8.61503C3.47883 6.9065 2.15588 4.87015 1.34249 3.51449C1.05835 3.04091 1.21191 2.42665 1.68549 2.14251ZM7.11322 22.4117C7.11318 22.4117 7.11225 22.4114 7.11054 22.4107C7.11241 22.4113 7.11327 22.4117 7.11322 22.4117Z" fill="black"/>
</g>
<defs>
<clipPath id="clip0">
<rect width="30" height="30" fill="white"/>
</clipPath>
</defs>
</svg>
