<svg width="30" height="30" viewBox="0 0 30 30" fill="none" xmlns="http://www.w3.org/2000/svg">
<path fill-rule="evenodd" clip-rule="evenodd" d="M17.3135 9.87958C18.2034 10.9143 18.6331 12.2248 18.5094 13.5736C18.3888 14.9195 17.7373 16.1371 16.6732 17.0082C15.7383 17.7699 14.5508 18.1904 13.3324 18.1904C11.7882 18.1904 10.3337 17.5323 9.34283 16.383C7.49816 14.2452 7.78742 11.0482 9.98276 9.25435C10.9205 8.49262 12.1054 8.07216 13.3266 8.07216C14.8681 8.07216 16.3223 8.73018 17.3135 9.87958ZM22.9931 22.3894C23.0353 21.9198 22.8837 21.461 22.5749 21.1008L19.2815 17.2865C21.2158 14.671 21.0867 11.0316 18.9445 8.54728C17.5492 6.93104 15.4998 6 13.3239 6C11.6056 6 9.93232 6.59243 8.6127 7.6709C5.51888 10.1963 5.11446 14.7011 7.71148 17.7153C9.10403 19.3315 11.1565 20.2599 13.3294 20.2599C14.4272 20.2599 15.5195 20.0167 16.5022 19.5581L19.7926 23.3694C20.1378 23.7707 20.6461 24 21.1851 24C21.609 24 22.0247 23.8526 22.3501 23.5878C22.7181 23.2849 22.9511 22.8589 22.9931 22.3894ZM13.3827 9.86384C13.7475 9.86384 14.0433 10.1507 14.0433 10.5047V12.4272H16.025C16.3898 12.4272 16.6856 12.7141 16.6856 13.068C16.6856 13.4219 16.3898 13.7089 16.025 13.7089H14.0433V15.6314C14.0433 15.9853 13.7475 16.2722 13.3827 16.2722C13.0179 16.2722 12.7221 15.9853 12.7221 15.6314V13.7089H10.7404C10.3756 13.7089 10.0799 13.4219 10.0799 13.068C10.0799 12.7141 10.3756 12.4272 10.7404 12.4272H12.7221V10.5047C12.7221 10.1507 13.0179 9.86384 13.3827 9.86384Z" fill="black"/>
<path fill-rule="evenodd" clip-rule="evenodd" d="M4 2.5C3.84767 2.5 3.70152 2.52255 3.56421 2.56415C3.29993 2.64422 3.02078 2.49488 2.94071 2.2306C2.86065 1.96632 3.00998 1.68718 3.27426 1.60711C3.50455 1.53733 3.74837 1.5 4 1.5H5.375C5.65114 1.5 5.875 1.72386 5.875 2C5.875 2.27614 5.65114 2.5 5.375 2.5H4ZM9.45833 2C9.45833 1.72386 9.68219 1.5 9.95833 1.5H12.7083C12.9845 1.5 13.2083 1.72386 13.2083 2C13.2083 2.27614 12.9845 2.5 12.7083 2.5H9.95833C9.68219 2.5 9.45833 2.27614 9.45833 2ZM16.7917 2C16.7917 1.72386 17.0155 1.5 17.2917 1.5H20.0417C20.3178 1.5 20.5417 1.72386 20.5417 2C20.5417 2.27614 20.3178 2.5 20.0417 2.5H17.2917C17.0155 2.5 16.7917 2.27614 16.7917 2ZM24.125 2C24.125 1.72386 24.3489 1.5 24.625 1.5H26C26.2516 1.5 26.4955 1.53733 26.7257 1.60711C26.99 1.68718 27.1394 1.96633 27.0593 2.2306C26.9792 2.49488 26.7001 2.64422 26.4358 2.56415C26.2985 2.52255 26.1523 2.5 26 2.5H24.625C24.3489 2.5 24.125 2.27614 24.125 2ZM2.2306 2.94071C2.49488 3.02078 2.64422 3.29993 2.56415 3.56421C2.52255 3.70152 2.5 3.84767 2.5 4V5.375C2.5 5.65114 2.27614 5.875 2 5.875C1.72386 5.875 1.5 5.65114 1.5 5.375V4C1.5 3.74837 1.53733 3.50455 1.60711 3.27426C1.68718 3.00998 1.96633 2.86064 2.2306 2.94071ZM27.7694 2.94071C28.0337 2.86065 28.3128 3.00998 28.3929 3.27426C28.4627 3.50455 28.5 3.74837 28.5 4V5.375C28.5 5.65114 28.2761 5.875 28 5.875C27.7239 5.875 27.5 5.65114 27.5 5.375V4C27.5 3.84767 27.4775 3.70152 27.4359 3.56421C27.3558 3.29993 27.5051 3.02078 27.7694 2.94071ZM2 9.45833C2.27614 9.45833 2.5 9.68219 2.5 9.95833V12.7083C2.5 12.9845 2.27614 13.2083 2 13.2083C1.72386 13.2083 1.5 12.9845 1.5 12.7083V9.95833C1.5 9.68219 1.72386 9.45833 2 9.45833ZM28 9.45833C28.2761 9.45833 28.5 9.68219 28.5 9.95833V12.7083C28.5 12.9845 28.2761 13.2083 28 13.2083C27.7239 13.2083 27.5 12.9845 27.5 12.7083V9.95833C27.5 9.68219 27.7239 9.45833 28 9.45833ZM2 16.7917C2.27614 16.7917 2.5 17.0155 2.5 17.2917V20.0417C2.5 20.3178 2.27614 20.5417 2 20.5417C1.72386 20.5417 1.5 20.3178 1.5 20.0417V17.2917C1.5 17.0155 1.72386 16.7917 2 16.7917ZM28 16.7917C28.2761 16.7917 28.5 17.0155 28.5 17.2917V20.0417C28.5 20.3178 28.2761 20.5417 28 20.5417C27.7239 20.5417 27.5 20.3178 27.5 20.0417V17.2917C27.5 17.0155 27.7239 16.7917 28 16.7917ZM2 24.125C2.27614 24.125 2.5 24.3489 2.5 24.625V26C2.5 26.1523 2.52255 26.2985 2.56415 26.4358C2.64422 26.7001 2.49488 26.9792 2.2306 27.0593C1.96632 27.1394 1.68718 26.99 1.60711 26.7257C1.53733 26.4955 1.5 26.2516 1.5 26V24.625C1.5 24.3489 1.72386 24.125 2 24.125ZM28 24.125C28.2761 24.125 28.5 24.3489 28.5 24.625V26C28.5 26.2516 28.4627 26.4955 28.3929 26.7257C28.3128 26.99 28.0337 27.1394 27.7694 27.0593C27.5051 26.9792 27.3558 26.7001 27.4359 26.4358C27.4775 26.2985 27.5 26.1523 27.5 26V24.625C27.5 24.3489 27.7239 24.125 28 24.125ZM2.94071 27.7694C3.02078 27.5051 3.29993 27.3558 3.56421 27.4359C3.70152 27.4775 3.84767 27.5 4 27.5H5.375C5.65114 27.5 5.875 27.7239 5.875 28C5.875 28.2761 5.65114 28.5 5.375 28.5H4C3.74837 28.5 3.50455 28.4627 3.27426 28.3929C3.00998 28.3128 2.86064 28.0337 2.94071 27.7694ZM27.0593 27.7694C27.1394 28.0337 26.99 28.3128 26.7257 28.3929C26.4955 28.4627 26.2516 28.5 26 28.5H24.625C24.3489 28.5 24.125 28.2761 24.125 28C24.125 27.7239 24.3489 27.5 24.625 27.5H26C26.1523 27.5 26.2985 27.4775 26.4358 27.4359C26.7001 27.3558 26.9792 27.5051 27.0593 27.7694ZM9.45833 28C9.45833 27.7239 9.68219 27.5 9.95833 27.5H12.7083C12.9845 27.5 13.2083 27.7239 13.2083 28C13.2083 28.2761 12.9845 28.5 12.7083 28.5H9.95833C9.68219 28.5 9.45833 28.2761 9.45833 28ZM16.7917 28C16.7917 27.7239 17.0155 27.5 17.2917 27.5H20.0417C20.3178 27.5 20.5417 27.7239 20.5417 28C20.5417 28.2761 20.3178 28.5 20.0417 28.5H17.2917C17.0155 28.5 16.7917 28.2761 16.7917 28Z" fill="black"/>
</svg>
