<svg width="30" height="30" viewBox="0 0 30 30" fill="none" xmlns="http://www.w3.org/2000/svg">
<path d="M28.9565 15.488C28.9949 15.3603 29.0081 15.2262 28.9952 15.0933C28.9824 14.9604 28.9438 14.8315 28.8816 14.7138C28.8195 14.5961 28.735 14.4921 28.6332 14.4076C28.5313 14.3232 28.4139 14.2601 28.2879 14.2218C28.0352 14.1462 27.7632 14.1751 27.5314 14.3023C27.2996 14.4294 27.1267 14.6445 27.0505 14.9005C26.3617 17.2049 25.014 19.2498 23.1785 20.7756L18.5182 11.9427C19.1632 11.3765 19.6409 10.6398 19.8981 9.81448C20.1553 8.98919 20.182 8.10767 19.9752 7.26792C19.7683 6.42817 19.3361 5.6631 18.7266 5.05777C18.117 4.45244 17.354 4.03058 16.5224 3.83908V1.01295C16.5224 0.744299 16.4172 0.486651 16.2301 0.296686C16.0429 0.106721 15.7891 0 15.5244 0C15.2598 0 15.0059 0.106721 14.8188 0.296686C14.6316 0.486651 14.5265 0.744299 14.5265 1.01295V3.78843C13.6949 3.97993 12.9319 4.40179 12.3223 5.00712C11.7128 5.61245 11.2805 6.37752 11.0737 7.21727C10.8669 8.05702 10.8936 8.93855 11.1508 9.76383C11.408 10.5891 11.8856 11.3258 12.5307 11.892L7.87034 20.6946C6.0116 19.1609 4.65461 17.0912 3.97842 14.7587C3.9525 14.6198 3.89822 14.4879 3.81907 14.3716C3.73992 14.2552 3.63765 14.157 3.51885 14.0832C3.40005 14.0094 3.26734 13.9617 3.12927 13.943C2.9912 13.9244 2.85082 13.9354 2.71716 13.9752C2.5835 14.0149 2.45953 14.0827 2.35321 14.174C2.2469 14.2653 2.1606 14.3783 2.09986 14.5055C2.03913 14.6327 2.00531 14.7715 2.00058 14.9128C1.99584 15.0541 2.0203 15.1948 2.07238 15.3259C2.90254 18.1792 4.59573 20.6952 6.91233 22.5179L3.76886 28.4639C3.63652 28.7016 3.60266 28.983 3.67471 29.2461C3.74676 29.5092 3.91883 29.7325 4.15306 29.8668C4.38729 30.0011 4.66449 30.0355 4.92369 29.9624C5.18289 29.8892 5.40285 29.7146 5.53519 29.4768L8.57886 23.703C10.6923 24.9355 13.0854 25.5882 15.5228 25.5971C17.9602 25.606 20.3579 24.9707 22.48 23.7537L25.4738 29.4768C25.5393 29.5939 25.6269 29.6967 25.7316 29.7794C25.8362 29.8621 25.9559 29.9231 26.0838 29.9588C26.2117 29.9945 26.3452 30.0044 26.4769 29.9877C26.6085 29.9711 26.7356 29.9283 26.8509 29.8618C26.9662 29.7952 27.0675 29.7063 27.149 29.6001C27.2305 29.4938 27.2905 29.3723 27.3257 29.2425C27.3609 29.1127 27.3706 28.9772 27.3542 28.8436C27.3378 28.71 27.2956 28.5809 27.2301 28.4639L24.1465 22.5786C26.4326 20.7758 28.1128 18.2989 28.9565 15.488ZM14.6163 5.86498C15.0151 5.71753 15.4432 5.67044 15.8638 5.72776C16.2845 5.78508 16.6851 5.94509 17.0315 6.19408C17.3778 6.44306 17.6595 6.77359 17.8524 7.15733C18.0453 7.54107 18.1437 7.96657 18.139 8.39735C18.1436 9.0155 17.9314 9.61515 17.5403 10.089C17.0991 10.6278 16.4697 10.9726 15.7839 11.0513H15.245C14.5592 10.9726 13.9298 10.6278 13.4887 10.089C13.0975 9.61515 12.8853 9.0155 12.8899 8.39735C12.8854 7.8461 13.0489 7.30691 13.3579 6.85359C13.667 6.40027 14.1065 6.05498 14.6163 5.86498ZM15.5344 23.5207C13.4303 23.5138 11.3651 22.9443 9.54685 21.8696L14.287 12.8746C15.1014 13.1177 15.9675 13.1177 16.7818 12.8746L21.5519 21.9202C19.7172 22.9754 17.6432 23.527 15.5344 23.5207Z" fill="black"/>
</svg>
