<svg width="30" height="30" viewBox="0 0 30 30" fill="none" xmlns="http://www.w3.org/2000/svg">
<path d="M12 19.2979C12 19.015 11.8864 18.7438 11.6843 18.5438C11.4822 18.3438 11.208 18.2315 10.9221 18.2315L9.07788 18.2395C8.79201 18.2395 8.51785 18.3518 8.3157 18.5518C8.11356 18.7518 8 19.023 8 19.3059V25.9336C8 26.2164 8.11356 26.4877 8.3157 26.6877C8.51785 26.8876 8.79201 27 9.07788 27L10.914 26.992C11.1999 26.992 11.4741 26.8797 11.6762 26.6797C11.8784 26.4797 11.9919 26.2084 11.9919 25.9256L12 19.2979ZM26.1631 10.5613C26.8651 10.1071 27.4465 9.49265 27.8584 8.7697C28.2703 8.04675 28.5006 7.23646 28.53 6.40707C28.5593 5.57768 28.3868 4.75347 28.0269 4.00381C27.6671 3.25416 27.1304 2.60102 26.4622 2.09938C26.3914 2.04513 26.3066 2.01157 26.2176 2.0025C26.1285 1.99342 26.0386 2.0092 25.9582 2.04804C25.8777 2.08688 25.8098 2.14724 25.7622 2.22227C25.7146 2.29731 25.6892 2.38403 25.6888 2.47263V5.37326C25.6902 5.48583 25.669 5.59757 25.6265 5.70199C25.5839 5.8064 25.5208 5.90142 25.4409 5.98153C25.3609 6.06163 25.2656 6.12523 25.1606 6.16864C25.0556 6.21204 24.943 6.23439 24.8292 6.23438H21.7437C21.5158 6.23438 21.2971 6.14478 21.1359 5.98529C20.9747 5.82579 20.8841 5.60948 20.8841 5.38392V2.47263C20.8838 2.38403 20.8583 2.29731 20.8107 2.22227C20.7631 2.14724 20.6952 2.08688 20.6148 2.04804C20.5343 2.0092 20.4444 1.99342 20.3553 2.0025C20.2663 2.01157 20.1815 2.04513 20.1107 2.09938C19.4426 2.60123 18.9062 3.25454 18.5466 4.00431C18.1869 4.75409 18.0147 5.57837 18.0443 6.40777C18.0738 7.23716 18.3044 8.04738 18.7166 8.77022C19.1287 9.49305 19.7104 10.1073 20.4126 10.5613C20.5667 10.6616 20.6984 10.7922 20.7994 10.9449C20.9005 11.0976 20.9687 11.2692 21 11.4491V25.9256C21 26.2084 21.1136 26.4797 21.3157 26.6797C21.5178 26.8797 21.792 26.992 22.0779 26.992H24.4843C24.7701 26.992 25.0443 26.8797 25.2464 26.6797C25.4486 26.4797 25.5621 26.2084 25.5621 25.9256V11.4491C25.595 11.2681 25.6653 11.0958 25.7688 10.943C25.8722 10.7903 26.0064 10.6603 26.1631 10.5613ZM3.07788 21.0788C2.79201 21.0788 2.51785 21.1911 2.3157 21.3911C2.11356 21.5911 2 21.8624 2 22.1452V25.9256C2 26.2084 2.11356 26.4797 2.3157 26.6797C2.51785 26.8797 2.79201 26.992 3.07788 26.992H4.92212C5.20799 26.992 5.48215 26.8797 5.6843 26.6797C5.88644 26.4797 6 26.2084 6 25.9256V22.1532C6 21.8703 5.88644 21.5991 5.6843 21.3991C5.48215 21.1991 5.20799 21.0868 4.92212 21.0868L3.07788 21.0788Z" fill="black"/>
<path fill-rule="evenodd" clip-rule="evenodd" d="M17.008 25.9256H17.0081V15.1122C17.0081 15.0981 17.0025 15.0823 16.9891 15.069C16.9752 15.0554 16.9543 15.0458 16.9302 15.0458H15.0779C15.0538 15.0458 15.0328 15.0554 15.019 15.069C15.0056 15.0823 15 15.0981 15 15.1122V25.9336C15 25.9477 15.0056 25.9635 15.019 25.9768C15.0328 25.9904 15.0538 26 15.0779 26H16.931C16.9425 25.9999 16.9537 25.9976 16.9638 25.9934C16.974 25.9891 16.9826 25.9832 16.9893 25.9765C16.996 25.9698 17.0008 25.9625 17.0038 25.9551C17.0068 25.9479 17.0082 25.9404 17.0081 25.9332L17.008 25.9256ZM16.9329 27H15.0779C14.792 27 14.5178 26.8876 14.3157 26.6877C14.1136 26.4877 14 26.2164 14 25.9336V15.1122C14 14.8294 14.1136 14.5581 14.3157 14.3582C14.5178 14.1582 14.792 14.0458 15.0779 14.0458H16.9302C17.2161 14.0458 17.4902 14.1582 17.6924 14.3582C17.8945 14.5581 18.0081 14.8294 18.0081 15.1122V25.9256C18.0091 26.0661 17.9821 26.2054 17.9286 26.3355C17.8751 26.4657 17.7961 26.584 17.6962 26.6839C17.5963 26.7837 17.4774 26.863 17.3464 26.9173C17.2154 26.9715 17.0749 26.9996 16.9329 27Z" fill="black"/>
</svg>
