<svg width="30" height="30" viewBox="0 0 30 30" fill="none" xmlns="http://www.w3.org/2000/svg">
<path fill-rule="evenodd" clip-rule="evenodd" d="M19.5 11C19.5 10.4477 19.9477 10 20.5 10H27C28.1046 10 29 10.8954 29 12V27C29 28.1046 28.1046 29 27 29H12C10.8954 29 10 28.1046 10 27V21.5C10 20.9477 10.4477 20.5 11 20.5C11.5523 20.5 12 20.9477 12 21.5V27H27V12H20.5C19.9477 12 19.5 11.5523 19.5 11Z" fill="black"/>
<path fill-rule="evenodd" clip-rule="evenodd" d="M9.5 17C13.0899 17 16 14.0899 16 10.5C16 6.91015 13.0899 4 9.5 4C5.91015 4 3 6.91015 3 10.5C3 14.0899 5.91015 17 9.5 17ZM9.5 19C14.1944 19 18 15.1944 18 10.5C18 5.80558 14.1944 2 9.5 2C4.80558 2 1 5.80558 1 10.5C1 15.1944 4.80558 19 9.5 19Z" fill="black"/>
</svg>
