<svg width="30" height="30" viewBox="0 0 30 30" fill="none" xmlns="http://www.w3.org/2000/svg">
<g clip-path="url(#clip0)">
<path d="M29.3193 6.31925L24.1584 1.15842C23.326 0.326033 21.9437 0.329012 21.1077 1.165L1.66501 20.6077C0.829026 21.4437 0.826047 22.826 1.65844 23.6584L6.79548 28.7955C7.62788 29.6279 9.01025 29.6249 9.84623 28.7889L29.2889 9.34622C30.1487 8.53402 30.1517 7.15165 29.3193 6.31925ZM8.46684 27.4095C8.39519 27.4812 8.29985 27.4814 8.2285 27.41L3.06767 22.2492C2.99632 22.1778 2.99653 22.0825 3.06819 22.0109L4.54908 20.53L6.42791 22.4088C6.80843 22.7893 7.4519 22.8118 7.85795 22.4057C8.264 21.9997 8.26533 21.38 7.86103 20.9757L5.9822 19.0968L7.58252 17.4965L9.46135 19.3753C9.84187 19.7559 10.4853 19.7783 10.8914 19.3723C11.2974 18.9662 11.2988 18.3465 10.8945 17.9422L9.01564 16.0634L10.616 14.4631L13.4937 17.3408C13.8742 17.7213 14.5176 17.7437 14.9237 17.3377C15.3297 16.9316 15.3311 16.312 14.9268 15.9077L12.0491 13.03L13.6494 11.4296L15.5282 13.3085C15.9087 13.689 16.5522 13.7114 16.9583 13.3054C17.3404 12.9232 17.3657 12.2797 16.9613 11.8753L15.0825 9.99652L16.6828 8.3962L18.5617 10.275C18.9422 10.6555 19.5857 10.678 19.9917 10.2719C20.3739 9.88978 20.3991 9.24621 19.9948 8.84191L18.116 6.96308L19.6207 5.4583L22.4984 8.336C22.879 8.71652 23.5224 8.73897 23.9285 8.33292C24.3106 7.95075 24.3359 7.30718 23.9316 6.90288L21.0539 4.02518L22.5109 2.56817C22.5825 2.49652 22.6779 2.49631 22.7492 2.56766L27.8862 7.70471C27.9576 7.77605 27.9574 7.87139 27.8857 7.94305L8.44306 27.3857L8.46684 27.4095Z" fill="black"/>
</g>
<defs>
<clipPath id="clip0">
<rect width="30" height="30" fill="white"/>
</clipPath>
</defs>
</svg>
