<svg id="Layer_1" data-name="Layer 1" xmlns="http://www.w3.org/2000/svg" viewBox="0 0 403.82 94">
    <defs>
        <style>.cls-1{fill:#fff;}</style>
    </defs>
    <path class="cls-1" d="M98.5,94.27H83.88v34.62c0,1.51,2,2.54,2.93,3.06s2.8.78,5.53.78h7.4v14.44H84.41c-17.47,0-24.71-4.7-24.71-14.09V94.27H50.9a3,3,0,0,1-3-3v-14H59.7v-14l19.89-9.79a3,3,0,0,1,4.29,2.67V77.28H98.5Z" transform="translate(-47.92 -53.17)" />
    <path class="cls-1" d="M218.93,77.28h22.22a3,3,0,0,1,3,3v66.91H219.7a3,3,0,0,1-3-3v-3q-3.6,6-16.58,6h-7.45q-24.51,0-24.51-14.09V91.37q0-14.09,24.51-14.09h7.45q14.18,0,17.06,6.84V79A1.72,1.72,0,0,1,218.93,77.28Zm-16.87,57.36h7.21q7.46,0,7.45-4.69V94.51q0-4.71-7.45-4.7h-7.21q-3.84,0-5.29.78a3.16,3.16,0,0,0-1.44,3.06V130.8a3.16,3.16,0,0,0,1.44,3.06Q198.23,134.64,202.06,134.64Z" transform="translate(-47.92 -53.17)" />
    <path class="cls-1" d="M302.07,65.34,325.18,54a3,3,0,0,1,4.29,2.67v90.46h-24a3,3,0,0,1-3-3v-4q-2.9,7-17.07,7H278q-24.51,0-24.51-14.09V91.23q0-14.08,24.51-14.09h7.45q13,0,16.59,6Zm-14.66,69.3h7.21q7.44,0,7.45-4.69V94.51a4.15,4.15,0,0,0-1.68-3.78q-1.69-1.07-5.77-1.06h-7.21q-3.86,0-5.29.78a3.16,3.16,0,0,0-1.44,3.06V130.8a3.16,3.16,0,0,0,1.44,3.06Q283.56,134.64,287.41,134.64Z" transform="translate(-47.92 -53.17)" />
    <path class="cls-1" d="M157.37,76.24h1.35c1.64,0,3,1.71,3,3.82V91c0,1.72-1.08,3.12-2.42,3.12H151.6q-15.14,0-15.14,13.14v39.89H112.28c-1.65,0-3-1.71-3-3.82V76.61h23.94a3,3,0,0,1,3,3v8.52a16.44,16.44,0,0,1,7.45-8.58Q149.19,76.25,157.37,76.24Z" transform="translate(-47.92 -53.17)" />
    <path class="cls-1" d="M387.45,76.24h1.35c1.65,0,3,1.71,3,3.82V91c0,1.72-1.09,3.12-2.43,3.12h-7.67q-15.14,0-15.14,13.14v39.89H342.36c-1.64,0-3-1.71-3-3.82V76.61h23.95a3,3,0,0,1,3,3v8.52a16.44,16.44,0,0,1,7.45-8.58Q379.29,76.25,387.45,76.24Z" transform="translate(-47.92 -53.17)" />
    <path class="cls-1" d="M447.42,75.77h1.35c1.64,0,3,1.71,3,3.82v11c0,1.72-1.08,3.12-2.42,3.12h-7.67q-15.13,0-15.14,13.14V146.7H402.33c-1.65,0-3-1.71-3-3.82V76.14h23.94a3,3,0,0,1,3,3v8.53a16.44,16.44,0,0,1,7.45-8.58Q439.24,75.78,447.42,75.77Z" transform="translate(-47.92 -53.17)" />
</svg>