<svg xmlns="http://www.w3.org/2000/svg" xmlns:xlink="http://www.w3.org/1999/xlink" width="127" height="22" viewBox="0 0 127 22">
  <defs>
    <clipPath id="clip-path">
      <rect id="Rectangle_1" data-name="Rectangle 1" width="93.125" height="22" fill="none"/>
    </clipPath>
    <clipPath id="clip-tradrr-app-icon_1">
      <rect width="127" height="22"/>
    </clipPath>
  </defs>
  <g id="tradrr-app-icon_1" data-name="tradrr-app-icon – 1" clip-path="url(#clip-tradrr-app-icon_1)">
    <g id="Group_415" data-name="Group 415" transform="translate(0 -9)">
      <g id="Group_2" data-name="Group 2" transform="translate(0 9)">
        <g id="Group_1" data-name="Group 1" clip-path="url(#clip-path)">
          <path id="Path_2" data-name="Path 2" d="M313.557,22.726h-1.743q-5.734,0-5.733-3.3v-9.8q0-3.3,5.733-3.3h1.743q3.036,0,3.874,1.395V3.575L322.22.93a.7.7,0,0,1,1,.62V22.726Zm.449-2.932h1.687q1.743,0,1.743-1.1V10.4a.965.965,0,0,0-.394-.883,2.641,2.641,0,0,0-1.35-.249h-1.687a2.914,2.914,0,0,0-1.24.183.734.734,0,0,0-.338.716v8.727a.738.738,0,0,0,.338.716,2.885,2.885,0,0,0,1.24.183Z" transform="translate(-258.651 -0.726)" fill="#fff"/>
          <path id="Path_3" data-name="Path 3" d="M188.867,51.894h-1.743q-5.733,0-5.733-3.3V38.8q0-3.3,5.733-3.3h1.743q3.039,0,3.874,1.395v-.826a.7.7,0,0,1,.7-.7h4.4a.7.7,0,0,1,.7.7V51.894Zm.449-2.932H191q1.743,0,1.743-1.1v-8.3a.965.965,0,0,0-.394-.883,2.669,2.669,0,0,0-1.35-.249h-1.687a2.914,2.914,0,0,0-1.24.183.734.734,0,0,0-.338.716v8.727a.741.741,0,0,0,.338.716,2.852,2.852,0,0,0,1.24.183Z" transform="translate(-153.283 -29.894)" fill="#fff"/>
          <path id="Path_4" data-name="Path 4" d="M103.5,34.846h.31a.813.813,0,0,1,.7.894V38.3a.663.663,0,0,1-.569.728h-1.787q-3.544,0-3.544,3.076v9.338H92.946a.813.813,0,0,1-.7-.894V34.931h5.6a.7.7,0,0,1,.7.7v.6a2.4,2.4,0,0,1,1.714-1.223,19.764,19.764,0,0,1,3.235-.16" transform="translate(-77.955 -29.446)" fill="#fff"/>
          <path id="Path_5" data-name="Path 5" d="M441.988,34.846h.31a.813.813,0,0,1,.7.894V38.3a.663.663,0,0,1-.567.728h-1.788q-3.542,0-3.542,3.076v9.338h-5.659a.815.815,0,0,1-.7-.894V34.931h5.6a.7.7,0,0,1,.7.7v.6a2.4,2.4,0,0,1,1.715-1.223,19.731,19.731,0,0,1,3.234-.16" transform="translate(-363.994 -29.446)" fill="#fff"/>
          <path id="Path_6" data-name="Path 6" d="M533.114,34.846h.31a.813.813,0,0,1,.7.894V38.3a.663.663,0,0,1-.567.728h-1.794q-3.542,0-3.542,3.076v9.338h-5.659a.815.815,0,0,1-.7-.894V34.931h5.6a.7.7,0,0,1,.7.7v.6a2.4,2.4,0,0,1,1.715-1.223,19.772,19.772,0,0,1,3.24-.16" transform="translate(-440.995 -29.446)" fill="#fff"/>
          <path id="Path_7" data-name="Path 7" d="M11.834,9.619H8.414v8.1c0,.355.465.593.685.716a3.039,3.039,0,0,0,1.294.183h1.732V22H8.537c-4.086,0-5.781-1.1-5.781-3.3V9.619H.7a.7.7,0,0,1-.7-.7V5.643H2.755V2.364L7.4.072a.7.7,0,0,1,1,.62V5.638h3.42Z" transform="translate(0 0)" fill="#fff"/>
        </g>
      </g>
      <path id="Courses" d="M3.5.1Q2.844.1,2.172.054A6.208,6.208,0,0,1,1-.12V-8.2q.264-.048.564-.09t.612-.066q.312-.024.618-.036T3.372-8.4a8.113,8.113,0,0,1,1.4.114A3.561,3.561,0,0,1,5.9-7.908a1.965,1.965,0,0,1,.738.7A2.014,2.014,0,0,1,6.9-6.144a1.766,1.766,0,0,1-.282,1.008,2,2,0,0,1-.786.672,2.186,2.186,0,0,1,1.116.744,2.059,2.059,0,0,1,.36,1.248A2.18,2.18,0,0,1,6.372-.546,5.124,5.124,0,0,1,3.5.1Zm-1.02-3.84v2.532q.252.024.54.036t.528.012a5.905,5.905,0,0,0,.87-.06,2.26,2.26,0,0,0,.7-.21,1.242,1.242,0,0,0,.468-.4,1.116,1.116,0,0,0,.174-.648,1.018,1.018,0,0,0-.516-.984,3.059,3.059,0,0,0-1.428-.276Zm0-1.188H3.552a3.076,3.076,0,0,0,1.356-.246A.9.9,0,0,0,5.4-6.06a.877.877,0,0,0-.51-.852,3,3,0,0,0-1.326-.252q-.348,0-.618.012t-.462.036ZM9.36,0V-8.316H14.7v1.284H10.872V-4.98H14.28v1.26H10.872v2.436h4.116V0ZM22.668-8.316v1.308H20.112V0H18.588V-7.008H16.032V-8.316ZM29.136,0q-.168-.492-.348-.972t-.348-.984h-3.5q-.168.5-.342.99T24.252,0H22.68q.468-1.332.888-2.46T24.39-4.6q.4-1.008.8-1.92T26-8.316h1.428q.42.888.816,1.8t.8,1.92q.4,1.008.828,2.136T30.768,0ZM26.688-6.708q-.276.636-.63,1.548T25.32-3.18h2.736q-.384-1.068-.744-1.992T26.688-6.708Z" transform="translate(96.129 30.4)" fill="#0d61f7"/>
    </g>
  </g>
</svg>
