<svg width="30" height="30" viewBox="0 0 30 30" fill="none" xmlns="http://www.w3.org/2000/svg">
<path fill-rule="evenodd" clip-rule="evenodd" d="M28 7.31418C27.0419 7.73698 26.014 8.02401 24.9357 8.15202C26.0373 7.49261 26.8829 6.44532 27.2785 5.2002C26.2468 5.81306 25.1064 6.25525 23.8923 6.49574C22.9187 5.46009 21.5339 4.81232 19.9979 4.81232C17.0539 4.81232 14.6645 7.20169 14.6645 10.1457C14.6645 10.5647 14.711 10.9719 14.8041 11.3598C10.3706 11.1387 6.4413 9.01312 3.81143 5.78591C3.35372 6.57332 3.08996 7.48873 3.08996 8.4662C3.08996 10.3164 4.03252 11.9494 5.46382 12.9036C4.59108 12.8765 3.76876 12.636 3.04729 12.2365C3.04729 12.2597 3.04729 12.2791 3.04729 12.3024C3.04729 14.8857 4.88587 17.0424 7.32568 17.5311C6.87961 17.6513 6.40639 17.7173 5.92153 17.7173C5.57631 17.7173 5.24273 17.6824 4.9169 17.6203C5.5957 19.7382 7.56616 21.282 9.89736 21.3246C8.07042 22.7559 5.77413 23.6093 3.27227 23.6093C2.84171 23.6093 2.41892 23.5821 2 23.5356C4.35835 25.0483 7.16276 25.9327 10.1766 25.9327C19.9863 25.9327 25.3507 17.8065 25.3507 10.7586C25.3507 10.5259 25.3469 10.297 25.3352 10.0682C26.3786 9.31567 27.2824 8.37699 27.9961 7.30642L28 7.31418Z" fill="black"/>
</svg>
