<svg width="30" height="30" viewBox="0 0 30 30" fill="none" xmlns="http://www.w3.org/2000/svg">
<path fill-rule="evenodd" clip-rule="evenodd" d="M3 0C1.34315 0 0 1.34315 0 3V27C0 28.6569 1.34315 30 3 30H27C28.6569 30 30 28.6569 30 27V3C30 1.34315 28.6569 0 27 0H3ZM2 3C2 2.44772 2.44772 2 3 2H27C27.5523 2 28 2.44772 28 3V27C28 27.5523 27.5523 28 27 28H3C2.44772 28 2 27.5523 2 27V3ZM10 4C10 3.44772 9.55228 3 9 3C8.44772 3 8 3.44772 8 4V7H4C3.44772 7 3 7.44772 3 8C3 8.55228 3.44772 9 4 9H8V26C8 26.5523 8.44772 27 9 27C9.55228 27 10 26.5523 10 26V9H25C25.5523 9 26 8.55228 26 8C26 7.44772 25.5523 7 25 7H10V4Z" fill="black"/>
</svg>
