<svg width="12" height="12" viewBox="0 0 12 12" fill="none" xmlns="http://www.w3.org/2000/svg">
<path d="M4.5 1.5C4.5 1.08579 4.16421 0.75 3.75 0.75C3.33579 0.75 3 1.08579 3 1.5V3H1.5C1.08579 3 0.75 3.33579 0.75 3.75C0.75 4.16421 1.08579 4.5 1.5 4.5H4.5V1.5Z" fill="#51525B"/>
<path d="M8.12131 2.818C8.4142 2.52511 8.88908 2.52511 9.18197 2.818C9.47486 3.11089 9.47486 3.58577 9.18197 3.87866L7.59098 5.46965C7.29809 5.76255 7.29809 6.23742 7.59098 6.53031C7.88387 6.82321 8.35875 6.82321 8.65164 6.53031L10.2426 4.93932C11.1213 4.06064 11.1213 2.63602 10.2426 1.75734C9.36395 0.878662 7.93933 0.878662 7.06065 1.75734L5.46966 3.34833C5.17677 3.64122 5.17677 4.1161 5.46966 4.40899C5.76255 4.70189 6.23743 4.70189 6.53032 4.40899L8.12131 2.818Z" fill="#51525B"/>
<path d="M8.25 11.25C7.83579 11.25 7.5 10.9142 7.5 10.5V7.5H10.5C10.9142 7.5 11.25 7.83579 11.25 8.25C11.25 8.66421 10.9142 9 10.5 9H9V10.5C9 10.9142 8.66421 11.25 8.25 11.25Z" fill="#51525B"/>
<path d="M2.818 8.12131C2.52511 8.4142 2.52511 8.88908 2.818 9.18197C3.11089 9.47486 3.58577 9.47486 3.87866 9.18197L5.46965 7.59098C5.76255 7.29809 6.23742 7.29809 6.53031 7.59098C6.82321 7.88387 6.82321 8.35875 6.53031 8.65164L4.93932 10.2426C4.06064 11.1213 2.63602 11.1213 1.75734 10.2426C0.878662 9.36395 0.878662 7.93933 1.75734 7.06065L3.34833 5.46966C3.64122 5.17677 4.1161 5.17677 4.40899 5.46966C4.70189 5.76255 4.70189 6.23743 4.40899 6.53032L2.818 8.12131Z" fill="#51525B"/>
</svg>
