<svg id="Шар_1" data-name="Шар 1" xmlns="http://www.w3.org/2000/svg" viewBox="0 0 30 30">
  <g>
    <path d="M23.78,11H11.31V6.2a4,4,0,0,1,8,0V7.37h2.35V6.2A6.35,6.35,0,0,0,9,6.2V11H6.84a3.53,3.53,0,0,0-3.53,3.51v12A3.53,3.53,0,0,0,6.84,30H23.78a3.53,3.53,0,0,0,3.53-3.52v-12A3.52,3.52,0,0,0,23.78,11ZM25,26.48a1.18,1.18,0,0,1-1.18,1.18H6.84a1.17,1.17,0,0,1-1.17-1.18v-12a1.17,1.17,0,0,1,1.17-1.17H23.78A1.18,1.18,0,0,1,25,14.53Z"/>
    <path d="M15.27,16.64a2,2,0,0,0-2,2,2,2,0,0,0,.93,1.7v2.41a1.1,1.1,0,0,0,2.19,0v-2.4a2,2,0,0,0-1.09-3.73Z"/>
  </g>
</svg>
