<svg width="30" height="30" viewBox="0 0 30 30" fill="none" xmlns="http://www.w3.org/2000/svg">
<path d="M22.8281 11.2812H11.2324V6.7843C11.2324 4.801 12.9006 3.1875 14.9511 3.1875C17.0016 3.1875 18.6699 4.801 18.6699 6.7843V7.875H20.8574V6.7843C20.8574 3.59481 18.2078 1 14.9511 1C11.6944 1 9.04485 3.59481 9.04485 6.7843V11.2812H7.07812C5.26884 11.2812 3.79688 12.7532 3.79688 14.5625V25.7188C3.79688 27.528 5.26884 29 7.07812 29H22.8281C24.6374 29 26.1094 27.528 26.1094 25.7188V14.5625C26.1094 12.7532 24.6374 11.2812 22.8281 11.2812ZM23.9219 25.7188C23.9219 26.3218 23.4312 26.8125 22.8281 26.8125H7.07812C6.47503 26.8125 5.98438 26.3218 5.98438 25.7188V14.5625C5.98438 13.9594 6.47503 13.4688 7.07812 13.4688H22.8281C23.4312 13.4688 23.9219 13.9594 23.9219 14.5625V25.7188Z" fill="black"/>
<path d="M14.9531 16.6406C13.8356 16.6406 12.9297 17.5465 12.9297 18.6641C12.9297 19.3776 13.2994 20.0045 13.8574 20.3647V22.7656C13.8574 23.3696 14.347 23.8594 14.9511 23.8594C15.5551 23.8594 16.0449 23.3696 16.0449 22.7656V20.3673C16.6051 20.0075 16.9766 19.3794 16.9766 18.6641C16.9766 17.5465 16.0707 16.6406 14.9531 16.6406Z" fill="black"/>
</svg>
