<svg width="14" height="14" viewBox="0 0 14 14" fill="none" xmlns="http://www.w3.org/2000/svg">
<path fill-rule="evenodd" clip-rule="evenodd" d="M9.38775 2.08431L8.91338 1.60989C8.652 1.34849 8.65043 0.926249 8.91393 0.662715C9.17562 0.401006 9.60104 0.402162 9.86101 0.662156L13.3368 4.13829C13.5982 4.3997 13.5997 4.82193 13.3362 5.08547C13.0745 5.34718 12.6491 5.34602 12.3892 5.08603L11.9148 4.6116L9.85653 6.67006L9.22477 6.03824L11.283 3.97978L10.0195 2.71614L7.96126 4.7746L7.32951 4.14277L9.38775 2.08431ZM8.68991 9.39335L9.50811 10.2116C9.37888 11.0372 9.04107 11.9084 8.30928 12.6402L7.67752 13.2721L4.51874 10.1129L1.23172 13.4003C1.05583 13.5762 0.773028 13.5786 0.597357 13.4029C0.422902 13.2284 0.42246 12.946 0.599962 12.7685L3.88698 9.48112L0.728199 6.32201L1.35996 5.69019C2.09063 4.95944 2.96366 4.62272 3.79128 4.49422L4.673 5.37603C3.75216 5.37072 2.73491 5.57874 1.99171 6.32201L7.67752 12.0084C8.4492 11.2366 8.68342 10.2692 8.68991 9.39335ZM3.45623 1.37526C3.2411 1.16013 2.89229 1.16013 2.67716 1.37526C2.46203 1.5904 2.46203 1.9392 2.67716 2.15433L12.3649 11.842C12.58 12.0572 12.9288 12.0572 13.1439 11.842C13.3591 11.6269 13.3591 11.2781 13.1439 11.063L3.45623 1.37526Z" fill="#D0D0D2"/>
</svg>
