<svg width="30" height="30" viewBox="0 0 30 30" fill="none" xmlns="http://www.w3.org/2000/svg">
<path d="M14.9908 0.986023C12.2207 0.986454 9.51289 1.80826 7.20979 3.34753C4.90669 4.88681 3.11172 7.07442 2.05183 9.63377C0.991945 12.1931 0.714744 15.0093 1.25528 17.7262C1.79581 20.4431 3.1298 22.9387 5.08858 24.8974C7.04736 26.8562 9.54297 28.1902 12.2599 28.7307C14.9767 29.2713 17.7929 28.9941 20.3522 27.9342C22.9116 26.8743 25.0992 25.0793 26.6385 22.7762C28.1778 20.4731 28.9996 17.7653 29 14.9952C28.9958 11.281 27.5185 7.72018 24.8922 5.09386C22.2658 2.46755 18.705 0.990233 14.9908 0.986023ZM25.3425 21.3232C23.3522 18.8861 19.4656 17.2273 14.9908 17.2273C10.5105 17.2273 6.62349 18.886 4.63538 21.3253C3.50701 19.4849 2.88962 17.377 2.84681 15.2186C2.80401 13.0603 3.33732 10.9295 4.39184 9.04583C5.44635 7.16213 6.98394 5.59358 8.84624 4.50173C10.7085 3.40988 12.8282 2.8342 14.987 2.83397C17.1458 2.83375 19.2656 3.40899 21.1281 4.50046C22.9907 5.59192 24.5286 7.16015 25.5835 9.04363C26.6384 10.9271 27.1721 13.0578 27.1298 15.2161C27.0874 17.3745 26.4705 19.4825 25.3425 21.3232L25.3425 21.3232Z" fill="black"/>
<path d="M16.0468 15.1314C18.5219 14.5471 20.0548 12.0669 19.4705 9.59177C18.8862 7.1166 16.406 5.58376 13.9308 6.16806C11.4556 6.75237 9.9228 9.23256 10.5071 11.7077C11.0914 14.1829 13.5716 15.7157 16.0468 15.1314Z" fill="black"/>
</svg>
