<svg width="30" height="30" viewBox="0 0 30 30" fill="none" xmlns="http://www.w3.org/2000/svg">
<path d="M29.6249 13.9C26.9683 7.74612 21.9643 4 15 4C8.03572 4 3.03171 7.74656 0.375103 13.9L0 15L0.375103 16.1C3.03171 22.2539 8.03572 26 15 26C21.9643 26 26.9683 22.2534 29.6249 16.1L30 15L29.6249 13.9ZM15 21.5706C11.7857 21.5706 8.57143 18.85 8.57143 15C8.57143 11.15 11.7857 8.42897 15 8.42897C18.2143 8.42897 21.4286 11.15 21.4286 15C21.4286 18.85 18.2143 21.5706 15 21.5706Z" fill="black"/>
</svg>
