<svg width="14" height="14" viewBox="0 0 14 14" fill="none" xmlns="http://www.w3.org/2000/svg">
<g clip-path="url(#clip0)">
<path opacity="0.2" fill-rule="evenodd" clip-rule="evenodd" d="M13.7807 5.78341H11.914C11.8521 5.78341 11.7928 5.80799 11.749 5.85175C11.7052 5.89551 11.6807 5.95486 11.6807 6.01674V3.85607C11.6807 3.79419 11.6561 3.73484 11.6123 3.69108C11.5686 3.64732 11.5092 3.62274 11.4473 3.62274H9.58067C9.51878 3.62274 9.45943 3.64732 9.41568 3.69108C9.37192 3.73484 9.34733 3.79419 9.34733 3.85607V1.42474C9.34733 1.36286 9.32275 1.30351 9.27899 1.25975C9.23523 1.21599 9.17588 1.19141 9.114 1.19141H7.24733C7.18545 1.19141 7.1261 1.21599 7.08234 1.25975C7.03858 1.30351 7.014 1.36286 7.014 1.42474V5.48941C7.014 5.42752 6.98942 5.36817 6.94566 5.32441C6.9019 5.28066 6.84255 5.25607 6.78067 5.25607H4.914C4.85212 5.25607 4.79277 5.28066 4.74901 5.32441C4.70525 5.36817 4.68067 5.42752 4.68067 5.48941V3.26807C4.68067 3.20619 4.65608 3.14684 4.61233 3.10308C4.56857 3.05932 4.50922 3.03474 4.44733 3.03474H2.58067C2.54887 3.03283 2.51701 3.03745 2.48707 3.04832C2.45712 3.05918 2.42972 3.07607 2.40655 3.09793C2.38338 3.11979 2.36493 3.14616 2.35233 3.17542C2.33974 3.20469 2.33328 3.23622 2.33333 3.26807V6.42274C2.33333 6.36086 2.30875 6.30151 2.26499 6.25775C2.22123 6.21399 2.16188 6.18941 2.1 6.18941H0.233333C0.171449 6.18941 0.1121 6.21399 0.0683418 6.25775C0.0245833 6.30151 0 6.36086 0 6.42274L0 14.0014H14V6.01674C14.0001 5.95721 13.9775 5.89988 13.9367 5.85651C13.8959 5.81313 13.8401 5.78698 13.7807 5.78341Z" fill="#D0D0D2"/>
<path fill-rule="evenodd" clip-rule="evenodd" d="M13.7807 9.05615H11.914C11.8522 9.05615 11.7928 9.08073 11.749 9.12449C11.7053 9.16825 11.6807 9.2276 11.6807 9.28948V7.88948C11.6807 7.8276 11.6561 7.76825 11.6124 7.72449C11.5686 7.68073 11.5093 7.65615 11.4474 7.65615H9.5807C9.51882 7.65615 9.45947 7.68073 9.41571 7.72449C9.37195 7.76825 9.34737 7.8276 9.34737 7.88948V6.11615C9.34737 6.05426 9.32279 5.99491 9.27903 5.95115C9.23527 5.9074 9.17592 5.88281 9.11404 5.88281H7.24737C7.18549 5.88281 7.12614 5.9074 7.08238 5.95115C7.03862 5.99491 7.01404 6.05426 7.01404 6.11615V9.43415C7.01404 9.37226 6.98945 9.31291 6.9457 9.26915C6.90194 9.2254 6.84259 9.20081 6.7807 9.20081H4.91404C4.85215 9.20081 4.79281 9.2254 4.74905 9.26915C4.70529 9.31291 4.6807 9.37226 4.6807 9.43415V7.56748C4.6807 7.5056 4.65612 7.44625 4.61236 7.40249C4.5686 7.35873 4.50925 7.33415 4.44737 7.33415H2.5807C2.51882 7.33415 2.45947 7.35873 2.41571 7.40249C2.37195 7.44625 2.34737 7.5056 2.34737 7.56748V10.5075C2.34737 10.4456 2.32279 10.3862 2.27903 10.3425C2.23527 10.2987 2.17592 10.2741 2.11404 10.2741H0.247371C0.185488 10.2741 0.126138 10.2987 0.0823798 10.3425C0.0386214 10.3862 0.0140381 10.4456 0.0140381 10.5075V13.9981H14V9.28948C14.0001 9.22995 13.9775 9.17262 13.9367 9.12925C13.8959 9.08587 13.8401 9.05972 13.7807 9.05615Z" fill="#D0D0D2"/>
</g>
<defs>
<clipPath id="clip0">
<rect width="14" height="14" fill="white"/>
</clipPath>
</defs>
</svg>
