<svg width="22" height="22" viewBox="0 0 22 22" fill="none" xmlns="http://www.w3.org/2000/svg">
<path d="M11.2033 10.7463C10.9418 10.6301 10.7385 10.543 10.6513 10.4268C10.5351 10.3106 10.5061 10.1653 10.5061 9.99102C10.5061 9.81672 10.5642 9.64243 10.6513 9.52623C10.7385 9.41004 10.8837 9.35194 11.0871 9.35194C11.2904 9.35194 11.4357 9.43908 11.5519 9.58433C11.6681 9.72958 11.6971 9.90387 11.7262 10.1363C11.7262 10.1653 11.7552 10.1944 11.7843 10.1944H12.5976C12.6557 10.1944 12.6848 10.1653 12.6848 10.1072C12.6848 10.1072 12.6848 10.1072 12.6848 10.0782C12.6848 9.67148 12.5686 9.35194 12.3362 9.09049C12.1038 8.82905 11.8133 8.65475 11.4357 8.59665C11.4066 8.59665 11.3776 8.56761 11.3776 8.53856V7.92852C11.3776 7.89947 11.3485 7.87042 11.3195 7.87042H10.8837C10.8547 7.87042 10.8256 7.89947 10.8256 7.92852V8.56761C10.8256 8.59666 10.7966 8.6257 10.7675 8.6257C10.3899 8.6838 10.0703 8.82905 9.83795 9.06144C9.60555 9.29384 9.46031 9.61338 9.46031 9.99102C9.46031 10.3977 9.5765 10.7173 9.83795 10.9496C10.0703 11.182 10.448 11.3854 10.9709 11.5597C11.2323 11.6468 11.4066 11.763 11.5228 11.8792C11.639 11.9954 11.6681 12.1407 11.6681 12.344C11.6681 12.5183 11.61 12.6926 11.4938 12.7798C11.3776 12.896 11.2323 12.954 11.029 12.954C10.8256 12.954 10.6223 12.896 10.5061 12.7507C10.3608 12.6345 10.3027 12.4312 10.3027 12.1407C10.3027 12.1116 10.2737 12.0826 10.2446 12.0826H9.34411C9.31506 12.0826 9.28601 12.1116 9.28601 12.1407C9.28601 12.1988 9.28601 12.2569 9.28601 12.2859C9.31506 12.6926 9.43126 13.0121 9.6927 13.2445C9.95414 13.506 10.3027 13.6512 10.7094 13.6803C10.7385 13.6803 10.7675 13.7093 10.7675 13.7384V14.3194C10.7675 14.3484 10.7966 14.3775 10.8256 14.3775H11.2614C11.2904 14.3775 11.3195 14.3484 11.3195 14.3194V13.7384C11.3195 13.7093 11.3485 13.6803 11.3776 13.6803C11.7843 13.6222 12.1038 13.506 12.3362 13.2736C12.5686 13.0412 12.7138 12.7217 12.7138 12.315C12.7138 11.9083 12.5976 11.5887 12.3362 11.3563C12.0747 11.153 11.6971 10.9496 11.2033 10.7463Z" fill="white"/>
<path d="M11.029 5.19794C11 5.19794 11 5.19794 11.029 5.19794C11 5.19794 11 5.19794 11 5.19794C5.27729 5.25604 0.6875 9.70058 0.6875 11.124C0.6875 12.5474 5.27729 16.992 10.971 17.05C10.971 17.05 10.971 17.05 11 17.05C11 17.05 11 17.05 11.029 17.05C16.7227 16.992 21.3125 12.5474 21.3125 11.124C21.3125 9.70058 16.7227 5.25604 11.029 5.19794ZM11 15.1909C8.7632 15.1909 6.9331 13.3608 6.9331 11.124C6.9331 8.8872 8.7632 7.05709 11 7.05709C13.2368 7.05709 15.0669 8.8872 15.0669 11.124C15.0669 13.3608 13.2368 15.1909 11 15.1909Z" fill="white"/>
</svg>
