<svg width="30" height="30" viewBox="0 0 30 30" fill="none" xmlns="http://www.w3.org/2000/svg">
<path fill-rule="evenodd" clip-rule="evenodd" d="M16.2 3.1C16.2 2.49249 15.7075 2 15.1 2C14.4925 2 14 2.49249 14 3.1L14 26.9C14 27.5075 14.4925 28 15.1 28C15.7075 28 16.2 27.5075 16.2 26.9V3.1ZM20 4.9C20 4.29249 20.4925 3.8 21.1 3.8H28.9C29.5075 3.8 30 4.29249 30 4.9C30 5.50751 29.5075 6 28.9 6H21.1C20.4925 6 20 5.50751 20 4.9ZM0 17.9C0 17.2925 0.492487 16.8 1.1 16.8H8.9C9.50751 16.8 10 17.2925 10 17.9C10 18.5075 9.50751 19 8.9 19H1.1C0.492487 19 0 18.5075 0 17.9ZM1.1 23.8C0.492487 23.8 0 24.2925 0 24.9C0 25.5075 0.492487 26 1.1 26H8.9C9.50751 26 10 25.5075 10 24.9C10 24.2925 9.50751 23.8 8.9 23.8H1.1ZM20 11.9C20 11.2925 20.4925 10.8 21.1 10.8H28.9C29.5075 10.8 30 11.2925 30 11.9C30 12.5075 29.5075 13 28.9 13H21.1C20.4925 13 20 12.5075 20 11.9Z" fill="black"/>
</svg>
