<svg width="18" height="18" viewBox="0 0 18 18" fill="none" xmlns="http://www.w3.org/2000/svg">
  <g clip-path="url(#clip0)">
    <path fill-rule="evenodd" clip-rule="evenodd" d="M12.4651 1.62056C12.7007 1.8667 12.7007 2.26579 12.4651 2.51194L10.4782 4.58746H15.9603C16.2935 4.58746 16.5637 4.86966 16.5637 5.21776C16.5637 5.56587 16.2935 5.84806 15.9603 5.84806H10.4782L12.4651 7.92359C12.7007 8.16973 12.7007 8.56882 12.4651 8.81497C12.2294 9.06112 11.8474 9.06112 11.6118 8.81497L8.59493 5.66345C8.35931 5.4173 8.35931 5.01822 8.59493 4.77207L11.6118 1.62056C11.8474 1.37441 12.2294 1.37441 12.4651 1.62056Z" fill="white"/>
    <path fill-rule="evenodd" clip-rule="evenodd" d="M5.53494 14.0513C5.29931 13.8052 5.29931 13.4061 5.53494 13.1599L7.52176 11.0844L2.0397 11.0844C1.70647 11.0844 1.43633 10.8022 1.43633 10.4541C1.43633 10.106 1.70647 9.82381 2.0397 9.82381L7.52176 9.82381L5.53494 7.74829C5.29931 7.50214 5.29931 7.10305 5.53494 6.85691C5.77057 6.61076 6.1526 6.61076 6.38823 6.85691L9.40507 10.0084C9.64069 10.2546 9.64069 10.6537 9.40507 10.8998L6.38823 14.0513C6.1526 14.2975 5.77057 14.2975 5.53494 14.0513Z" fill="white"/>
    <path fill-rule="evenodd" clip-rule="evenodd" d="M14.2363 10.745C14.5576 10.745 14.8181 11.0576 14.8181 11.4432L14.8181 17.0287C14.8181 17.4143 14.5576 17.7268 14.2363 17.7268C13.915 17.7268 13.6545 17.4143 13.6545 17.0287L13.6545 11.4432C13.6545 11.0576 13.915 10.745 14.2363 10.745Z" fill="white"/>
    <path fill-rule="evenodd" clip-rule="evenodd" d="M10.7454 14.2359C10.7454 13.9146 11.0579 13.6541 11.4435 13.6541L17.029 13.6541C17.4146 13.6541 17.7272 13.9146 17.7272 14.2359C17.7272 14.5573 17.4146 14.8177 17.029 14.8177L11.4435 14.8177C11.0579 14.8177 10.7454 14.5573 10.7454 14.2359Z" fill="white"/>
  </g>
</svg>
