<svg width="12" height="12" viewBox="0 0 12 12" fill="none" xmlns="http://www.w3.org/2000/svg">
<path fill-rule="evenodd" clip-rule="evenodd" d="M5.2193 0.572452C5.46503 -0.190815 6.53497 -0.19082 6.7807 0.572452L7.81865 3.79648H11.1776C11.9727 3.79648 12.3034 4.82345 11.6601 5.29518L10.735 5.95944C10.5499 6.09234 10.2922 6.0502 10.159 5.86528C10.0257 5.68004 10.0679 5.42175 10.2533 5.28862L11.1776 4.62494H7.81865C7.46303 4.62494 7.14785 4.39384 7.03796 4.05249L6 0.828461L4.96204 4.05249C4.85215 4.39384 4.53697 4.62494 4.18135 4.62494L0.822447 4.62494L3.53985 6.6175C3.82756 6.82847 3.94795 7.20241 3.83805 7.54375L2.8001 10.7678L4.00484 9.8844C4.18988 9.74871 4.45005 9.78992 4.58411 9.97614C4.71651 10.1601 4.67593 10.4163 4.49316 10.5504L3.28259 11.438C2.63926 11.9097 1.77367 11.275 2.0194 10.5118L3.05736 7.28774L0.339949 5.29518C-0.303378 4.82346 0.0272446 3.79648 0.822446 3.79648H4.18135L5.2193 0.572452Z" fill="#D0D0D2"/>
<path fill-rule="evenodd" clip-rule="evenodd" d="M6 7.59922C6 7.3783 6.17909 7.19922 6.4 7.19922L11.6 7.19922C11.8209 7.19922 12 7.37831 12 7.59922C12 7.82013 11.8209 7.99922 11.6 7.99922L6.4 7.99922C6.17909 7.99922 6 7.82013 6 7.59922Z" fill="#D0D0D2"/>
<path fill-rule="evenodd" clip-rule="evenodd" d="M7.2002 9.59922C7.2002 9.37831 7.37928 9.19922 7.6002 9.19922L11.6002 9.19922C11.8211 9.19922 12.0002 9.3783 12.0002 9.59922C12.0002 9.82013 11.8211 9.99922 11.6002 9.99922L7.6002 9.99922C7.37928 9.99922 7.2002 9.82013 7.2002 9.59922Z" fill="#D0D0D2"/>
<path fill-rule="evenodd" clip-rule="evenodd" d="M6 11.5992C6 11.3783 6.17909 11.1992 6.4 11.1992L11.6 11.1992C11.8209 11.1992 12 11.3783 12 11.5992C12 11.8201 11.8209 11.9992 11.6 11.9992L6.4 11.9992C6.17909 11.9992 6 11.8201 6 11.5992Z" fill="#D0D0D2"/>
</svg>
