<svg width="30" height="30" viewBox="0 0 30 30" fill="none" xmlns="http://www.w3.org/2000/svg">
<path fill-rule="evenodd" clip-rule="evenodd" d="M23.853 16.9732C24.3962 16.9732 24.8365 17.4135 24.8365 17.9567L24.8365 25.8247C24.8365 26.3678 24.3962 26.8082 23.853 26.8082C23.3098 26.8082 22.8695 26.3678 22.8695 25.8247L22.8695 17.9567C22.8695 17.4135 23.3098 16.9732 23.853 16.9732Z" fill="black"/>
<path fill-rule="evenodd" clip-rule="evenodd" d="M18.9355 21.8907C18.9355 21.3475 19.3758 20.9072 19.919 20.9072H27.787C28.3301 20.9072 28.7705 21.3475 28.7705 21.8907C28.7705 22.4338 28.3301 22.8742 27.787 22.8742H19.919C19.3758 22.8742 18.9355 22.4338 18.9355 21.8907Z" fill="black"/>
<path fill-rule="evenodd" clip-rule="evenodd" d="M2.71563 13.627C3.70965 12.2796 5.354 10.5025 7.44803 9.04643C9.64034 7.52207 12.25 6.40058 15.0776 6.40058C18.0755 6.40058 20.8026 7.66189 23.0354 9.32153C25.2698 10.9824 26.9183 12.9765 27.7309 14.2638C28.0933 14.838 28.8525 15.0096 29.4267 14.6472C30.0008 14.2848 30.1725 13.5256 29.8101 12.9515C28.8476 11.4266 26.9968 9.20251 24.5021 7.34821C22.0058 5.49267 18.7739 3.94183 15.0776 3.94183C11.5935 3.94183 8.50017 5.32015 6.04438 7.02772C3.58866 8.73524 1.69493 10.8229 0.579192 12.3847C0.062481 13.1081 0.0464758 14.0761 0.548885 14.8165C2.5437 17.756 7.54247 22.8163 14.4581 23.107C15.1365 23.1356 15.7095 22.6088 15.738 21.9304C15.7665 21.252 15.2397 20.679 14.5614 20.6505C8.90811 20.4128 4.59115 16.2893 2.71563 13.627Z" fill="black"/>
<path fill-rule="evenodd" clip-rule="evenodd" d="M15.4932 15.4979C16.5796 15.4979 17.4602 14.6173 17.4602 13.5309C17.4602 12.4446 16.5796 11.5639 15.4932 11.5639C14.4069 11.5639 13.5263 12.4446 13.5263 13.5309C13.5263 14.6173 14.4069 15.4979 15.4932 15.4979ZM15.4932 17.9567C17.9375 17.9567 19.919 15.9752 19.919 13.5309C19.919 11.0867 17.9375 9.10519 15.4932 9.10519C13.049 9.10519 11.0675 11.0867 11.0675 13.5309C11.0675 15.9752 13.049 17.9567 15.4932 17.9567Z" fill="black"/>
</svg>
