<svg width="30" height="30" viewBox="0 0 30 30" fill="none" xmlns="http://www.w3.org/2000/svg">
<path fill-rule="evenodd" clip-rule="evenodd" d="M20.9492 1.36612C21.412 1.85427 21.412 2.64573 20.9492 3.13388L17.0465 7.25H27.8148C28.4694 7.25 29 7.80964 29 8.5C29 9.19036 28.4694 9.75 27.8148 9.75H17.0465L20.9492 13.8661C21.412 14.3543 21.412 15.1457 20.9492 15.6339C20.4863 16.122 19.7359 16.122 19.2731 15.6339L13.3471 9.38388C12.8843 8.89573 12.8843 8.10427 13.3471 7.61612L19.2731 1.36612C19.7359 0.877961 20.4863 0.877961 20.9492 1.36612Z" fill="black"/>
<path fill-rule="evenodd" clip-rule="evenodd" d="M9.05084 28.6583C8.58799 28.2027 8.58799 27.464 9.05084 27.0084L12.9535 23.1667L2.18518 23.1667C1.53062 23.1667 0.999999 22.6443 0.999999 22C0.999999 21.3557 1.53062 20.8333 2.18518 20.8333L12.9535 20.8333L9.05084 16.9916C8.58799 16.536 8.58799 15.7973 9.05084 15.3417C9.51368 14.8861 10.2641 14.8861 10.7269 15.3417L16.6529 21.175C17.1157 21.6307 17.1157 22.3693 16.6529 22.825L10.7269 28.6583C10.2641 29.1139 9.51368 29.1139 9.05084 28.6583Z" fill="black"/>
</svg>
