<svg width="30" height="30" viewBox="0 0 30 30" fill="none" xmlns="http://www.w3.org/2000/svg">
<path fill-rule="evenodd" clip-rule="evenodd" d="M13.998 8.55932C13.9982 8.56264 13.9985 8.56778 13.9992 8.57632C13.9992 8.57792 13.9993 8.57953 13.9994 8.58113C13.9997 8.58739 14 8.59362 14 8.60001C14 8.60803 13.9998 8.61593 13.9994 8.62382C13.9992 8.62738 13.999 8.63083 13.9985 8.63656C13.9983 8.63945 13.998 8.64291 13.9977 8.64726C13.9975 8.64958 13.9972 8.6519 13.9964 8.65755C13.996 8.66119 13.9953 8.6662 13.9944 8.67349C13.9796 8.77207 13.9359 8.86428 13.869 8.93548C13.7432 9.09379 13.6056 9.24242 13.4672 9.38825C12.7196 10.1757 11.8617 10.878 10.9222 11.3876C10.3219 11.7131 9.68061 11.9757 9.01535 12.1021C8.28385 12.2409 7.55151 12.2339 6.82386 12.0697C5.56485 11.7857 4.42429 11.0802 3.42688 10.2369C3.18935 10.036 2.95385 9.8255 2.72913 9.60306C2.51574 9.39184 2.31208 9.1699 2.12564 8.93535C1.95812 8.72469 1.95812 8.47519 2.12564 8.26454C2.25139 8.10623 2.38903 7.95747 2.52738 7.81176C3.27496 7.02429 4.13294 6.32189 5.07239 5.81244C5.67261 5.4869 6.31387 5.22428 6.97925 5.09794C7.71075 4.95912 8.44297 4.96612 9.17063 5.13016C10.4296 5.41418 11.5702 6.11976 12.5675 6.96315C13.0306 7.35454 13.4859 7.78311 13.8687 8.26466C13.9357 8.33573 13.9794 8.42807 13.9944 8.52817C13.9949 8.53154 13.9953 8.53497 13.9964 8.54374C13.9967 8.54626 13.9971 8.54922 13.9975 8.55275C13.9976 8.55412 13.9977 8.55551 13.998 8.55932ZM10.0621 8.78338C10.0621 9.97867 9.14694 10.9476 8.01806 10.9476C6.88917 10.9476 5.97404 9.97867 5.97404 8.78338C5.97404 7.5881 6.88917 6.61913 8.01806 6.61913C9.14694 6.61913 10.0621 7.5881 10.0621 8.78338Z" fill="black"/>
<path fill-rule="evenodd" clip-rule="evenodd" d="M16 9.2C16 8.53726 16.5373 8 17.2 8L27.8 8C28.4627 8 29 8.53726 29 9.2C29 9.86274 28.4627 10.4 27.8 10.4L17.2 10.4C16.5373 10.4 16 9.86274 16 9.2Z" fill="black"/>
<path fill-rule="evenodd" clip-rule="evenodd" d="M1 16.8C1 16.1373 1.53726 15.6 2.2 15.6L20.8 15.6C21.4627 15.6 22 16.1373 22 16.8C22 17.4627 21.4627 18 20.8 18L2.2 18C1.53726 18 1 17.4627 1 16.8Z" fill="black"/>
<path fill-rule="evenodd" clip-rule="evenodd" d="M6 23.8C6 23.1373 6.53726 22.6 7.2 22.6L27.8 22.6C28.4627 22.6 29 23.1373 29 23.8C29 24.4627 28.4627 25 27.8 25L7.2 25C6.53726 25 6 24.4627 6 23.8Z" fill="black"/>
</svg>
