<svg xmlns="http://www.w3.org/2000/svg" viewBox="0 0 29.98 19.9"><g id="Слой_2" data-name="Слой 2"><g id="Слой_1-2" data-name="Слой 1"><path d="M14.27,3.55C13.44,2.61,10.84,0,7.77,0S2.09,2.61,1.26,3.55a.48.48,0,0,0,0,.65c.82.93,3.43,3.55,6.51,3.55s5.68-2.62,6.5-3.55A.48.48,0,0,0,14.27,3.55Zm-4.38.93A2.21,2.21,0,1,1,7.16,1.75,2.2,2.2,0,0,1,9.89,4.48Z"/><path d="M28.88,5.3H18.29a1.1,1.1,0,1,1,0-2.2H28.88a1.1,1.1,0,1,1,0,2.2Z"/><path d="M28.87,19.9H8.26a1.1,1.1,0,0,1,0-2.2H28.87a1.1,1.1,0,0,1,0,2.2Z"/><path d="M19.5,12.9H1.1a1.1,1.1,0,0,1,0-2.2H19.5a1.1,1.1,0,0,1,0,2.2Z"/></g></g></svg>