<svg width="28" height="29" viewBox="0 0 28 29" fill="none" xmlns="http://www.w3.org/2000/svg">
<path fill-rule="evenodd" clip-rule="evenodd" d="M21.5 2.65001C20.8648 2.65001 20.35 2.13513 20.35 1.50001C20.35 0.864879 20.8648 0.350006 21.5 0.350006H26.5C27.1351 0.350006 27.65 0.864879 27.65 1.50001V6.00001C27.65 6.63513 27.1351 7.15001 26.5 7.15001C25.8648 7.15001 25.35 6.63513 25.35 6.00001V4.27635L17.3131 12.3132C16.864 12.7623 16.1359 12.7623 15.6868 12.3132L11 7.62635L2.81315 15.8132C2.36405 16.2623 1.63591 16.2623 1.1868 15.8132C0.7377 15.3641 0.7377 14.6359 1.1868 14.1868L10.1868 5.18683C10.6359 4.73773 11.364 4.73773 11.8131 5.18683L16.5 9.87366L23.7236 2.65001H21.5Z" fill="black"/>
<path d="M1.05304 22.0683C1.05304 21.2984 1.56625 20.6569 2.33607 20.6569C3.10589 20.6569 3.74741 21.2984 3.74741 22.0683V26.9702C3.74741 27.74 3.10589 28.3815 2.33607 28.3815C1.56625 28.3815 1.05304 27.74 1.05304 26.9702V22.0683Z" fill="black"/>
<path d="M8.75122 15.1399C8.75122 14.4984 9.26443 13.8568 10.0343 13.8568C10.8041 13.8568 11.4456 14.4984 11.4456 15.1399V26.9702C11.4456 27.74 10.8041 28.3815 10.0343 28.3815C9.26443 28.3815 8.75122 27.74 8.75122 26.9702V15.1399Z" fill="black"/>
<path d="M16.4493 17.3209C16.4493 16.5511 17.0908 16.0378 17.8606 16.0378C18.5021 16.0378 19.1436 16.5511 19.1436 17.3209V26.97C19.1436 27.7399 18.5021 28.3814 17.8606 28.3814C17.0908 28.3814 16.4493 27.7399 16.4493 26.97V17.3209Z" fill="black"/>
<path d="M24.1473 21.283C24.1473 20.6415 24.7888 20 25.5586 20C26.3284 20 26.8416 20.6415 26.8416 21.283V26.9701C26.8416 27.7399 26.3284 28.3814 25.5586 28.3814C24.7888 28.3814 24.1473 27.7399 24.1473 26.9701V21.283Z" fill="black"/>
</svg>
