<svg width="32" height="32" viewBox="0 0 16 16" fill="none" xmlns="http://www.w3.org/2000/svg">
<path fill-rule="evenodd" clip-rule="evenodd" d="M15.25 28.25C14.5596 28.25 14 27.6904 14 27L14 3.25C14 2.55964 14.5596 2 15.25 2C15.9404 2 16.5 2.55964 16.5 3.25L16.5 27C16.5 27.6904 15.9404 28.25 15.25 28.25Z" fill="black"/>
<path fill-rule="evenodd" clip-rule="evenodd" d="M19 5.5C19 4.80964 19.5596 4.25 20.25 4.25H28.25C28.9404 4.25 29.5 4.80964 29.5 5.5C29.5 6.19036 28.9404 6.75 28.25 6.75H20.25C19.5596 6.75 19 6.19036 19 5.5Z" fill="black"/>
<path fill-rule="evenodd" clip-rule="evenodd" d="M19 12C19 11.3096 19.5596 10.75 20.25 10.75H28.25C28.9404 10.75 29.5 11.3096 29.5 12C29.5 12.6904 28.9404 13.25 28.25 13.25H20.25C19.5596 13.25 19 12.6904 19 12Z" fill="black"/>
<path fill-rule="evenodd" clip-rule="evenodd" d="M0.75 19C0.75 18.3096 1.30964 17.75 2 17.75H10C10.6904 17.75 11.25 18.3096 11.25 19C11.25 19.6904 10.6904 20.25 10 20.25H2C1.30964 20.25 0.75 19.6904 0.75 19Z" fill="black"/>
<path fill-rule="evenodd" clip-rule="evenodd" d="M0.75 25.5C0.75 24.8096 1.30964 24.25 2 24.25H10C10.6904 24.25 11.25 24.8096 11.25 25.5C11.25 26.1904 10.6904 26.75 10 26.75H2C1.30964 26.75 0.75 26.1904 0.75 25.5Z" fill="black"/>
</svg>
