<svg width="30" height="30" viewBox="0 0 30 30" fill="none" xmlns="http://www.w3.org/2000/svg">
<g clip-path="url(#clip0)">
<path fill-rule="evenodd" clip-rule="evenodd" d="M10.2386 26.1095C9.75041 25.6214 9.75041 24.8299 10.2386 24.3418L18.6964 15.8839C19.1846 15.3957 19.976 15.3957 20.4642 15.8839L28.9221 24.3418C29.4102 24.8299 29.4102 25.6214 28.9221 26.1095C28.4339 26.5977 27.6425 26.5977 27.1543 26.1095L19.5803 18.5355L12.0063 26.1095C11.5182 26.5977 10.7267 26.5977 10.2386 26.1095Z" fill="black"/>
<path fill-rule="evenodd" clip-rule="evenodd" d="M19.4641 4.34176C19.9523 4.82991 19.9523 5.62137 19.4641 6.10953L11.0063 14.5674C10.5181 15.0556 9.72665 15.0556 9.23849 14.5674L0.780616 6.10953C0.292461 5.62137 0.292461 4.82991 0.780616 4.34176C1.26877 3.8536 2.06023 3.8536 2.54838 4.34176L10.1224 11.9158L17.6964 4.34176C18.1845 3.8536 18.976 3.8536 19.4641 4.34176Z" fill="black"/>
</g>
<defs>
<clipPath id="clip0">
</clipPath>
</defs>
</svg>
