<?xml version="1.0" encoding="utf-8"?>
<!-- Generator: Adobe Illustrator 21.0.2, SVG Export Plug-In . SVG Version: 6.00 Build 0)  -->
<svg version="1.1" xmlns="http://www.w3.org/2000/svg" xmlns:xlink="http://www.w3.org/1999/xlink" x="0px" y="0px"
	 viewBox="0 0 30 30" enable-background="new 0 0 30 30" xml:space="preserve">
<g id="measure">
	<path d="M0.962,26.874h4.891c0.531,0,0.962-0.422,0.962-0.942V4.85c0-0.411-0.34-0.744-0.76-0.744H0.76C0.34,4.106,0,4.439,0,4.85
		v21.082C0,26.452,0.431,26.874,0.962,26.874z M1.041,21.13h2.995v-0.567H1.041v-4.525h2.995v-0.57H1.041v-4.701h2.995v-0.567H1.041
		V5.078h4.732v20.823H1.041V21.13z"/>
	<path d="M10.678,5.069v20.934c0,0.531,0.431,0.962,0.962,0.962h17.397c0.815,0,1.26-0.95,0.74-1.576L12.379,4.455
		C11.803,3.762,10.678,4.169,10.678,5.069z M11.719,21.559h2.995v-0.595h-2.995V16.23h2.995v-0.595h-2.995v-4.92h2.995v-0.592
		h-2.995V5.276l17.179,20.672H11.719V21.559z"/>
	<path d="M15.352,17.162v4.811c0,0.531,0.431,0.962,0.962,0.962h3.997c0.815,0,1.26-0.95,0.74-1.576l-3.997-4.811
		C16.478,15.855,15.352,16.262,15.352,17.162z"/>
</g>
</svg>
