<?xml version="1.0" encoding="utf-8"?>
<!-- Generator: Adobe Illustrator 21.0.2, SVG Export Plug-In . SVG Version: 6.00 Build 0)  -->
<svg version="1.1" xmlns="http://www.w3.org/2000/svg" xmlns:xlink="http://www.w3.org/1999/xlink" x="0px" y="0px"
	 viewBox="0 0 30 30" enable-background="new 0 0 30 30" xml:space="preserve">
<g id="trend-angle">
	<path d="M28.979,29.771h-28c-0.304,0-0.577-0.183-0.693-0.463c-0.115-0.28-0.052-0.603,0.163-0.817l28-28
		c0.293-0.293,0.768-0.293,1.061,0s0.293,0.768,0,1.061L13.506,17.556c1.18,0.957,2.805,2.64,3.759,5.181
		c0.798,2.126,0.851,4.089,0.699,5.535h11.016c0.414,0,0.75,0.336,0.75,0.75S29.394,29.771,28.979,29.771z M2.79,28.271h13.664
		c0.154-1.28,0.135-3.067-0.594-5.007c-0.87-2.318-2.379-3.822-3.422-4.641L2.79,28.271z"/>
</g>
</svg>
