<?xml version="1.0" encoding="utf-8"?>
<!-- Generator: Adobe Illustrator 21.0.2, SVG Export Plug-In . SVG Version: 6.00 Build 0)  -->
<svg version="1.1" xmlns="http://www.w3.org/2000/svg" xmlns:xlink="http://www.w3.org/1999/xlink" x="0px" y="0px"
	 viewBox="0 0 30 30" enable-background="new 0 0 30 30" xml:space="preserve">
<g id="andrew-pitchfork">
	<path fill-rule="evenodd" clip-rule="evenodd" d="M27.495,10.683c-0.189-0.135-0.421-0.189-0.653-0.149
		c-0.231,0.039-0.432,0.166-0.568,0.357l-8.62,12.163c-0.004-0.003-0.009-0.006-0.014-0.009c-0.447-0.317-0.895-0.634-1.342-0.951
		c-1.517-1.075-3.033-2.149-4.55-3.224l8.608-12.148c0.282-0.398,0.192-0.949-0.202-1.23c-0.394-0.28-0.944-0.182-1.228,0.217
		L10.32,17.858c-0.6-0.425-1.201-0.851-1.801-1.276c-1.425-1.01-2.851-2.02-4.276-3.03l8.624-12.171
		c0.135-0.191,0.187-0.423,0.148-0.653c-0.039-0.231-0.166-0.432-0.357-0.567c-0.189-0.134-0.42-0.187-0.653-0.149
		c-0.231,0.039-0.432,0.166-0.568,0.357L2.307,13.254c-0.279,0.394-0.186,0.941,0.207,1.222c0.034,0.024,0.073,0.035,0.109,0.054
		c0.027,0.024,0.043,0.054,0.073,0.076l6.61,4.683l-6.606,9.323c-0.138,0.195-0.192,0.43-0.152,0.665
		c0.039,0.231,0.165,0.431,0.354,0.565C3.052,29.945,3.226,30,3.404,30c0.052,0,0.104-0.005,0.157-0.013
		c0.231-0.041,0.433-0.17,0.57-0.363l6.606-9.323l6.394,4.53c0.045,0.032,0.095,0.047,0.143,0.071
		c0.03,0.029,0.049,0.065,0.084,0.089c0.154,0.109,0.33,0.16,0.505,0.16c0.275,0,0.545-0.128,0.716-0.369l9.127-12.88
		c0.135-0.191,0.187-0.423,0.148-0.653S27.686,10.818,27.495,10.683z"/>
</g>
</svg>
