<?xml version="1.0" encoding="utf-8"?>
<!-- Generator: Adobe Illustrator 21.0.2, SVG Export Plug-In . SVG Version: 6.00 Build 0)  -->
<svg version="1.1" xmlns="http://www.w3.org/2000/svg" xmlns:xlink="http://www.w3.org/1999/xlink" x="0px" y="0px"
	 viewBox="0 0 30 30" enable-background="new 0 0 30 30" xml:space="preserve">
<g id="arrowRight">
	<path id="XMLID_71_" fill-rule="evenodd" clip-rule="evenodd" d="M16.372,5.22c0.089-0.249,0.285-0.354,0.704,0.053l6.914,6.876
		c1.05,1.044,2.19,2.067,2.201,2.404c0.01,0.339-1.165,1.341-2.216,2.385l-6.872,6.825c0,0-0.778,0.933-0.778-0.903
		c0,0,0-0.956,0-2.133c0-1.177-1.201-2.13-2.682-2.129L5.48,18.608c-1.674-0.085-1.671-1.807-1.671-1.807l0.002-4.532
		c0.056-1.703,1.786-1.732,1.786-1.732l8.045,0.008c1.482,0.001,2.682-0.991,2.682-2.217C16.324,7.102,16.204,5.685,16.372,5.22z"/>
</g>
</svg>
