<?xml version="1.0" encoding="utf-8"?>
<!-- Generator: Adobe Illustrator 21.0.2, SVG Export Plug-In . SVG Version: 6.00 Build 0)  -->
<svg version="1.1" xmlns="http://www.w3.org/2000/svg" xmlns:xlink="http://www.w3.org/1999/xlink" x="0px" y="0px"
	 viewBox="0 0 30 30" enable-background="new 0 0 30 30" xml:space="preserve">
<g id="quadrant-lines">
	<path d="M28.983,17.387c-0.001,0-0.002,0-0.003,0L0.887,17.384C0.398,17.384,0,16.986,0,16.497c0-0.489,0.398-0.888,0.887-0.888
		l28.094,0.004c0.489,0,0.887,0.398,0.887,0.887c0,0.237-0.092,0.461-0.26,0.628C29.44,17.295,29.218,17.387,28.983,17.387z"/>
	<path d="M29.106,6.145L1.012,6.142c-0.237,0-0.461-0.092-0.628-0.26C0.217,5.713,0.125,5.49,0.126,5.254
		c0-0.488,0.398-0.887,0.887-0.887l28.093,0.004c0.489,0,0.888,0.398,0.888,0.887C29.992,5.748,29.594,6.145,29.106,6.145z"/>
	<path d="M29.113,26L1.019,25.997c-0.489,0-0.887-0.398-0.887-0.887c0-0.489,0.398-0.888,0.887-0.888l28.094,0.004
		c0.489,0,0.887,0.398,0.887,0.887S29.602,26,29.113,26z"/>
	<path d="M29.113,21.63L1.019,21.627c-0.489,0-0.887-0.398-0.887-0.887c0-0.489,0.398-0.887,0.887-0.887l28.094,0.003
		c0.489,0,0.887,0.399,0.887,0.888S29.602,21.63,29.113,21.63z"/>
	<path d="M29.115,12.889c-0.001,0-0.002,0-0.003,0L1.019,12.887c-0.489,0-0.887-0.398-0.887-0.887c0-0.489,0.398-0.888,0.887-0.888
		l28.094,0.004c0.489,0,0.887,0.398,0.887,0.887c0,0.237-0.092,0.461-0.26,0.628C29.573,12.798,29.351,12.889,29.115,12.889z"/>
</g>
</svg>
