<?xml version="1.0" encoding="utf-8"?>
<!-- Generator: Adobe Illustrator 21.0.2, SVG Export Plug-In . SVG Version: 6.00 Build 0)  -->
<svg version="1.1" xmlns="http://www.w3.org/2000/svg" xmlns:xlink="http://www.w3.org/1999/xlink" x="0px" y="0px"
	 viewBox="0 0 30 30" enable-background="new 0 0 30 30" xml:space="preserve">
<g id="fibo-time-zones">
	<path d="M27.494,30c-0.394,0-0.714-0.32-0.714-0.714V0.788c0-0.394,0.32-0.714,0.714-0.714c0.394,0,0.714,0.32,0.714,0.714v28.498
		C28.208,29.68,27.888,30,27.494,30z M14.485,30c-0.394,0-0.714-0.32-0.714-0.714V0.788c0-0.394,0.32-0.714,0.714-0.714
		s0.714,0.32,0.714,0.714v28.498C15.199,29.68,14.879,30,14.485,30z M2.506,30c-0.394,0-0.714-0.32-0.714-0.714V0.789
		c0-0.394,0.32-0.714,0.714-0.714S3.22,0.394,3.22,0.789V19.11l0.647-0.485c0.316-0.234,0.764-0.173,1,0.144
		c0.237,0.315,0.173,0.763-0.143,1L3.22,20.895v8.391C3.22,29.68,2.9,30,2.506,30z M8.282,29.999c-0.394,0-0.714-0.32-0.714-0.714
		V17.615l-0.532,0.399c-0.314,0.238-0.763,0.174-1-0.142c-0.237-0.315-0.173-0.764,0.142-1l1.389-1.043V0.714
		C7.567,0.32,7.887,0,8.282,0c0.394,0,0.714,0.32,0.714,0.714v28.57C8.996,29.679,8.676,29.999,8.282,29.999z"/>
</g>
</svg>
