<?xml version="1.0" encoding="utf-8"?>
<!-- Generator: Adobe Illustrator 21.0.2, SVG Export Plug-In . SVG Version: 6.00 Build 0)  -->
<svg version="1.1" xmlns="http://www.w3.org/2000/svg" xmlns:xlink="http://www.w3.org/1999/xlink" x="0px" y="0px"
	 viewBox="0 0 30 30" enable-background="new 0 0 30 30" xml:space="preserve">
<g id="Шар_88">
	<path d="M0.058,29.205c0,0.226,0.11,0.453,0.223,0.566c0.114,0.114,0.343,0.227,0.569,0.227L7.637,30
		c0.226,0,0.395-0.059,0.566-0.23c0.168-0.168,0.226-0.337,0.226-0.563v-1.585c0-0.228-0.058-0.396-0.229-0.567
		c-0.168-0.168-0.337-0.226-0.564-0.226l-1.132-0.001c-0.338,0-0.564-0.453-0.282-0.735l3.676-3.676c0.34-0.34,0.34-0.793,0-1.133
		L8.77,20.156c-0.34-0.34-0.793-0.34-1.133,0l-3.731,3.731C3.68,24.113,3.223,24,3.169,23.602l-0.001-1.126
		c0.001-0.227-0.054-0.398-0.226-0.569c-0.169-0.169-0.34-0.224-0.567-0.223L0.793,21.68c-0.226,0-0.395,0.058-0.566,0.229
		C0.058,22.078,0,22.247,0,22.473L0.058,29.205z"/>
	<path d="M29.942,0.795c0-0.226-0.11-0.453-0.223-0.566c-0.114-0.114-0.343-0.227-0.569-0.227L22.363,0
		c-0.226,0-0.395,0.059-0.566,0.23c-0.168,0.168-0.226,0.337-0.226,0.563v1.585c0,0.228,0.058,0.396,0.229,0.567
		c0.168,0.168,0.337,0.226,0.564,0.226l1.132,0.001c0.338,0,0.564,0.453,0.282,0.735L20.1,7.583c-0.312,0.312-0.312,0.819,0,1.131
		l1.131,1.131c0.312,0.312,0.819,0.312,1.131,0l3.732-3.732C26.32,5.887,26.777,6,26.831,6.398l0.001,1.126
		c-0.001,0.227,0.054,0.398,0.226,0.569c0.169,0.169,0.34,0.224,0.567,0.223l1.582,0.003c0.226,0,0.395-0.058,0.566-0.229
		C29.942,7.922,30,7.753,30,7.527L29.942,0.795z"/>
</g>
</svg>
