<?xml version="1.0" encoding="utf-8"?>
<!-- Generator: Adobe Illustrator 21.0.2, SVG Export Plug-In . SVG Version: 6.00 Build 0)  -->
<svg version="1.1" xmlns="http://www.w3.org/2000/svg" xmlns:xlink="http://www.w3.org/1999/xlink" x="0px" y="0px"
	 viewBox="0 0 30 30" enable-background="new 0 0 30 30" xml:space="preserve">
<g id="CyclicLines">
	<path fill-rule="evenodd" clip-rule="evenodd" d="M4.5,30c-0.394,0-0.714-0.32-0.714-0.714V0.714C3.786,0.32,4.106,0,4.5,0
		s0.714,0.32,0.714,0.714v28.571C5.214,29.68,4.894,30,4.5,30z M12.214,29.286V0.714C12.214,0.32,11.894,0,11.5,0
		s-0.714,0.32-0.714,0.714v28.571c0,0.394,0.32,0.714,0.714,0.714S12.214,29.68,12.214,29.286z M19.214,29.286V0.714
		C19.214,0.32,18.894,0,18.5,0s-0.714,0.32-0.714,0.714v28.571c0,0.394,0.32,0.714,0.714,0.714S19.214,29.68,19.214,29.286z
		 M26.214,29.286V0.714C26.214,0.32,25.894,0,25.5,0s-0.714,0.32-0.714,0.714v28.571c0,0.394,0.32,0.714,0.714,0.714
		S26.214,29.68,26.214,29.286z"/>
</g>
</svg>
