<?xml version="1.0" encoding="utf-8"?>
<!-- Generator: Adobe Illustrator 21.0.2, SVG Export Plug-In . SVG Version: 6.00 Build 0)  -->
<svg version="1.1" xmlns="http://www.w3.org/2000/svg" xmlns:xlink="http://www.w3.org/1999/xlink" x="0px" y="0px"
	 viewBox="0 0 30 30" enable-background="new 0 0 30 30" xml:space="preserve">
<g id="window">
	<path d="M10.609,14.207l-1.521,0.001c-0.228-0.002-0.381-0.307-0.192-0.496l0.381-0.381c0.228-0.228,0.229-0.533,0-0.762
		L8.517,11.81c-0.229-0.229-0.534-0.228-0.762,0l-3.044,3.044c-0.227,0.227-0.227,0.531,0.002,0.76l3.042,3.042
		c0.229,0.229,0.533,0.229,0.76,0.002l0.761-0.761c0.229-0.229,0.229-0.533,0-0.762l-0.381-0.381
		C8.744,16.602,8.82,16.3,9.086,16.26l1.523,0c0.305,0,0.533-0.229,0.531-0.531l0-1.067C11.142,14.434,10.913,14.206,10.609,14.207
		L10.609,14.207z"/>
	<path d="M19.391,14.207c-0.305,0-0.533,0.228-0.532,0.456l0,1.067c-0.002,0.302,0.226,0.531,0.531,0.531l1.523,0
		c0.266,0.039,0.342,0.342,0.19,0.494l-0.381,0.381c-0.229,0.229-0.229,0.533,0,0.762l0.761,0.761
		c0.227,0.227,0.531,0.227,0.76-0.002l3.042-3.042c0.229-0.229,0.229-0.533,0.002-0.76l-3.044-3.044
		c-0.228-0.228-0.533-0.229-0.762,0l-0.759,0.759c-0.229,0.229-0.228,0.534,0,0.762l0.381,0.381
		c0.189,0.189,0.037,0.494-0.192,0.496L19.391,14.207L19.391,14.207z"/>
	<path d="M28.996,26.378H1.004C0.45,26.378,0,25.929,0,25.374V5c0-0.555,0.45-1.004,1.004-1.004h27.992C29.55,3.996,30,4.445,30,5
		v20.374C30,25.929,29.55,26.378,28.996,26.378z M2.008,24.37h25.983V6.004H2.008V24.37z"/>
</g>
</svg>
