<?xml version="1.0" encoding="utf-8"?>
<!-- Generator: Adobe Illustrator 21.0.2, SVG Export Plug-In . SVG Version: 6.00 Build 0)  -->
<svg version="1.1" xmlns="http://www.w3.org/2000/svg" xmlns:xlink="http://www.w3.org/1999/xlink" x="0px" y="0px"
	 viewBox="0 0 30 30" enable-background="new 0 0 30 30" xml:space="preserve">
<g id="pointAndFigure">
	<path fill-rule="evenodd" clip-rule="evenodd" d="M18.328,28.277c1.424-1.894,1.044-4.578-0.85-6.002
		c-1.894-1.424-4.578-1.044-6.002,0.85c-1.424,1.894-1.044,4.578,0.85,6.002C14.22,30.551,16.912,30.16,18.328,28.277z
		 M13.335,24.515c0.65-0.865,1.877-1.039,2.742-0.388c0.865,0.65,1.039,1.877,0.388,2.742c-0.65,0.865-1.877,1.038-2.742,0.388
		C12.86,26.616,12.685,25.379,13.335,24.515z M18.328,17.798c1.424-1.894,1.044-4.578-0.85-6.002
		c-1.894-1.424-4.578-1.044-6.002,0.85c-1.424,1.894-1.044,4.578,0.85,6.002C14.219,20.072,16.912,19.681,18.328,17.798z
		 M13.335,14.035c0.65-0.865,1.877-1.038,2.742-0.388c0.865,0.65,1.039,1.877,0.388,2.742c-0.65,0.865-1.877,1.039-2.742,0.388
		C12.86,16.137,12.685,14.9,13.335,14.035z M5.949,25.889l2.374,2.375l-1.811,1.811L4.138,27.7l-2.375,2.374l-1.811-1.811
		l2.375-2.374l-2.37-2.371l1.811-1.811l2.374,2.375l2.375-2.374l1.811,1.811l-2.375,2.374L5.949,25.889z M5.948,15.211l2.374,2.375
		L6.51,19.396l-2.374-2.375l-2.375,2.374l-1.811-1.811l2.375-2.374l-2.37-2.371l1.811-1.811l2.374,2.375l2.375-2.374l1.811,1.811
		l-2.375,2.374L5.948,15.211z M5.948,4.435L8.322,6.81L6.511,8.62L4.137,6.245L1.762,8.619l-1.811-1.811l2.375-2.374l-2.37-2.371
		l1.811-1.811l2.374,2.375l2.375-2.374l1.811,1.811L5.952,4.439L5.948,4.435z M27.572,4.435l2.374,2.375L28.135,8.62l-2.374-2.375
		l-2.375,2.374l-1.811-1.811l2.375-2.374l-2.37-2.371l1.811-1.811l2.374,2.375l2.375-2.374l1.811,1.811l-2.375,2.374L27.572,4.435z
		 M27.474,15.183l2.374,2.375l-1.811,1.811l-2.374-2.375l-2.375,2.374l-1.811-1.811l2.375-2.374l-2.37-2.371l1.811-1.811
		l2.374,2.375l2.375-2.374l1.811,1.811l-2.375,2.374L27.474,15.183z"/>
</g>
</svg>
