<?xml version="1.0" encoding="utf-8"?>
<!-- Generator: Adobe Illustrator 21.0.2, SVG Export Plug-In . SVG Version: 6.00 Build 0)  -->
<svg version="1.1" xmlns="http://www.w3.org/2000/svg" xmlns:xlink="http://www.w3.org/1999/xlink" x="0px" y="0px"
	 viewBox="0 0 30 30" enable-background="new 0 0 30 30" xml:space="preserve">
<g id="lineBreak">
	<path fill-rule="evenodd" clip-rule="evenodd" d="M9.453,25.501H2.547c-0.276,0-0.5-0.224-0.5-0.5V12.833
		c0-0.276,0.224-0.5,0.5-0.5h6.906c0.276,0,0.5,0.224,0.5,0.5v12.167C9.953,25.277,9.729,25.501,9.453,25.501z M3.047,24.501h5.906
		V13.333H3.047V24.501z M18.453,13.333h-6.906c-0.276,0-0.5-0.224-0.5-0.5V0.563c0-0.276,0.224-0.5,0.5-0.5h6.906
		c0.276,0,0.5,0.224,0.5,0.5v12.271C18.953,13.11,18.729,13.333,18.453,13.333z M12.047,12.333h5.906V1.063h-5.906V12.333z"/>
	<path fill-rule="evenodd" clip-rule="evenodd" d="M27.453,30h-6.906c-0.276,0-0.5-0.224-0.5-0.5V12.825c0-0.276,0.224-0.5,0.5-0.5
		h6.906c0.276,0,0.5,0.224,0.5,0.5V29.5C27.953,29.776,27.729,30,27.453,30z"/>
</g>
</svg>
