<?xml version="1.0" encoding="utf-8"?>
<!-- Generator: Adobe Illustrator 21.0.2, SVG Export Plug-In . SVG Version: 6.00 Build 0)  -->
<svg version="1.1" xmlns="http://www.w3.org/2000/svg" xmlns:xlink="http://www.w3.org/1999/xlink" x="0px" y="0px"
	 viewBox="0 0 30 30" enable-background="new 0 0 30 30" xml:space="preserve">
<g id="restore-panel">
	<path d="M9.668,21.784l1.075-1.077c0.163-0.16,0.486-0.052,0.486,0.215v0.539c0,0.323,0.215,0.539,0.539,0.539h1.074
		c0.323,0,0.539-0.216,0.539-0.539v-4.305c0-0.321-0.215-0.536-0.539-0.536H8.539C8.215,16.62,8,16.836,8,17.156v1.077
		c0,0.323,0.215,0.539,0.539,0.539h0.539c0.215,0,0.375,0.268,0.215,0.483l-1.077,1.077C8,20.548,8,20.87,8.215,21.083l0.754,0.754
		C9.13,22,9.452,22,9.668,21.784L9.668,21.784z"/>
	<path d="M20.332,8.216l-1.075,1.077c-0.163,0.16-0.486,0.052-0.486-0.215V8.539C18.772,8.216,18.556,8,18.233,8h-1.074
		c-0.323,0-0.539,0.216-0.539,0.539v4.305c0,0.321,0.215,0.536,0.539,0.536h4.302c0.323,0,0.539-0.215,0.539-0.536v-1.077
		c0-0.323-0.215-0.539-0.539-0.539h-0.539c-0.215,0-0.375-0.268-0.215-0.483l1.077-1.077C22,9.452,22,9.13,21.785,8.917
		l-0.754-0.754C20.87,8,20.548,8,20.332,8.216L20.332,8.216z"/>
</g>
</svg>
