<?xml version="1.0" encoding="utf-8"?>
<!-- Generator: Adobe Illustrator 21.0.2, SVG Export Plug-In . SVG Version: 6.00 Build 0)  -->
<svg version="1.1" xmlns="http://www.w3.org/2000/svg" xmlns:xlink="http://www.w3.org/1999/xlink" x="0px" y="0px"
	 viewBox="0 0 30 30" enable-background="new 0 0 30 30" xml:space="preserve">
<g id="search">
	<g>
		<g id="XMLID_14_">
			<g>
				<path d="M25.263,27.084c0.486,1.004,0.062,2.224-0.941,2.711c-0.486,0.238-1.045,0.269-1.552,0.093
					c-0.517-0.176-0.931-0.548-1.169-1.035l-3.849-7.987l-0.197-0.362l-0.393,0.093c-4.728,1.014-9.497-1.304-11.587-5.649
					C4.365,12.455,4.199,9.63,5.12,6.992c0.921-2.628,2.804-4.738,5.297-5.949c2.504-1.21,5.338-1.376,7.966-0.455
					c2.638,0.921,4.749,2.804,5.959,5.297c2.09,4.345,0.952,9.528-2.793,12.591l-0.321,0.259L25.263,27.084z M18.559,17.886
					c4.118-1.986,5.845-6.952,3.859-11.06C21.456,4.83,19.78,3.33,17.69,2.606s-4.356-0.6-6.332,0.362
					C9.362,3.93,7.861,5.606,7.137,7.696c-0.735,2.09-0.6,4.345,0.362,6.332c0.952,1.997,2.638,3.497,4.728,4.221
					c0.89,0.31,1.811,0.466,2.731,0.466C16.19,18.714,17.421,18.445,18.559,17.886z"/>
			</g>
		</g>
	</g>
</g>
</svg>
