<?xml version="1.0" encoding="utf-8"?>
<!-- Generator: Adobe Illustrator 21.0.2, SVG Export Plug-In . SVG Version: 6.00 Build 0)  -->
<svg version="1.1" xmlns="http://www.w3.org/2000/svg" xmlns:xlink="http://www.w3.org/1999/xlink" x="0px" y="0px"
	 viewBox="0 0 30 30" enable-background="new 0 0 30 30" xml:space="preserve">
<g id="snapshot">
	<g>
		<path d="M6.081,11.715c0,0.555-0.45,1.004-1.004,1.004c-0.555,0-1.004-0.449-1.004-1.004s0.45-1.004,1.004-1.004
			C5.631,10.71,6.081,11.16,6.081,11.715L6.081,11.715z"/>
		<path d="M15.003,23.545c3.472,0,6.301-2.829,6.301-6.301c0-3.472-2.829-6.301-6.301-6.301s-6.301,2.823-6.301,6.301
			C8.702,20.723,11.531,23.545,15.003,23.545L15.003,23.545z M15.003,12.443c2.645,0,4.801,2.156,4.801,4.801
			c0,2.645-2.156,4.801-4.801,4.801s-4.801-2.156-4.801-4.801C10.202,14.599,12.358,12.443,15.003,12.443L15.003,12.443z"/>
		<path d="M0,10.496v13.24c0,2.021,1.641,3.662,3.662,3.662h22.682c2.021,0,3.662-1.641,3.662-3.662v-13.24
			c0-1.923-1.561-3.484-3.484-3.484h-4.874l-0.116-0.508c-0.472-2.039-2.266-3.46-4.36-3.46h-4.342c-2.088,0-3.883,1.421-4.36,3.46
			L8.353,7.011H3.485C1.562,7.011,0,8.579,0,10.496L0,10.496z M8.953,8.512c0.349,0,0.649-0.239,0.729-0.582l0.251-1.09
			c0.318-1.353,1.506-2.296,2.897-2.296h4.342c1.39,0,2.578,0.943,2.897,2.296l0.251,1.09c0.08,0.337,0.379,0.582,0.729,0.582h5.468
			c1.096,0,1.984,0.888,1.984,1.984v13.24c0,1.194-0.968,2.162-2.162,2.162H3.662c-1.194,0-2.162-0.967-2.162-2.162v-13.24
			c0-1.096,0.888-1.984,1.984-1.984H8.953z"/>
	</g>
</g>
</svg>
