<?xml version="1.0" encoding="utf-8"?>
<!-- Generator: Adobe Illustrator 21.0.2, SVG Export Plug-In . SVG Version: 6.00 Build 0)  -->
<svg version="1.1" xmlns="http://www.w3.org/2000/svg" xmlns:xlink="http://www.w3.org/1999/xlink" x="0px" y="0px"
	 viewBox="0 0 30 30" enable-background="new 0 0 30 30" xml:space="preserve">
<g id="Шар_85">
	<path d="M16.313,0c-1.752,0-3.412,0.394-4.893,1.094c-3.916,1.82-6.627,5.779-6.627,10.377v1.899l-2.336,4.457
		c-0.59,1.125-0.031,2.047,1.236,2.047h1.1v4.236c0,1.322,1.082,2.41,2.41,2.41l3.307-0.492l0.006,3.307v0.024
		c0.019,0.424,0.375,0.707,0.818,0.627l11.913-2.108c0.449-0.08,0.818-0.517,0.818-0.971v-7.002
		c2.281-2.096,3.713-5.102,3.713-8.446C27.772,5.127,22.639,0,16.313,0L16.313,0z M18.815,10.469
		c-1.156,2.004-2.311,4.008-3.473,6.012c-0.006,0.006-0.012,0.012-0.012,0.012c-0.08,0.16-0.172,0.301-0.369,0.228
		c-0.203-0.074-0.154-0.252-0.129-0.406c0.092-0.504,0.185-1.008,0.283-1.512c0.166-0.885,0.338-1.77,0.504-2.656
		c0.012-0.074,0.018-0.154,0.031-0.258c-0.111-0.006-0.203-0.012-0.295-0.012c-0.652,0-1.309,0.006-1.961,0.006
		c-0.387,0-0.473-0.16-0.283-0.498c1.156-2.004,2.311-4.008,3.473-6.012c0.006-0.006,0.012-0.012,0.012-0.012
		c0.08-0.16,0.172-0.301,0.369-0.228c0.203,0.074,0.154,0.252,0.129,0.405c-0.092,0.504-0.185,1.008-0.283,1.513
		c-0.166,0.885-0.338,1.77-0.504,2.655c-0.012,0.074-0.018,0.154-0.031,0.258c0.111,0.006,0.203,0.012,0.295,0.012
		c0.652,0,1.309-0.006,1.961-0.006C18.92,9.971,19.012,10.131,18.815,10.469L18.815,10.469z"/>
</g>
</svg>
