<?xml version="1.0" encoding="utf-8"?>
<!-- Generator: Adobe Illustrator 21.0.2, SVG Export Plug-In . SVG Version: 6.00 Build 0)  -->
<svg version="1.1" xmlns="http://www.w3.org/2000/svg" xmlns:xlink="http://www.w3.org/1999/xlink" x="0px" y="0px"
	 viewBox="0 0 30 30" enable-background="new 0 0 30 30" xml:space="preserve">
<g id="drawings-fibonacci">
	<path d="M29.5,16.49c-1.99,1.14-5.71,2.81-10.35,2.81c-0.99,0-2.01-0.07-3.08-0.24c-0.51-0.08-1-0.18-1.48-0.31l-7.49,10.9
		C6.941,29.88,6.691,30,6.431,30c-0.16,0-0.32-0.05-0.46-0.14c-0.36-0.26-0.46-0.76-0.2-1.13l7.18-10.45
		c-8.61-2.96-12.35-11.2-12.79-12.22c-0.18-0.41,0.01-0.89,0.43-1.06c0.4-0.18,0.88,0.01,1.06,0.42c0.16,0.39,3.83,8.79,12.26,11.46
		l2.96-4.31c-0.36-0.08-0.73-0.19-1.11-0.31c-7.01-2.25-9.5-8.45-9.93-9.67c-0.15-0.42,0.07-0.88,0.49-1.03
		c0.42-0.15,0.89,0.08,1.04,0.5c0.23,0.67,2.48,6.6,8.9,8.66c0.54,0.17,1.08,0.31,1.61,0.4l7.4-10.77c0.25-0.37,0.76-0.46,1.12-0.21
		c0.37,0.26,0.47,0.76,0.21,1.13l-6.92,10.07c4.77,0.24,8.36-2.14,8.83-2.47c0.36-0.26,0.87-0.17,1.12,0.2
		c0.26,0.37,0.17,0.87-0.19,1.13c-0.81,0.56-4.31,2.79-9.04,2.79c-0.58,0-1.17-0.03-1.78-0.11l-3.04,4.43
		c0.25,0.06,0.5,0.11,0.75,0.15c5.57,0.91,10.14-1.1,12.37-2.37c0.39-0.22,0.88-0.09,1.1,0.3C30.02,15.78,29.89,16.27,29.5,16.49z"
		/>
</g>
</svg>
