<?xml version="1.0" encoding="utf-8"?>
<!-- Generator: Adobe Illustrator 21.0.2, SVG Export Plug-In . SVG Version: 6.00 Build 0)  -->
<svg version="1.1" xmlns="http://www.w3.org/2000/svg" xmlns:xlink="http://www.w3.org/1999/xlink" x="0px" y="0px"
	 viewBox="0 0 30 30" enable-background="new 0 0 30 30" xml:space="preserve">
<g id="rect">
	<g id="XMLID_11_">
		<path id="XMLID_94_" d="M26.556,24.175c-0.446,0-0.884,0.181-1.2,0.497c-0.315,0.316-0.497,0.753-0.497,1.2
			c0,0.446,0.182,0.884,0.497,1.199c0.317,0.315,0.754,0.497,1.2,0.497c0.446,0,0.884-0.182,1.2-0.497
			c0.315-0.316,0.497-0.753,0.497-1.199c0-0.447-0.182-0.884-0.497-1.2C27.44,24.356,27.004,24.175,26.556,24.175z"/>
		<path id="XMLID_92_" d="M9.257,24.175c-0.937,0-1.697,0.76-1.697,1.697c0,0.936,0.76,1.697,1.697,1.697
			c0.936,0,1.697-0.76,1.697-1.697C10.954,24.934,10.193,24.175,9.257,24.175z"/>
		<path id="XMLID_91_" d="M15.07,24.175c-0.938,0-1.696,0.76-1.696,1.697c0,0.936,0.758,1.697,1.696,1.697
			c0.937,0,1.697-0.76,1.697-1.697C16.767,24.934,16.007,24.175,15.07,24.175z"/>
		<path id="XMLID_90_" d="M3.445,24.175c-0.448,0-0.886,0.181-1.202,0.497c-0.315,0.316-0.495,0.753-0.495,1.2
			c0,0.446,0.18,0.884,0.495,1.199c0.317,0.315,0.753,0.497,1.202,0.497c0.446,0,0.882-0.182,1.199-0.497
			c0.316-0.316,0.498-0.753,0.498-1.199c0-0.447-0.182-0.884-0.498-1.2C4.329,24.356,3.892,24.175,3.445,24.175z"/>
		<path id="XMLID_89_" d="M3.445,6.044c-0.938,0-1.697,0.758-1.697,1.695c0,0.939,0.759,1.697,1.697,1.697
			c0.936,0,1.697-0.758,1.697-1.697C5.142,6.803,4.382,6.044,3.445,6.044z"/>
		<path id="XMLID_87_" d="M3.445,18.131c-0.938,0-1.697,0.76-1.697,1.696c0,0.937,0.759,1.697,1.697,1.697
			c0.936,0,1.697-0.76,1.697-1.697C5.142,18.891,4.382,18.131,3.445,18.131z"/>
		<path id="XMLID_86_" d="M3.445,12.086c-0.938,0-1.697,0.76-1.697,1.697c0,0.939,0.759,1.697,1.697,1.697
			c0.936,0,1.697-0.758,1.697-1.697C5.142,12.847,4.382,12.086,3.445,12.086z"/>
		<path id="XMLID_85_" d="M3.445,0C2.999,0,2.561,0.18,2.244,0.496C1.928,0.813,1.747,1.249,1.747,1.697
			c0,0.446,0.182,0.882,0.497,1.2c0.317,0.316,0.753,0.497,1.202,0.497c0.446,0,0.882-0.181,1.199-0.497
			c0.316-0.317,0.498-0.753,0.498-1.2c0-0.448-0.182-0.884-0.498-1.201C4.328,0.18,3.89,0,3.445,0z"/>
		<path id="XMLID_84_" d="M15.07,0c-0.938,0-1.696,0.759-1.696,1.695c0,0.938,0.758,1.698,1.696,1.698
			c0.937,0,1.697-0.76,1.697-1.698C16.767,0.759,16.007,0,15.07,0z"/>
		<path id="XMLID_83_" d="M20.745,0c-0.938,0-1.697,0.759-1.697,1.695c0,0.938,0.759,1.698,1.697,1.698
			c0.936,0,1.697-0.76,1.697-1.698C22.442,0.759,21.681,0,20.745,0z"/>
		<path id="XMLID_19_" d="M9.257,0C8.32,0,7.56,0.759,7.56,1.695c0,0.938,0.76,1.698,1.697,1.698c0.936,0,1.697-0.76,1.697-1.698
			C10.954,0.759,10.193,0,9.257,0z"/>
		<path id="XMLID_18_" d="M26.556,3.394c0.448,0,0.884-0.181,1.2-0.497c0.317-0.316,0.497-0.753,0.497-1.2
			c0-0.448-0.18-0.886-0.497-1.201C27.44,0.18,27.003,0,26.556,0c-0.446,0-0.882,0.18-1.2,0.496
			c-0.315,0.317-0.497,0.753-0.497,1.201c0,0.446,0.182,0.882,0.497,1.2C25.672,3.212,26.11,3.394,26.556,3.394z"/>
		<path id="XMLID_69_" d="M26.556,18.131c-0.937,0-1.697,0.76-1.697,1.696c0,0.937,0.76,1.697,1.697,1.697
			c0.938,0,1.697-0.76,1.697-1.697C28.253,18.891,27.495,18.131,26.556,18.131z"/>
		<path id="XMLID_17_" d="M26.556,12.086c-0.937,0-1.697,0.76-1.697,1.697c0,0.937,0.76,1.697,1.697,1.697
			c0.938,0,1.697-0.76,1.697-1.697S27.495,12.086,26.556,12.086z"/>
		<path id="XMLID_16_" d="M26.556,6.042c-0.937,0-1.697,0.76-1.697,1.697c0,0.939,0.76,1.697,1.697,1.697
			c0.938,0,1.697-0.758,1.697-1.697C28.253,6.803,27.495,6.042,26.556,6.042z"/>
	</g>
	<g id="XMLID_21_">
		<g>
			<path d="M23.745,27.576c0.401,0.837,0.051,1.853-0.786,2.255c-0.846,0.41-1.853,0.051-2.263-0.786l-3.323-6.876l-0.325,0.068
				c-3.903,0.846-7.841-1.068-9.575-4.655c-0.999-2.067-1.127-4.399-0.376-6.577c0.76-2.17,2.315-3.921,4.382-4.92
				s4.407-1.136,6.577-0.376c2.178,0.76,3.921,2.315,4.92,4.382c1.734,3.587,0.786,7.867-2.298,10.395L20.422,20.7L23.745,27.576z
				 M18.193,19.982c3.391-1.64,4.809-5.723,3.177-9.105c-0.794-1.64-2.178-2.878-3.895-3.476C15.75,6.803,13.897,6.905,12.257,7.7
				c-1.631,0.786-2.87,2.17-3.468,3.895c-0.598,1.717-0.495,3.57,0.299,5.21c0.786,1.64,2.17,2.878,3.886,3.476
				c0.743,0.256,1.503,0.384,2.263,0.384C16.246,20.666,17.254,20.435,18.193,19.982z"/>
			<path d="M18.62,13.217v1.051c0,0.051-0.043,0.085-0.085,0.085h-2.554c-0.051,0-0.085,0.043-0.085,0.085v2.554
				c0,0.051-0.043,0.085-0.085,0.085h-1.059c-0.043,0-0.085-0.034-0.085-0.085v-2.554c0-0.043-0.034-0.085-0.085-0.085h-2.545
				c-0.051,0-0.085-0.034-0.085-0.085v-1.051c0-0.051,0.034-0.085,0.085-0.085h2.554c0.051,0,0.085-0.034,0.085-0.085v-2.554
				c0-0.051,0.043-0.085,0.085-0.085h1.051c0.051,0,0.085,0.034,0.085,0.077c0,0.401,0,2.161,0,2.571
				c0,0.043,0.034,0.077,0.085,0.077c0.41,0,2.161,0,2.554,0C18.586,13.132,18.62,13.175,18.62,13.217z"/>
		</g>
	</g>
</g>
</svg>
