<?xml version="1.0" encoding="utf-8"?>
<!-- Generator: Adobe Illustrator 21.0.2, SVG Export Plug-In . SVG Version: 6.00 Build 0)  -->
<svg version="1.1" xmlns="http://www.w3.org/2000/svg" xmlns:xlink="http://www.w3.org/1999/xlink" x="0px" y="0px"
	 viewBox="0 0 30 30" enable-background="new 0 0 30 30" xml:space="preserve">
<g id="date-range">
	<g id="XMLID_20_">
		<g>
			<path d="M23.782,27.692c0.403,0.841,0.051,1.861-0.789,2.264c-0.849,0.412-1.861,0.051-2.273-0.789l-3.337-6.905l-0.326,0.069
				c-3.92,0.849-7.874-1.072-9.615-4.675c-1.004-2.076-1.132-4.417-0.377-6.605c0.763-2.179,2.324-3.937,4.4-4.941
				s4.426-1.141,6.605-0.377c2.187,0.763,3.937,2.324,4.941,4.4c1.741,3.603,0.789,7.9-2.307,10.439l-0.257,0.214L23.782,27.692z
				 M18.207,20.066c3.405-1.647,4.829-5.747,3.191-9.144C20.6,9.276,19.21,8.032,17.486,7.432c-1.733-0.6-3.594-0.497-5.241,0.3
				c-1.638,0.789-2.882,2.179-3.482,3.911c-0.6,1.724-0.497,3.585,0.3,5.232c0.789,1.647,2.179,2.891,3.903,3.491
				c0.746,0.257,1.51,0.386,2.273,0.386C16.251,20.753,17.263,20.521,18.207,20.066z"/>
			<path d="M18.635,13.273v1.055c0,0.051-0.043,0.086-0.086,0.086h-2.565c-0.051,0-0.086,0.043-0.086,0.086v2.565
				c0,0.051-0.043,0.086-0.086,0.086H14.75c-0.043,0-0.086-0.034-0.086-0.086V14.5c0-0.043-0.034-0.086-0.086-0.086h-2.556
				c-0.051,0-0.086-0.034-0.086-0.086v-1.055c0-0.051,0.034-0.086,0.086-0.086h2.565c0.051,0,0.086-0.034,0.086-0.086v-2.565
				c0-0.051,0.043-0.086,0.086-0.086h1.055c0.051,0,0.086,0.034,0.086,0.077c0,0.403,0,2.17,0,2.582
				c0,0.043,0.034,0.077,0.086,0.077c0.412,0,2.17,0,2.565,0C18.601,13.187,18.635,13.23,18.635,13.273z"/>
		</g>
	</g>
</g>
</svg>
