<svg width="30" height="30" viewBox="0 0 30 30" fill="none" xmlns="http://www.w3.org/2000/svg">
<path fill-rule="evenodd" clip-rule="evenodd" d="M21.5625 0.9375C21.5625 0.419733 21.1428 0 20.625 0C20.1072 0 19.6875 0.419733 19.6875 0.9375V2.8125C18.1342 2.8125 16.875 4.0717 16.875 5.625V24.375C16.875 25.9283 18.1342 27.1875 19.6875 27.1875L19.6875 29.0625C19.6875 29.5803 20.1072 30 20.625 30C21.1428 30 21.5625 29.5803 21.5625 29.0625L21.5625 27.1875C23.1158 27.1875 24.375 25.9283 24.375 24.375V5.625C24.375 4.0717 23.1158 2.8125 21.5625 2.8125V0.9375ZM9.375 3.75C9.89277 3.75 10.3125 4.16973 10.3125 4.6875L10.3125 6.5625C11.8658 6.5625 13.125 7.8217 13.125 9.375V20.625C13.125 22.1783 11.8658 23.4375 10.3125 23.4375L10.3125 25.3125C10.3125 25.8303 9.89277 26.25 9.375 26.25C8.85723 26.25 8.4375 25.8303 8.4375 25.3125L8.4375 23.4375C6.8842 23.4375 5.625 22.1783 5.625 20.625V9.375C5.625 7.8217 6.8842 6.5625 8.4375 6.5625L8.4375 4.6875C8.4375 4.16973 8.85723 3.75 9.375 3.75ZM7.5 9.375C7.5 8.85723 7.91973 8.4375 8.4375 8.4375H10.3125C10.8303 8.4375 11.25 8.85723 11.25 9.375V20.625C11.25 21.1428 10.8303 21.5625 10.3125 21.5625H8.4375C7.91973 21.5625 7.5 21.1428 7.5 20.625V9.375Z" fill="black"/>
</svg>
