<svg width="30" height="30" viewBox="0 0 30 30" fill="none" xmlns="http://www.w3.org/2000/svg">
<g clip-path="url(#clip0)">
<path fill-rule="evenodd" clip-rule="evenodd" d="M28.125 7.5H1.875V22.5H28.125V7.5ZM1.875 5.625C0.839466 5.625 0 6.46447 0 7.5V22.5C0 23.5355 0.839466 24.375 1.875 24.375H28.125C29.1605 24.375 30 23.5355 30 22.5V7.5C30 6.46447 29.1605 5.625 28.125 5.625H1.875Z" fill="black"/>
<path fill-rule="evenodd" clip-rule="evenodd" d="M21.8371 12.4621C22.2032 12.096 22.7968 12.096 23.1629 12.4621L25.0379 14.3371C25.404 14.7032 25.404 15.2968 25.0379 15.6629L23.1629 17.5379C22.7968 17.904 22.2032 17.904 21.8371 17.5379C21.471 17.1718 21.471 16.5782 21.8371 16.2121L22.1117 15.9375H18.75C18.2322 15.9375 17.8125 15.5178 17.8125 15C17.8125 14.4822 18.2322 14.0625 18.75 14.0625H22.1117L21.8371 13.7879C21.471 13.4218 21.471 12.8282 21.8371 12.4621Z" fill="black"/>
<path fill-rule="evenodd" clip-rule="evenodd" d="M8.16291 17.5379C7.7968 17.904 7.2032 17.904 6.83709 17.5379L4.96209 15.6629C4.59597 15.2968 4.59597 14.7032 4.96209 14.3371L6.83709 12.4621C7.2032 12.096 7.7968 12.096 8.16291 12.4621C8.52903 12.8282 8.52903 13.4218 8.16291 13.7879L7.88833 14.0625L11.25 14.0625C11.7678 14.0625 12.1875 14.4822 12.1875 15C12.1875 15.5178 11.7678 15.9375 11.25 15.9375L7.88833 15.9375L8.16291 16.2121C8.52903 16.5782 8.52903 17.1718 8.16291 17.5379Z" fill="black"/>
</g>
<defs>
<clipPath id="clip0">
<rect width="30" height="30" fill="white"/>
</clipPath>
</defs>
</svg>
