<svg width="12" height="12" viewBox="0 0 12 12" fill="none" xmlns="http://www.w3.org/2000/svg">
<path d="M9.18188 2.818C8.59609 2.23222 7.64635 2.23222 7.06056 2.818L5.9999 3.87866C5.70701 4.17156 5.23213 4.17156 4.93924 3.87866C4.64635 3.58577 4.64635 3.1109 4.93924 2.818L5.9999 1.75734C7.17147 0.585769 9.07097 0.585769 10.2425 1.75734C11.4141 2.92891 11.4141 4.82841 10.2425 5.99998L9.18188 7.06064C8.88899 7.35354 8.41411 7.35354 8.12122 7.06064C7.82833 6.76775 7.82833 6.29288 8.12122 5.99998L9.18188 4.93932C9.76767 4.35354 9.76767 3.40379 9.18188 2.818Z" fill="#20908A"/>
<path d="M7.90155 4.09836C8.19444 4.39125 8.19444 4.86613 7.90155 5.15902L5.15891 7.90166C4.86602 8.19455 4.39114 8.19455 4.09825 7.90166C3.80536 7.60877 3.80536 7.13389 4.09825 6.841L6.84089 4.09836C7.13378 3.80547 7.60866 3.80547 7.90155 4.09836Z" fill="#20908A"/>
<path d="M2.818 7.06065C2.23222 7.64644 2.23222 8.59619 2.818 9.18197C3.40379 9.76776 4.35354 9.76776 4.93932 9.18197L5.99998 8.12131C6.29288 7.82842 6.76775 7.82842 7.06064 8.12131C7.35354 8.41421 7.35354 8.88908 7.06064 9.18197L5.99998 10.2426C4.82841 11.4142 2.92891 11.4142 1.75734 10.2426C0.585769 9.07106 0.585769 7.17157 1.75734 5.99999L2.818 4.93933C3.1109 4.64644 3.58577 4.64644 3.87866 4.93933C4.17156 5.23222 4.17156 5.7071 3.87866 5.99999L2.818 7.06065Z" fill="#20908A"/>
</svg>
