<svg width="15" height="19" viewBox="0 0 15 19" fill="none" xmlns="http://www.w3.org/2000/svg">
<path fill-rule="evenodd" clip-rule="evenodd" d="M6.88086 17.6653C6.63513 17.6653 6.43593 17.4661 6.43593 17.2204L6.43593 16.3306C5.69874 16.3306 5.10113 15.7329 5.10113 14.9958L5.10113 7.65659C5.10113 6.91941 5.69874 6.3218 6.43593 6.3218L6.43593 5.43194C6.43593 5.18621 6.63513 4.98701 6.88086 4.98701C7.12659 4.98701 7.32579 5.18621 7.32579 5.43194L7.32579 6.3218C8.06297 6.3218 8.66058 6.91941 8.66058 7.65659L8.66058 14.9958C8.66058 15.7329 8.06297 16.3306 7.32579 16.3306L7.32579 17.2204C7.32579 17.4661 7.12658 17.6653 6.88086 17.6653ZM7.77072 14.9958C7.77072 15.2415 7.57152 15.4407 7.32579 15.4407L6.43593 15.4407C6.1902 15.4407 5.99099 15.2415 5.99099 14.9958L5.991 7.65659C5.991 7.41086 6.1902 7.21166 6.43593 7.21166L7.32579 7.21166C7.57152 7.21166 7.77072 7.41086 7.77072 7.65659L7.77072 14.9958Z" fill="#4BB9F7" fill-opacity="0.5"/>
<path fill-rule="evenodd" clip-rule="evenodd" d="M1.33479 12.7929C1.33479 13.0386 1.534 13.2378 1.77972 13.2378C2.02545 13.2378 2.22466 13.0386 2.22466 12.7929L2.22466 11.903C2.96184 11.903 3.55945 11.3054 3.55945 10.5682L3.55945 3.66959C3.55945 2.93241 2.96184 2.3348 2.22466 2.3348L2.22466 1.44494C2.22466 1.19921 2.02545 1.00001 1.77972 1.00001C1.534 1.00001 1.33479 1.19921 1.33479 1.44494L1.33479 2.3348C0.597608 2.3348 1.37776e-06 2.93241 1.31332e-06 3.66959L7.1022e-07 10.5682C6.45773e-07 11.3054 0.597607 11.903 1.33479 11.903L1.33479 12.7929Z" fill="#3FA7E1"/>
<path fill-rule="evenodd" clip-rule="evenodd" d="M13.2247 0.444931C13.2247 0.199203 13.0255 3.54141e-07 12.7797 3.11177e-07C12.534 2.68212e-07 12.3348 0.199203 12.3348 0.444931L12.3348 1.33479C11.5976 1.33479 11 1.9324 11 2.66959L11 16.0175C11 16.7547 11.5976 17.3523 12.3348 17.3523L12.3348 18.2422C12.3348 18.4879 12.534 18.6871 12.7797 18.6871C13.0255 18.6871 13.2247 18.4879 13.2247 18.2422L13.2247 17.3523C13.9618 17.3523 14.5594 16.7547 14.5594 16.0175L14.5594 2.66959C14.5594 1.9324 13.9618 1.33479 13.2247 1.33479L13.2247 0.444931Z" fill="#3FA7E1"/>
</svg>
