<svg width="22" height="22" viewBox="0 0 22 22" fill="none" xmlns="http://www.w3.org/2000/svg">
<path fill-rule="evenodd" clip-rule="evenodd" d="M5.8379 1.66157C6.22404 1.27948 6.83846 1.27948 7.2246 1.66157L10.0108 4.41862C10.405 4.80869 10.4141 5.45041 10.0312 5.85195C9.64825 6.25349 9.01827 6.26279 8.62409 5.87272L7.52632 4.78643V16.1739C7.52632 16.7337 7.08081 17.1875 6.53125 17.1875C5.98169 17.1875 5.53618 16.7337 5.53618 16.1739V4.78643L4.43841 5.87272C4.04423 6.26279 3.41425 6.25349 3.03133 5.85195C2.6484 5.45041 2.65753 4.80869 3.05172 4.41862L5.8379 1.66157Z" fill="white" fill-opacity="0.8"/>
<path fill-rule="evenodd" clip-rule="evenodd" d="M15.8072 20.2351C15.2402 20.755 14.3223 20.755 13.7553 20.2351L10.7389 17.4689C10.1704 16.9475 10.1704 16.101 10.7389 15.5796C11.3059 15.0597 12.2238 15.0597 12.7908 15.5796L13.3289 16.0731L13.3289 5.45956C13.3289 4.71996 13.9819 4.125 14.7813 4.125C15.5806 4.125 16.2336 4.71996 16.2336 5.45956L16.2336 16.0731L16.7717 15.5796C17.3387 15.0597 18.2566 15.0597 18.8236 15.5796C19.3921 16.101 19.3921 16.9475 18.8236 17.4689L15.8072 20.2351ZM14.3852 19.6498C14.6036 19.8501 14.9589 19.8501 15.1773 19.6498L18.1937 16.8836C18.4104 16.6848 18.4104 16.3637 18.1937 16.1649C17.9753 15.9646 17.62 15.9646 17.4016 16.1649L15.3398 18.0557L15.3398 5.45956C15.3398 5.18068 15.0925 4.95 14.7812 4.95C14.47 4.95 14.2227 5.18068 14.2227 5.45956L14.2227 18.0557L12.1609 16.1649C11.9425 15.9646 11.5872 15.9646 11.3688 16.1649C11.1521 16.3637 11.1521 16.6848 11.3688 16.8836L14.3852 19.6498Z" fill="white" fill-opacity="0.8"/>
</svg>
