<svg width="6" height="25" viewBox="0 0 6 25" fill="none" xmlns="http://www.w3.org/2000/svg">
<path fill-rule="evenodd" clip-rule="evenodd" d="M1 -4.37114e-08C1.55228 -1.95703e-08 2 0.447715 2 1L2 24C2 24.5523 1.55228 25 0.999999 25C0.447714 25 -1.07321e-06 24.5523 -1.04907e-06 24L-4.37114e-08 1C-1.95703e-08 0.447715 0.447715 -6.78525e-08 1 -4.37114e-08Z" fill="#5B5C61"/>
<path fill-rule="evenodd" clip-rule="evenodd" d="M5 -4.37114e-08C5.55228 -1.95703e-08 6 0.447715 6 1L6 24C6 24.5523 5.55228 25 5 25C4.44771 25 4 24.5523 4 24L4 1C4 0.447715 4.44772 -6.78525e-08 5 -4.37114e-08Z" fill="#5B5C61"/>
</svg>
