<svg width="30" height="30" viewBox="0 0 30 30" fill="none" xmlns="http://www.w3.org/2000/svg">
<path d="M26.5405 4.01432C26.3738 3.85037 26.1509 3.75598 25.9171 3.75027C25.6834 3.74457 25.4562 3.82799 25.2817 3.98362L11.4347 16.1727C11.3397 16.2568 11.2631 16.3596 11.2097 16.4747C11.1563 16.5897 11.1272 16.7146 11.1243 16.8414C11.1214 16.9683 11.1448 17.0943 11.1929 17.2117C11.241 17.3291 11.3129 17.4353 11.404 17.5236L14.3207 20.4404C14.4908 20.6139 14.7225 20.7132 14.9655 20.7167H14.9962C15.1239 20.7152 15.2499 20.6871 15.3662 20.6342C15.4825 20.5814 15.5865 20.5049 15.6717 20.4097L27.8914 6.56266C28.047 6.38814 28.1305 6.16095 28.1248 5.92719C28.1191 5.69342 28.0247 5.47058 27.8607 5.30384L26.5405 4.01432ZM14.9348 18.4447L13.3996 16.9095L15.5181 15.0367L16.8077 16.3262L14.9348 18.4447Z" fill="black"/>
<path d="M10.4518 18.6597C10.2818 18.4861 10.05 18.3868 9.80706 18.3833C8.70175 18.3833 6.64466 18.8746 5.23232 22.2519C4.40335 24.2476 3.05242 25.0766 2.74539 25.1687C2.53461 25.1803 2.33422 25.264 2.17776 25.4057C2.0213 25.5474 1.91826 25.7385 1.88589 25.9471C1.85353 26.1557 1.89379 26.3691 1.99995 26.5516C2.10611 26.734 2.27172 26.8745 2.46906 26.9494C3.79222 27.4639 5.19473 27.7444 6.61396 27.7784C7.73634 27.8009 8.84591 27.5367 9.83776 27.0109C11.5264 26.0898 12.6317 24.3704 13.1844 21.9142C13.2198 21.7618 13.2158 21.6029 13.1729 21.4525C13.1299 21.3021 13.0493 21.1651 12.9388 21.0545L10.4518 18.6597Z" fill="black"/>
</svg>
