<svg width="30" height="30" viewBox="0 0 30 30" fill="none" xmlns="http://www.w3.org/2000/svg">
<path d="M24.8679 7.14511H20.8103L19.5682 4.66088C19.2922 4.10883 18.7125 3.75 18.0777 3.75H11.8947C11.2599 3.75 10.6802 4.10883 10.4042 4.66088L9.16207 7.14511H5.1045C3.31033 7.14511 1.875 8.58044 1.875 10.347V22.8233C1.875 24.5899 3.31033 26.0528 5.1045 26.0528H24.8955C26.6621 26.0528 28.125 24.6175 28.125 22.8233V10.347C28.0974 8.58044 26.6621 7.14511 24.8679 7.14511ZM14.9862 22.4369C11.5083 22.4369 8.69282 19.6215 8.69282 16.1435C8.69282 12.6656 11.5083 9.87776 14.9862 9.87776C18.4641 9.87776 21.2796 12.6932 21.2796 16.1711C21.2796 19.6491 18.4641 22.4369 14.9862 22.4369Z" fill="black"/>
<path d="M14.986 11.8652C12.6398 11.8652 10.7077 13.7973 10.7077 16.1436C10.7077 18.4898 12.6398 20.422 14.986 20.422C17.3323 20.422 19.2644 18.4898 19.2644 16.1436C19.2644 13.7973 17.3323 11.8652 14.986 11.8652Z" fill="black"/>
</svg>
