<svg width="16" height="16" viewBox="0 0 16 16" fill="none" xmlns="http://www.w3.org/2000/svg">
<g clip-path="url(#clip0)">
<path fill-rule="evenodd" clip-rule="evenodd" d="M2.99036 12.061C2.7951 12.2562 2.7951 12.5728 2.99036 12.7681C3.18563 12.9633 3.50221 12.9633 3.69747 12.7681L8 8.46556L12.3025 12.7681C12.4978 12.9633 12.8144 12.9633 13.0096 12.7681C13.2049 12.5728 13.2049 12.2562 13.0096 12.061L8.70711 7.75845L12.7681 3.69742C12.9634 3.50215 12.9634 3.18557 12.7681 2.99031C12.5729 2.79505 12.2563 2.79505 12.061 2.99031L8 7.05134L3.93897 2.99031C3.7437 2.79505 3.42712 2.79505 3.23186 2.99031C3.0366 3.18557 3.0366 3.50215 3.23186 3.69742L7.29289 7.75845L2.99036 12.061Z" fill="#15161D" fill-opacity="0.6"/>
</g>
<defs>
<clipPath id="clip0">
<rect width="16" height="16" fill="white"/>
</clipPath>
</defs>
</svg>
