<svg width="30" height="30" viewBox="0 0 30 30" fill="none" xmlns="http://www.w3.org/2000/svg">
<path fill-rule="evenodd" clip-rule="evenodd" d="M3.09709 24.1962C2.57216 24.7211 2.57216 25.5722 3.09709 26.0971C3.62202 26.622 4.47309 26.622 4.99801 26.0971L15 16.0952L25.002 26.0971C25.5269 26.6221 26.378 26.6221 26.9029 26.0971C27.4278 25.5722 27.4278 24.7211 26.9029 24.1962L16.9009 14.1942L26.0971 4.99802C26.622 4.4731 26.622 3.62202 26.0971 3.0971C25.5722 2.57217 24.7211 2.57217 24.1962 3.0971L15 12.2933L5.8038 3.09712C5.27888 2.5722 4.4278 2.5722 3.90288 3.09712C3.37795 3.62205 3.37795 4.47312 3.90288 4.99805L13.0991 14.1942L3.09709 24.1962Z" fill="black"/>
</svg>
