<svg width="30" height="30" viewBox="0 0 30 30" fill="none" xmlns="http://www.w3.org/2000/svg">
<path d="M27.3087 5.16356H20.633L20.3196 2.91947C20.2883 2.15176 19.5674 1.53168 18.7525 1.53168H10.8545C10.0396 1.53168 9.31878 2.15176 9.28744 2.91947L8.97403 5.16356H2.29832C1.64015 5.16356 1.13869 5.63601 1.13869 6.25608C1.13869 6.87616 1.64015 7.3486 2.29832 7.3486H3.77136L6.74879 26.3643C6.78013 27.1321 7.50098 27.7226 8.31586 27.7226H21.2285C22.0434 27.7226 22.7015 27.1321 22.7956 26.3643L25.773 7.37813H27.3087C27.9669 7.37813 28.4684 6.90569 28.4684 6.28561C28.4684 5.66553 27.9669 5.16356 27.3087 5.16356ZM11.5127 3.77577H18.0317L18.2197 5.16356H11.356L11.5127 3.77577ZM20.5703 25.5376H9.03671L6.18465 7.37813H23.4224L20.5703 25.5376Z" fill="black"/>
<path fill-rule="evenodd" clip-rule="evenodd" d="M11.8936 10.074C12.5215 10.0391 13.0588 10.5198 13.0937 11.1478L13.6631 21.3964C13.698 22.0243 13.2172 22.5617 12.5893 22.5965C11.9613 22.6314 11.424 22.1507 11.3891 21.5227L10.8198 11.2741C10.7849 10.6462 11.2656 10.1088 11.8936 10.074ZM18.283 10.074C18.9109 10.1088 19.3917 10.6462 19.3568 11.2741L18.7874 21.5227C18.7525 22.1507 18.2152 22.6314 17.5873 22.5965C16.9593 22.5617 16.4786 22.0243 16.5134 21.3964L17.0828 11.1478C17.1177 10.5198 17.655 10.0391 18.283 10.074Z" fill="black"/>
</svg>
