<svg width="84" height="22" viewBox="0 0 84 22" fill="none" xmlns="http://www.w3.org/2000/svg">
<g clip-path="url(#clip0)">
<path d="M22.2042 1.05428C21.9131 0.723694 21.5481 0.466527 21.1388 0.303717C20.7046 0.123744 20.1891 0.0335727 19.5922 0.0332031H15.6698V13.0999H19.5933C20.202 13.0999 20.7233 13.0154 21.1571 12.8466C21.566 12.6946 21.9316 12.4449 22.222 12.1193C22.5067 11.7885 22.7149 11.399 22.8317 10.9785C22.9671 10.4913 23.0326 9.98736 23.0263 9.48177V3.68513C23.0319 3.18466 22.9636 2.6861 22.8234 2.20563C22.7 1.78267 22.4891 1.39039 22.2042 1.05428ZM20.9614 9.48011C20.9663 9.76048 20.9436 10.0406 20.8938 10.3166C20.86 10.5125 20.7755 10.6961 20.6488 10.8493C20.5232 10.9881 20.3579 11.0848 20.1754 11.1265C19.9287 11.1826 19.6761 11.2081 19.4232 11.2024H17.7325V1.92513H19.4232C20.0093 1.92513 20.4121 2.05448 20.6316 2.31317C20.8511 2.57185 20.9611 3.02825 20.9614 3.68236V9.48011Z" fill="#999999"/>
<path d="M30.9699 3.41254C30.6747 3.08882 30.3067 2.84008 29.8962 2.68692C29.462 2.51767 28.9407 2.43323 28.3324 2.43359H27.859C27.2615 2.43359 26.7459 2.521 26.3125 2.69579C25.9023 2.85399 25.5346 3.10567 25.2387 3.43084C24.9489 3.76049 24.7354 4.15002 24.6134 4.57165C24.4736 5.04632 24.405 5.53915 24.41 6.03398V9.48247C24.4044 9.98237 24.4699 10.4805 24.6046 10.962C24.7215 11.3841 24.9324 11.7743 25.2215 12.1033C25.5174 12.4285 25.8851 12.6802 26.2953 12.8384C26.7295 13.0136 27.2452 13.101 27.8424 13.1006H31.4938V11.2059H27.8424C27.403 11.2059 27.0649 11.127 26.828 10.9692C26.5911 10.8114 26.4727 10.5353 26.4727 10.141V9.70143V9.69755H29.9467C30.1726 9.69826 30.3954 9.64512 30.5967 9.54255C30.7979 9.43999 30.9719 9.29093 31.1041 9.10774L31.1091 9.10054C31.341 8.76416 31.51 8.38853 31.608 7.99187C31.7246 7.53326 31.7814 7.06149 31.777 6.58831V6.03287C31.7824 5.53302 31.7171 5.03492 31.583 4.55336C31.4667 4.13195 31.2572 3.74207 30.9699 3.41254ZM29.7016 6.59052C29.7016 6.98521 29.6708 7.29526 29.6091 7.52069C29.5641 7.71637 29.4643 7.89519 29.3214 8.03622C29.1921 8.15518 29.0301 8.23244 28.8563 8.25795C28.6492 8.28773 28.4402 8.30182 28.231 8.30008H26.4727V6.03287C26.4696 5.76423 26.4867 5.49574 26.5237 5.22964C26.5465 5.03827 26.6162 4.85549 26.7265 4.69748C26.8329 4.55883 26.981 4.45798 27.1489 4.40979C27.3803 4.3472 27.6195 4.31882 27.859 4.32553H28.3324C28.577 4.3189 28.8213 4.34443 29.0592 4.40147C29.2239 4.44194 29.37 4.53735 29.4733 4.67198C29.5788 4.82794 29.6429 5.00823 29.6595 5.19583C29.6908 5.4737 29.7049 5.75325 29.7016 6.03287V6.59052Z" fill="#999999"/>
<path d="M70.5917 3.41254C70.2971 3.08892 69.9296 2.84018 69.5197 2.68692C69.0854 2.51767 68.5642 2.43323 67.9559 2.43359H67.4825C66.8849 2.43359 66.3694 2.521 65.9359 2.69579C65.5257 2.85399 65.1581 3.10567 64.8622 3.43084C64.5728 3.76077 64.3593 4.15021 64.2369 4.57165C64.0975 5.04641 64.0291 5.53919 64.034 6.03398V9.48247C64.0284 9.98237 64.094 10.4805 64.2286 10.962C64.3451 11.3843 64.5561 11.7746 64.8456 12.1033C65.1412 12.4285 65.5087 12.6802 65.9187 12.8384C66.3526 13.0136 66.8683 13.101 67.4659 13.1006H71.1172V11.2059H67.4659C67.0265 11.2059 66.6883 11.127 66.4515 10.9692C66.2146 10.8114 66.0963 10.5353 66.0967 10.141V9.70143L66.1 9.69755H69.574C69.7998 9.6983 70.0226 9.64519 70.2238 9.54261C70.425 9.44004 70.5988 9.29095 70.7309 9.10774L70.7359 9.10054C70.9678 8.76416 71.1368 8.38853 71.2348 7.99187C71.3511 7.53321 71.4079 7.06148 71.4038 6.58831V6.03287C71.4093 5.53297 71.3438 5.03483 71.2093 4.55336C71.0919 4.13146 70.8808 3.7415 70.5917 3.41254ZM69.324 6.59052C69.324 6.98521 69.2929 7.29526 69.2309 7.52069C69.1859 7.71637 69.0861 7.89519 68.9432 8.03622C68.8141 8.15516 68.6522 8.23244 68.4786 8.25795C68.2714 8.28771 68.0622 8.30179 67.8528 8.30008H66.095V6.03287C66.0918 5.76424 66.1087 5.49576 66.1455 5.22964C66.1683 5.03827 66.238 4.85549 66.3483 4.69748C66.4548 4.55867 66.6031 4.4578 66.7713 4.40979C67.0024 4.3472 67.2415 4.31881 67.4808 4.32553H67.9542C68.1989 4.31893 68.4435 4.34447 68.6815 4.40147C68.8462 4.44206 68.9923 4.53745 69.0956 4.67198C69.2008 4.82811 69.2646 5.00833 69.2813 5.19583C69.3128 5.47369 69.3271 5.75324 69.324 6.03287V6.59052Z" fill="#4895F5"/>
<path d="M49.382 3.46319C49.0861 3.13755 48.7182 2.88548 48.3077 2.72704C47.8738 2.55187 47.3581 2.46448 46.7606 2.46484H43.1103V4.35844H46.7617C47.2014 4.35844 47.5396 4.43734 47.7761 4.59514C48.0126 4.75294 48.1309 5.02899 48.1309 5.42331V5.86289V5.86622H44.6524C44.4265 5.86553 44.2038 5.91873 44.0025 6.0214C43.8013 6.12408 43.6275 6.27326 43.4955 6.45658L43.4906 6.46379C43.2587 6.80023 43.0897 7.17583 42.9917 7.57245C42.8753 8.03112 42.8185 8.50284 42.8226 8.97601V9.53367C42.8171 10.0336 42.8826 10.5317 43.0172 11.0132C43.1344 11.435 43.3453 11.825 43.6341 12.154C43.9289 12.4786 44.2971 12.7279 44.7079 12.8813C45.1421 13.0505 45.6633 13.135 46.2716 13.1346H46.745C47.3426 13.1346 47.8581 13.0472 48.2916 12.8724C48.7018 12.7142 49.0695 12.4625 49.3654 12.1374C49.6548 11.8073 49.8683 11.4176 49.9906 10.996C50.1301 10.5212 50.1985 10.0285 50.1935 9.53367V6.08296C50.1991 5.58307 50.1335 5.08492 49.999 4.60345C49.8822 4.1816 49.6712 3.79173 49.382 3.46319ZM48.1309 9.53256C48.134 9.80118 48.1172 10.0697 48.0804 10.3358C48.0576 10.5272 47.9879 10.7099 47.8775 10.8679C47.7711 11.0068 47.6228 11.1076 47.4546 11.1556C47.2235 11.2185 46.9844 11.2469 46.745 11.2399H46.2716C46.0269 11.2468 45.7824 11.2212 45.5444 11.164C45.3796 11.1234 45.2336 11.028 45.1303 10.8934C45.0251 10.7373 44.9612 10.5571 44.9446 10.3696C44.9131 10.0917 44.8988 9.81219 44.9019 9.53256V8.9738C44.9019 8.57911 44.9329 8.26906 44.995 8.04363C45.0401 7.84801 45.1399 7.66923 45.2827 7.5281C45.4117 7.4091 45.5736 7.33182 45.7472 7.30637C45.9544 7.27612 46.1637 7.26186 46.3731 7.26369H48.1309V9.53256Z" fill="#999999"/>
<path d="M35.2133 0.0283203H33.1506V13.0994H35.2133V0.0283203Z" fill="#999999"/>
<path d="M38.6956 0.741211H36.6329V9.4819C36.6329 10.6878 36.8894 11.5921 37.4023 12.1948C37.9153 12.7975 38.752 13.0991 39.9124 13.0995H42.1779V11.2059H40.016C39.723 11.2059 39.492 11.1778 39.3231 11.1216C39.1629 11.0715 39.0233 10.9705 38.9256 10.8339C38.8209 10.6745 38.7572 10.4917 38.7399 10.3018C38.7089 10.0296 38.6949 9.75579 38.6978 9.4819V4.42696H42.1801V2.51673H38.6956V0.741211Z" fill="#999999"/>
<path d="M57.9531 0.306895C57.7873 0.442537 57.6663 0.625136 57.6061 0.830738C57.516 1.11024 57.4511 1.39723 57.4121 1.68829L56.1925 9.51544C56.1491 9.79142 56.0812 10.063 55.9896 10.327C55.9227 10.523 55.8096 10.7 55.6598 10.8431C55.5103 10.9766 55.3305 11.0717 55.136 11.1202C54.89 11.1809 54.6371 11.2093 54.3838 11.2045H53.7241V0.0313928H51.662V13.0997H54.2673C55.4617 13.0997 56.3832 12.7729 57.0318 12.1191C57.6804 11.4654 58.0889 10.5969 58.2574 9.51378L59.7619 0.000904405C59.3778 -0.00462313 58.9937 0.0151914 58.6122 0.0602182C58.3295 0.1005 58.1098 0.182725 57.9531 0.306895Z" fill="#4895F5"/>
<path d="M62.6343 2.5166H60.5717V13.0999H62.6343V2.5166Z" fill="#4895F5"/>
<path d="M81.0132 2.5166V9.48177C81.0189 9.77102 80.9932 10.06 80.9367 10.3438C80.9085 10.5422 80.8166 10.7261 80.6748 10.8679C80.5331 11.0096 80.3491 11.1015 80.1507 11.1298C79.8669 11.1861 79.5779 11.2115 79.2887 11.2057H78.9339V2.5166H76.8713V11.2057H76.5497C76.2605 11.2116 75.9715 11.1861 75.6878 11.1298C75.4895 11.0929 75.3052 11.0022 75.155 10.8676C75.0148 10.7238 74.9206 10.5414 74.8845 10.3438C74.8285 10.06 74.8031 9.77099 74.8086 9.48177V2.5166H72.7459V9.48177C72.7404 9.98148 72.8059 10.4794 72.9405 10.9607C73.0572 11.3815 73.2654 11.7712 73.5503 12.1021C73.8417 12.4283 74.2068 12.6803 74.6151 12.8371C75.049 13.0123 75.5702 13.0997 76.1789 13.0993H79.6446C80.2532 13.0993 80.7745 13.0119 81.2084 12.8371C81.6186 12.6789 81.9862 12.4273 82.2821 12.1021C82.5708 11.7729 82.7813 11.3827 82.898 10.9607C83.0325 10.4794 83.098 9.98148 83.0925 9.48177V2.5166H81.0132Z" fill="#4895F5"/>
<path d="M5.19963 6.56779L0 1.36816V11.7674L5.19963 6.56779Z" fill="#999999"/>
<path d="M1.34204 13.1089H13.0822V1.36816L1.34204 13.1089Z" fill="#4895F5"/>
<path d="M1.34204 0.0263672L6.54111 5.22599L11.7407 0.0263672H1.34204Z" fill="#999999"/>
<path d="M59.0773 17.7753C59.4485 17.7753 59.7364 17.9025 59.941 18.1568C60.1472 18.4095 60.2503 18.7679 60.2503 19.2319C60.2503 19.696 60.1464 20.0569 59.9384 20.3147C59.7321 20.5708 59.4451 20.6989 59.0773 20.6989C58.8934 20.6989 58.725 20.6654 58.572 20.5983C58.4207 20.5296 58.2935 20.4247 58.1904 20.2838H58.1595L58.0692 20.6473H57.7625V16.6357H58.1904V17.6103C58.1904 17.8286 58.1835 18.0245 58.1698 18.1981H58.1904C58.3898 17.9162 58.6854 17.7753 59.0773 17.7753ZM59.0154 18.1336C58.7232 18.1336 58.5127 18.2179 58.3838 18.3863C58.2549 18.553 58.1904 18.8349 58.1904 19.2319C58.1904 19.6289 58.2566 19.9134 58.3889 20.0853C58.5213 20.2554 58.7335 20.3405 59.0257 20.3405C59.2887 20.3405 59.4846 20.2451 59.6135 20.0543C59.7425 19.8618 59.8069 19.586 59.8069 19.2268C59.8069 18.8589 59.7425 18.5848 59.6135 18.4043C59.4846 18.2239 59.2853 18.1336 59.0154 18.1336Z" fill="#999999"/>
<path d="M60.552 17.8217H61.0109L61.6296 19.433C61.7654 19.8008 61.8496 20.0664 61.8823 20.2296H61.9029C61.9253 20.142 61.9717 19.9925 62.0421 19.7811C62.1143 19.5679 62.3481 18.9148 62.7434 17.8217H63.2023L61.988 21.0392C61.8677 21.3571 61.7267 21.5823 61.5652 21.7146C61.4053 21.8487 61.2085 21.9157 60.9748 21.9157C60.8442 21.9157 60.7153 21.9011 60.5881 21.8719V21.529C60.6826 21.5496 60.7883 21.56 60.9052 21.56C61.1991 21.56 61.4088 21.395 61.5342 21.065L61.6915 20.6628L60.552 17.8217Z" fill="#999999"/>
<path d="M68.5655 15.3672L70.6789 20.8476H69.8954L69.41 19.5863H66.9374L66.452 20.8476H65.6687L67.782 15.3672H68.5655ZM67.2356 18.803H69.1082L68.1756 16.3876L67.2356 18.803Z" fill="#999999"/>
<path d="M74.4472 20.8476L72.4025 16.8309V20.8476H71.619V15.3672H72.4751L74.5617 19.4946L76.6522 15.3672H77.5044V20.8476H76.725V16.8309L74.6805 20.8476H74.4472Z" fill="#999999"/>
<path d="M79.6982 18.5011C79.5936 18.5015 79.4901 18.48 79.3943 18.4379C79.3013 18.3977 79.2164 18.3407 79.144 18.2698C79.071 18.1975 79.0132 18.1114 78.9738 18.0165C78.9344 17.9217 78.9143 17.8199 78.9147 17.7172V16.1507C78.9143 16.048 78.9344 15.9462 78.9738 15.8514C79.0132 15.7565 79.071 15.6704 79.144 15.5982C79.2165 15.5275 79.3013 15.4705 79.3941 15.4302C79.49 15.3881 79.5936 15.3667 79.6982 15.3672H82.358C82.4626 15.3667 82.5661 15.3882 82.6619 15.4302C82.7548 15.4707 82.8395 15.5276 82.912 15.5983C82.985 15.6706 83.0429 15.7567 83.0823 15.8516C83.1216 15.9464 83.1417 16.0482 83.1413 16.1509V16.8576H82.3578V16.1507H79.6982V17.7176H82.358C82.4624 17.7171 82.5658 17.7379 82.6619 17.7787C82.8508 17.8581 83.001 18.0083 83.0804 18.1972C83.1212 18.2933 83.142 18.3967 83.1415 18.5011V20.0639C83.142 20.1683 83.1212 20.2717 83.0804 20.3678C83.001 20.5567 82.8508 20.7069 82.6619 20.7863C82.5658 20.8271 82.4624 20.8479 82.358 20.8474H79.6218C79.5174 20.8479 79.414 20.8271 79.3179 20.7863C79.129 20.7069 78.9788 20.5567 78.8994 20.3678C78.8586 20.2717 78.8378 20.1683 78.8383 20.0639V19.3609H79.6218V20.0639H82.358V18.5011H79.6982Z" fill="#999999"/>
</g>
<defs>
<clipPath id="clip0">
<rect width="83.16" height="22" fill="white"/>
</clipPath>
</defs>
</svg>
