<svg width="30" height="30" viewBox="0 0 30 30" fill="none" xmlns="http://www.w3.org/2000/svg">
<path d="M25.5 7.6H18.2667C17.975 7.6 17.6833 7.485 17.45 7.3125L13.8333 3.92C13.1917 3.2875 12.3167 3 11.4417 3H4.5C2.575 3 1 4.5525 1 6.45V22.55C1 24.4475 2.575 26 4.5 26H25.5C27.425 26 29 24.4475 29 22.55V11.05C29 9.1525 27.425 7.6 25.5 7.6ZM26.6667 22.55C26.6667 23.1825 26.1417 23.7 25.5 23.7H4.5C3.85833 23.7 3.33333 23.1825 3.33333 22.55V6.45C3.33333 5.8175 3.85833 5.3 4.5 5.3H11.4417C11.7333 5.3 12.025 5.415 12.2583 5.5875L15.875 8.9225C16.5167 9.555 17.3917 9.8425 18.2667 9.8425H25.5C26.1417 9.8425 26.6667 10.36 26.6667 10.9925V22.55Z" fill="black"/>
</svg>
