<svg width="30" height="30" viewBox="0 0 30 30" fill="none" xmlns="http://www.w3.org/2000/svg">
<path fill-rule="evenodd" clip-rule="evenodd" d="M3 11.9C3 11.2925 3.49249 10.8 4.1 10.8H25.9C26.5075 10.8 27 11.2925 27 11.9C27 12.5075 26.5075 13 25.9 13H4.1C3.49249 13 3 12.5075 3 11.9Z" fill="black"/>
<path fill-rule="evenodd" clip-rule="evenodd" d="M3 18.9C3 18.2925 3.49249 17.8 4.1 17.8H18.9C19.5075 17.8 20 18.2925 20 18.9C20 19.5075 19.5075 20 18.9 20H4.1C3.49249 20 3 19.5075 3 18.9Z" fill="black"/>
<path fill-rule="evenodd" clip-rule="evenodd" d="M3 4.9C3 4.29249 3.49249 3.8 4.1 3.8H18.9C19.5075 3.8 20 4.29249 20 4.9C20 5.50751 19.5075 6 18.9 6H4.1C3.49249 6 3 5.50751 3 4.9Z" fill="black"/>
<path fill-rule="evenodd" clip-rule="evenodd" d="M3 25.9C3 25.2925 3.49249 24.8 4.1 24.8H25.9C26.5075 24.8 27 25.2925 27 25.9C27 26.5075 26.5075 27 25.9 27H4.1C3.49249 27 3 26.5075 3 25.9Z" fill="black"/>
</svg>
