<svg width="30" height="30" viewBox="0 0 30 30" fill="none" xmlns="http://www.w3.org/2000/svg">
<path d="M25.7478 14.889L19.7905 16.6264C19.3348 16.7551 19.1395 17.2699 19.3999 17.656L24.1853 24.9276C24.3806 25.2494 24.3155 25.6676 23.9899 25.8929L20.6695 28.0164C20.3439 28.2095 19.9208 28.1451 19.6929 27.8234L14.9075 20.5518C14.6471 20.1657 14.0937 20.1335 13.8007 20.4874L9.73149 25.1207C9.34084 25.5711 8.59211 25.3459 8.49445 24.7667L5.62974 2.66247C5.56463 2.08332 6.18315 1.66504 6.70401 1.98679L25.9106 13.6342C26.4315 13.9559 26.3338 14.7281 25.7478 14.889Z" fill="black"/>
</svg>
