<svg width="30" height="30" viewBox="0 0 30 30" fill="none" xmlns="http://www.w3.org/2000/svg">
<path d="M10.5269 23.2944L22.5347 11.2866L17.1776 5.92943L5.16882 17.9363C5.11156 17.9926 5.0712 18.0621 5.04961 18.1381L3.17221 24.709C3.12528 24.8733 3.17033 25.0498 3.29142 25.1709C3.3806 25.261 3.50075 25.3089 3.62372 25.3089C3.6669 25.3089 3.71008 25.3032 3.75326 25.2901L10.3242 23.4127C10.4002 23.392 10.4706 23.3507 10.5269 23.2944ZM9.72527 22.6082L6.1676 23.6248C5.88787 23.04 5.42321 22.5763 4.8384 22.2956L5.85501 18.738H7.37852V21.0847H9.72527V22.6082Z" fill="black"/>
<path d="M25.7645 4.07461L24.3893 2.69941C23.2901 1.6002 21.5065 1.6002 20.4073 2.69941L18.5065 4.60028L23.8636 9.95743L25.7645 8.05657C26.8637 6.95735 26.8637 5.17382 25.7645 4.07461Z" fill="black"/>
<path d="M22.398 26.2477H5.50138C4.98228 26.2477 4.56268 26.6682 4.56268 27.1863C4.56268 27.7045 4.98228 28.125 5.50138 28.125H22.398C22.9171 28.125 23.3367 27.7045 23.3367 27.1863C23.3367 26.6682 22.9171 26.2477 22.398 26.2477Z" fill="black"/>
</svg>
