<svg alignment-baseline="center"  width="30" height="30" viewBox="0 0 36 28" fill="none" xmlns="http://www.w3.org/2000/svg">
  <path
     fill-rule="evenodd"
     clip-rule="evenodd"
     d="M 3.1538116,8.7233515 C 1.9642988,8.7233515 1,9.6860283 1,10.873546 V 24.849828 C 1,26.037354 1.9642988,27 3.1538116,27 H 20.16893 c 1.189505,0 2.153827,-0.962646 2.153827,-2.150172 V 10.873546 c 0,-1.1875177 -0.964322,-2.1501945 -2.153827,-2.1501945 z M 20.815085,12.163664 H 2.5076712 v 12.25613 c 0,0.712485 0.5785778,1.290103 1.2922885,1.290103 H 19.522774 c 0.713703,0 1.292311,-0.577618 1.292311,-1.290103 z"
     fill="#000000"
     id="path2"
     style="stroke-width:0.761527" />
  <path
     fill-rule="evenodd"
     clip-rule="evenodd"
     d="M 3.1538116,8.7233515 C 1.9642988,8.7233515 1,9.6860283 1,10.873546 V 24.849828 C 1,26.037354 1.9642988,27 3.1538116,27 H 20.16893 c 1.189505,0 2.153827,-0.962646 2.153827,-2.150172 V 10.873546 c 0,-1.1875177 -0.964322,-2.1501945 -2.153827,-2.1501945 z M 20.815085,12.163664 H 2.5076712 v 12.25613 c 0,0.712485 0.5785778,1.290103 1.2922885,1.290103 H 19.522774 c 0.713703,0 1.292311,-0.577618 1.292311,-1.290103 z"
     fill="black"
     id="path925"
     style="fill:#000000;fill-opacity:0.000;stroke-width:0.761527" />
  <path
     id="path2864"
     style="fill:#000000;fill-opacity:1;stroke-width:0.426455"
     d="M 8.4516607,3 A 2.1322741,2.1322741 0 0 0 6.34705,5.1313832 2.1322741,2.1322741 0 0 0 7.8537432,7.1705503 V 6.4387705 H 10.163609 A 2.1322741,2.1322741 0 0 0 10.611303,5.1313832 2.1322741,2.1322741 0 0 0 8.4784329,3 2.1322741,2.1322741 0 0 0 8.4516576,3 Z" />
  <path
     id="rect2871"
     style="fill:#000000;fill-opacity:1;stroke-width:0.778715"
     d="M 6.3455627,5.074512 H 7.8686166 V 9.8522557 H 6.3455627 Z" />
  <path
     id="path2864-6"
     style="fill:#000000;fill-opacity:1;stroke-width:0.426455"
     d="M 25.56273,3.0000547 A 2.1322741,2.1322741 0 0 1 27.667341,5.131438 2.1322741,2.1322741 0 0 1 26.160648,7.1706051 V 6.4388252 h -2.309866 a 2.1322741,2.1322741 0 0 1 -0.447694,-1.3073872 2.1322741,2.1322741 0 0 1 2.13287,-2.1313833 2.1322741,2.1322741 0 0 1 0.02678,0 z" />
  <path
     id="rect2871-3"
     style="fill:#000000;fill-opacity:1;stroke-width:1.33693"
     d="M 27.668828,5.0745669 H 26.145774 V 19.157163 h 1.523054 z" />
  <path
     id="rect2894"
     style="fill:#000000;fill-opacity:1;stroke-width:1.63794"
     d="m 21.258532,19.966287 h 4.238565 v 1.308874 h -4.238565 z" />
  <path
     id="path2896"
     style="fill:#000000;fill-opacity:1;stroke-width:0.761527"
     d="m 26.145265,17.08825 v 1.500743 a 1.2359941,1.239287 0 0 1 0.0089,0.147249 1.2359941,1.239287 0 0 1 -1.235994,1.238969 1.2359941,1.239287 0 0 1 -0.145761,-0.0089 h -1.26423 a 2.1655925,2.1417947 0 0 0 1.994547,1.308874 2.1655925,2.1417947 0 0 0 2.165592,-2.141794 2.1655925,2.1417947 0 0 0 -1.523054,-2.045117 z" />
  <rect
     style="fill:#000000;fill-opacity:1;stroke-width:2.47872"
     id="rect2916"
     width="16.982649"
     height="3.4387705"
     x="8.6152706"
     y="3" />
</svg>
