<svg width="26" height="7" viewBox="0 0 26 7" fill="none" xmlns="http://www.w3.org/2000/svg">
<path fill-rule="evenodd" clip-rule="evenodd" d="M25.5 1.5C25.5 2.05228 25.0523 2.5 24.5 2.5L1.5 2.5C0.947716 2.5 0.5 2.05228 0.5 1.5C0.5 0.947713 0.947716 0.499998 1.5 0.499998L24.5 0.5C25.0523 0.5 25.5 0.947715 25.5 1.5Z" fill="#5B5C61"/>
<path fill-rule="evenodd" clip-rule="evenodd" d="M25.5 5.5C25.5 6.05228 25.0523 6.5 24.5 6.5L1.5 6.5C0.947716 6.5 0.5 6.05228 0.5 5.5C0.5 4.94771 0.947716 4.5 1.5 4.5L24.5 4.5C25.0523 4.5 25.5 4.94772 25.5 5.5Z" fill="#5B5C61"/>
</svg>
