<svg width="30" height="30" viewBox="0 0 30 30" fill="none" xmlns="http://www.w3.org/2000/svg">
<path d="M12.18 24C12.0705 24.0003 11.9619 23.98 11.86 23.94C11.6095 23.8537 11.4035 23.6714 11.2872 23.4333C11.171 23.1952 11.154 22.9206 11.24 22.67L16.87 6.3C16.9584 6.05131 17.1414 5.84764 17.3793 5.73337C17.6172 5.6191 17.8907 5.60351 18.14 5.69C18.2687 5.73241 18.3875 5.80056 18.4891 5.89029C18.5907 5.98003 18.673 6.08948 18.731 6.21201C18.789 6.33453 18.8215 6.46756 18.8264 6.60302C18.8314 6.73849 18.8088 6.87355 18.76 7L13.13 23.33C13.0612 23.5268 12.9327 23.6971 12.7624 23.8172C12.592 23.9374 12.3884 24.0013 12.18 24Z" fill="black"/>
<path d="M21.63 21C21.4126 21.0014 21.1976 20.9547 21.0005 20.863C20.8033 20.7714 20.629 20.6371 20.49 20.47C20.3609 20.3211 20.2626 20.1482 20.2008 19.9611C20.139 19.774 20.1149 19.5765 20.13 19.38C20.1703 18.9906 20.3604 18.632 20.66 18.38L24.85 14.8L20.66 11.22C20.3604 10.968 20.1703 10.6094 20.13 10.22C20.1149 10.0235 20.139 9.82603 20.2008 9.63894C20.2626 9.45184 20.3609 9.27885 20.49 9.13C20.742 8.83037 21.1006 8.64034 21.49 8.6C21.6926 8.58699 21.8956 8.61579 22.0866 8.6846C22.2775 8.75341 22.4523 8.86077 22.6 9L28.14 13.72C28.3062 13.8599 28.4398 14.0344 28.5314 14.2313C28.6231 14.4282 28.6706 14.6428 28.6706 14.86C28.6706 15.0772 28.6231 15.2918 28.5314 15.4887C28.4398 15.6856 28.3062 15.8601 28.14 16L22.6 20.68C22.3245 20.8976 21.9809 21.0109 21.63 21ZM21.63 9.56C21.499 9.57073 21.3772 9.63163 21.29 9.73C21.2036 9.83316 21.1606 9.96578 21.17 10.1C21.1749 10.166 21.1935 10.2303 21.2244 10.2888C21.2554 10.3473 21.2982 10.3988 21.35 10.44L26.43 14.78L21.35 19.12C21.2972 19.1603 21.2538 19.2116 21.2227 19.2703C21.1917 19.329 21.1737 19.3937 21.17 19.46C21.1645 19.525 21.1723 19.5905 21.1929 19.6524C21.2135 19.7143 21.2466 19.7713 21.29 19.82C21.3753 19.92 21.4967 19.9824 21.6277 19.9937C21.7587 20.0049 21.8889 19.9641 21.99 19.88L27.53 15.16C27.5853 15.1131 27.6299 15.0549 27.661 14.9894C27.692 14.9239 27.7087 14.8525 27.71 14.78C27.7101 14.7073 27.694 14.6354 27.6628 14.5697C27.6317 14.504 27.5863 14.446 27.53 14.4L22 9.72C21.9505 9.67474 21.8918 9.64062 21.828 9.61992C21.7642 9.59922 21.6967 9.59243 21.63 9.6V9.56Z" fill="black"/>
<path d="M8.36999 20.79C8.0726 20.7912 7.78484 20.6846 7.55999 20.49L1.99999 15.77C1.86383 15.6516 1.75425 15.5058 1.67842 15.342C1.60259 15.1783 1.56223 15.0004 1.55999 14.82C1.55358 14.631 1.5898 14.4429 1.66597 14.2698C1.74214 14.0967 1.8563 13.943 1.99999 13.82L7.55999 9.15C7.68325 9.03378 7.82885 8.94383 7.98794 8.88561C8.14703 8.82739 8.3163 8.80212 8.48546 8.81133C8.65462 8.82054 8.82015 8.86404 8.97198 8.93918C9.12381 9.01433 9.25878 9.11955 9.3687 9.24847C9.47861 9.37738 9.56118 9.52729 9.61138 9.68909C9.66157 9.8509 9.67836 10.0212 9.66071 10.1897C9.64306 10.3582 9.59135 10.5213 9.50871 10.6692C9.42607 10.8171 9.31423 10.9467 9.17999 11.05L4.75999 14.82L9.17999 18.59C9.30571 18.6957 9.40917 18.8254 9.48437 18.9714C9.55957 19.1174 9.605 19.277 9.61802 19.4407C9.63105 19.6045 9.61141 19.7692 9.56025 19.9253C9.50908 20.0814 9.42742 20.2257 9.31999 20.35C9.20287 20.4877 9.05728 20.5983 8.89327 20.6742C8.72927 20.7502 8.55073 20.7897 8.36999 20.79Z" fill="black"/>
</svg>
