<svg xmlns="http://www.w3.org/2000/svg" xlink="http://www.w3.org/1999/xlink" width="0" height="0" style="display:none;"><symbol viewBox="0 0 16 16" id="icon-close_icon">
<g clip-path="url(#clip0)">
<path fill-rule="evenodd" clip-rule="evenodd" d="M2.99036 12.061C2.7951 12.2562 2.7951 12.5728 2.99036 12.7681C3.18563 12.9633 3.50221 12.9633 3.69747 12.7681L8 8.46556L12.3025 12.7681C12.4978 12.9633 12.8144 12.9633 13.0096 12.7681C13.2049 12.5728 13.2049 12.2562 13.0096 12.061L8.70711 7.75845L12.7681 3.69742C12.9634 3.50215 12.9634 3.18557 12.7681 2.99031C12.5729 2.79505 12.2563 2.79505 12.061 2.99031L8 7.05134L3.93897 2.99031C3.7437 2.79505 3.42712 2.79505 3.23186 2.99031C3.0366 3.18557 3.0366 3.50215 3.23186 3.69742L7.29289 7.75845L2.99036 12.061Z" fill="#15161D" fill-opacity="0.6"/>
</g>
<defs>
<clipPath id="clip0">
<rect width="16" height="16" fill="white"/>
</clipPath>
</defs>
</symbol><symbol viewBox="0 0 15 19" id="icon-logo">
<path fill-rule="evenodd" clip-rule="evenodd" d="M6.88086 17.6653C6.63513 17.6653 6.43593 17.4661 6.43593 17.2204L6.43593 16.3306C5.69874 16.3306 5.10113 15.7329 5.10113 14.9958L5.10113 7.65659C5.10113 6.91941 5.69874 6.3218 6.43593 6.3218L6.43593 5.43194C6.43593 5.18621 6.63513 4.98701 6.88086 4.98701C7.12659 4.98701 7.32579 5.18621 7.32579 5.43194L7.32579 6.3218C8.06297 6.3218 8.66058 6.91941 8.66058 7.65659L8.66058 14.9958C8.66058 15.7329 8.06297 16.3306 7.32579 16.3306L7.32579 17.2204C7.32579 17.4661 7.12658 17.6653 6.88086 17.6653ZM7.77072 14.9958C7.77072 15.2415 7.57152 15.4407 7.32579 15.4407L6.43593 15.4407C6.1902 15.4407 5.99099 15.2415 5.99099 14.9958L5.991 7.65659C5.991 7.41086 6.1902 7.21166 6.43593 7.21166L7.32579 7.21166C7.57152 7.21166 7.77072 7.41086 7.77072 7.65659L7.77072 14.9958Z" fill="#4BB9F7" fill-opacity="0.5"/>
<path fill-rule="evenodd" clip-rule="evenodd" d="M1.33479 12.7929C1.33479 13.0386 1.534 13.2378 1.77972 13.2378C2.02545 13.2378 2.22466 13.0386 2.22466 12.7929L2.22466 11.903C2.96184 11.903 3.55945 11.3054 3.55945 10.5682L3.55945 3.66959C3.55945 2.93241 2.96184 2.3348 2.22466 2.3348L2.22466 1.44494C2.22466 1.19921 2.02545 1.00001 1.77972 1.00001C1.534 1.00001 1.33479 1.19921 1.33479 1.44494L1.33479 2.3348C0.597608 2.3348 1.37776e-06 2.93241 1.31332e-06 3.66959L7.1022e-07 10.5682C6.45773e-07 11.3054 0.597607 11.903 1.33479 11.903L1.33479 12.7929Z" fill="#3FA7E1"/>
<path fill-rule="evenodd" clip-rule="evenodd" d="M13.2247 0.444931C13.2247 0.199203 13.0255 3.54141e-07 12.7797 3.11177e-07C12.534 2.68212e-07 12.3348 0.199203 12.3348 0.444931L12.3348 1.33479C11.5976 1.33479 11 1.9324 11 2.66959L11 16.0175C11 16.7547 11.5976 17.3523 12.3348 17.3523L12.3348 18.2422C12.3348 18.4879 12.534 18.6871 12.7797 18.6871C13.0255 18.6871 13.2247 18.4879 13.2247 18.2422L13.2247 17.3523C13.9618 17.3523 14.5594 16.7547 14.5594 16.0175L14.5594 2.66959C14.5594 1.9324 13.9618 1.33479 13.2247 1.33479L13.2247 0.444931Z" fill="#3FA7E1"/>
</symbol><symbol viewBox="0 0 16 16" id="icon-maximaze">
<path fill-rule="evenodd" clip-rule="evenodd" d="M3.02364 2.64569C2.32784 2.64569 1.76379 3.20974 1.76379 3.90553V12.0945C1.76379 12.7903 2.32784 13.3544 3.02364 13.3544H12.9764C13.6722 13.3544 14.2362 12.7903 14.2362 12.0945V3.90553C14.2362 3.20974 13.6722 2.64569 12.9764 2.64569H3.02364ZM13.3543 4.66144H2.64568V11.8425C2.64568 12.26 2.98411 12.5984 3.40159 12.5984H12.5984C13.0159 12.5984 13.3543 12.26 13.3543 11.8425V4.66144Z" fill="white" fill-opacity="0.6"/>
</symbol><symbol viewBox="0 0 22 22" id="icon-orders">
<path fill-rule="evenodd" clip-rule="evenodd" d="M15.7124 4.77638C16.112 4.37059 16.7649 4.36561 17.1707 4.76525L20.6611 8.20275C20.9593 8.49643 21.0504 8.94122 20.8918 9.3285C20.7331 9.71579 20.356 9.96875 19.9375 9.96875H4.8125C4.24296 9.96875 3.78125 9.50704 3.78125 8.9375C3.78125 8.36796 4.24296 7.90625 4.8125 7.90625H17.4207L15.7235 6.23475C15.3177 5.83511 15.3127 5.18217 15.7124 4.77638Z" fill="white" fill-opacity="0.8"/>
<path fill-rule="evenodd" clip-rule="evenodd" d="M7.67723 17.8624C7.23135 18.3375 6.49884 18.3375 6.05296 17.8624L1.12433 12.6102C1.03055 12.5103 1.00509 12.3642 1.05954 12.2384C1.11399 12.1127 1.23795 12.0313 1.37499 12.0313L16.3935 12.0313C17.0421 12.0313 17.5313 12.5849 17.5313 13.2212C17.5313 13.8574 17.0421 14.4111 16.3935 14.4111L6.00289 14.4111L7.67723 16.1953C8.11143 16.658 8.11143 17.3997 7.67723 17.8624L7.67723 17.8624ZM6.55429 17.3919C6.7286 17.5777 7.00159 17.5777 7.1759 17.3919C7.36187 17.1938 7.36187 16.8639 7.17589 16.6657L4.95825 14.3025C4.86447 14.2026 4.83901 14.0565 4.89346 13.9307C4.94791 13.805 5.07187 13.7236 5.20892 13.7236L16.3935 13.7236C16.6219 13.7236 16.8438 13.5195 16.8438 13.2212C16.8438 12.9228 16.6219 12.7188 16.3935 12.7188L2.16897 12.7188L6.55429 17.3919Z" fill="white" fill-opacity="0.8"/>
</symbol><symbol viewBox="0 0 22 22" id="icon-position">
<path fill-rule="evenodd" clip-rule="evenodd" d="M5.8379 1.66157C6.22404 1.27948 6.83846 1.27948 7.2246 1.66157L10.0108 4.41862C10.405 4.80869 10.4141 5.45041 10.0312 5.85195C9.64825 6.25349 9.01827 6.26279 8.62409 5.87272L7.52632 4.78643V16.1739C7.52632 16.7337 7.08081 17.1875 6.53125 17.1875C5.98169 17.1875 5.53618 16.7337 5.53618 16.1739V4.78643L4.43841 5.87272C4.04423 6.26279 3.41425 6.25349 3.03133 5.85195C2.6484 5.45041 2.65753 4.80869 3.05172 4.41862L5.8379 1.66157Z" fill="white" fill-opacity="0.8"/>
<path fill-rule="evenodd" clip-rule="evenodd" d="M15.8072 20.2351C15.2402 20.755 14.3223 20.755 13.7553 20.2351L10.7389 17.4689C10.1704 16.9475 10.1704 16.101 10.7389 15.5796C11.3059 15.0597 12.2238 15.0597 12.7908 15.5796L13.3289 16.0731L13.3289 5.45956C13.3289 4.71996 13.9819 4.125 14.7813 4.125C15.5806 4.125 16.2336 4.71996 16.2336 5.45956L16.2336 16.0731L16.7717 15.5796C17.3387 15.0597 18.2566 15.0597 18.8236 15.5796C19.3921 16.101 19.3921 16.9475 18.8236 17.4689L15.8072 20.2351ZM14.3852 19.6498C14.6036 19.8501 14.9589 19.8501 15.1773 19.6498L18.1937 16.8836C18.4104 16.6848 18.4104 16.3637 18.1937 16.1649C17.9753 15.9646 17.62 15.9646 17.4016 16.1649L15.3398 18.0557L15.3398 5.45956C15.3398 5.18068 15.0925 4.95 14.7812 4.95C14.47 4.95 14.2227 5.18068 14.2227 5.45956L14.2227 18.0557L12.1609 16.1649C11.9425 15.9646 11.5872 15.9646 11.3688 16.1649C11.1521 16.3637 11.1521 16.6848 11.3688 16.8836L14.3852 19.6498Z" fill="white" fill-opacity="0.8"/>
</symbol><symbol viewBox="0 0 6 25" id="icon-resize">
<line x1="1" y1="1" x2="0.999999" y2="24" stroke="white" stroke-opacity="0.3" stroke-width="2" stroke-linecap="round"/>
<line x1="5" y1="1" x2="5" y2="24" stroke="white" stroke-opacity="0.3" stroke-width="2" stroke-linecap="round"/>
</symbol><symbol viewBox="0 0 26 7" id="icon-resize_vertical">
<path fill-rule="evenodd" clip-rule="evenodd" d="M25.5 1.5C25.5 2.05228 25.0523 2.5 24.5 2.5L1.5 2.5C0.947716 2.5 0.5 2.05228 0.5 1.5C0.5 0.947713 0.947716 0.499998 1.5 0.499998L24.5 0.5C25.0523 0.5 25.5 0.947715 25.5 1.5Z" fill="#5B5C61"/>
<path fill-rule="evenodd" clip-rule="evenodd" d="M25.5 5.5C25.5 6.05228 25.0523 6.5 24.5 6.5L1.5 6.5C0.947716 6.5 0.5 6.05228 0.5 5.5C0.5 4.94771 0.947716 4.5 1.5 4.5L24.5 4.5C25.0523 4.5 25.5 4.94772 25.5 5.5Z" fill="#5B5C61"/>
</symbol><symbol viewBox="0 0 22 22" id="icon-watch">
<path d="M11.2033 10.7463C10.9418 10.6301 10.7385 10.543 10.6513 10.4268C10.5351 10.3106 10.5061 10.1653 10.5061 9.99102C10.5061 9.81672 10.5642 9.64243 10.6513 9.52623C10.7385 9.41004 10.8837 9.35194 11.0871 9.35194C11.2904 9.35194 11.4357 9.43908 11.5519 9.58433C11.6681 9.72958 11.6971 9.90387 11.7262 10.1363C11.7262 10.1653 11.7552 10.1944 11.7843 10.1944H12.5976C12.6557 10.1944 12.6848 10.1653 12.6848 10.1072C12.6848 10.1072 12.6848 10.1072 12.6848 10.0782C12.6848 9.67148 12.5686 9.35194 12.3362 9.09049C12.1038 8.82905 11.8133 8.65475 11.4357 8.59665C11.4066 8.59665 11.3776 8.56761 11.3776 8.53856V7.92852C11.3776 7.89947 11.3485 7.87042 11.3195 7.87042H10.8837C10.8547 7.87042 10.8256 7.89947 10.8256 7.92852V8.56761C10.8256 8.59666 10.7966 8.6257 10.7675 8.6257C10.3899 8.6838 10.0703 8.82905 9.83795 9.06144C9.60555 9.29384 9.46031 9.61338 9.46031 9.99102C9.46031 10.3977 9.5765 10.7173 9.83795 10.9496C10.0703 11.182 10.448 11.3854 10.9709 11.5597C11.2323 11.6468 11.4066 11.763 11.5228 11.8792C11.639 11.9954 11.6681 12.1407 11.6681 12.344C11.6681 12.5183 11.61 12.6926 11.4938 12.7798C11.3776 12.896 11.2323 12.954 11.029 12.954C10.8256 12.954 10.6223 12.896 10.5061 12.7507C10.3608 12.6345 10.3027 12.4312 10.3027 12.1407C10.3027 12.1116 10.2737 12.0826 10.2446 12.0826H9.34411C9.31506 12.0826 9.28601 12.1116 9.28601 12.1407C9.28601 12.1988 9.28601 12.2569 9.28601 12.2859C9.31506 12.6926 9.43126 13.0121 9.6927 13.2445C9.95414 13.506 10.3027 13.6512 10.7094 13.6803C10.7385 13.6803 10.7675 13.7093 10.7675 13.7384V14.3194C10.7675 14.3484 10.7966 14.3775 10.8256 14.3775H11.2614C11.2904 14.3775 11.3195 14.3484 11.3195 14.3194V13.7384C11.3195 13.7093 11.3485 13.6803 11.3776 13.6803C11.7843 13.6222 12.1038 13.506 12.3362 13.2736C12.5686 13.0412 12.7138 12.7217 12.7138 12.315C12.7138 11.9083 12.5976 11.5887 12.3362 11.3563C12.0747 11.153 11.6971 10.9496 11.2033 10.7463Z" fill="white"/>
<path d="M11.029 5.19794C11 5.19794 11 5.19794 11.029 5.19794C11 5.19794 11 5.19794 11 5.19794C5.27729 5.25604 0.6875 9.70058 0.6875 11.124C0.6875 12.5474 5.27729 16.992 10.971 17.05C10.971 17.05 10.971 17.05 11 17.05C11 17.05 11 17.05 11.029 17.05C16.7227 16.992 21.3125 12.5474 21.3125 11.124C21.3125 9.70058 16.7227 5.25604 11.029 5.19794ZM11 15.1909C8.7632 15.1909 6.9331 13.3608 6.9331 11.124C6.9331 8.8872 8.7632 7.05709 11 7.05709C13.2368 7.05709 15.0669 8.8872 15.0669 11.124C15.0669 13.3608 13.2368 15.1909 11 15.1909Z" fill="white"/>
</symbol></svg>