<svg xmlns="http://www.w3.org/2000/svg" xlink="http://www.w3.org/1999/xlink" width="0" height="0" style="display:none;"><symbol viewBox="0 0 30 30" id="icon-arrow-down">
<path fill-rule="evenodd" clip-rule="evenodd" d="M23.642 21.9563L15.8642 29.6461C15.3869 30.118 14.6131 30.118 14.1358 29.6461L6.35796 21.9563C5.88068 21.4844 5.88068 20.7193 6.35796 20.2475C6.83525 19.7756 7.60908 19.7756 8.08637 20.2475L13.7778 25.8745L13.7778 2.20833C13.7778 1.54099 14.325 1 15 1C15.675 1 16.2222 1.54099 16.2222 2.20833L16.2222 25.8745L21.9136 20.2475C22.3909 19.7756 23.1647 19.7756 23.642 20.2475C24.1193 20.7193 24.1193 21.4844 23.642 21.9563Z" fill="black"/>
</symbol><symbol viewBox="0 0 7 4" id="icon-arrow-dropdown">
<path d="M6.25439 0H1.63429C1.01065 0 0.698334 0.753998 1.13931 1.19497L3.44936 3.50503C3.72273 3.77839 4.16594 3.77839 4.43931 3.50503L6.74936 1.19497C7.19034 0.754 6.87802 0 6.25439 0Z" fill="#51525B"/>
</symbol><symbol viewBox="0 0 30 30" id="icon-arrow-left">
<path fill-rule="evenodd" clip-rule="evenodd" d="M21.7071 28.7071C21.3166 29.0976 20.6834 29.0976 20.2929 28.7071L7.29289 15.7071C6.90237 15.3166 6.90237 14.6834 7.29289 14.2929L20.2929 1.29289C20.6834 0.90237 21.3166 0.90237 21.7071 1.29289C22.0976 1.68342 22.0976 2.31658 21.7071 2.70711L9.41422 15L21.7071 27.2929C22.0976 27.6834 22.0976 28.3166 21.7071 28.7071Z" fill="black"/>
</symbol><symbol viewBox="0 0 30 30" id="icon-arrow-right">
<path fill-rule="evenodd" clip-rule="evenodd" d="M8.29289 1.29289C8.68342 0.902369 9.31658 0.902369 9.70711 1.29289L22.7071 14.2929C23.0976 14.6834 23.0976 15.3166 22.7071 15.7071L9.70711 28.7071C9.31658 29.0976 8.68342 29.0976 8.29289 28.7071C7.90237 28.3166 7.90237 27.6834 8.29289 27.2929L20.5858 15L8.29289 2.70711C7.90237 2.31658 7.90237 1.68342 8.29289 1.29289Z" fill="black"/>
</symbol><symbol viewBox="0 0 30 30" id="icon-arrow-up">
<path fill-rule="evenodd" clip-rule="evenodd" d="M6.35796 9.0437L14.1358 1.35391C14.6131 0.882028 15.3869 0.882028 15.8642 1.35391L23.642 9.0437C24.1193 9.51558 24.1193 10.2807 23.642 10.7525C23.1648 11.2244 22.3909 11.2244 21.9136 10.7525L16.2222 5.12551L16.2222 28.7917C16.2222 29.459 15.675 30 15 30C14.325 30 13.7778 29.459 13.7778 28.7917L13.7778 5.12551L8.08637 10.7525C7.60908 11.2244 6.83525 11.2244 6.35796 10.7525C5.88068 10.2807 5.88068 9.51558 6.35796 9.0437Z" fill="black"/>
</symbol><symbol viewBox="0 0 30 30" id="icon-bars">
<path fill-rule="evenodd" clip-rule="evenodd" d="M21.5625 0.9375C21.5625 0.419733 21.1428 0 20.625 0C20.1072 0 19.6875 0.419733 19.6875 0.9375V2.8125C18.1342 2.8125 16.875 4.0717 16.875 5.625V24.375C16.875 25.9283 18.1342 27.1875 19.6875 27.1875L19.6875 29.0625C19.6875 29.5803 20.1072 30 20.625 30C21.1428 30 21.5625 29.5803 21.5625 29.0625L21.5625 27.1875C23.1158 27.1875 24.375 25.9283 24.375 24.375V5.625C24.375 4.0717 23.1158 2.8125 21.5625 2.8125V0.9375ZM9.375 3.75C9.89277 3.75 10.3125 4.16973 10.3125 4.6875L10.3125 6.5625C11.8658 6.5625 13.125 7.8217 13.125 9.375V20.625C13.125 22.1783 11.8658 23.4375 10.3125 23.4375L10.3125 25.3125C10.3125 25.8303 9.89277 26.25 9.375 26.25C8.85723 26.25 8.4375 25.8303 8.4375 25.3125L8.4375 23.4375C6.8842 23.4375 5.625 22.1783 5.625 20.625V9.375C5.625 7.8217 6.8842 6.5625 8.4375 6.5625L8.4375 4.6875C8.4375 4.16973 8.85723 3.75 9.375 3.75ZM7.5 9.375C7.5 8.85723 7.91973 8.4375 8.4375 8.4375H10.3125C10.8303 8.4375 11.25 8.85723 11.25 9.375V20.625C11.25 21.1428 10.8303 21.5625 10.3125 21.5625H8.4375C7.91973 21.5625 7.5 21.1428 7.5 20.625V9.375Z" fill="black"/>
</symbol><symbol viewBox="0 0 30 30" id="icon-brush">
<path d="M26.5405 4.01432C26.3738 3.85037 26.1509 3.75598 25.9171 3.75027C25.6834 3.74457 25.4562 3.82799 25.2817 3.98362L11.4347 16.1727C11.3397 16.2568 11.2631 16.3596 11.2097 16.4747C11.1563 16.5897 11.1272 16.7146 11.1243 16.8414C11.1214 16.9683 11.1448 17.0943 11.1929 17.2117C11.241 17.3291 11.3129 17.4353 11.404 17.5236L14.3207 20.4404C14.4908 20.6139 14.7225 20.7132 14.9655 20.7167H14.9962C15.1239 20.7152 15.2499 20.6871 15.3662 20.6342C15.4825 20.5814 15.5865 20.5049 15.6717 20.4097L27.8914 6.56266C28.047 6.38814 28.1305 6.16095 28.1248 5.92719C28.1191 5.69342 28.0247 5.47058 27.8607 5.30384L26.5405 4.01432ZM14.9348 18.4447L13.3996 16.9095L15.5181 15.0367L16.8077 16.3262L14.9348 18.4447Z" fill="black"/>
<path d="M10.4518 18.6597C10.2818 18.4861 10.05 18.3868 9.80706 18.3833C8.70175 18.3833 6.64466 18.8746 5.23232 22.2519C4.40335 24.2476 3.05242 25.0766 2.74539 25.1687C2.53461 25.1803 2.33422 25.264 2.17776 25.4057C2.0213 25.5474 1.91826 25.7385 1.88589 25.9471C1.85353 26.1557 1.89379 26.3691 1.99995 26.5516C2.10611 26.734 2.27172 26.8745 2.46906 26.9494C3.79222 27.4639 5.19473 27.7444 6.61396 27.7784C7.73634 27.8009 8.84591 27.5367 9.83776 27.0109C11.5264 26.0898 12.6317 24.3704 13.1844 21.9142C13.2198 21.7618 13.2158 21.6029 13.1729 21.4525C13.1299 21.3021 13.0493 21.1651 12.9388 21.0545L10.4518 18.6597Z" fill="black"/>
</symbol><symbol viewBox="0 0 30 30" id="icon-camera">
<path d="M24.8679 7.14511H20.8103L19.5682 4.66088C19.2922 4.10883 18.7125 3.75 18.0777 3.75H11.8947C11.2599 3.75 10.6802 4.10883 10.4042 4.66088L9.16207 7.14511H5.1045C3.31033 7.14511 1.875 8.58044 1.875 10.347V22.8233C1.875 24.5899 3.31033 26.0528 5.1045 26.0528H24.8955C26.6621 26.0528 28.125 24.6175 28.125 22.8233V10.347C28.0974 8.58044 26.6621 7.14511 24.8679 7.14511ZM14.9862 22.4369C11.5083 22.4369 8.69282 19.6215 8.69282 16.1435C8.69282 12.6656 11.5083 9.87776 14.9862 9.87776C18.4641 9.87776 21.2796 12.6932 21.2796 16.1711C21.2796 19.6491 18.4641 22.4369 14.9862 22.4369Z" fill="black"/>
<path d="M14.986 11.8652C12.6398 11.8652 10.7077 13.7973 10.7077 16.1436C10.7077 18.4898 12.6398 20.422 14.986 20.422C17.3323 20.422 19.2644 18.4898 19.2644 16.1436C19.2644 13.7973 17.3323 11.8652 14.986 11.8652Z" fill="black"/>
</symbol><symbol viewBox="0 0 30 30" id="icon-chart">
<path d="M2.30946 18.604C1.79625 19.1172 0.898123 19.1172 0.38491 18.604C-0.128303 18.0908 -0.128303 17.1926 0.38491 16.6794L11.2907 5.90195C11.8039 5.38874 12.702 5.38874 13.2152 5.90195L17.7058 10.3926L25.2757 2.69437H23.0946C22.4531 2.69437 21.8115 2.05285 21.8115 1.41134C21.8115 0.641516 22.4531 0 23.0946 0H28.6116C29.3814 0 29.8947 0.641516 29.8947 1.41134V6.80007C29.8947 7.56989 29.3814 8.21141 28.6116 8.21141C27.8418 8.21141 27.2003 7.56989 27.2003 6.80007V4.61892L18.604 13.2152C18.0908 13.7284 17.1926 13.7284 16.6794 13.2152L12.1888 8.72462L2.30946 18.604Z" fill="black"/>
<path d="M2.05304 22.0683C2.05304 21.2984 2.56625 20.6569 3.33607 20.6569C4.10589 20.6569 4.74741 21.2984 4.74741 22.0683V27.9702C4.74741 28.74 4.10589 29.3815 3.33607 29.3815C2.56625 29.3815 2.05304 28.74 2.05304 27.9702V22.0683Z" fill="black"/>
<path d="M9.75122 15.1399C9.75122 14.4984 10.2644 13.8568 11.0343 13.8568C11.8041 13.8568 12.4456 14.4984 12.4456 15.1399V27.9702C12.4456 28.74 11.8041 29.3815 11.0343 29.3815C10.2644 29.3815 9.75122 28.74 9.75122 27.9702V15.1399Z" fill="black"/>
<path d="M17.4493 17.3209C17.4493 16.5511 18.0908 16.0378 18.8606 16.0378C19.5021 16.0378 20.1436 16.5511 20.1436 17.3209V27.97C20.1436 28.7399 19.5021 29.3814 18.8606 29.3814C18.0908 29.3814 17.4493 28.7399 17.4493 27.97V17.3209Z" fill="black"/>
<path d="M25.1473 10.9057C25.1473 10.2642 25.7889 9.6227 26.5587 9.6227C27.3285 9.6227 27.8417 10.2642 27.8417 10.9057V27.9701C27.8417 28.7399 27.3285 29.3814 26.5587 29.3814C25.7889 29.3814 25.1473 28.7399 25.1473 27.9701V10.9057Z" fill="black"/>
</symbol><symbol viewBox="0 0 30 30" id="icon-circle">
<circle cx="15" cy="15" r="11.25" fill="black"/>
</symbol><symbol viewBox="0 0 30 30" id="icon-close">
<g clip-path="url(#clip0)">
<path fill-rule="evenodd" clip-rule="evenodd" d="M3.09709 24.1962C2.57216 24.7211 2.57216 25.5722 3.09709 26.0971C3.62202 26.622 4.47309 26.622 4.99801 26.0971L15 16.0952L25.002 26.0971C25.5269 26.6221 26.378 26.6221 26.9029 26.0971C27.4278 25.5722 27.4278 24.7211 26.9029 24.1962L16.9009 14.1942L26.0971 4.99802C26.622 4.4731 26.622 3.62202 26.0971 3.0971C25.5722 2.57217 24.7211 2.57217 24.1962 3.0971L15 12.2933L5.8038 3.09712C5.27888 2.5722 4.4278 2.5722 3.90288 3.09712C3.37795 3.62205 3.37795 4.47312 3.90288 4.99805L13.0991 14.1942L3.09709 24.1962Z" fill="black"/>
</g>
<defs>
<clipPath id="clip0">
<rect width="30" height="30" fill="white"/>
</clipPath>
</defs>
</symbol><symbol viewBox="0 0 16 16" id="icon-close_icon">
<g clip-path="url(#clip0)">
<path fill-rule="evenodd" clip-rule="evenodd" d="M2.99036 12.061C2.7951 12.2562 2.7951 12.5728 2.99036 12.7681C3.18563 12.9633 3.50221 12.9633 3.69747 12.7681L8 8.46556L12.3025 12.7681C12.4978 12.9633 12.8144 12.9633 13.0096 12.7681C13.2049 12.5728 13.2049 12.2562 13.0096 12.061L8.70711 7.75845L12.7681 3.69742C12.9634 3.50215 12.9634 3.18557 12.7681 2.99031C12.5729 2.79505 12.2563 2.79505 12.061 2.99031L8 7.05134L3.93897 2.99031C3.7437 2.79505 3.42712 2.79505 3.23186 2.99031C3.0366 3.18557 3.0366 3.50215 3.23186 3.69742L7.29289 7.75845L2.99036 12.061Z" fill="#15161D" fill-opacity="0.6"/>
</g>
<defs>
<clipPath id="clip0">
<rect width="16" height="16" fill="white"/>
</clipPath>
</defs>
</symbol><symbol viewBox="0 0 30 30" id="icon-delete">
<path d="M27.3087 5.16356H20.633L20.3196 2.91947C20.2883 2.15176 19.5674 1.53168 18.7525 1.53168H10.8545C10.0396 1.53168 9.31878 2.15176 9.28744 2.91947L8.97403 5.16356H2.29832C1.64015 5.16356 1.13869 5.63601 1.13869 6.25608C1.13869 6.87616 1.64015 7.3486 2.29832 7.3486H3.77136L6.74879 26.3643C6.78013 27.1321 7.50098 27.7226 8.31586 27.7226H21.2285C22.0434 27.7226 22.7015 27.1321 22.7956 26.3643L25.773 7.37813H27.3087C27.9669 7.37813 28.4684 6.90569 28.4684 6.28561C28.4684 5.66553 27.9669 5.16356 27.3087 5.16356ZM11.5127 3.77577H18.0317L18.2197 5.16356H11.356L11.5127 3.77577ZM20.5703 25.5376H9.03671L6.18465 7.37813H23.4224L20.5703 25.5376Z" fill="black"/>
<path fill-rule="evenodd" clip-rule="evenodd" d="M11.8936 10.074C12.5215 10.0391 13.0588 10.5198 13.0937 11.1478L13.6631 21.3964C13.698 22.0243 13.2172 22.5617 12.5893 22.5965C11.9613 22.6314 11.424 22.1507 11.3891 21.5227L10.8198 11.2741C10.7849 10.6462 11.2656 10.1088 11.8936 10.074ZM18.283 10.074C18.9109 10.1088 19.3917 10.6462 19.3568 11.2741L18.7874 21.5227C18.7525 22.1507 18.2152 22.6314 17.5873 22.5965C16.9593 22.5617 16.4786 22.0243 16.5134 21.3964L17.0828 11.1478C17.1177 10.5198 17.655 10.0391 18.283 10.074Z" fill="black"/>
</symbol><symbol viewBox="0 0 30 30" id="icon-full-screen">
<path fill-rule="evenodd" clip-rule="evenodd" d="M3.82828 3C2.26627 3 1 4.26414 1 5.82353V24.1765C1 25.7359 2.26627 27 3.82828 27H26.1717C27.7337 27 29 25.7359 29 24.1765V5.82353C29 4.26414 27.7337 3 26.1717 3H3.82828ZM27.0202 7.51765H2.9798V23.6118C2.9798 24.5474 3.73956 25.3059 4.67677 25.3059H25.3232C26.2604 25.3059 27.0202 24.5474 27.0202 23.6118V7.51765Z" fill="black"/>
</symbol><symbol viewBox="0 0 30 30" id="icon-full-window">
<g clip-path="url(#clip0)">
<path fill-rule="evenodd" clip-rule="evenodd" d="M28.125 7.5H1.875V22.5H28.125V7.5ZM1.875 5.625C0.839466 5.625 0 6.46447 0 7.5V22.5C0 23.5355 0.839466 24.375 1.875 24.375H28.125C29.1605 24.375 30 23.5355 30 22.5V7.5C30 6.46447 29.1605 5.625 28.125 5.625H1.875Z" fill="black"/>
<path fill-rule="evenodd" clip-rule="evenodd" d="M21.8371 12.4621C22.2032 12.096 22.7968 12.096 23.1629 12.4621L25.0379 14.3371C25.404 14.7032 25.404 15.2968 25.0379 15.6629L23.1629 17.5379C22.7968 17.904 22.2032 17.904 21.8371 17.5379C21.471 17.1718 21.471 16.5782 21.8371 16.2121L22.1117 15.9375H18.75C18.2322 15.9375 17.8125 15.5178 17.8125 15C17.8125 14.4822 18.2322 14.0625 18.75 14.0625H22.1117L21.8371 13.7879C21.471 13.4218 21.471 12.8282 21.8371 12.4621Z" fill="black"/>
<path fill-rule="evenodd" clip-rule="evenodd" d="M8.16291 17.5379C7.7968 17.904 7.2032 17.904 6.83709 17.5379L4.96209 15.6629C4.59597 15.2968 4.59597 14.7032 4.96209 14.3371L6.83709 12.4621C7.2032 12.096 7.7968 12.096 8.16291 12.4621C8.52903 12.8282 8.52903 13.4218 8.16291 13.7879L7.88833 14.0625L11.25 14.0625C11.7678 14.0625 12.1875 14.4822 12.1875 15C12.1875 15.5178 11.7678 15.9375 11.25 15.9375L7.88833 15.9375L8.16291 16.2121C8.52903 16.5782 8.52903 17.1718 8.16291 17.5379Z" fill="black"/>
</g>
<defs>
<clipPath id="clip0">
<rect width="30" height="30" fill="white"/>
</clipPath>
</defs>
</symbol><symbol viewBox="0 0 30 30" id="icon-line">
<path fill-rule="evenodd" clip-rule="evenodd" d="M26.4579 4.86782C26.824 5.23394 26.824 5.82753 26.4579 6.19364L7.15871 25.4928C6.79259 25.8589 6.199 25.8589 5.83288 25.4928C5.46676 25.1267 5.46676 24.5331 5.83288 24.167L25.1321 4.86782C25.4982 4.5017 26.0918 4.5017 26.4579 4.86782Z" fill="black"/>
</symbol><symbol viewBox="0 0 30 30" id="icon-list">
<path fill-rule="evenodd" clip-rule="evenodd" d="M3 11.9C3 11.2925 3.49249 10.8 4.1 10.8H25.9C26.5075 10.8 27 11.2925 27 11.9C27 12.5075 26.5075 13 25.9 13H4.1C3.49249 13 3 12.5075 3 11.9Z" fill="black"/>
<path fill-rule="evenodd" clip-rule="evenodd" d="M3 18.9C3 18.2925 3.49249 17.8 4.1 17.8H18.9C19.5075 17.8 20 18.2925 20 18.9C20 19.5075 19.5075 20 18.9 20H4.1C3.49249 20 3 19.5075 3 18.9Z" fill="black"/>
<path fill-rule="evenodd" clip-rule="evenodd" d="M3 4.9C3 4.29249 3.49249 3.8 4.1 3.8H18.9C19.5075 3.8 20 4.29249 20 4.9C20 5.50751 19.5075 6 18.9 6H4.1C3.49249 6 3 5.50751 3 4.9Z" fill="black"/>
<path fill-rule="evenodd" clip-rule="evenodd" d="M3 25.9C3 25.2925 3.49249 24.8 4.1 24.8H25.9C26.5075 24.8 27 25.2925 27 25.9C27 26.5075 26.5075 27 25.9 27H4.1C3.49249 27 3 26.5075 3 25.9Z" fill="black"/>
</symbol><symbol viewBox="0 0 15 19" id="icon-logo">
<path fill-rule="evenodd" clip-rule="evenodd" d="M6.88086 17.6653C6.63513 17.6653 6.43593 17.4661 6.43593 17.2204L6.43593 16.3306C5.69874 16.3306 5.10113 15.7329 5.10113 14.9958L5.10113 7.65659C5.10113 6.91941 5.69874 6.3218 6.43593 6.3218L6.43593 5.43194C6.43593 5.18621 6.63513 4.98701 6.88086 4.98701C7.12659 4.98701 7.32579 5.18621 7.32579 5.43194L7.32579 6.3218C8.06297 6.3218 8.66058 6.91941 8.66058 7.65659L8.66058 14.9958C8.66058 15.7329 8.06297 16.3306 7.32579 16.3306L7.32579 17.2204C7.32579 17.4661 7.12658 17.6653 6.88086 17.6653ZM7.77072 14.9958C7.77072 15.2415 7.57152 15.4407 7.32579 15.4407L6.43593 15.4407C6.1902 15.4407 5.99099 15.2415 5.99099 14.9958L5.991 7.65659C5.991 7.41086 6.1902 7.21166 6.43593 7.21166L7.32579 7.21166C7.57152 7.21166 7.77072 7.41086 7.77072 7.65659L7.77072 14.9958Z" fill="#4BB9F7" fill-opacity="0.5"/>
<path fill-rule="evenodd" clip-rule="evenodd" d="M1.33479 12.7929C1.33479 13.0386 1.534 13.2378 1.77972 13.2378C2.02545 13.2378 2.22466 13.0386 2.22466 12.7929L2.22466 11.903C2.96184 11.903 3.55945 11.3054 3.55945 10.5682L3.55945 3.66959C3.55945 2.93241 2.96184 2.3348 2.22466 2.3348L2.22466 1.44494C2.22466 1.19921 2.02545 1.00001 1.77972 1.00001C1.534 1.00001 1.33479 1.19921 1.33479 1.44494L1.33479 2.3348C0.597608 2.3348 1.37776e-06 2.93241 1.31332e-06 3.66959L7.1022e-07 10.5682C6.45773e-07 11.3054 0.597607 11.903 1.33479 11.903L1.33479 12.7929Z" fill="#3FA7E1"/>
<path fill-rule="evenodd" clip-rule="evenodd" d="M13.2247 0.444931C13.2247 0.199203 13.0255 3.54141e-07 12.7797 3.11177e-07C12.534 2.68212e-07 12.3348 0.199203 12.3348 0.444931L12.3348 1.33479C11.5976 1.33479 11 1.9324 11 2.66959L11 16.0175C11 16.7547 11.5976 17.3523 12.3348 17.3523L12.3348 18.2422C12.3348 18.4879 12.534 18.6871 12.7797 18.6871C13.0255 18.6871 13.2247 18.4879 13.2247 18.2422L13.2247 17.3523C13.9618 17.3523 14.5594 16.7547 14.5594 16.0175L14.5594 2.66959C14.5594 1.9324 13.9618 1.33479 13.2247 1.33479L13.2247 0.444931Z" fill="#3FA7E1"/>
</symbol><symbol viewBox="0 0 16 16" id="icon-maximaze">
<path fill-rule="evenodd" clip-rule="evenodd" d="M3.02364 2.64569C2.32784 2.64569 1.76379 3.20974 1.76379 3.90553V12.0945C1.76379 12.7903 2.32784 13.3544 3.02364 13.3544H12.9764C13.6722 13.3544 14.2362 12.7903 14.2362 12.0945V3.90553C14.2362 3.20974 13.6722 2.64569 12.9764 2.64569H3.02364ZM13.3543 4.66144H2.64568V11.8425C2.64568 12.26 2.98411 12.5984 3.40159 12.5984H12.5984C13.0159 12.5984 13.3543 12.26 13.3543 11.8425V4.66144Z" fill="white" fill-opacity="0.6"/>
</symbol><symbol viewBox="0 0 30 30" id="icon-mouse">
<path d="M25.7478 14.889L19.7905 16.6264C19.3348 16.7551 19.1395 17.2699 19.3999 17.656L24.1853 24.9276C24.3806 25.2494 24.3155 25.6676 23.9899 25.8929L20.6695 28.0164C20.3439 28.2095 19.9208 28.1451 19.6929 27.8234L14.9075 20.5518C14.6471 20.1657 14.0937 20.1335 13.8007 20.4874L9.73149 25.1207C9.34084 25.5711 8.59211 25.3459 8.49445 24.7667L5.62974 2.66247C5.56463 2.08332 6.18315 1.66504 6.70401 1.98679L25.9106 13.6342C26.4315 13.9559 26.3338 14.7281 25.7478 14.889Z" fill="black"/>
</symbol><symbol viewBox="0 0 22 22" id="icon-orders">
<path fill-rule="evenodd" clip-rule="evenodd" d="M15.7124 4.77638C16.112 4.37059 16.7649 4.36561 17.1707 4.76525L20.6611 8.20275C20.9593 8.49643 21.0504 8.94122 20.8918 9.3285C20.7331 9.71579 20.356 9.96875 19.9375 9.96875H4.8125C4.24296 9.96875 3.78125 9.50704 3.78125 8.9375C3.78125 8.36796 4.24296 7.90625 4.8125 7.90625H17.4207L15.7235 6.23475C15.3177 5.83511 15.3127 5.18217 15.7124 4.77638Z" fill="white" fill-opacity="0.8"/>
<path fill-rule="evenodd" clip-rule="evenodd" d="M7.67723 17.8624C7.23135 18.3375 6.49884 18.3375 6.05296 17.8624L1.12433 12.6102C1.03055 12.5103 1.00509 12.3642 1.05954 12.2384C1.11399 12.1127 1.23795 12.0313 1.37499 12.0313L16.3935 12.0313C17.0421 12.0313 17.5313 12.5849 17.5313 13.2212C17.5313 13.8574 17.0421 14.4111 16.3935 14.4111L6.00289 14.4111L7.67723 16.1953C8.11143 16.658 8.11143 17.3997 7.67723 17.8624L7.67723 17.8624ZM6.55429 17.3919C6.7286 17.5777 7.00159 17.5777 7.1759 17.3919C7.36187 17.1938 7.36187 16.8639 7.17589 16.6657L4.95825 14.3025C4.86447 14.2026 4.83901 14.0565 4.89346 13.9307C4.94791 13.805 5.07187 13.7236 5.20892 13.7236L16.3935 13.7236C16.6219 13.7236 16.8438 13.5195 16.8438 13.2212C16.8438 12.9228 16.6219 12.7188 16.3935 12.7188L2.16897 12.7188L6.55429 17.3919Z" fill="white" fill-opacity="0.8"/>
</symbol><symbol viewBox="0 0 30 30" id="icon-pen">
<path d="M10.5269 23.2944L22.5347 11.2866L17.1776 5.92943L5.16882 17.9363C5.11156 17.9926 5.0712 18.0621 5.04961 18.1381L3.17221 24.709C3.12528 24.8733 3.17033 25.0498 3.29142 25.1709C3.3806 25.261 3.50075 25.3089 3.62372 25.3089C3.6669 25.3089 3.71008 25.3032 3.75326 25.2901L10.3242 23.4127C10.4002 23.392 10.4706 23.3507 10.5269 23.2944ZM9.72527 22.6082L6.1676 23.6248C5.88787 23.04 5.42321 22.5763 4.8384 22.2956L5.85501 18.738H7.37852V21.0847H9.72527V22.6082Z" fill="black"/>
<path d="M25.7645 4.07461L24.3893 2.69941C23.2901 1.6002 21.5065 1.6002 20.4073 2.69941L18.5065 4.60028L23.8636 9.95743L25.7645 8.05657C26.8637 6.95735 26.8637 5.17382 25.7645 4.07461Z" fill="black"/>
<path d="M22.398 26.2477H5.50138C4.98228 26.2477 4.56268 26.6682 4.56268 27.1863C4.56268 27.7045 4.98228 28.125 5.50138 28.125H22.398C22.9171 28.125 23.3367 27.7045 23.3367 27.1863C23.3367 26.6682 22.9171 26.2477 22.398 26.2477Z" fill="black"/>
</symbol><symbol viewBox="0 0 22 22" id="icon-position">
<path fill-rule="evenodd" clip-rule="evenodd" d="M5.8379 1.66157C6.22404 1.27948 6.83846 1.27948 7.2246 1.66157L10.0108 4.41862C10.405 4.80869 10.4141 5.45041 10.0312 5.85195C9.64825 6.25349 9.01827 6.26279 8.62409 5.87272L7.52632 4.78643V16.1739C7.52632 16.7337 7.08081 17.1875 6.53125 17.1875C5.98169 17.1875 5.53618 16.7337 5.53618 16.1739V4.78643L4.43841 5.87272C4.04423 6.26279 3.41425 6.25349 3.03133 5.85195C2.6484 5.45041 2.65753 4.80869 3.05172 4.41862L5.8379 1.66157Z" fill="white" fill-opacity="0.8"/>
<path fill-rule="evenodd" clip-rule="evenodd" d="M15.8072 20.2351C15.2402 20.755 14.3223 20.755 13.7553 20.2351L10.7389 17.4689C10.1704 16.9475 10.1704 16.101 10.7389 15.5796C11.3059 15.0597 12.2238 15.0597 12.7908 15.5796L13.3289 16.0731L13.3289 5.45956C13.3289 4.71996 13.9819 4.125 14.7813 4.125C15.5806 4.125 16.2336 4.71996 16.2336 5.45956L16.2336 16.0731L16.7717 15.5796C17.3387 15.0597 18.2566 15.0597 18.8236 15.5796C19.3921 16.101 19.3921 16.9475 18.8236 17.4689L15.8072 20.2351ZM14.3852 19.6498C14.6036 19.8501 14.9589 19.8501 15.1773 19.6498L18.1937 16.8836C18.4104 16.6848 18.4104 16.3637 18.1937 16.1649C17.9753 15.9646 17.62 15.9646 17.4016 16.1649L15.3398 18.0557L15.3398 5.45956C15.3398 5.18068 15.0925 4.95 14.7812 4.95C14.47 4.95 14.2227 5.18068 14.2227 5.45956L14.2227 18.0557L12.1609 16.1649C11.9425 15.9646 11.5872 15.9646 11.3688 16.1649C11.1521 16.3637 11.1521 16.6848 11.3688 16.8836L14.3852 19.6498Z" fill="white" fill-opacity="0.8"/>
</symbol><symbol viewBox="0 0 6 25" id="icon-resize">
<line x1="1" y1="1" x2="0.999999" y2="24" stroke="white" stroke-opacity="0.3" stroke-width="2" stroke-linecap="round"/>
<line x1="5" y1="1" x2="5" y2="24" stroke="white" stroke-opacity="0.3" stroke-width="2" stroke-linecap="round"/>
</symbol><symbol viewBox="0 0 26 7" id="icon-resize_vertical">
<path fill-rule="evenodd" clip-rule="evenodd" d="M25.5 1.5C25.5 2.05228 25.0523 2.5 24.5 2.5L1.5 2.5C0.947716 2.5 0.5 2.05228 0.5 1.5C0.5 0.947713 0.947716 0.499998 1.5 0.499998L24.5 0.5C25.0523 0.5 25.5 0.947715 25.5 1.5Z" fill="#5B5C61"/>
<path fill-rule="evenodd" clip-rule="evenodd" d="M25.5 5.5C25.5 6.05228 25.0523 6.5 24.5 6.5L1.5 6.5C0.947716 6.5 0.5 6.05228 0.5 5.5C0.5 4.94771 0.947716 4.5 1.5 4.5L24.5 4.5C25.0523 4.5 25.5 4.94772 25.5 5.5Z" fill="#5B5C61"/>
</symbol><symbol viewBox="0 0 30 30" id="icon-text">
<path d="M17.58 24.375L16.2213 19.9146H9.38965L8.03101 24.375H3.75L10.3638 5.55908H15.2216L21.861 24.375H17.58ZM15.2728 16.582C14.0167 12.5403 13.3075 10.2545 13.1451 9.72473C12.9913 9.19495 12.8802 8.77625 12.8119 8.46863C12.5299 9.56238 11.7224 12.2668 10.3894 16.582H15.2728Z" fill="black"/>
<path fill-rule="evenodd" clip-rule="evenodd" d="M25.3125 1.875C25.8303 1.875 26.25 2.29473 26.25 2.8125L26.25 27.1875C26.25 27.7053 25.8303 28.125 25.3125 28.125C24.7947 28.125 24.375 27.7053 24.375 27.1875L24.375 2.8125C24.375 2.29473 24.7947 1.875 25.3125 1.875Z" fill="black"/>
</symbol><symbol viewBox="0 0 22 22" id="icon-watch">
<path d="M11.2033 10.7463C10.9418 10.6301 10.7385 10.543 10.6513 10.4268C10.5351 10.3106 10.5061 10.1653 10.5061 9.99102C10.5061 9.81672 10.5642 9.64243 10.6513 9.52623C10.7385 9.41004 10.8837 9.35194 11.0871 9.35194C11.2904 9.35194 11.4357 9.43908 11.5519 9.58433C11.6681 9.72958 11.6971 9.90387 11.7262 10.1363C11.7262 10.1653 11.7552 10.1944 11.7843 10.1944H12.5976C12.6557 10.1944 12.6848 10.1653 12.6848 10.1072C12.6848 10.1072 12.6848 10.1072 12.6848 10.0782C12.6848 9.67148 12.5686 9.35194 12.3362 9.09049C12.1038 8.82905 11.8133 8.65475 11.4357 8.59665C11.4066 8.59665 11.3776 8.56761 11.3776 8.53856V7.92852C11.3776 7.89947 11.3485 7.87042 11.3195 7.87042H10.8837C10.8547 7.87042 10.8256 7.89947 10.8256 7.92852V8.56761C10.8256 8.59666 10.7966 8.6257 10.7675 8.6257C10.3899 8.6838 10.0703 8.82905 9.83795 9.06144C9.60555 9.29384 9.46031 9.61338 9.46031 9.99102C9.46031 10.3977 9.5765 10.7173 9.83795 10.9496C10.0703 11.182 10.448 11.3854 10.9709 11.5597C11.2323 11.6468 11.4066 11.763 11.5228 11.8792C11.639 11.9954 11.6681 12.1407 11.6681 12.344C11.6681 12.5183 11.61 12.6926 11.4938 12.7798C11.3776 12.896 11.2323 12.954 11.029 12.954C10.8256 12.954 10.6223 12.896 10.5061 12.7507C10.3608 12.6345 10.3027 12.4312 10.3027 12.1407C10.3027 12.1116 10.2737 12.0826 10.2446 12.0826H9.34411C9.31506 12.0826 9.28601 12.1116 9.28601 12.1407C9.28601 12.1988 9.28601 12.2569 9.28601 12.2859C9.31506 12.6926 9.43126 13.0121 9.6927 13.2445C9.95414 13.506 10.3027 13.6512 10.7094 13.6803C10.7385 13.6803 10.7675 13.7093 10.7675 13.7384V14.3194C10.7675 14.3484 10.7966 14.3775 10.8256 14.3775H11.2614C11.2904 14.3775 11.3195 14.3484 11.3195 14.3194V13.7384C11.3195 13.7093 11.3485 13.6803 11.3776 13.6803C11.7843 13.6222 12.1038 13.506 12.3362 13.2736C12.5686 13.0412 12.7138 12.7217 12.7138 12.315C12.7138 11.9083 12.5976 11.5887 12.3362 11.3563C12.0747 11.153 11.6971 10.9496 11.2033 10.7463Z" fill="white"/>
<path d="M11.029 5.19794C11 5.19794 11 5.19794 11.029 5.19794C11 5.19794 11 5.19794 11 5.19794C5.27729 5.25604 0.6875 9.70058 0.6875 11.124C0.6875 12.5474 5.27729 16.992 10.971 17.05C10.971 17.05 10.971 17.05 11 17.05C11 17.05 11 17.05 11.029 17.05C16.7227 16.992 21.3125 12.5474 21.3125 11.124C21.3125 9.70058 16.7227 5.25604 11.029 5.19794ZM11 15.1909C8.7632 15.1909 6.9331 13.3608 6.9331 11.124C6.9331 8.8872 8.7632 7.05709 11 7.05709C13.2368 7.05709 15.0669 8.8872 15.0669 11.124C15.0669 13.3608 13.2368 15.1909 11 15.1909Z" fill="white"/>
</symbol><symbol viewBox="0 0 30 30" id="icon-zoom">
<path fill-rule="evenodd" clip-rule="evenodd" d="M18.0965 7.60892C19.3726 9.13826 19.9886 11.075 19.8113 13.0686C19.6383 15.0578 18.7043 16.8574 17.1786 18.1448C15.838 19.2706 14.1354 19.8921 12.3884 19.8921C10.1743 19.8921 8.08878 18.9195 6.66803 17.2208C4.0231 14.0612 4.43784 9.33607 7.58558 6.68486C8.93006 5.55904 10.6291 4.93761 12.3801 4.93761C14.5902 4.93761 16.6754 5.91014 18.0965 7.60892ZM26.24 26.0981C26.3006 25.4041 26.0832 24.726 25.6405 24.1936L20.9183 18.5562C23.6918 14.6905 23.5067 9.31164 20.4352 5.63982C18.4346 3.25105 15.496 1.875 12.3762 1.875C9.91248 1.875 7.51325 2.75059 5.62115 4.34456C1.18515 8.07706 0.605297 14.735 4.32895 19.1899C6.32563 21.5786 9.26854 22.9507 12.384 22.9507C13.9581 22.9507 15.5243 22.5914 16.9333 21.9136L21.6511 27.5466C22.1461 28.1397 22.8749 28.4786 23.6478 28.4786C24.2556 28.4786 24.8515 28.2607 25.3182 27.8694C25.8457 27.4217 26.1799 26.792 26.24 26.0981ZM12.4605 7.58566C12.9836 7.58566 13.4077 8.00971 13.4077 8.5328V11.3742H16.2491C16.7722 11.3742 17.1962 11.7983 17.1962 12.3214C17.1962 12.8445 16.7722 13.2685 16.2491 13.2685H13.4077V16.1099C13.4077 16.633 12.9836 17.0571 12.4605 17.0571C11.9374 17.0571 11.5134 16.633 11.5134 16.1099V13.2685H8.67194C8.14885 13.2685 7.7248 12.8445 7.7248 12.3214C7.7248 11.7983 8.14885 11.3742 8.67194 11.3742H11.5134V8.5328C11.5134 8.00971 11.9374 7.58566 12.4605 7.58566Z" fill="black"/>
</symbol></svg>