<?xml version="1.0" standalone="no"?>
<!DOCTYPE svg PUBLIC "-//W3C//DTD SVG 1.1//EN" "http://www.w3.org/Graphics/SVG/1.1/DTD/svg11.dtd" >
<svg xmlns="http://www.w3.org/2000/svg">
<defs>
  <font id="icon" horiz-adv-x="3714.285714285714">
    <font-face font-family="icon"
      units-per-em="1000" ascent="1000"
      descent="0" />
    <missing-glyph horiz-adv-x="0" />
    <glyph glyph-name="arrow-down"
      unicode="&#xEA01;"
      horiz-adv-x="1000.0000000000001" d="M788.0666666666667 268.1233333333335L528.8066666666667 11.7966666666667C512.8966666666668 -3.9333333333333 487.1033333333334 -3.9333333333333 471.1933333333334 11.7966666666667L211.932 268.1233333333335C196.0226666666667 283.8533333333334 196.0226666666667 309.3566666666667 211.932 325.0833333333335C227.8416666666667 340.8133333333334 253.636 340.8133333333334 269.5456666666667 325.0833333333335L459.26 137.5166666666667L459.26 926.3890000000002C459.26 948.6336666666668 477.5 966.6666666666669 500.0000000000001 966.6666666666669C522.5000000000001 966.6666666666669 540.7400000000001 948.6336666666668 540.7400000000001 926.3890000000002L540.7400000000001 137.5166666666667L730.4533333333334 325.0833333333335C746.3633333333333 340.8133333333334 772.1566666666668 340.8133333333334 788.0666666666667 325.0833333333335C803.9766666666667 309.3566666666667 803.9766666666667 283.8533333333334 788.0666666666667 268.1233333333335z" />
    <glyph glyph-name="arrow-dropdown"
      unicode="&#xEA02;"
      horiz-adv-x="1750" d="M1563.5975 1000H408.5725C252.6625 1000 174.5835 811.5005 284.8275 701.2574999999999L862.34 123.7425C930.6825 55.4025 1041.485 55.4025 1109.8274999999999 123.7425L1687.3400000000001 701.2574999999999C1797.585 811.5 1719.505 1000 1563.5975 1000z" />
    <glyph glyph-name="arrow-left"
      unicode="&#xEA03;"
      horiz-adv-x="1000.0000000000001" d="M723.57 43.0966666666667C710.5533333333334 30.08 689.4466666666667 30.08 676.4300000000001 43.0966666666667L243.0963333333334 476.4300000000001C230.0790000000001 489.4466666666668 230.0790000000001 510.5533333333334 243.0963333333334 523.5700000000002L676.4300000000001 956.9036666666668C689.4466666666667 969.9210000000002 710.5533333333334 969.9210000000002 723.57 956.9036666666668C736.5866666666667 943.886 736.5866666666667 922.7806666666668 723.57 909.7630000000001L313.8073333333334 500.0000000000001L723.57 90.2366666666667C736.5866666666667 77.2200000000001 736.5866666666667 56.1133333333333 723.57 43.0966666666667z" />
    <glyph glyph-name="arrow-right"
      unicode="&#xEA04;"
      horiz-adv-x="1000.0000000000001" d="M276.4296666666667 956.9036666666668C289.4473333333334 969.9210333333334 310.5526666666667 969.9210333333334 323.5703333333334 956.9036666666668L756.9033333333334 523.5700000000002C769.9200000000001 510.5533333333334 769.9200000000001 489.4466666666668 756.9033333333334 476.4300000000001L323.5703333333334 43.0966666666667C310.5526666666667 30.08 289.4473333333334 30.08 276.4296666666667 43.0966666666667C263.4123333333334 56.1133333333333 263.4123333333334 77.2200000000001 276.4296666666667 90.2366666666667L686.1933333333334 500.0000000000001L276.4296666666667 909.7630000000001C263.4123333333334 922.7806666666668 263.4123333333334 943.886 276.4296666666667 956.9036666666668z" />
    <glyph glyph-name="arrow-up"
      unicode="&#xEA05;"
      horiz-adv-x="1000.0000000000001" d="M211.932 698.5433333333335L471.1933333333334 954.8696666666668C487.1033333333334 970.5990666666668 512.8966666666668 970.5990666666668 528.8066666666667 954.8696666666668L788.0666666666667 698.5433333333335C803.9766666666667 682.8140000000001 803.9766666666667 657.3100000000002 788.0666666666667 641.5833333333335C772.1600000000001 625.8533333333335 746.3633333333333 625.8533333333335 730.4533333333334 641.5833333333335L540.7400000000001 829.1496666666667L540.7400000000001 40.2766666666668C540.7400000000001 18.0333333333334 522.5000000000001 0 500.0000000000001 0C477.5 0 459.26 18.0333333333334 459.26 40.2766666666668L459.26 829.1496666666667L269.5456666666667 641.5833333333335C253.636 625.8533333333335 227.8416666666667 625.8533333333335 211.932 641.5833333333335C196.0226666666667 657.3100000000002 196.0226666666667 682.8140000000001 211.932 698.5433333333335z" />
    <glyph glyph-name="bars"
      unicode="&#xEA06;"
      horiz-adv-x="1000.0000000000001" d="M718.75 968.7500000000002C718.75 986.0089000000002 704.7600000000001 1000.0000000000002 687.5 1000.0000000000002C670.24 1000.0000000000002 656.25 986.0089000000002 656.25 968.7500000000002V906.2500000000002C604.4733333333334 906.2500000000002 562.5 864.2766666666668 562.5 812.5000000000001V187.5C562.5 135.7233333333334 604.4733333333334 93.75 656.25 93.75L656.25 31.25C656.25 13.99 670.24 0 687.5 0C704.7600000000001 0 718.75 13.99 718.75 31.25L718.75 93.75C770.5266666666668 93.75 812.5000000000001 135.7233333333334 812.5000000000001 187.5V812.5000000000001C812.5000000000001 864.2766666666668 770.5266666666668 906.2500000000002 718.75 906.2500000000002V968.7500000000002zM312.5 875.0000000000001C329.759 875.0000000000001 343.75 861.0090000000001 343.75 843.7500000000001L343.75 781.2500000000001C395.5266666666667 781.2500000000001 437.5000000000001 739.2766666666668 437.5000000000001 687.5000000000001V312.5000000000001C437.5000000000001 260.7233333333334 395.5266666666667 218.7500000000001 343.75 218.7500000000001L343.75 156.25C343.75 138.99 329.759 125 312.5 125C295.241 125 281.25 138.99 281.25 156.25L281.25 218.7500000000001C229.4733333333334 218.7500000000001 187.5 260.7233333333334 187.5 312.5000000000001V687.5000000000001C187.5 739.2766666666668 229.4733333333334 781.2500000000001 281.25 781.2500000000001L281.25 843.7500000000001C281.25 861.0090000000001 295.241 875.0000000000001 312.5 875.0000000000001zM250.0000000000001 687.5000000000001C250.0000000000001 704.7590000000001 263.9910000000001 718.7500000000001 281.25 718.7500000000001H343.75C361.01 718.7500000000001 375 704.7590000000001 375 687.5000000000001V312.5000000000001C375 295.24 361.01 281.2500000000001 343.75 281.2500000000001H281.25C263.9910000000001 281.2500000000001 250.0000000000001 295.24 250.0000000000001 312.5000000000001V687.5000000000001z" />
    <glyph glyph-name="brush"
      unicode="&#xEA07;"
      horiz-adv-x="1000.0000000000001" d="M884.6833333333334 866.1893333333335C879.1266666666667 871.6543333333334 871.6966666666667 874.8006666666668 863.9033333333334 874.9910000000001C856.1133333333333 875.1810000000002 848.5400000000001 872.4003333333335 842.7233333333335 867.2126666666668L381.1566666666667 460.9100000000001C377.9900000000001 458.1066666666668 375.4366666666667 454.6800000000001 373.6566666666667 450.8433333333335C371.8766666666667 447.0100000000001 370.9066666666667 442.8466666666667 370.81 438.6200000000001C370.7133333333334 434.3900000000001 371.4933333333334 430.1900000000001 373.0966666666667 426.2766666666668C374.7 422.3633333333334 377.0966666666668 418.8233333333334 380.1333333333334 415.8800000000001L477.3566666666667 318.6533333333334C483.0266666666667 312.87 490.7500000000001 309.5600000000001 498.85 309.4433333333334H499.8733333333334C504.1300000000001 309.4933333333335 508.33 310.4300000000001 512.2066666666667 312.1933333333334C516.0833333333334 313.9533333333335 519.55 316.5033333333335 522.39 319.6766666666668L929.7133333333334 781.2446666666667C934.9 787.0620000000001 937.6833333333334 794.6350000000001 937.4933333333335 802.4270000000001C937.3033333333334 810.2193333333335 934.1566666666668 817.6473333333334 928.69 823.2053333333334L884.6833333333334 866.1893333333335zM497.8266666666667 385.1766666666668L446.6533333333334 436.35L517.2700000000001 498.7766666666668L560.2566666666668 455.7933333333334L497.8266666666667 385.1766666666668zM348.3933333333334 378.01C342.7266666666667 383.7966666666668 335.0000000000001 387.1066666666667 326.9020000000001 387.2233333333335C290.0583333333334 387.2233333333335 221.4886666666667 370.8466666666667 174.4106666666667 258.2700000000001C146.7783333333333 191.7466666666668 101.7473333333334 164.1133333333335 91.513 161.0433333333333C84.487 160.6566666666668 77.8073333333334 157.8666666666668 72.592 153.1433333333334C67.3766666666667 148.4200000000001 63.942 142.0500000000001 62.863 135.0966666666668C61.7843333333333 128.1433333333334 63.1263333333333 121.0300000000001 66.665 114.9466666666667C70.2036666666667 108.8666666666667 75.724 104.1833333333334 82.302 101.6866666666667C126.4073333333334 84.5366666666668 173.1576666666667 75.1866666666667 220.4653333333334 74.0533333333333C257.8780000000001 73.3033333333334 294.8636666666667 82.11 327.9253333333334 99.6366666666668C384.2133333333334 130.34 421.0566666666668 187.6533333333334 439.48 269.5266666666667C440.6600000000001 274.6066666666667 440.5266666666667 279.9033333333333 439.0966666666667 284.9166666666668C437.6633333333334 289.9300000000001 434.9766666666668 294.4966666666668 431.2933333333334 298.1833333333334L348.3933333333334 378.01z" />
    <glyph glyph-name="camera"
      unicode="&#xEA08;"
      horiz-adv-x="1000.0000000000001" d="M828.9300000000001 761.8296666666668H693.6766666666667L652.2733333333334 844.6373333333335C643.0733333333334 863.0390000000001 623.75 875.0000000000001 602.59 875.0000000000001H396.49C375.3300000000001 875.0000000000001 356.0066666666667 863.0390000000001 346.8066666666667 844.6373333333335L305.4023333333334 761.8296666666668H170.15C110.3443333333333 761.8296666666668 62.5 713.9853333333335 62.5 655.1000000000001V239.2233333333334C62.5 180.3366666666667 110.3443333333333 131.5733333333334 170.15 131.5733333333334H829.85C888.7366666666667 131.5733333333334 937.5000000000002 179.4166666666668 937.5000000000002 239.2233333333334V655.1000000000001C936.58 713.9853333333335 888.7366666666667 761.8296666666668 828.9300000000001 761.8296666666668zM499.54 252.1033333333334C383.61 252.1033333333334 289.7606666666667 345.9500000000001 289.7606666666667 461.8833333333334C289.7606666666667 577.8133333333335 383.61 670.7413333333334 499.54 670.7413333333334C615.47 670.7413333333334 709.32 576.8933333333334 709.32 460.9633333333335C709.32 345.0300000000001 615.47 252.1033333333334 499.54 252.1033333333334zM499.5333333333334 604.4933333333335C421.3266666666667 604.4933333333335 356.9233333333334 540.0900000000001 356.9233333333334 461.8800000000001C356.9233333333334 383.6733333333334 421.3266666666667 319.2666666666668 499.5333333333334 319.2666666666668C577.7433333333333 319.2666666666668 642.1466666666666 383.6733333333334 642.1466666666666 461.8800000000001C642.1466666666666 540.0900000000001 577.7433333333333 604.4933333333335 499.5333333333334 604.4933333333335z" />
    <glyph glyph-name="chart"
      unicode="&#xEA09;"
      horiz-adv-x="1000.0000000000001" d="M76.982 379.8666666666668C59.875 362.7600000000001 29.9374333333333 362.7600000000001 12.8303333333333 379.8666666666668C-4.2767666666667 396.9733333333334 -4.2767666666667 426.9133333333334 12.8303333333333 444.02L376.3566666666667 803.2683333333334C393.4633333333334 820.3753333333334 423.4000000000001 820.3753333333334 440.5066666666667 803.2683333333334L590.1933333333334 653.5800000000002L842.5233333333334 910.1876666666668H769.82C748.4366666666667 910.1876666666668 727.05 931.5716666666668 727.05 952.9553333333334C727.05 978.6161333333334 748.4366666666667 1000.0000000000002 769.82 1000.0000000000002H953.72C979.38 1000.0000000000002 996.4900000000002 978.6161333333334 996.4900000000002 952.9553333333334V773.3310000000001C996.4900000000002 747.6703333333335 979.38 726.2863333333335 953.72 726.2863333333335C928.06 726.2863333333335 906.6766666666668 747.6703333333335 906.6766666666668 773.3310000000001V846.0360000000001L620.1333333333333 559.4933333333335C603.0266666666668 542.3866666666668 573.0866666666667 542.3866666666668 555.9800000000001 559.4933333333335L406.2933333333334 709.1793333333335L76.982 379.8666666666668zM68.4346666666667 264.39C68.4346666666667 290.0533333333334 85.5416666666667 311.4366666666667 111.2023333333333 311.4366666666667C136.863 311.4366666666667 158.247 290.0533333333334 158.247 264.39V67.6600000000001C158.247 42.0000000000001 136.863 20.6166666666668 111.2023333333333 20.6166666666668C85.5416666666667 20.6166666666668 68.4346666666667 42.0000000000001 68.4346666666667 67.6600000000001V264.39zM325.0406666666667 495.3366666666667C325.0406666666667 516.72 342.1466666666667 538.1066666666668 367.81 538.1066666666668C393.4700000000001 538.1066666666668 414.8533333333334 516.72 414.8533333333334 495.3366666666667V67.6600000000001C414.8533333333334 42.0000000000001 393.4700000000001 20.6166666666668 367.81 20.6166666666668C342.1466666666667 20.6166666666668 325.0406666666667 42.0000000000001 325.0406666666667 67.6600000000001V495.3366666666667zM581.6433333333334 422.6366666666667C581.6433333333334 448.2966666666668 603.0266666666668 465.4066666666668 628.6866666666667 465.4066666666668C650.07 465.4066666666668 671.4533333333334 448.2966666666668 671.4533333333334 422.6366666666667V67.6666666666667C671.4533333333334 42.0033333333334 650.07 20.6200000000001 628.6866666666667 20.6200000000001C603.0266666666668 20.6200000000001 581.6433333333334 42.0033333333334 581.6433333333334 67.6666666666667V422.6366666666667zM838.2433333333335 636.4766666666667C838.2433333333335 657.8600000000001 859.6300000000001 679.2433333333333 885.2900000000001 679.2433333333333C910.95 679.2433333333333 928.0566666666668 657.8600000000001 928.0566666666668 636.4766666666667V67.6633333333334C928.0566666666668 42.0033333333334 910.95 20.6200000000001 885.2900000000001 20.6200000000001C859.6300000000001 20.6200000000001 838.2433333333335 42.0033333333334 838.2433333333335 67.6633333333334V636.4766666666667z" />
    <glyph glyph-name="circle"
      unicode="&#xEA0A;"
      horiz-adv-x="1000.0000000000001" d="M125 500.0000000000001A375.0000000000001 375.0000000000001 0 0 1 875.0000000000001 500.0000000000001A375.0000000000001 375.0000000000001 0 0 1 125 500.0000000000001" />
    <glyph glyph-name="close"
      unicode="&#xEA0B;"
      horiz-adv-x="1000.0000000000001" d="M103.2363333333334 193.46C85.7386666666667 175.9633333333334 85.7386666666667 147.5933333333335 103.2363333333334 130.0966666666667C120.734 112.6 149.103 112.6 166.6003333333334 130.0966666666667L500.0000000000001 463.4933333333335L833.4 130.0966666666667C850.8966666666668 112.5966666666667 879.2666666666668 112.5966666666667 896.7633333333333 130.0966666666667C914.2600000000002 147.5933333333335 914.2600000000002 175.9633333333334 896.7633333333333 193.46L563.3633333333333 526.8600000000001L869.9033333333334 833.3993333333334C887.4000000000001 850.8966666666668 887.4000000000001 879.2660000000001 869.9033333333334 896.7633333333334C852.4066666666666 914.261 824.0366666666667 914.261 806.5400000000001 896.7633333333334L500.0000000000001 590.2233333333334L193.46 896.7626666666667C175.9626666666667 914.2600000000002 147.5933333333334 914.2600000000002 130.096 896.7626666666667C112.5983333333333 879.2650000000001 112.5983333333333 850.8960000000001 130.096 833.3983333333334L436.6366666666667 526.8600000000001L103.2363333333334 193.46z" />
    <glyph glyph-name="close_icon"
      unicode="&#xEA0C;"
      horiz-adv-x="1000" d="M186.8975 246.1875C174.69375 233.9875000000001 174.69375 214.1999999999999 186.8975 201.99375C199.101875 189.7937499999999 218.888125 189.7937499999999 231.091875 201.99375L500 470.9025L768.90625 201.99375C781.1125 189.7937499999999 800.9 189.7937499999999 813.1 201.99375C825.30625 214.1999999999999 825.30625 233.9875000000001 813.1 246.1875L544.194375 515.096875L798.00625 768.91125C810.2125 781.115625 810.2125 800.901875 798.00625 813.105625C785.8062500000001 825.309375 766.01875 825.309375 753.8125 813.105625L500 559.29125L246.185625 813.105625C233.98125 825.309375 214.195 825.309375 201.99125 813.105625C189.7875 800.901875 189.7875 781.115625 201.99125 768.91125L455.805625 515.096875L186.8975 246.1875zM0 1000H1000V0H0V1000z" />
    <glyph glyph-name="delete"
      unicode="&#xEA0D;"
      horiz-adv-x="1000.0000000000001" d="M910.29 827.8813333333335H687.7666666666667L677.32 902.6843333333334C676.2766666666668 928.2746666666668 652.2466666666667 948.944 625.0833333333334 948.944H361.8166666666667C334.6533333333334 948.944 310.6260000000001 928.2746666666668 309.5813333333334 902.6843333333334L299.1343333333334 827.8813333333335H76.6106666666667C54.6716666666667 827.8813333333335 37.9563333333333 812.133 37.9563333333333 791.4640000000002C37.9563333333333 770.7946666666668 54.6716666666667 755.0466666666667 76.6106666666667 755.0466666666667H125.712L224.9596666666667 121.1900000000001C226.0043333333334 95.5966666666667 250.0326666666667 75.9133333333334 277.1953333333334 75.9133333333334H707.6166666666667C734.78 75.9133333333334 756.7166666666667 95.5966666666667 759.8533333333334 121.1900000000001L859.1 754.0623333333334H910.29C932.23 754.0623333333334 948.9466666666668 769.8103333333335 948.9466666666668 790.4796666666667C948.9466666666668 811.1490000000001 932.23 827.8813333333335 910.29 827.8813333333335zM383.7566666666667 874.1410000000001H601.0566666666667L607.3233333333334 827.8813333333335H378.5333333333334L383.7566666666667 874.1410000000001zM685.6766666666667 148.7466666666667H301.2236666666667L206.155 754.0623333333334H780.7466666666667L685.6766666666667 148.7466666666667zM396.4533333333333 664.2C417.3833333333334 665.3633333333335 435.2933333333334 649.3400000000001 436.4566666666667 628.4066666666668L455.4366666666667 286.7866666666668C456.6 265.8566666666667 440.5733333333334 247.9433333333335 419.6433333333334 246.7833333333334C398.7100000000001 245.6200000000001 380.8 261.6433333333335 379.6366666666667 282.5766666666667L360.6600000000001 624.1966666666667C359.4966666666668 645.1266666666668 375.52 663.0400000000001 396.4533333333333 664.2zM609.4333333333334 664.2C630.3633333333335 663.0400000000001 646.3900000000001 645.1266666666668 645.2266666666667 624.1966666666667L626.2466666666668 282.5766666666667C625.0833333333334 261.6433333333335 607.1733333333334 245.6200000000001 586.2433333333333 246.7833333333334C565.3100000000001 247.9433333333335 549.2866666666667 265.8566666666667 550.4466666666667 286.7866666666668L569.4266666666666 628.4066666666668C570.59 649.3400000000001 588.5000000000001 665.3633333333335 609.4333333333334 664.2z" />
    <glyph glyph-name="folder"
      unicode="&#xEA0E;"
      horiz-adv-x="1000.0000000000001" d="M850.0000000000001 746.6666666666667H608.8900000000001C599.1666666666667 746.6666666666667 589.4433333333334 750.5000000000001 581.6666666666666 756.2500000000001L461.11 869.3333333333335C439.7233333333334 890.4166666666667 410.5566666666668 900.0000000000001 381.3900000000001 900.0000000000001H150C85.8333333333333 900.0000000000001 33.3333333333333 848.2500000000001 33.3333333333333 785.0000000000001V248.3333333333334C33.3333333333333 185.0833333333334 85.8333333333333 133.3333333333334 150 133.3333333333334H850.0000000000001C914.1666666666669 133.3333333333334 966.6666666666669 185.0833333333334 966.6666666666669 248.3333333333334V631.6666666666667C966.6666666666669 694.9166666666667 914.1666666666669 746.6666666666667 850.0000000000001 746.6666666666667zM888.89 248.3333333333334C888.89 227.25 871.3900000000001 210.0000000000001 850.0000000000001 210.0000000000001H150C128.611 210.0000000000001 111.111 227.25 111.111 248.3333333333334V785.0000000000001C111.111 806.0833333333335 128.611 823.3333333333335 150 823.3333333333335H381.3900000000001C391.11 823.3333333333335 400.8333333333334 819.5000000000001 408.61 813.7500000000001L529.1666666666667 702.5833333333335C550.5566666666667 681.5000000000001 579.7233333333334 671.9166666666667 608.8900000000001 671.9166666666667H850.0000000000001C871.3900000000001 671.9166666666667 888.89 654.6666666666667 888.89 633.5833333333335V248.3333333333334z" />
    <glyph glyph-name="full-screen"
      unicode="&#xEA0F;"
      horiz-adv-x="1000.0000000000001" d="M127.6093333333334 900.0000000000001C75.5423333333334 900.0000000000001 33.3333333333333 857.8620000000001 33.3333333333333 805.8823333333335V194.1166666666667C33.3333333333333 142.1366666666667 75.5423333333334 100 127.6093333333334 100H872.3900000000001C924.4566666666668 100 966.6666666666669 142.1366666666667 966.6666666666669 194.1166666666667V805.8823333333335C966.6666666666669 857.8620000000001 924.4566666666668 900.0000000000001 872.3900000000001 900.0000000000001H127.6093333333334zM900.6733333333334 749.4116666666667H99.3266666666667V212.9400000000001C99.3266666666667 181.7533333333335 124.652 156.47 155.8923333333334 156.47H844.1066666666667C875.3466666666668 156.47 900.6733333333334 181.7533333333335 900.6733333333334 212.9400000000001V749.4116666666667z" />
    <glyph glyph-name="full-window"
      unicode="&#xEA10;"
      horiz-adv-x="1000.0000000000001" d="M937.5000000000002 750.0000000000001H62.5V250.0000000000001H937.5000000000002V750.0000000000001zM62.5 812.5000000000001C27.9822 812.5000000000001 0 784.5176666666667 0 750.0000000000001V250.0000000000001C0 215.4833333333335 27.9822 187.5 62.5 187.5H937.5000000000002C972.0166666666667 187.5 1000.0000000000002 215.4833333333335 1000.0000000000002 250.0000000000001V750.0000000000001C1000.0000000000002 784.5176666666667 972.0166666666667 812.5000000000001 937.5000000000002 812.5000000000001H62.5zM727.9033333333334 584.5966666666668C740.1066666666667 596.8000000000001 759.8933333333334 596.8000000000001 772.0966666666667 584.5966666666668L834.5966666666667 522.0966666666668C846.8000000000001 509.8933333333334 846.8000000000001 490.1066666666667 834.5966666666667 477.9033333333334L772.0966666666667 415.4033333333334C759.8933333333334 403.2000000000001 740.1066666666667 403.2000000000001 727.9033333333334 415.4033333333334C715.7 427.6066666666667 715.7 447.3933333333335 727.9033333333334 459.5966666666668L737.0566666666667 468.7500000000001H625C607.74 468.7500000000001 593.75 482.7400000000001 593.75 500.0000000000001C593.75 517.26 607.74 531.25 625 531.25H737.0566666666667L727.9033333333334 540.4033333333334C715.7 552.6066666666668 715.7 572.3933333333334 727.9033333333334 584.5966666666668zM272.0970000000001 415.4033333333334C259.8933333333334 403.2000000000001 240.1066666666667 403.2000000000001 227.903 415.4033333333334L165.403 477.9033333333334C153.199 490.1066666666667 153.199 509.8933333333334 165.403 522.0966666666668L227.903 584.5966666666668C240.1066666666667 596.8000000000001 259.8933333333334 596.8000000000001 272.0970000000001 584.5966666666668C284.3010000000001 572.3933333333334 284.3010000000001 552.6066666666668 272.0970000000001 540.4033333333334L262.9443333333334 531.25L375 531.25C392.26 531.25 406.2500000000001 517.26 406.2500000000001 500.0000000000001C406.2500000000001 482.7400000000001 392.26 468.7500000000001 375 468.7500000000001L262.9443333333334 468.7500000000001L272.0970000000001 459.5966666666668C284.3010000000001 447.3933333333335 284.3010000000001 427.6066666666667 272.0970000000001 415.4033333333334zM0 1000.0000000000002H1000.0000000000002V0H0V1000.0000000000002z" />
    <glyph glyph-name="line"
      unicode="&#xEA11;"
      horiz-adv-x="1000.0000000000001" d="M881.9300000000001 837.7393333333334C894.1333333333334 825.5353333333335 894.1333333333334 805.749 881.9300000000001 793.5453333333335L238.6236666666667 150.2400000000001C226.4196666666667 138.0366666666668 206.6333333333334 138.0366666666668 194.4293333333334 150.2400000000001C182.2253333333334 162.4433333333334 182.2253333333334 182.23 194.4293333333334 194.4333333333333L837.7366666666668 837.7393333333334C849.94 849.9433333333334 869.7266666666667 849.9433333333334 881.9300000000001 837.7393333333334z" />
    <glyph glyph-name="link"
      unicode="&#xEA12;"
      horiz-adv-x="1000" d="M765.1566666666666 765.1666666666667C716.3408333333333 813.9816666666667 637.1958333333333 813.9816666666667 588.38 765.1666666666667L499.9916666666667 676.7783333333334C475.5841666666666 652.37 436.0108333333333 652.37 411.6033333333333 676.7783333333334C387.1958333333334 701.1858333333333 387.1958333333334 740.7583333333333 411.6033333333333 765.1666666666667L499.9916666666667 853.5550000000001C597.6225 951.1859166666666 755.9141666666667 951.1859166666666 853.5416666666666 853.5550000000001C951.175 755.9241666666667 951.175 597.6325 853.5416666666666 500.0016666666667L765.1566666666666 411.6133333333334C740.7491666666666 387.2050000000001 701.1758333333333 387.2050000000001 676.7683333333332 411.6133333333334C652.3608333333333 436.0208333333334 652.3608333333333 475.5933333333334 676.7683333333332 500.0016666666667L765.1566666666666 588.39C813.9725 637.205 813.9725 716.3508333333334 765.1566666666666 765.1666666666667zM658.4625 658.47C682.87 634.0625 682.87 594.4891666666667 658.4625 570.0816666666667L429.9091666666667 341.5283333333334C405.5016666666666 317.1208333333334 365.9283333333334 317.1208333333334 341.5208333333333 341.5283333333334C317.1133333333333 365.9358333333334 317.1133333333333 405.5091666666667 341.5208333333333 429.9166666666667L570.0741666666667 658.47C594.4816666666666 682.8775 634.055 682.8775 658.4625 658.47zM234.8333333333333 411.6125000000001C186.0183333333333 362.7966666666668 186.0183333333333 283.6508333333334 234.8333333333333 234.8358333333335C283.6491666666667 186.02 362.795 186.02 411.61 234.8358333333335L499.9983333333333 323.2241666666668C524.4066666666666 347.6316666666667 563.9791666666666 347.6316666666667 588.3866666666667 323.2241666666668C612.795 298.8158333333334 612.795 259.2433333333334 588.3866666666667 234.8358333333335L499.9983333333333 146.4500000000001C402.3675 48.8166666666668 244.0758333333333 48.8166666666668 146.445 146.4500000000001C48.8140833333333 244.0783333333335 48.8140833333333 402.3691666666668 146.445 500.0008333333333L234.8333333333333 588.3891666666667C259.2416666666667 612.7966666666666 298.8141666666667 612.7966666666666 323.2216666666667 588.3891666666667C347.63 563.9816666666667 347.63 524.4083333333334 323.2216666666667 500.0008333333333L234.8333333333333 411.6125000000001z" />
    <glyph glyph-name="list"
      unicode="&#xEA13;"
      horiz-adv-x="1000.0000000000001" d="M100 603.3333333333335C100 623.5833333333335 116.4163333333334 640 136.6666666666667 640H863.3333333333334C883.5833333333334 640 900.0000000000001 623.5833333333335 900.0000000000001 603.3333333333335C900.0000000000001 583.0833333333335 883.5833333333334 566.6666666666667 863.3333333333334 566.6666666666667H136.6666666666667C116.4163333333334 566.6666666666667 100 583.0833333333335 100 603.3333333333335zM100 370.0000000000001C100 390.25 116.4163333333334 406.6666666666668 136.6666666666667 406.6666666666668H630C650.25 406.6666666666668 666.6666666666667 390.25 666.6666666666667 370.0000000000001C666.6666666666667 349.7500000000001 650.25 333.3333333333334 630 333.3333333333334H136.6666666666667C116.4163333333334 333.3333333333334 100 349.7500000000001 100 370.0000000000001zM100 836.6666666666667C100 856.9170000000001 116.4163333333334 873.3333333333335 136.6666666666667 873.3333333333335H630C650.25 873.3333333333335 666.6666666666667 856.9170000000001 666.6666666666667 836.6666666666667C666.6666666666667 816.4163333333335 650.25 800.0000000000001 630 800.0000000000001H136.6666666666667C116.4163333333334 800.0000000000001 100 816.4163333333335 100 836.6666666666667zM100 136.6666666666668C100 156.9166666666668 116.4163333333334 173.3333333333334 136.6666666666667 173.3333333333334H863.3333333333334C883.5833333333334 173.3333333333334 900.0000000000001 156.9166666666668 900.0000000000001 136.6666666666668C900.0000000000001 116.4166666666668 883.5833333333334 100 863.3333333333334 100H136.6666666666667C116.4163333333334 100 100 116.4166666666668 100 136.6666666666668z" />
    <glyph glyph-name="logo"
      unicode="&#xEA14;"
      horiz-adv-x="789.4736842105262" d="M362.1505263157895 70.2473684210527C349.2173684210527 70.2473684210527 338.7331578947368 80.7315789473684 338.7331578947368 93.6631578947367L338.7331578947368 140.4947368421052C299.9336842105263 140.4947368421052 268.4805263157895 171.9526315789473 268.4805263157895 210.7473684210527L268.4805263157895 597.0215789473684C268.4805263157895 635.8205263157894 299.9336842105263 667.2736842105262 338.7331578947368 667.2736842105262L338.7331578947368 714.1084210526315C338.7331578947368 727.0415789473684 349.2173684210527 737.5257894736842 362.1505263157895 737.5257894736842C375.0836842105263 737.5257894736842 385.5678947368421 727.0415789473684 385.5678947368421 714.1084210526315L385.5678947368421 667.2736842105262C424.3668421052631 667.2736842105262 455.8199999999999 635.8205263157894 455.8199999999999 597.0215789473684L455.8199999999999 210.7473684210527C455.8199999999999 171.9526315789473 424.3668421052631 140.4947368421052 385.5678947368421 140.4947368421052L385.5678947368421 93.6631578947367C385.5678947368421 80.7315789473684 375.0831578947368 70.2473684210527 362.1505263157895 70.2473684210527zM408.9852631578947 210.7473684210527C408.9852631578947 197.8157894736842 398.5010526315789 187.3315789473684 385.5678947368421 187.3315789473684L338.7331578947368 187.3315789473684C325.8 187.3315789473684 315.3152631578947 197.8157894736842 315.3152631578947 210.7473684210527L315.3157894736842 597.0215789473684C315.3157894736842 609.9547368421051 325.8 620.4389473684209 338.7331578947368 620.4389473684209L385.5678947368421 620.4389473684209C398.5010526315789 620.4389473684209 408.9852631578947 609.9547368421051 408.9852631578947 597.0215789473684L408.9852631578947 210.7473684210527zM70.2521052631579 326.6894736842105C70.2521052631579 313.757894736842 80.7368421052632 303.2736842105262 93.6694736842105 303.2736842105262C106.6026315789474 303.2736842105262 117.0873684210526 313.757894736842 117.0873684210526 326.6894736842105L117.0873684210526 373.5263157894737C155.8863157894737 373.5263157894737 187.3394736842105 404.9789473684209 187.3394736842105 443.778947368421L187.3394736842105 806.8636842105262C187.3394736842105 845.6626315789473 155.8863157894737 877.1157894736841 117.0873684210526 877.1157894736841L117.0873684210526 923.9505263157894C117.0873684210526 936.8836842105262 106.6026315789474 947.367894736842 93.6694736842105 947.367894736842C80.7368421052632 947.367894736842 70.2521052631579 936.8836842105262 70.2521052631579 923.9505263157894L70.2521052631579 877.1157894736841C31.4530526315789 877.1157894736841 0.0000725136842 845.6626315789473 0.0000691221053 806.8636842105262L0.00003738 443.778947368421C0.0000339880526 404.9789473684209 31.453 373.5263157894737 70.2521052631579 373.5263157894737L70.2521052631579 326.6894736842105zM696.0368421052631 976.5825789473683C696.0368421052631 989.5156315789473 685.5526315789473 999.9999813609998 672.6157894736841 999.999983622263C659.6842105263158 999.9999858835788 649.1999999999999 989.5156315789473 649.1999999999999 976.5825789473683L649.1999999999999 929.747894736842C610.4 929.747894736842 578.9473684210526 898.2947368421052 578.9473684210526 859.4952631578947L578.9473684210526 156.9736842105264C578.9473684210526 118.1736842105263 610.4 86.7210526315789 649.1999999999999 86.7210526315789L649.1999999999999 39.8842105263158C649.1999999999999 26.9526315789474 659.6842105263158 16.4684210526315 672.6157894736841 16.4684210526315C685.5526315789473 16.4684210526315 696.0368421052631 26.9526315789474 696.0368421052631 39.8842105263158L696.0368421052631 86.7210526315789C734.8315789473684 86.7210526315789 766.2842105263157 118.1736842105263 766.2842105263157 156.9736842105264L766.2842105263157 859.4952631578947C766.2842105263157 898.2947368421052 734.8315789473684 929.747894736842 696.0368421052631 929.747894736842L696.0368421052631 976.5825789473683z" />
    <glyph glyph-name="maximaze"
      unicode="&#xEA15;"
      horiz-adv-x="1000" d="M188.9775 834.644375C145.49 834.644375 110.236875 799.39125 110.236875 755.904375V244.09375C110.236875 200.6062499999999 145.49 165.35 188.9775 165.35H811.025C854.5125 165.35 889.7625 200.6062499999999 889.7625 244.09375V755.904375C889.7625 799.39125 854.5125 834.644375 811.025 834.644375H188.9775zM834.6437500000001 708.6600000000001H165.355V259.84375C165.355 233.75 186.506875 212.6 212.599375 212.6H787.4C813.49375 212.6 834.6437500000001 233.75 834.6437500000001 259.84375V708.6600000000001z" />
    <glyph glyph-name="mouse"
      unicode="&#xEA16;"
      horiz-adv-x="1000.0000000000001" d="M858.2600000000001 503.7000000000001L659.6833333333334 445.7866666666668C644.4933333333335 441.4966666666668 637.9833333333335 424.3366666666667 646.6633333333333 411.4666666666668L806.1766666666667 169.0800000000001C812.6866666666667 158.3533333333334 810.5166666666668 144.4133333333334 799.6633333333333 136.9033333333333L688.9833333333333 66.12C678.1300000000001 59.6833333333334 664.0266666666668 61.83 656.4300000000001 72.5533333333334L496.9166666666667 314.9400000000001C488.2366666666667 327.8100000000001 469.79 328.8833333333334 460.0233333333334 317.0866666666667L324.3830000000001 162.6433333333334C311.3613333333334 147.63 286.4036666666667 155.1366666666667 283.1483333333334 174.4433333333334L187.658 911.251C185.4876666666667 930.5560000000002 206.105 944.4986666666668 223.467 933.7736666666668L863.6866666666667 545.5266666666668C881.0500000000001 534.8033333333334 877.7933333333334 509.0633333333334 858.2600000000001 503.7000000000001z" />
    <glyph glyph-name="orders"
      unicode="&#xEA17;"
      horiz-adv-x="1000" d="M714.2 782.8918181818182C732.3636363636363 801.3368181818182 762.040909090909 801.5631818181819 780.4863636363636 783.3977272727273L939.140909090909 627.1477272727273C952.6954545454544 613.7986363636364 956.8363636363636 593.5809090909091 949.6272727272728 575.9772727272727C942.4136363636364 558.3731818181818 925.2727272727274 546.875 906.25 546.875H218.75C192.8618181818182 546.875 171.875 567.8618181818182 171.875 593.75C171.875 619.6381818181818 192.8618181818182 640.625 218.75 640.625H791.85L714.7045454545454 716.6022727272727C696.2590909090909 734.7677272727273 696.0318181818182 764.4468181818181 714.2 782.8918181818182zM348.965 188.0727272727272C328.6977272727273 166.4772727272729 295.4018181818182 166.4772727272729 275.1345454545455 188.0727272727272L51.1059090909091 426.8090909090909C46.8431818181818 431.35 45.6859090909091 437.9909090909091 48.1609090909091 443.709090909091C50.6359090909091 449.4227272727273 56.2704545454546 453.1227272727273 62.4995454545455 453.1227272727273L745.1590909090909 453.1227272727273C774.6409090909091 453.1227272727273 796.8772727272727 427.959090909091 796.8772727272727 399.0363636363637C796.8772727272727 370.1181818181818 774.6409090909091 344.9500000000001 745.1590909090909 344.9500000000001L272.8586363636363 344.9500000000001L348.965 263.85C368.7013636363636 242.8181818181818 368.7013636363636 209.1045454545455 348.965 188.0727272727272L348.965 188.0727272727272zM297.9222727272728 209.459090909091C305.8454545454545 201.0136363636364 318.2540909090909 201.0136363636364 326.1772727272728 209.459090909091C334.6304545454546 218.4636363636364 334.6304545454546 233.4590909090909 326.1768181818182 242.4681818181819L225.375 349.8863636363637C221.1122727272727 354.4272727272727 219.955 361.0681818181819 222.43 366.7863636363637C224.905 372.5 230.5395454545454 376.2000000000001 236.7690909090909 376.2000000000001L745.1590909090909 376.2000000000001C755.540909090909 376.2000000000001 765.6272727272727 385.4772727272728 765.6272727272727 399.0363636363637C765.6272727272727 412.6 755.540909090909 421.8727272727273 745.1590909090909 421.8727272727273L98.5895454545455 421.8727272727273L297.9222727272728 209.459090909091z" />
    <glyph glyph-name="pen"
      unicode="&#xEA18;"
      horiz-adv-x="1000.0000000000001" d="M350.8966666666667 223.5200000000001L751.1566666666668 623.7800000000001L572.5866666666668 802.3523333333335L172.294 402.1233333333335C170.3853333333333 400.2466666666668 169.04 397.9300000000001 168.3203333333334 395.3966666666667L105.7403333333334 176.3666666666668C104.176 170.89 105.6776666666667 165.0066666666667 109.714 160.97C112.6866666666667 157.9666666666667 116.6916666666667 156.37 120.7906666666667 156.37C122.23 156.37 123.6693333333334 156.5600000000001 125.1086666666667 156.9966666666668L344.14 219.5766666666667C346.6733333333334 220.2666666666668 349.02 221.6433333333334 350.8966666666667 223.5200000000001zM324.1756666666667 246.3933333333335L205.5866666666667 212.5066666666667C196.2623333333334 232.0000000000001 180.7736666666667 247.4566666666667 161.28 256.8133333333334L195.167 375.4000000000001H245.9506666666667V297.1766666666668H324.1756666666667V246.3933333333335zM858.8166666666668 864.1796666666668L812.9766666666667 910.0196666666668C776.3366666666667 946.66 716.8833333333333 946.66 680.2433333333333 910.0196666666668L616.8833333333333 846.6573333333334L795.4533333333335 668.0856666666667L858.8166666666668 731.4476666666667C895.4566666666668 768.0883333333334 895.4566666666668 827.5393333333334 858.8166666666668 864.1796666666668zM746.6 125.0766666666668H183.3793333333334C166.076 125.0766666666668 152.0893333333334 111.0600000000001 152.0893333333334 93.7900000000001C152.0893333333334 76.5166666666668 166.076 62.5 183.3793333333334 62.5H746.6C763.9033333333334 62.5 777.8900000000001 76.5166666666668 777.8900000000001 93.7900000000001C777.8900000000001 111.0600000000001 763.9033333333334 125.0766666666668 746.6 125.0766666666668z" />
    <glyph glyph-name="popup"
      unicode="&#xEA19;"
      horiz-adv-x="1000.0000000000001" d="M87.6058777777778 688.4517321428573C54.5638555555556 688.4517321428573 27.7777777777778 654.070417857143 27.7777777777778 611.6590714285716V112.5061428571429C27.7777777777778 70.0945 54.5638555555556 35.7142857142858 87.6058777777778 35.7142857142858H560.2480555555555C593.2898611111111 35.7142857142858 620.0765833333334 70.0945000000002 620.0765833333334 112.5061428571429V611.6590714285716C620.0765833333334 654.070417857143 593.2898611111111 688.4517321428573 560.2480555555555 688.4517321428573zM578.1968055555556 565.5834285714286H69.6575333333334V127.8645C69.6575333333334 102.4186071428571 85.7291388888889 81.7893928571428 105.5544361111111 81.7893928571428H542.2992777777778C562.124361111111 81.7893928571428 578.1968055555556 102.4186071428571 578.1968055555556 127.8645zM87.6058777777778 688.4517321428573C54.5638555555556 688.4517321428573 27.7777777777778 654.070417857143 27.7777777777778 611.6590714285716V112.5061428571429C27.7777777777778 70.0945 54.5638555555556 35.7142857142858 87.6058777777778 35.7142857142858H560.2480555555555C593.2898611111111 35.7142857142858 620.0765833333334 70.0945000000002 620.0765833333334 112.5061428571429V611.6590714285716C620.0765833333334 654.070417857143 593.2898611111111 688.4517321428573 560.2480555555555 688.4517321428573zM578.1968055555556 565.5834285714286H69.6575333333334V127.8645C69.6575333333334 102.4186071428571 85.7291388888889 81.7893928571428 105.5544361111111 81.7893928571428H542.2992777777778C562.124361111111 81.7893928571428 578.1968055555556 102.4186071428571 578.1968055555556 127.8645zM234.7683527777778 892.857142857143A59.2298361111111 76.1526464285715 0 0 1 176.3069444444445 816.7363142857143A59.2298361111111 76.1526464285715 0 0 1 218.1595333333334 743.908917857143V770.0439107142859H282.3224722222222A59.2298361111111 76.1526464285715 0 0 1 294.7584166666667 816.7363142857143A59.2298361111111 76.1526464285715 0 0 1 235.512025 892.857142857143A59.2298361111111 76.1526464285715 0 0 1 234.7682666666667 892.857142857143zM176.2656305555556 818.7674285714287H218.5726833333334V648.1337250000001H176.2656305555556zM710.0758333333333 892.8551892857143A59.2298361111111 76.1526464285715 0 0 0 768.5372500000002 816.7343571428572A59.2298361111111 76.1526464285715 0 0 0 726.6846666666667 743.9069607142858V770.0419571428572H662.5217222222223A59.2298361111111 76.1526464285715 0 0 0 650.0857777777778 816.7343571428572A59.2298361111111 76.1526464285715 0 0 0 709.3321666666667 892.8551892857143A59.2298361111111 76.1526464285715 0 0 0 710.0760555555556 892.8551892857143zM768.5785555555557 818.765467857143H726.2715000000001V315.8156071428572H768.5785555555557zM590.5147777777778 286.9183214285714H708.2526944444445V240.1728214285714H590.5147777777778zM726.2573611111111 389.7053571428572V336.107392857143A34.3331694444444 44.26025 0 0 0 726.5045833333334 330.8485000000001A34.3331694444444 44.26025 0 0 0 692.1714166666667 286.5996071428572A34.3331694444444 44.26025 0 0 0 688.1225 286.9174642857144H653.005A60.1553472222222 76.4926678571429 0 0 1 708.4090833333332 240.1719642857144A60.1553472222222 76.4926678571429 0 0 1 768.5644166666666 316.6646071428571A60.1553472222222 76.4926678571429 0 0 1 726.257361111111 389.7045000000001zM239.3130722222223 892.857142857143H711.0533222222223V770.0439107142859H239.3130722222222V892.857142857143z" />
    <glyph glyph-name="position"
      unicode="&#xEA1A;"
      horiz-adv-x="1000" d="M265.3590909090909 924.474090909091C282.9109090909091 941.8418181818182 310.839090909091 941.8418181818182 328.3909090909091 924.474090909091L455.0363636363636 799.1536363636363C472.9545454545454 781.4231818181818 473.3681818181818 752.2540909090909 455.9636363636363 734.0022727272727C438.5568181818182 715.7504545454545 409.9213636363636 715.3277272727273 392.0040909090909 733.0581818181818L342.1054545454546 782.435V264.8227272727273C342.1054545454546 239.3772727272729 321.855 218.75 296.875 218.75C271.8950000000001 218.75 251.6445454545455 239.3772727272729 251.6445454545455 264.8227272727273V782.435L201.7459090909091 733.0581818181818C183.8286363636364 715.3277272727273 155.1931818181818 715.7504545454545 137.7877272727273 734.0022727272727C120.3818181818182 752.2540909090909 120.7968181818182 781.4231818181818 138.7145454545455 799.1536363636363L265.3590909090909 924.474090909091zM718.5090909090909 80.2227272727273C692.7363636363636 56.5909090909091 651.0136363636364 56.5909090909091 625.2409090909091 80.2227272727273L488.1318181818181 205.9590909090908C462.2909090909091 229.6590909090909 462.2909090909091 268.1363636363638 488.1318181818181 291.8363636363637C513.9045454545454 315.4681818181819 555.6272727272727 315.4681818181819 581.4 291.8363636363637L605.8590909090909 269.4045454545455L605.8590909090909 751.8381818181819C605.8590909090909 785.4563636363637 635.540909090909 812.5 671.8772727272727 812.5C708.209090909091 812.5 737.8909090909091 785.4563636363637 737.8909090909091 751.8381818181819L737.8909090909091 269.4045454545455L762.3499999999999 291.8363636363637C788.1227272727273 315.4681818181819 829.8454545454545 315.4681818181819 855.6181818181817 291.8363636363637C881.4590909090908 268.1363636363638 881.4590909090908 229.6590909090909 855.6181818181817 205.9590909090908L718.5090909090909 80.2227272727273zM653.8727272727273 106.8272727272728C663.8 97.7227272727273 679.9499999999999 97.7227272727273 689.8772727272727 106.8272727272728L826.9863636363636 232.5636363636363C836.8363636363636 241.6 836.8363636363636 256.1954545454545 826.9863636363636 265.2318181818182C817.059090909091 274.3363636363637 800.9090909090909 274.3363636363637 790.9818181818181 265.2318181818182L697.2636363636364 179.2863636363636L697.2636363636364 751.8381818181819C697.2636363636364 764.5145454545454 686.0227272727273 775 671.8727272727273 775C657.7272727272727 775 646.4863636363636 764.5145454545454 646.4863636363636 751.8381818181819L646.4863636363636 179.2863636363636L552.7681818181818 265.2318181818182C542.8409090909091 274.3363636363637 526.690909090909 274.3363636363637 516.7636363636364 265.2318181818182C506.9136363636364 256.1954545454545 506.9136363636364 241.6 516.7636363636364 232.5636363636363L653.8727272727273 106.8272727272728z" />
    <glyph glyph-name="resize"
      unicode="&#xEA1B;"
      horiz-adv-x="240" d="M40 1000.000001748456C62.0912 1000.000000782812 80 982.0914 80 960L80 40C80 17.908 62.0912 0 39.99996 0C17.90856 0 -0.0000429284 17.908 -0.0000419628 40L-0.000001748456 960C-7.82812e-7 982.0914 17.9086 1000.0000027141 40 1000.000001748456zM200 1000.000001748456C222.0912 1000.000000782812 240 982.0914 240 960L240 40C240 17.908 222.0912 0 200 0C177.9084 0 160 17.908 160 40L160 960C160 982.0914 177.9088 1000.0000027141 200 1000.000001748456z" />
    <glyph glyph-name="resize_vertical"
      unicode="&#xEA1C;"
      horiz-adv-x="3714.285714285714" d="M3642.857142857143 785.7142857142858C3642.857142857143 706.8171428571428 3578.9 642.8571428571429 3500 642.8571428571429L214.2857142857143 642.8571428571429C135.388 642.8571428571429 71.4285714285714 706.8171428571428 71.4285714285714 785.7142857142858C71.4285714285714 864.6124285714286 135.388 928.5717142857142 214.2857142857143 928.5717142857142L3500 928.5714285714286C3578.9 928.5714285714286 3642.857142857143 864.6121428571429 3642.857142857143 785.7142857142858zM3642.857142857143 214.2857142857142C3642.857142857143 135.3885714285715 3578.9 71.4285714285715 3500 71.4285714285715L214.2857142857143 71.4285714285715C135.388 71.4285714285715 71.4285714285714 135.3885714285715 71.4285714285714 214.2857142857142C71.4285714285714 293.1842857142857 135.388 357.1428571428571 214.2857142857143 357.1428571428571L3500 357.1428571428571C3578.9 357.1428571428571 3642.857142857143 293.1828571428571 3642.857142857143 214.2857142857142z" />
    <glyph glyph-name="scripting"
      unicode="&#xEA1D;"
      horiz-adv-x="1000.0000000000001" d="M406 200.0000000000001C402.35 199.9900000000001 398.73 200.6666666666668 395.3333333333333 202C386.9833333333334 204.8766666666668 380.1166666666667 210.9533333333335 376.2400000000001 218.8900000000001C372.3666666666667 226.8266666666667 371.8 235.98 374.6666666666667 244.3333333333334L562.3333333333334 790.0000000000001C565.2800000000001 798.2896666666668 571.3800000000001 805.0786666666668 579.3100000000001 808.8876666666667C587.24 812.6966666666667 596.3566666666667 813.2163333333334 604.6666666666667 810.3333333333335C608.9566666666667 808.9196666666668 612.9166666666667 806.6480000000001 616.3033333333334 803.6570000000002C619.6899999999999 800.6656666666668 622.4333333333333 797.0173333333335 624.3666666666668 792.9330000000001C626.3000000000001 788.8490000000002 627.3833333333334 784.4146666666668 627.5466666666667 779.8993333333334C627.7133333333334 775.3836666666668 626.9600000000002 770.8816666666668 625.3333333333335 766.6666666666667L437.6666666666668 222.3333333333335C435.3733333333334 215.7733333333333 431.0900000000001 210.0966666666668 425.4133333333334 206.0933333333334C419.7333333333334 202.0866666666667 412.9466666666667 199.9566666666667 406 200.0000000000001zM721 300.0000000000001C713.7533333333334 299.9533333333334 706.5866666666668 301.5100000000001 700.0166666666667 304.5666666666667C693.4433333333334 307.6200000000001 687.6333333333334 312.0966666666667 683 317.6666666666668C678.6966666666667 322.63 675.4200000000001 328.3933333333335 673.3600000000001 334.6300000000001C671.3000000000001 340.8666666666667 670.4966666666667 347.4500000000001 671 354.0000000000001C672.3433333333334 366.98 678.68 378.9333333333334 688.6666666666667 387.3333333333335L828.3333333333335 506.6666666666667L688.6666666666667 626C678.68 634.4000000000001 672.3433333333334 646.3533333333335 671 659.3333333333335C670.4966666666667 665.8833333333334 671.3000000000001 672.4656666666667 673.3600000000001 678.7020000000001C675.4200000000001 684.9386666666667 678.6966666666667 690.7050000000002 683 695.6666666666667C691.4000000000001 705.6543333333334 703.3533333333334 711.9886666666667 716.3333333333334 713.3333333333335C723.0866666666667 713.767 729.8533333333335 712.807 736.22 710.5133333333334C742.5833333333334 708.2196666666667 748.4100000000001 704.6410000000001 753.3333333333335 700.0000000000001L938.0000000000002 542.6666666666667C943.54 538.0033333333334 947.9933333333335 532.1866666666667 951.0466666666669 525.6233333333334C954.1033333333334 519.0600000000001 955.6866666666668 511.9066666666668 955.6866666666668 504.6666666666667C955.6866666666668 497.4266666666667 954.1033333333334 490.2733333333334 951.0466666666669 483.71C947.9933333333335 477.1466666666668 943.54 471.3300000000002 938.0000000000002 466.6666666666667L753.3333333333335 310.6666666666668C744.1500000000001 303.4133333333334 732.6966666666667 299.6366666666668 721 300.0000000000001zM721 681.3333333333335C716.6333333333333 680.9756666666667 712.5733333333334 678.9456666666667 709.6666666666667 675.6666666666667C706.7866666666667 672.2280000000001 705.3533333333334 667.8073333333334 705.6666666666667 663.3333333333335C705.83 661.1333333333334 706.45 658.9900000000001 707.48 657.0400000000001C708.5133333333334 655.0900000000001 709.94 653.3733333333334 711.6666666666667 652.0000000000001L881 507.3333333333334L711.6666666666667 362.6666666666668C709.9066666666668 361.3233333333334 708.46 359.6133333333334 707.4233333333334 357.6566666666668C706.3900000000001 355.7000000000001 705.7900000000001 353.5433333333334 705.6666666666667 351.3333333333334C705.4833333333333 349.1666666666668 705.7433333333333 346.9833333333335 706.4300000000001 344.9200000000001C707.1166666666667 342.8566666666667 708.22 340.9566666666667 709.6666666666667 339.3333333333334C712.51 336 716.5566666666667 333.9200000000001 720.9233333333334 333.5433333333334C725.2900000000001 333.1700000000001 729.63 334.5300000000001 733 337.3333333333335L917.6666666666669 494.6666666666667C919.5100000000002 496.2300000000001 920.9966666666666 498.1700000000001 922.0333333333334 500.3533333333334C923.0666666666668 502.5366666666667 923.6233333333334 504.9166666666668 923.6666666666669 507.3333333333334C923.67 509.7566666666667 923.1333333333334 512.1533333333334 922.0933333333334 514.3433333333335C921.0566666666668 516.5333333333334 919.5433333333334 518.4666666666667 917.6666666666669 520L733.3333333333334 676C731.6833333333334 677.5086666666668 729.7266666666667 678.6460000000001 727.6 679.336C725.4733333333334 680.0260000000001 723.2233333333334 680.2523333333334 721 680.0000000000001V681.3333333333335zM278.9996666666667 307.0000000000001C269.0866666666667 306.9600000000001 259.4946666666667 310.5133333333335 251.9996666666667 317.0000000000001L66.6663333333333 474.3333333333334C62.1276666666667 478.2800000000001 58.475 483.1400000000001 55.9473333333333 488.6000000000001C53.4196666666667 494.0566666666667 52.0743333333333 499.9866666666667 51.9996666666667 506.0000000000001C51.786 512.3000000000001 52.9933333333333 518.5700000000002 55.5323333333333 524.3400000000001C58.0713333333333 530.1100000000001 61.8766666666667 535.2333333333333 66.6663333333333 539.3333333333335L251.9996666666667 695C256.1083333333334 698.874 260.9616666666667 701.8723333333335 266.2646666666667 703.8130000000001C271.5676666666667 705.7536666666667 277.2100000000001 706.596 282.8486666666667 706.2890000000001C288.4873333333333 705.9820000000002 294.005 704.5320000000002 299.0660000000001 702.0273333333334C304.1270000000001 699.5223333333334 308.6260000000001 696.0150000000001 312.29 691.7176666666668C315.9536666666667 687.4206666666668 318.706 682.4236666666668 320.3793333333334 677.0303333333334C322.0523333333333 671.6366666666668 322.612 665.96 322.0236666666667 660.3433333333335C321.4353333333334 654.7266666666667 319.7116666666667 649.2900000000001 316.9570000000001 644.3600000000001C314.2023333333334 639.4300000000001 310.4743333333334 635.1100000000001 305.9996666666667 631.6666666666667L158.6663333333334 506.0000000000001L305.9996666666667 380.3333333333334C310.1903333333334 376.8100000000001 313.639 372.4866666666668 316.1456666666667 367.6200000000001C318.6523333333334 362.7533333333335 320.1666666666667 357.4333333333334 320.6006666666667 351.9766666666668C321.0350000000001 346.5166666666667 320.3803333333334 341.0266666666667 318.675 335.8233333333334C316.9693333333334 330.6200000000001 314.2473333333334 325.8100000000001 310.6663333333334 321.6666666666667C306.7623333333334 317.0766666666667 301.9093333333334 313.3900000000001 296.4423333333334 310.8600000000002C290.9756666666667 308.3266666666667 285.0243333333334 307.0100000000001 278.9996666666667 307.0000000000001z" />
    <glyph glyph-name="text"
      unicode="&#xEA1E;"
      horiz-adv-x="1000.0000000000001" d="M586 187.5L540.71 336.1800000000001H312.9883333333334L267.7003333333334 187.5H125L345.46 814.6973333333334H507.3866666666667L728.7 187.5H586zM509.0933333333334 447.2666666666668C467.2233333333334 581.99 443.5833333333333 658.1833333333334 438.17 675.8423333333335C433.0433333333334 693.5016666666668 429.3400000000001 707.4583333333335 427.0633333333334 717.7123333333334C417.6633333333334 681.2540000000001 390.7466666666668 591.1066666666668 346.3133333333334 447.2666666666668H509.0933333333334zM843.7500000000001 937.5000000000002C861.0100000000001 937.5000000000002 875.0000000000001 923.5090000000002 875.0000000000001 906.2500000000002L875.0000000000001 93.75C875.0000000000001 76.49 861.0100000000001 62.5 843.7500000000001 62.5C826.49 62.5 812.5000000000001 76.49 812.5000000000001 93.75L812.5000000000001 906.2500000000002C812.5000000000001 923.5090000000002 826.49 937.5000000000002 843.7500000000001 937.5000000000002z" />
    <glyph glyph-name="unlink"
      unicode="&#xEA1F;"
      horiz-adv-x="1000" d="M375 875C375 909.5175 347.0175 937.5 312.5 937.5C277.9825 937.5 250 909.5175 250 875V750H125C90.4825 750 62.5 722.0175 62.5 687.5C62.5 652.9825000000001 90.4825 625 125 625H375V875zM676.7758333333333 765.1666666666667C701.1833333333333 789.5741666666667 740.7566666666667 789.5741666666667 765.1641666666666 765.1666666666667C789.5716666666666 740.7591666666667 789.5716666666666 701.1858333333333 765.1641666666666 676.7783333333334L632.5816666666666 544.1958333333334C608.1741666666667 519.7875 608.1741666666667 480.215 632.5816666666666 455.8075C656.9891666666666 431.3991666666667 696.5625 431.3991666666667 720.97 455.8075L853.55 588.39C926.775 661.6133333333333 926.775 780.3316666666667 853.55 853.5550000000001C780.3291666666667 926.7781666666668 661.6108333333333 926.7781666666668 588.3874999999999 853.5550000000001L455.805 720.9725000000001C431.3975 696.565 431.3975 656.9916666666667 455.805 632.5841666666666C480.2125 608.1758333333335 519.7858333333332 608.1758333333335 544.1933333333333 632.5841666666666L676.7758333333333 765.1666666666667zM687.5 62.5C652.9825 62.5 625 90.4833333333335 625 125V375H875C909.5166666666667 375 937.5 347.0175000000001 937.5 312.5C937.5 277.9825 909.5166666666667 250 875 250H750V125C750 90.4833333333335 722.0175 62.5 687.5 62.5zM234.8333333333333 323.2241666666668C210.4258333333334 298.8166666666667 210.4258333333334 259.2433333333334 234.8333333333333 234.8358333333335C259.2408333333333 210.4283333333334 298.8141666666667 210.4283333333334 323.2216666666667 234.8358333333335L455.8041666666666 367.4183333333334C480.2125 391.8258333333333 519.785 391.8258333333333 544.1925 367.4183333333334C568.6008333333333 343.0108333333334 568.6008333333333 303.4375 544.1925 279.03L411.61 146.4500000000001C338.3866666666667 73.225 219.6683333333333 73.225 146.445 146.4500000000001C73.2218333333333 219.6708333333334 73.2218333333333 338.3891666666667 146.445 411.6125000000001L279.0275 544.1949999999999C303.435 568.6025 343.0083333333334 568.6025 367.4158333333334 544.1949999999999C391.8241666666666 519.7875 391.8241666666666 480.2141666666668 367.4158333333334 455.8066666666667L234.8333333333333 323.2241666666668z" />
    <glyph glyph-name="watch"
      unicode="&#xEA20;"
      horiz-adv-x="1000" d="M509.2409090909091 511.5318181818182C497.3545454545455 516.8136363636363 488.1136363636364 520.7727272727273 484.15 526.0545454545454C478.8681818181818 531.3363636363636 477.55 537.9409090909091 477.55 545.8627272727272C477.55 553.7854545454545 480.190909090909 561.7077272727273 484.15 566.9895454545455C488.1136363636364 572.2709090909091 494.7136363636363 574.9118181818181 503.9590909090909 574.9118181818181C513.1999999999999 574.9118181818181 519.8045454545455 570.9509090909091 525.0863636363636 564.3486363636364C530.3681818181818 557.7463636363636 531.6863636363637 549.824090909091 533.0090909090909 539.2590909090909C533.0090909090909 537.9409090909091 534.3272727272728 536.6181818181818 535.65 536.6181818181818H572.6181818181818C575.2590909090909 536.6181818181818 576.5818181818181 537.9409090909091 576.5818181818181 540.5818181818181C576.5818181818181 540.5818181818181 576.5818181818181 540.5818181818181 576.5818181818181 541.9C576.5818181818181 560.3872727272727 571.3 574.9118181818181 560.7363636363636 586.795909090909C550.1727272727272 598.6795454545454 536.9681818181818 606.6022727272727 519.8045454545455 609.2431818181818C518.4818181818181 609.2431818181818 517.1636363636363 610.5631818181819 517.1636363636363 611.8836363636364V639.6127272727273C517.1636363636363 640.9331818181818 515.840909090909 642.2536363636364 514.5227272727273 642.2536363636364H494.7136363636363C493.3954545454545 642.2536363636364 492.0727272727273 640.9331818181818 492.0727272727273 639.6127272727273V610.5631818181819C492.0727272727273 609.2427272727273 490.7545454545455 607.9227272727273 489.4318181818182 607.9227272727273C472.2681818181819 605.2818181818182 457.740909090909 598.6795454545454 447.1795454545454 588.1163636363638C436.6159090909091 577.5527272727273 430.0140909090909 563.0281818181818 430.0140909090909 545.8627272727272C430.0140909090909 527.3772727272727 435.2954545454545 512.85 447.1795454545454 502.2909090909091C457.740909090909 491.7272727272727 474.9090909090909 482.4818181818182 498.6772727272727 474.559090909091C510.5590909090909 470.6 518.4818181818181 465.3181818181819 523.7636363636364 460.0363636363636C529.0454545454545 454.7545454545455 530.3681818181818 448.15 530.3681818181818 438.909090909091C530.3681818181818 430.9863636363637 527.7272727272726 423.0636363636363 522.4454545454546 419.1C517.1636363636363 413.8181818181818 510.5590909090909 411.1818181818182 501.3181818181818 411.1818181818182C492.0727272727273 411.1818181818182 482.8318181818181 413.8181818181818 477.55 420.4227272727273C470.9454545454545 425.7045454545455 468.3045454545454 434.9454545454546 468.3045454545454 448.15C468.3045454545454 449.4727272727273 466.9863636363636 450.7909090909092 465.6636363636364 450.7909090909092H424.7322727272728C423.4118181818182 450.7909090909092 422.0913636363636 449.4727272727273 422.0913636363636 448.15C422.0913636363636 445.5090909090909 422.0913636363636 442.8681818181818 422.0913636363636 441.5500000000001C423.4118181818182 423.0636363636363 428.6936363636364 408.5409090909091 440.5772727272727 397.9772727272728C452.4609090909091 386.0909090909091 468.3045454545454 379.4909090909091 486.7909090909091 378.1681818181818C488.1136363636364 378.1681818181818 489.4318181818182 376.85 489.4318181818182 375.5272727272727V349.1181818181818C489.4318181818182 347.8000000000001 490.7545454545455 346.4772727272728 492.0727272727273 346.4772727272728H511.8818181818182C513.1999999999999 346.4772727272728 514.5227272727273 347.8000000000001 514.5227272727273 349.1181818181818V375.5272727272727C514.5227272727273 376.85 515.840909090909 378.1681818181818 517.1636363636363 378.1681818181818C535.65 380.809090909091 550.1727272727272 386.0909090909091 560.7363636363636 396.6545454545455C571.3 407.2181818181819 577.9 421.7409090909091 577.9 440.2272727272728C577.9 458.7136363636364 572.6181818181818 473.2409090909091 560.7363636363636 483.8045454545455C548.85 493.0454545454546 531.6863636363637 502.2909090909091 509.2409090909091 511.5318181818182zM501.3181818181818 763.73C500 763.73 500 763.73 501.3181818181818 763.73C500 763.73 500 763.73 500 763.73C239.8768181818182 761.0890909090909 31.25 559.0645454545454 31.25 494.3636363636364C31.25 429.6636363636365 239.8768181818182 227.6363636363637 498.6818181818182 225C498.6818181818182 225 498.6818181818182 225 500 225C500 225 500 225 501.3181818181818 225C760.1227272727273 227.6363636363637 968.75 429.6636363636365 968.75 494.3636363636364C968.75 559.0645454545454 760.1227272727273 761.0890909090909 501.3181818181818 763.73zM500 309.5045454545456C398.3272727272727 309.5045454545456 315.1409090909091 392.6909090909092 315.1409090909091 494.3636363636364C315.1409090909091 596.0363636363636 398.3272727272727 679.2231818181818 500 679.2231818181818C601.6727272727272 679.2231818181818 684.8590909090909 596.0363636363636 684.8590909090909 494.3636363636364C684.8590909090909 392.6909090909092 601.6727272727272 309.5045454545456 500 309.5045454545456z" />
    <glyph glyph-name="zoom"
      unicode="&#xEA21;"
      horiz-adv-x="1000.0000000000001" d="M603.2166666666667 746.3693333333334C645.7533333333333 695.3913333333335 666.2866666666667 630.8333333333335 660.3766666666667 564.3800000000001C654.6100000000001 498.0733333333334 623.4766666666667 438.0866666666668 572.62 395.1733333333334C527.9333333333334 357.6466666666667 471.1800000000001 336.9300000000001 412.9466666666667 336.9300000000001C339.1433333333334 336.9300000000001 269.6260000000001 369.3500000000002 222.2676666666667 425.9733333333334C134.1033333333334 531.2933333333334 147.928 688.7976666666668 252.8526666666667 777.1713333333335C297.6686666666667 814.6986666666668 354.3033333333334 835.4130000000001 412.6700000000001 835.4130000000001C486.34 835.4130000000001 555.8466666666667 802.9953333333334 603.2166666666667 746.3693333333334zM874.6666666666666 130.0633333333334C876.6866666666667 153.1966666666667 869.4400000000002 175.8000000000001 854.6833333333334 193.5466666666668L697.2766666666666 381.4600000000001C789.7266666666667 510.3166666666667 783.5566666666667 689.6120000000001 681.1733333333333 812.0060000000001C614.4866666666667 891.6316666666668 516.5333333333334 937.5000000000002 412.5400000000001 937.5000000000002C330.4160000000001 937.5000000000002 250.4416666666667 908.3136666666668 187.3716666666667 855.1813333333334C39.505 730.7646666666667 20.1765666666667 508.8333333333334 144.2983333333334 360.3366666666667C210.8543333333334 280.7133333333334 308.9513333333334 234.9766666666667 412.8000000000001 234.9766666666667C465.27 234.9766666666667 517.4766666666667 246.9533333333334 564.4433333333334 269.5466666666668L721.7033333333334 81.78C738.2033333333334 62.01 762.4966666666668 50.7133333333334 788.2600000000001 50.7133333333334C808.5200000000001 50.7133333333334 828.3833333333334 57.9766666666667 843.94 71.0200000000001C861.5233333333334 85.9433333333334 872.6633333333334 106.9333333333333 874.6666666666666 130.0633333333334zM415.35 747.1446666666668C432.7866666666667 747.1446666666668 446.9233333333334 733.0096666666668 446.9233333333334 715.5733333333335V620.8600000000001H541.6366666666667C559.0733333333334 620.8600000000001 573.2066666666667 606.7233333333334 573.2066666666667 589.2866666666667C573.2066666666667 571.8500000000001 559.0733333333334 557.7166666666667 541.6366666666667 557.7166666666667H446.9233333333334V463.0033333333334C446.9233333333334 445.5666666666667 432.7866666666667 431.4300000000002 415.35 431.4300000000002C397.9133333333334 431.4300000000002 383.7800000000001 445.5666666666667 383.7800000000001 463.0033333333334V557.7166666666667H289.0646666666667C271.6283333333334 557.7166666666667 257.4933333333334 571.8500000000001 257.4933333333334 589.2866666666667C257.4933333333334 606.7233333333334 271.6283333333334 620.8600000000001 289.0646666666667 620.8600000000001H383.7800000000001V715.5733333333335C383.7800000000001 733.0096666666668 397.9133333333334 747.1446666666668 415.35 747.1446666666668z" />
  </font>
</defs>
</svg>
