<?xml version="1.0" encoding="utf-8"?>
<!-- Generator: Adobe Illustrator 21.0.2, SVG Export Plug-In . SVG Version: 6.00 Build 0)  -->
<svg version="1.1" xmlns="http://www.w3.org/2000/svg" xmlns:xlink="http://www.w3.org/1999/xlink" x="0px" y="0px"
	 viewBox="0 0 30 30" enable-background="new 0 0 30 30" xml:space="preserve">
<g id="Шар_86">
	<path d="M20.804,30h8.553C29.712,30,30,29.712,30,29.357v-8.553c0-0.355-0.288-0.643-0.643-0.643h-1.725
		c-0.355,0-0.643,0.288-0.643,0.643v5.542c0,0.355-0.288,0.643-0.643,0.643h-5.543c-0.355,0-0.643,0.288-0.643,0.643v1.726
		C20.161,29.712,20.449,30,20.804,30z M0.643,30h8.553c0.355,0,0.643-0.288,0.643-0.643v-1.726c0-0.355-0.288-0.643-0.643-0.643
		H3.653c-0.355,0-0.643-0.288-0.643-0.643v-5.542c0-0.355-0.288-0.643-0.643-0.643H0.643C0.288,20.161,0,20.449,0,20.804v8.553
		C0,29.712,0.288,30,0.643,30z M27.633,9.839h1.725C29.712,9.839,30,9.551,30,9.196V0.643C30,0.288,29.712,0,29.357,0h-8.553
		c-0.355,0-0.643,0.288-0.643,0.643v1.726c0,0.355,0.288,0.643,0.643,0.643h5.543c0.355,0,0.643,0.288,0.643,0.643v5.542
		C26.99,9.551,27.278,9.839,27.633,9.839z M0.643,9.839h1.725c0.355,0,0.643-0.288,0.643-0.643V3.654
		c0-0.355,0.288-0.643,0.643-0.643h5.543c0.355,0,0.643-0.288,0.643-0.643V0.643C9.839,0.288,9.551,0,9.196,0H0.643
		C0.288,0,0,0.288,0,0.643v8.553C0,9.551,0.288,9.839,0.643,9.839z"/>
</g>
</svg>
