<?xml version="1.0" encoding="utf-8"?>
<!-- Generator: Adobe Illustrator 21.0.2, SVG Export Plug-In . SVG Version: 6.00 Build 0)  -->
<svg version="1.1" xmlns="http://www.w3.org/2000/svg" xmlns:xlink="http://www.w3.org/1999/xlink" x="0px" y="0px"
	 viewBox="0 0 30 30" enable-background="new 0 0 30 30" xml:space="preserve">
<g id="Шар_94">
	<path fill-rule="evenodd" clip-rule="evenodd" d="M22.664,10.103c-2.7,0-4.897,2.197-4.897,4.897c0,2.701,2.197,4.897,4.897,4.897
		S27.561,17.7,27.561,15C27.561,12.3,25.364,10.103,22.664,10.103z M24.565,16.095h-0.807v0.807c0,0.605-0.49,1.095-1.095,1.095
		c-0.605,0-1.095-0.49-1.095-1.095v-0.807h-0.807c-0.605,0-1.095-0.49-1.095-1.095c0-0.605,0.49-1.095,1.095-1.095h0.807v-0.807
		c0-0.605,0.49-1.095,1.095-1.095s1.095,0.49,1.095,1.095v0.807h0.807c0.605,0,1.095,0.49,1.095,1.095
		C25.66,15.604,25.17,16.095,24.565,16.095z M10.889,5.88v19.24c0,0.48-0.36,0.88-0.81,0.88h-2.69v3.2c0,0.44-0.36,0.8-0.81,0.8
		c-0.44,0-0.8-0.36-0.8-0.8V26h-2.53c-0.45,0-0.81-0.4-0.81-0.88V5.88C2.439,5.4,2.799,5,3.249,5h2.53V0.8c0-0.44,0.36-0.8,0.8-0.8
		c0.45,0,0.81,0.36,0.81,0.8V5h2.69C10.529,5,10.889,5.4,10.889,5.88z"/>
</g>
</svg>
