<?xml version="1.0" encoding="utf-8"?>
<!-- Generator: Adobe Illustrator 21.0.2, SVG Export Plug-In . SVG Version: 6.00 Build 0)  -->
<svg version="1.1" xmlns="http://www.w3.org/2000/svg" xmlns:xlink="http://www.w3.org/1999/xlink" x="0px" y="0px"
	 viewBox="0 0 30 30" enable-background="new 0 0 30 30" xml:space="preserve">
<g id="continuous-drawing">
	<path id="XMLID_696_" d="M20.43,4.97l0.007,0.003L9.195,20.383l-2.319,8.753l8.04-4.399L26.268,9.233l0.009,0.004l3.628-4.97
		L24.058,0L20.43,4.97z M14.525,24.181l-4.59,2.512l-1.447-1.057l1.286-4.907l0.516-0.703l0.262,2.74l1.815-0.751l-0.047,2.04
		l2.575-0.382L14.525,24.181z M28.017,4.558l-1.341,1.843l-3.668-2.677l1.343-1.841L28.017,4.558z"/>
	<path id="XMLID_695_" d="M2.638,28.511c-0.586-0.24-1.299-0.64-1.352-1.181c-0.053-0.529,0.509-1.223,1.536-1.903l0.685-0.449
		c1.45-0.944,2.177-1.416,2.147-2.144c-0.032-0.745-0.821-1.236-2.901-2.346c-1.936-1.035-1.794-3.035-1.628-5.351
		c0.044-0.625,0.091-1.274,0.091-1.906H0.272c0,0.599-0.045,1.229-0.089,1.838c-0.171,2.421-0.349,4.926,2.125,6.249
		c0.82,0.437,2.345,1.252,2.405,1.552c-0.037,0.224-0.931,0.805-1.72,1.32l-0.69,0.452c-1.369,0.903-2.046,1.863-1.957,2.776
		c0.08,0.811,0.731,1.47,1.935,1.964c0.538,0.219,1.118,0.251,1.676,0.282C4.56,29.697,5.128,29.731,5.492,30l0.563-0.758
		c-0.59-0.44-1.328-0.479-2.043-0.519C3.506,28.699,3.031,28.67,2.638,28.511z"/>
</g>
</svg>
