<?xml version="1.0" encoding="utf-8"?>
<!-- Generator: Adobe Illustrator 21.0.2, SVG Export Plug-In . SVG Version: 6.00 Build 0)  -->
<svg version="1.1" xmlns="http://www.w3.org/2000/svg" xmlns:xlink="http://www.w3.org/1999/xlink" x="0px" y="0px"
	 viewBox="0 0 30 30" enable-background="new 0 0 30 30" xml:space="preserve">
<g id="indicators">
	<path d="M23.506,14.767c-0.09,0-0.181-0.015-0.27-0.047L4.754,8.104c-0.2-0.072-0.364-0.22-0.455-0.412
		C4.208,7.5,4.198,7.279,4.269,7.079l1.469-4.105c0.072-0.2,0.22-0.364,0.412-0.455c0.192-0.091,0.413-0.102,0.613-0.03
		l18.482,6.616c0.2,0.072,0.364,0.22,0.455,0.412c0.091,0.192,0.102,0.413,0.03,0.613l-1.469,4.105
		C24.144,14.563,23.835,14.767,23.506,14.767L23.506,14.767z"/>
	<path d="M20.807,30H7.335c-0.413,0-0.759-0.314-0.798-0.726L4.933,12.437c-0.021-0.225,0.053-0.448,0.205-0.615
		c0.152-0.167,0.367-0.262,0.593-0.262h8.676l4.479,1.604H6.613l1.451,15.234h12.014l1.027-10.788
		c0.042-0.441,0.434-0.765,0.874-0.722c0.441,0.042,0.764,0.433,0.722,0.874l-1.097,11.513C21.566,29.686,21.221,30,20.807,30
		L20.807,30z"/>
	<path d="M20.385,5.783c-0.09,0-0.181-0.015-0.27-0.047c-0.417-0.149-0.634-0.608-0.485-1.025l0.297-0.83L14.19,1.827l-0.297,0.83
		c-0.149,0.417-0.609,0.634-1.025,0.485c-0.417-0.149-0.634-0.608-0.485-1.025l0.567-1.585c0.072-0.2,0.22-0.364,0.412-0.455
		c0.192-0.091,0.413-0.102,0.613-0.03l7.247,2.594c0.2,0.072,0.364,0.22,0.455,0.412c0.091,0.192,0.102,0.413,0.03,0.613
		L21.14,5.251C21.022,5.579,20.714,5.783,20.385,5.783L20.385,5.783z"/>
	<path d="M9.697,24.3v-4.666c0-0.108,0.087-0.195,0.194-0.195h0.387c0.107,0,0.194,0.087,0.194,0.195V24.3
		c0,0.108-0.087,0.195-0.194,0.195H9.891C9.784,24.495,9.697,24.408,9.697,24.3z M12.913,17.883h-0.342
		c-0.12,0-0.217,0.097-0.217,0.217v6.178c0,0.12,0.097,0.217,0.217,0.217h0.342c0.12,0,0.217-0.097,0.217-0.217V18.1
		C13.13,17.98,13.033,17.883,12.913,17.883z M15.571,21.384h-0.342c-0.12,0-0.217,0.097-0.217,0.217v2.678
		c0,0.12,0.097,0.217,0.217,0.217h0.342c0.12,0,0.217-0.097,0.217-0.217V21.6C15.788,21.481,15.691,21.384,15.571,21.384z
		 M18.229,18.272h-0.342c-0.12,0-0.217,0.097-0.217,0.217v5.789c0,0.12,0.097,0.217,0.217,0.217h0.342
		c0.12,0,0.217-0.097,0.217-0.217v-5.789C18.445,18.369,18.348,18.272,18.229,18.272z"/>
</g>
</svg>
