<?xml version="1.0" encoding="utf-8"?>
<!-- Generator: Adobe Illustrator 21.0.2, SVG Export Plug-In . SVG Version: 6.00 Build 0)  -->
<svg version="1.1" xmlns="http://www.w3.org/2000/svg" xmlns:xlink="http://www.w3.org/1999/xlink" x="0px" y="0px"
	 viewBox="0 0 30 30" enable-background="new 0 0 30 30" xml:space="preserve">
<g id="trend-channel">
	<path d="M0.729,17.777c-0.138,0-0.273-0.042-0.388-0.125c-0.146-0.103-0.244-0.257-0.274-0.435c-0.03-0.177,0.01-0.355,0.114-0.502
		L11.825,0.284c0.104-0.147,0.259-0.245,0.437-0.275c0.174-0.029,0.355,0.012,0.501,0.115c0.302,0.214,0.374,0.634,0.16,0.937
		L1.279,17.493c-0.104,0.147-0.259,0.245-0.437,0.275C0.805,17.773,0.767,17.777,0.729,17.777z"/>
	<path d="M6.777,22.171c-0.138,0-0.273-0.042-0.388-0.124c-0.147-0.104-0.244-0.259-0.274-0.436
		c-0.03-0.177,0.011-0.355,0.115-0.501L17.873,4.679c0.104-0.147,0.259-0.244,0.436-0.275c0.176-0.031,0.355,0.01,0.501,0.114
		c0.303,0.214,0.375,0.635,0.161,0.938L7.327,21.888c-0.104,0.147-0.258,0.244-0.436,0.274C6.853,22.168,6.815,22.171,6.777,22.171z
		"/>
	<path d="M12.346,26c-0.138,0-0.273-0.042-0.388-0.124c-0.302-0.214-0.374-0.634-0.16-0.937L23.442,8.507
		c0.104-0.147,0.259-0.245,0.436-0.275c0.178-0.027,0.355,0.011,0.502,0.116c0.146,0.103,0.243,0.258,0.274,0.435
		c0.03,0.176-0.011,0.355-0.114,0.501L12.897,25.716c-0.104,0.147-0.259,0.244-0.436,0.275C12.422,25.997,12.384,26,12.346,26z"/>
	<path id="XMLID_9_" d="M24.708,19.318h-3.65V18h8.884v1.319h-3.669V30h-1.566V19.318z"/>
</g>
</svg>
