<?xml version="1.0" encoding="utf-8"?>
<!-- Generator: Adobe Illustrator 21.0.2, SVG Export Plug-In . SVG Version: 6.00 Build 0)  -->
<svg version="1.1" xmlns="http://www.w3.org/2000/svg" xmlns:xlink="http://www.w3.org/1999/xlink" x="0px" y="0px"
	 viewBox="0 0 30 30" enable-background="new 0 0 30 30" xml:space="preserve">
<g id="arrowLeft">
	<path id="XMLID_70_" fill-rule="evenodd" clip-rule="evenodd" d="M13.628,24.78c-0.089,0.249-0.285,0.354-0.704-0.053L6.01,17.851
		c-1.05-1.044-2.19-2.067-2.201-2.404c-0.01-0.339,1.165-1.341,2.216-2.385l6.872-6.825c0,0,0.778-0.933,0.778,0.903
		c0,0,0,0.956,0,2.133s1.201,2.131,2.682,2.129l8.162-0.009c1.674,0.085,1.671,1.807,1.671,1.807l-0.002,4.532
		c-0.056,1.703-1.786,1.732-1.786,1.732l-8.045-0.008c-1.482-0.002-2.682,0.991-2.682,2.217
		C13.676,22.898,13.796,24.315,13.628,24.78z"/>
</g>
</svg>
