<?xml version="1.0" encoding="utf-8"?>
<!-- Generator: Adobe Illustrator 21.0.2, SVG Export Plug-In . SVG Version: 6.00 Build 0)  -->
<svg version="1.1" xmlns="http://www.w3.org/2000/svg" xmlns:xlink="http://www.w3.org/1999/xlink" x="0px" y="0px"
	 viewBox="0 0 30 30" enable-background="new 0 0 30 30" xml:space="preserve">
<g id="arrowRightUp">
	<path id="XMLID_463_" fill-rule="evenodd" clip-rule="evenodd" d="M10.137,6.528c-0.119-0.25-0.051-0.473,0.56-0.481l10.208-0.029
		c1.55-0.005,3.151-0.09,3.409,0.151c0.258,0.243,0.13,1.855,0.125,3.406l-0.035,10.139c0,0,0.114,1.267-1.244-0.092
		c0,0-0.707-0.707-1.579-1.579s-2.466-0.688-3.561,0.41l-6.035,6.049c-1.303,1.176-2.575-0.101-2.575-0.101l-3.353-3.356
		c-1.219-1.302,0.04-2.604,0.04-2.604l5.961-5.95c1.098-1.096,1.252-2.719,0.345-3.626C11.494,7.958,10.357,6.997,10.137,6.528z"/>
</g>
</svg>
