<?xml version="1.0" encoding="utf-8"?>
<!-- Generator: Adobe Illustrator 21.0.2, SVG Export Plug-In . SVG Version: 6.00 Build 0)  -->
<svg version="1.1" xmlns="http://www.w3.org/2000/svg" xmlns:xlink="http://www.w3.org/1999/xlink" x="0px" y="0px"
	 viewBox="0 0 30 30" enable-background="new 0 0 30 30" xml:space="preserve">
<g id="gann-fan">
	<path d="M28.442,19.303L2.746,29.96c-0.153,0.063-0.321,0.045-0.474-0.029c-0.136,0.046-0.285,0.068-0.443,0.035
		c-0.418-0.088-0.696-0.451-0.62-0.812l0.055-0.26c-0.043-0.084-0.069-0.175-0.065-0.272L2.478,0.605
		C2.494,0.252,2.853-0.019,3.28,0.001C3.706,0.02,4.04,0.323,4.023,0.675L3.146,19.913L7.208,0.52
		c0.076-0.361,0.476-0.582,0.894-0.495c0.418,0.088,0.696,0.451,0.62,0.812l-5.264,25.13L18.051,5.373
		c0.209-0.294,0.661-0.333,1.009-0.086c0.348,0.247,0.462,0.687,0.253,0.981L4.741,26.833L26.164,13.71
		c0.305-0.187,0.734-0.043,0.957,0.321c0.223,0.364,0.156,0.812-0.149,0.998l-16.218,9.935l17.095-7.09
		c0.324-0.134,0.719,0.077,0.883,0.471C28.896,18.74,28.766,19.169,28.442,19.303z"/>
</g>
</svg>
