<?xml version="1.0" encoding="utf-8"?>
<!-- Generator: Adobe Illustrator 21.0.2, SVG Export Plug-In . SVG Version: 6.00 Build 0)  -->
<svg version="1.1" xmlns="http://www.w3.org/2000/svg" xmlns:xlink="http://www.w3.org/1999/xlink" x="0px" y="0px"
	 viewBox="0 0 30 30" enable-background="new 0 0 30 30" xml:space="preserve">
<g id="fibo-retracements">
	<path d="M29.021,25.5H1.111c-0.54,0-0.979-0.438-0.979-0.979c0-0.54,0.438-0.979,0.979-0.979h27.91c0.54,0,0.979,0.438,0.979,0.979
		C30,25.062,29.562,25.5,29.021,25.5z M29.021,18.695H1.111c-0.54,0-0.979-0.438-0.979-0.979c0-0.54,0.438-0.979,0.979-0.979h27.91
		c0.54,0,0.979,0.438,0.979,0.979C30,18.257,29.562,18.695,29.021,18.695z M29.021,13.475H1.111c-0.54,0-0.979-0.438-0.979-0.979
		c0-0.54,0.438-0.979,0.979-0.979h27.91c0.54,0,0.979,0.438,0.979,0.979C30,13.036,29.562,13.475,29.021,13.475z M29.021,6.766
		H0.979C0.438,6.766,0,6.327,0,5.787s0.438-0.979,0.979-0.979h28.042c0.54,0,0.979,0.438,0.979,0.979S29.562,6.766,29.021,6.766z"/>
	<path d="M5.185,22.789c-0.317,0-0.627-0.153-0.816-0.437c-0.3-0.45-0.177-1.058,0.273-1.356l1.176-0.783
		c0.449-0.3,1.057-0.18,1.357,0.273c0.3,0.45,0.177,1.058-0.273,1.356l-1.176,0.783C5.56,22.736,5.372,22.789,5.185,22.789z
		 M9.89,19.656c-0.317,0-0.627-0.153-0.816-0.437c-0.072-0.108-0.107-0.207-0.123-0.261c-0.031-0.105-0.04-0.197-0.041-0.263
		c0.498,0.001,2.719,0,2.719,0c-0.009,0.01-0.056,0.044-0.188,0.129c-0.153,0.096-0.275,0.178-0.356,0.234
		c-0.156,0.107-0.383,0.255-0.653,0.435c-0.069,0.046-0.184,0.11-0.339,0.143C10.026,19.649,9.958,19.656,9.89,19.656z
		 M14.597,16.525c-0.316,0-0.626-0.153-0.815-0.436c-0.3-0.45-0.178-1.058,0.271-1.357l1.176-0.784
		c0.449-0.3,1.057-0.18,1.357,0.271c0.3,0.45,0.178,1.058-0.271,1.357l-1.176,0.784C14.972,16.471,14.783,16.525,14.597,16.525z
		 M18.882,11.517l0.505-0.336l0.549-0.365c0.451-0.297,1.058-0.178,1.357,0.273c0.063,0.095,0.103,0.202,0.103,0.202
		c0.033,0.088,0.047,0.167,0.054,0.227C20.594,11.517,19.738,11.517,18.882,11.517L18.882,11.517z M24.008,10.259
		c-0.317,0-0.627-0.153-0.816-0.437c-0.3-0.45-0.177-1.058,0.273-1.356l1.176-0.783c0.451-0.298,1.059-0.178,1.357,0.273
		c0.3,0.45,0.177,1.058-0.273,1.356l-1.176,0.783C24.382,10.206,24.194,10.259,24.008,10.259z"/>
</g>
</svg>
