<?xml version="1.0" encoding="utf-8"?>
<!-- Generator: Adobe Illustrator 21.0.2, SVG Export Plug-In . SVG Version: 6.00 Build 0)  -->
<svg version="1.1" xmlns="http://www.w3.org/2000/svg" xmlns:xlink="http://www.w3.org/1999/xlink" x="0px" y="0px"
	 viewBox="0 0 30 30" enable-background="new 0 0 30 30" xml:space="preserve">
<g id="Шар_87">
	<path d="M15.122,0c-3.32,0-6.662,1.099-9.459,3.348C2.514,5.88,0.551,9.492,0.138,13.517c-0.408,3.968,0.75,7.832,3.261,10.881
		L3.4,24.4c2.721,3.376,6.79,5.414,11.163,5.592c1.232,0.042,2.537-0.076,3.769-0.338c1.064-0.229,2.094-0.571,3.062-1.016
		l0.512-0.235c1.074-0.543,1.955-1.105,2.686-1.714c1.123-0.927,2.088-1.958,2.868-3.064c0.42-0.595,0.259-1.463-0.352-1.895
		c-0.594-0.419-1.463-0.258-1.894,0.353c-0.72,0.99-1.514,1.841-2.363,2.535c-0.697,0.546-1.434,1.022-2.197,1.418
		c-0.846,0.432-1.83,0.777-2.924,1.029c-0.902,0.207-1.931,0.308-3.079,0.286c-3.576-0.135-6.902-1.806-9.132-4.586
		c-2.067-2.546-3.011-5.756-2.657-9.037c0.353-3.274,1.955-6.219,4.509-8.292c5.069-4.08,12.495-3.5,16.905,1.322l0.473,0.518
		l-3.154-0.427c-0.358-0.057-0.71,0.032-1.002,0.244c-0.293,0.213-0.485,0.523-0.54,0.872c-0.114,0.719,0.398,1.423,1.116,1.537
		l6.204,0.959c0.283,0.055,0.521,0.025,0.778-0.094c0.339-0.156,0.584-0.396,0.688-0.677l0.079-0.214
		c0.017-0.104,0.028-0.157,0.043-0.197l0.963-6.12c0.114-0.719-0.398-1.424-1.117-1.537c-0.723-0.118-1.422,0.398-1.536,1.117
		l-0.427,2.875l-0.362-0.416C23.503,1.766,19.33,0,15.122,0z"/>
</g>
</svg>
