<?xml version="1.0" encoding="utf-8"?>
<!-- Generator: Adobe Illustrator 21.0.2, SVG Export Plug-In . SVG Version: 6.00 Build 0)  -->
<svg version="1.1" xmlns="http://www.w3.org/2000/svg" xmlns:xlink="http://www.w3.org/1999/xlink" x="0px" y="0px"
	 viewBox="0 0 30 30" enable-background="new 0 0 30 30" xml:space="preserve">
<g id="candle">
	<path id="XMLID_1049_" fill-rule="evenodd" clip-rule="evenodd" d="M25.109,23.969V6.436c0-0.444-0.36-0.805-0.805-0.805h-6.838
		c-0.444,0-0.805,0.36-0.805,0.805v17.533c0,0.444,0.36,0.805,0.805,0.805h6.838C24.749,24.774,25.109,24.413,25.109,23.969z
		 M13.338,22.228V11.41c0-0.444-0.36-0.805-0.805-0.805H5.695c-0.444,0-0.805,0.36-0.805,0.805v10.818
		c0,0.444,0.36,0.805,0.805,0.805h6.838C12.977,23.032,13.338,22.672,13.338,22.228z M6.5,12.215h5.229v9.209H6.5V12.215z
		 M8.324,23.031v3.894c0,0.444,0.36,0.805,0.805,0.805c0.444,0,0.805-0.36,0.805-0.805v-3.894 M9.933,10.605v-3.95
		c0-0.444-0.36-0.805-0.805-0.805c-0.444,0-0.805,0.36-0.805,0.805v3.95 M21.609,5.632V1.205c0-0.444-0.36-0.805-0.805-0.805
		C20.36,0.4,20,0.76,20,1.205v4.428 M20,24.774v3.821c0,0.444,0.36,0.805,0.805,0.805c0.444,0,0.805-0.36,0.805-0.805v-3.821"/>
</g>
</svg>
