<?xml version="1.0" encoding="utf-8"?>
<!-- Generator: Adobe Illustrator 21.0.2, SVG Export Plug-In . SVG Version: 6.00 Build 0)  -->
<svg version="1.1" xmlns="http://www.w3.org/2000/svg" xmlns:xlink="http://www.w3.org/1999/xlink" x="0px" y="0px"
	 viewBox="0 0 30 30" enable-background="new 0 0 30 30" xml:space="preserve">
<g id="note">
	<g id="XMLID_66_">
		<g>
			<path d="M20.33,13.54c4.532,0,8.223,3.691,8.223,8.223c0,4.543-3.691,8.234-8.223,8.234H10.011c-4.543,0-8.234-3.691-8.234-8.234
				c0-4.532,3.691-8.223,8.234-8.223h4.67V8.753l-0.702-0.191c-1.872-0.532-3.17-2.255-3.17-4.202c0-2.404,1.957-4.362,4.362-4.362
				s4.362,1.957,4.362,4.362c0,1.947-1.309,3.67-3.17,4.202L15.66,8.753v4.787H20.33z M27.575,21.764
				c0-3.989-3.255-7.234-7.245-7.234h-4.67v7.234c0,0.277-0.223,0.5-0.489,0.5c-0.277,0-0.489-0.223-0.489-0.5V14.53h-4.67
				c-4,0-7.245,3.245-7.245,7.234c0,4,3.245,7.245,7.245,7.245H20.33C24.319,29.008,27.575,25.764,27.575,21.764z"/>
		</g>
	</g>
	<path fill-rule="evenodd" clip-rule="evenodd" d="M24.211,20.193c-0.113-0.114-0.296-0.115-0.41-0.003l-1.838,1.815
		c-0.095-0.044-0.199-0.073-0.311-0.073c-0.123,0-0.234,0.037-0.336,0.09l-2.143-2.143c0.022-0.07,0.044-0.14,0.044-0.217
		c0-0.412-0.334-0.746-0.746-0.746s-0.746,0.334-0.746,0.746c0,0.076,0.022,0.145,0.043,0.214l-5.547,5.571
		c-0.102-0.052-0.212-0.088-0.334-0.088c-0.121,0-0.231,0.036-0.332,0.087l-2.284-2.304c0.029-0.08,0.051-0.163,0.051-0.253
		c0-0.412-0.334-0.746-0.746-0.746c-0.412,0-0.746,0.334-0.746,0.746c0,0.093,0.022,0.179,0.053,0.261l-1.418,1.418
		c-0.113,0.113-0.113,0.296,0,0.41c0.113,0.113,0.296,0.113,0.41,0l1.406-1.406c0.091,0.039,0.19,0.062,0.296,0.062
		c0.108,0,0.209-0.025,0.301-0.066l2.307,2.327c-0.02,0.068-0.042,0.135-0.042,0.209c0,0.412,0.334,0.746,0.746,0.746
		c0.412,0,0.746-0.334,0.746-0.746c0-0.074-0.022-0.14-0.042-0.207l5.55-5.575c0.1,0.05,0.209,0.085,0.329,0.085
		c0.119,0,0.227-0.034,0.327-0.083l2.149,2.149c-0.019,0.066-0.041,0.132-0.041,0.205c0,0.412,0.334,0.746,0.746,0.746
		c0.412,0,0.746-0.334,0.746-0.746c0-0.085-0.022-0.163-0.048-0.239l1.859-1.837C24.323,20.49,24.324,20.307,24.211,20.193z"/>
</g>
</svg>
