<?xml version="1.0" encoding="utf-8"?>
<!-- Generator: Adobe Illustrator 21.0.2, SVG Export Plug-In . SVG Version: 6.00 Build 0)  -->
<svg version="1.1" xmlns="http://www.w3.org/2000/svg" xmlns:xlink="http://www.w3.org/1999/xlink" x="0px" y="0px"
	 viewBox="0 0 30 30" enable-background="new 0 0 30 30" xml:space="preserve">
<g id="tirone-levels">
	<path d="M28.981,15.931L0.887,15.927C0.398,15.927,0,15.529,0,15.04c0-0.489,0.398-0.887,0.887-0.887l28.094,0.003
		c0.489,0,0.887,0.398,0.887,0.887S29.47,15.931,28.981,15.931z"/>
	<path d="M29.106,6.144L1.012,6.142c-0.489,0-0.887-0.399-0.887-0.888c0-0.489,0.399-0.887,0.887-0.887l28.094,0.004
		c0.237,0,0.46,0.092,0.628,0.26c0.167,0.167,0.259,0.39,0.259,0.626C29.993,5.747,29.595,6.144,29.106,6.144z"/>
	<path d="M29.113,26L1.02,25.997c-0.489,0-0.887-0.399-0.887-0.888c0-0.489,0.398-0.887,0.887-0.887l28.094,0.003
		c0.489,0,0.887,0.399,0.887,0.888S29.602,26,29.113,26z"/>
</g>
</svg>
