<?xml version="1.0" encoding="utf-8"?>
<!-- Generator: Adobe Illustrator 21.0.2, SVG Export Plug-In . SVG Version: 6.00 Build 0)  -->
<svg version="1.1" xmlns="http://www.w3.org/2000/svg" xmlns:xlink="http://www.w3.org/1999/xlink" x="0px" y="0px"
	 viewBox="0 0 30 30" enable-background="new 0 0 30 30" xml:space="preserve">
<g id="arrowUp">
	<path id="XMLID_82_" fill-rule="evenodd" clip-rule="evenodd" d="M5.72,13.436c-0.249-0.089-0.354-0.285,0.053-0.704l6.876-6.914
		c1.044-1.05,2.067-2.19,2.404-2.201c0.339-0.01,1.341,1.165,2.385,2.216l6.825,6.872c0,0,0.933,0.778-0.903,0.778
		c0,0-0.956,0-2.133,0c-1.177,0-2.131,1.201-2.129,2.682l0.009,8.162C19.022,26.003,17.301,26,17.301,26l-4.532-0.002
		c-1.703-0.056-1.732-1.786-1.732-1.786l0.008-8.045c0.001-1.482-0.991-2.682-2.217-2.682C7.602,13.485,6.185,13.604,5.72,13.436z"
		/>
</g>
</svg>
