<?xml version="1.0" encoding="utf-8"?>
<!-- Generator: Adobe Illustrator 21.0.2, SVG Export Plug-In . SVG Version: 6.00 Build 0)  -->
<svg version="1.1" xmlns="http://www.w3.org/2000/svg" xmlns:xlink="http://www.w3.org/1999/xlink" x="0px" y="0px"
	 viewBox="0 0 30 30" enable-background="new 0 0 30 30" xml:space="preserve">
<g id="_x39_1">
	<path fill-rule="evenodd" clip-rule="evenodd" d="M17.545,25.944h-6c-0.276,0-0.5-0.224-0.5-0.5V14.5c0-0.276,0.224-0.5,0.5-0.5h6
		c0.276,0,0.5,0.224,0.5,0.5v10.944C18.045,25.72,17.821,25.944,17.545,25.944z M30,0.5v19c0,0.28-0.22,0.5-0.5,0.5h-7.82
		c-0.28,0-0.5-0.22-0.5-0.5v-19c0-0.28,0.22-0.5,0.5-0.5h7.82C29.78,0,30,0.22,30,0.5z M28.4,10V1.6h-5.62V10H28.4z M7,29.5v-3.508
		c0-0.276-0.224-0.5-0.5-0.5h-6c-0.276,0-0.5,0.224-0.5,0.5L0,29.5C0,29.776,0.224,30,0.5,30h6C6.776,30,7,29.776,7,29.5z"/>
</g>
</svg>
