<?xml version="1.0" encoding="utf-8"?>
<!-- Generator: Adobe Illustrator 21.0.2, SVG Export Plug-In . SVG Version: 6.00 Build 0)  -->
<svg version="1.1" xmlns="http://www.w3.org/2000/svg" xmlns:xlink="http://www.w3.org/1999/xlink" x="0px" y="0px"
	 viewBox="0 0 30 30" enable-background="new 0 0 30 30" xml:space="preserve">
<g id="fibo-arcs">
	<ellipse id="XMLID_108_" transform="matrix(0.9901 -0.1402 0.1402 0.9901 -1.9547 2.251)" cx="15" cy="15" rx="0.901" ry="0.901"/>
	<path d="M15,20.403c-2.979,0-5.403-2.423-5.403-5.402S12.021,9.598,15,9.598s5.402,2.424,5.402,5.403S17.979,20.403,15,20.403z
		 M15,11.026c-2.191,0-3.974,1.783-3.974,3.974s1.783,3.974,3.974,3.974s3.973-1.782,3.973-3.974S17.191,11.026,15,11.026z"/>
	<path d="M15,25.27c-5.566,0-10.096-4.529-10.096-10.095S9.434,5.08,15,5.08s10.096,4.529,10.096,10.095S20.566,25.27,15,25.27z
		 M15,6.508c-4.78,0-8.667,3.888-8.667,8.667S10.22,23.842,15,23.842s8.667-3.888,8.667-8.667S19.78,6.508,15,6.508z"/>
	<path d="M15,30C6.729,30,0,23.271,0,15S6.729,0,15,0s15,6.729,15,15S23.271,30,15,30z M15,1.429C7.517,1.429,1.429,7.517,1.429,15
		S7.517,28.571,15,28.571S28.571,22.483,28.571,15S22.483,1.429,15,1.429z"/>
</g>
</svg>
