<?xml version="1.0" encoding="utf-8"?>
<!-- Generator: Adobe Illustrator 21.0.2, SVG Export Plug-In . SVG Version: 6.00 Build 0)  -->
<svg version="1.1" xmlns="http://www.w3.org/2000/svg" xmlns:xlink="http://www.w3.org/1999/xlink" x="0px" y="0px"
	 viewBox="0 0 30 30" enable-background="new 0 0 30 30" xml:space="preserve">
<g id="arrowDown">
	<path id="XMLID_81_" fill-rule="evenodd" clip-rule="evenodd" d="M24.28,16.181c0.249,0.089,0.354,0.285-0.053,0.703l-6.876,6.914
		c-1.044,1.05-2.067,2.19-2.404,2.201c-0.339,0.01-1.341-1.165-2.385-2.216l-6.825-6.872c0,0-0.933-0.778,0.903-0.778
		c0,0,0.956,0,2.133,0s2.13-1.201,2.129-2.682l-0.009-8.162c0.085-1.674,1.807-1.671,1.807-1.671l4.532,0.002
		c1.703,0.056,1.732,1.786,1.732,1.786l-0.008,8.045c-0.001,1.482,0.991,2.682,2.217,2.682
		C22.398,16.132,23.815,16.013,24.28,16.181z"/>
</g>
</svg>
