<?xml version="1.0" encoding="utf-8"?>
<!-- Generator: Adobe Illustrator 21.0.2, SVG Export Plug-In . SVG Version: 6.00 Build 0)  -->
<svg version="1.1" xmlns="http://www.w3.org/2000/svg" xmlns:xlink="http://www.w3.org/1999/xlink" x="0px" y="0px"
	 viewBox="0 0 30 30" enable-background="new 0 0 30 30" xml:space="preserve">
<g id="fibo-ellipses">
	
		<ellipse id="XMLID_210_" transform="matrix(0.9901 -0.1402 0.1402 0.9901 -1.9954 2.2536)" cx="15" cy="15.291" rx="0.899" ry="0.899"/>
	<path d="M14.999,19.137c-3.038,0-5.418-1.689-5.418-3.846s2.379-3.846,5.418-3.846s5.418,1.69,5.418,3.846
		S18.037,19.137,14.999,19.137z M14.999,12.921c-2.137,0-3.942,1.085-3.942,2.371c0,1.285,1.805,2.37,3.942,2.37
		s3.943-1.085,3.943-2.37C18.942,14.006,17.136,12.921,14.999,12.921z"/>
	<path d="M15,22.364c-5.571,0-10.103-3.121-10.103-6.957C4.897,11.571,9.429,8.45,15,8.45s10.103,3.121,10.103,6.957
		C25.103,19.243,20.571,22.364,15,22.364z M15,9.925c-4.758,0-8.628,2.459-8.628,5.482c0,3.022,3.87,5.481,8.628,5.481
		s8.628-2.459,8.628-5.481C23.628,12.384,19.758,9.925,15,9.925z"/>
	<path d="M15,25.5c-8.271,0-15-4.58-15-10.209S6.729,5.082,15,5.082s15,4.579,15,10.209S23.271,25.5,15,25.5z M15,6.557
		c-7.458,0-13.525,3.918-13.525,8.733S7.542,24.025,15,24.025s13.525-3.918,13.525-8.734S22.458,6.557,15,6.557z"/>
</g>
</svg>
