<?xml version="1.0" encoding="utf-8"?>
<!-- Generator: Adobe Illustrator 21.0.2, SVG Export Plug-In . SVG Version: 6.00 Build 0)  -->
<svg version="1.1" xmlns="http://www.w3.org/2000/svg" xmlns:xlink="http://www.w3.org/1999/xlink" x="0px" y="0px"
	 viewBox="0 0 30 30" enable-background="new 0 0 30 30" xml:space="preserve">
<g id="error-channel">
	<path d="M6.71,22.182c-0.137,0-0.272-0.042-0.387-0.124c-0.302-0.215-0.373-0.634-0.16-0.937l11.63-16.413
		c0.214-0.302,0.633-0.374,0.937-0.16c0.302,0.215,0.373,0.634,0.16,0.937L7.261,21.897c-0.104,0.146-0.258,0.244-0.435,0.274
		C6.787,22.178,6.749,22.182,6.71,22.182z"/>
	<path d="M0.67,17.792c-0.138,0-0.272-0.042-0.387-0.124c-0.303-0.214-0.374-0.634-0.16-0.937l11.63-16.412
		c0.215-0.304,0.636-0.373,0.937-0.16c0.302,0.215,0.373,0.634,0.16,0.936L1.22,17.508c-0.104,0.146-0.259,0.244-0.435,0.274
		C0.747,17.789,0.708,17.792,0.67,17.792z"/>
	<path d="M12.274,26.005c-0.134,0-0.269-0.04-0.387-0.123c-0.302-0.215-0.373-0.634-0.16-0.937l11.63-16.412
		c0.104-0.146,0.259-0.244,0.436-0.274c0.175-0.03,0.353,0.01,0.501,0.114c0.302,0.215,0.374,0.635,0.16,0.937l-11.63,16.413
		C12.693,25.907,12.485,26.005,12.274,26.005z"/>
	<path id="XMLID_48_" d="M29.467,24.381h-4.66v4.32H30V30h-6.74V18.015h6.472v1.296h-4.926v3.788h4.66V24.381z"/>
</g>
</svg>
