<?xml version="1.0" encoding="utf-8"?>
<!-- Generator: Adobe Illustrator 21.0.2, SVG Export Plug-In . SVG Version: 6.00 Build 0)  -->
<svg version="1.1" xmlns="http://www.w3.org/2000/svg" xmlns:xlink="http://www.w3.org/1999/xlink" x="0px" y="0px"
	 viewBox="0 0 30 30" enable-background="new 0 0 30 30" xml:space="preserve">
<g id="raff-regression">
	<path d="M6.82,22.171c-0.134,0-0.27-0.04-0.388-0.123c-0.302-0.215-0.374-0.635-0.16-0.938L17.916,4.677
		c0.213-0.302,0.633-0.375,0.938-0.16c0.302,0.215,0.374,0.635,0.16,0.938L7.37,21.888C7.239,22.073,7.031,22.171,6.82,22.171z"/>
	<path d="M0.771,17.777c-0.138,0-0.272-0.042-0.387-0.124c-0.147-0.104-0.245-0.259-0.275-0.436s0.011-0.355,0.116-0.502
		L11.867,0.283c0.216-0.304,0.638-0.373,0.938-0.16c0.147,0.104,0.244,0.258,0.274,0.435c0.03,0.177-0.01,0.355-0.114,0.502
		L1.322,17.493c-0.104,0.147-0.259,0.244-0.435,0.274C0.848,17.774,0.809,17.777,0.771,17.777z"/>
	<path d="M12.389,26c-0.134,0-0.27-0.04-0.388-0.123c-0.302-0.215-0.374-0.635-0.16-0.938L23.485,8.507
		c0.104-0.147,0.259-0.245,0.436-0.275c0.18-0.027,0.356,0.011,0.502,0.116c0.146,0.103,0.243,0.257,0.274,0.435
		c0.03,0.176-0.01,0.355-0.114,0.502L12.94,25.717C12.809,25.902,12.601,26,12.389,26z"/>
	<path id="XMLID_52_" d="M22.143,18.246C22.92,18.088,24.034,18,25.093,18c1.645,0,2.705,0.299,3.448,0.971
		c0.6,0.531,0.936,1.344,0.936,2.262c0,1.572-0.99,2.616-2.245,3.04v0.053c0.918,0.32,1.467,1.168,1.75,2.404
		c0.389,1.661,0.67,2.809,0.918,3.27h-1.59c-0.195-0.338-0.459-1.362-0.795-2.846c-0.354-1.643-0.99-2.262-2.387-2.315H23.68V30
		h-1.538V18.246z M23.68,23.671h1.572c1.643,0,2.686-0.901,2.686-2.262c0-1.537-1.114-2.207-2.739-2.225
		c-0.742,0-1.273,0.07-1.52,0.141V23.671z"/>
</g>
</svg>
