<?xml version="1.0" encoding="utf-8"?>
<!-- Generator: Adobe Illustrator 21.0.2, SVG Export Plug-In . SVG Version: 6.00 Build 0)  -->
<svg version="1.1" xmlns="http://www.w3.org/2000/svg" xmlns:xlink="http://www.w3.org/1999/xlink" x="0px" y="0px"
	 viewBox="0 0 30 30" enable-background="new 0 0 30 30" xml:space="preserve">
<g id="fibo-fan">
	<path d="M4.599,30c-0.143,0-0.286-0.043-0.412-0.131c-0.322-0.228-0.399-0.673-0.171-0.995l0.752-1.064L9.52,0.59
		c0.067-0.389,0.439-0.639,0.826-0.581c0.389,0.068,0.649,0.438,0.581,0.827l-3.97,22.741L15.415,1.87
		c0.143-0.367,0.558-0.546,0.925-0.406c0.367,0.143,0.549,0.558,0.406,0.925L9.388,21.275l11.882-16.81
		c0.227-0.323,0.673-0.398,0.996-0.171c0.322,0.228,0.399,0.673,0.171,0.995l-11.988,16.96L24.896,7.802
		c0.279-0.279,0.731-0.279,1.01,0c0.279,0.279,0.279,0.731,0,1.01L6.716,28.001c-0.015,0.018-0.032,0.033-0.048,0.048l-1.058,1.058
		C5.6,29.117,5.59,29.127,5.581,29.135l-0.398,0.563C5.044,29.895,4.823,30,4.599,30z"/>
</g>
</svg>
