<?xml version="1.0" encoding="utf-8"?>
<!-- Generator: Adobe Illustrator 21.0.2, SVG Export Plug-In . SVG Version: 6.00 Build 0)  -->
<svg version="1.1" xmlns="http://www.w3.org/2000/svg" xmlns:xlink="http://www.w3.org/1999/xlink" x="0px" y="0px"
	 viewBox="0 0 30 30" enable-background="new 0 0 30 30" xml:space="preserve">
<g id="Шар_89">
	<path d="M0.8,30h28.4c0.44,0,0.8-0.36,0.8-0.8V15.799c0-0.442-0.358-0.8-0.8-0.8h-1.733c-0.442,0-0.8,0.358-0.8,0.8v10.067
		c0,0.442-0.358,0.8-0.8,0.8H4.133c-0.442,0-0.8-0.358-0.8-0.8V4.132c0-0.442,0.358-0.8,0.8-0.8h10.067c0.442,0,0.8-0.358,0.8-0.8
		V0.8c0-0.442-0.358-0.8-0.8-0.8H0.8C0.358,0,0,0.358,0,0.8v28.4C0,29.642,0.358,30,0.8,30z"/>
	<path d="M8.498,20.283l1.218,1.218c0.312,0.312,0.819,0.312,1.131,0L25.302,7.049c0.504-0.504,1.366-0.147,1.366,0.566v3.252
		c0,0.442,0.358,0.8,0.8,0.8H29.2c0.442,0,0.8-0.358,0.8-0.8V0.8C30,0.358,29.642,0,29.2,0H19.133c-0.442,0-0.8,0.358-0.8,0.8v1.732
		c0,0.442,0.358,0.8,0.8,0.8h3.252c0.713,0,1.07,0.862,0.566,1.366L8.498,19.152C8.185,19.464,8.185,19.971,8.498,20.283z"/>
</g>
</svg>
