<?xml version="1.0" encoding="utf-8"?>
<!-- Generator: Adobe Illustrator 21.0.2, SVG Export Plug-In . SVG Version: 6.00 Build 0)  -->
<svg version="1.1" xmlns="http://www.w3.org/2000/svg" xmlns:xlink="http://www.w3.org/1999/xlink" x="0px" y="0px"
	 viewBox="0 0 30 30" enable-background="new 0 0 30 30" xml:space="preserve">
<g id="fibo-extensions">
	<path d="M29.259,24.5H5.065c-0.409,0-0.741-0.332-0.741-0.741c0-0.409,0.332-0.741,0.741-0.741h24.194
		c0.409,0,0.741,0.332,0.741,0.741C30,24.168,29.668,24.5,29.259,24.5z M29.259,20.655H5.065c-0.409,0-0.741-0.332-0.741-0.741
		c0-0.409,0.332-0.741,0.741-0.741h24.194c0.409,0,0.741,0.332,0.741,0.741C30,20.323,29.668,20.655,29.259,20.655z M29.259,16.975
		H5.065c-0.409,0-0.741-0.332-0.741-0.741c0-0.409,0.332-0.741,0.741-0.741h24.194c0.409,0,0.741,0.332,0.741,0.741
		C30,16.643,29.668,16.975,29.259,16.975z M29.259,6.384H5.065c-0.409,0-0.741-0.332-0.741-0.741s0.332-0.741,0.741-0.741h24.194
		C29.668,4.902,30,5.234,30,5.643S29.668,6.384,29.259,6.384z"/>
	<g>
		<g>
			<path d="M0.741,24.491c-0.111,0-0.224-0.025-0.331-0.078c-0.366-0.183-0.514-0.628-0.331-0.994L0.3,22.978
				c0.183-0.368,0.629-0.513,0.994-0.332c0.366,0.183,0.514,0.628,0.331,0.994l-0.221,0.442C1.274,24.342,1.012,24.491,0.741,24.491
				z"/>
			<path d="M2.145,21.691c-0.111,0-0.224-0.025-0.331-0.078c-0.366-0.183-0.514-0.628-0.331-0.994l0.395-0.788
				c0.184-0.366,0.63-0.514,0.995-0.329c0.366,0.184,0.512,0.63,0.329,0.995L2.809,21.28C2.679,21.541,2.417,21.691,2.145,21.691z
				 M3.722,18.544c-0.112,0-0.225-0.025-0.332-0.079c-0.366-0.183-0.513-0.628-0.33-0.994l0.395-0.786
				c0.134-0.267,0.406-0.418,0.686-0.409c0.052,0.002,0.109,0.012,0.111,0.012l0,0c0.033,0.007,0.058,0.014,0.077,0.021
				c0.008,0.069,0.034,0.222,0.149,0.373c0.136,0.178,0.312,0.242,0.376,0.262c0.005,0.051,0.007,0.12-0.008,0.201
				c-0.015,0.087-0.044,0.156-0.068,0.204l-0.395,0.786C4.255,18.395,3.993,18.544,3.722,18.544z M5.301,15.399
				c-0.112,0-0.225-0.025-0.332-0.079c-0.366-0.183-0.513-0.628-0.33-0.994l0.395-0.786c0.184-0.367,0.629-0.514,0.995-0.33
				c0.366,0.183,0.513,0.628,0.33,0.994L5.964,14.99C5.833,15.25,5.572,15.399,5.301,15.399z"/>
			<path d="M6.878,12.253c-0.111,0-0.224-0.025-0.331-0.078c-0.366-0.183-0.514-0.628-0.331-0.994l0.221-0.442
				c0.183-0.367,0.63-0.513,0.994-0.332c0.366,0.183,0.514,0.628,0.331,0.994l-0.221,0.442C7.412,12.103,7.15,12.253,6.878,12.253z"
				/>
		</g>
		<path d="M26.073,22.628c-0.128,0-0.257-0.033-0.375-0.102l-0.92-0.54c-0.353-0.207-0.471-0.661-0.263-1.014
			c0.051-0.087,0.112-0.147,0.134-0.167c0.09-0.084,0.183-0.128,0.241-0.15c0.174-0.001,0.348-0.001,0.522-0.002
			c0.039,0.018,0.078,0.037,0.116,0.055l0.92,0.54c0.353,0.207,0.471,0.661,0.263,1.014C26.574,22.497,26.326,22.628,26.073,22.628z
			 M20.732,19.173c0.001-0.037,0.004-0.089,0.017-0.148c0,0,0.025-0.114,0.085-0.215c0.208-0.352,0.661-0.47,1.014-0.263l0.92,0.54
			c0.021,0.012,0.042,0.026,0.061,0.04c0.012,0.009,0.04,0.018,0.056,0.045l0,0C22.168,19.173,21.45,19.173,20.732,19.173z
			 M18.713,18.305c-0.128,0-0.257-0.033-0.375-0.102l-0.92-0.54c-0.054-0.032-0.119-0.078-0.178-0.146
			c-0.182-0.207-0.188-0.458-0.186-0.542c0.703,0,1.406,0,2.109,0.001c0.052,0.04,0.131,0.111,0.194,0.223
			c0.036,0.062,0.054,0.116,0.063,0.144c0.095,0.307-0.059,0.581-0.068,0.597c-0.022,0.038-0.065,0.103-0.135,0.168
			C19.079,18.236,18.897,18.305,18.713,18.305z M13.732,15.495c-0.346-0.209-0.46-0.663-0.257-1.009
			c0.205-0.349,0.662-0.469,1.014-0.263l0.92,0.54c0.055,0.032,0.119,0.079,0.178,0.146c0.195,0.223,0.187,0.502,0.182,0.583
			C15.09,15.494,14.411,15.494,13.732,15.495z M11.353,13.981c-0.128,0-0.257-0.033-0.375-0.102l-0.92-0.54
			c-0.353-0.207-0.471-0.661-0.263-1.014c0.208-0.352,0.663-0.47,1.014-0.263l0.92,0.54c0.353,0.207,0.471,0.661,0.263,1.014
			C11.854,13.85,11.607,13.981,11.353,13.981z"/>
	</g>
</g>
</svg>
