<?xml version="1.0" encoding="utf-8"?>
<!-- Generator: Adobe Illustrator 21.0.2, SVG Export Plug-In . SVG Version: 6.00 Build 0)  -->
<svg version="1.1" xmlns="http://www.w3.org/2000/svg" xmlns:xlink="http://www.w3.org/1999/xlink" x="0px" y="0px"
	 viewBox="0 0 30 30" enable-background="new 0 0 30 30" xml:space="preserve">
<g id="image">
	<g>
		<path id="XMLID_540_" fill-rule="evenodd" clip-rule="evenodd" d="M25.103,18.205c-2.7,0-4.897,2.197-4.897,4.897
			c0,2.701,2.197,4.897,4.897,4.897S30,25.803,30,23.103C30,20.402,27.803,18.205,25.103,18.205z M27.004,24.197h-0.807v0.807
			c0,0.605-0.49,1.095-1.095,1.095c-0.605,0-1.095-0.49-1.095-1.095v-0.807h-0.807c-0.605,0-1.095-0.49-1.095-1.095
			c0-0.605,0.49-1.095,1.095-1.095h0.807v-0.807c0-0.605,0.49-1.095,1.095-1.095s1.095,0.49,1.095,1.095v0.807h0.807
			c0.605,0,1.095,0.49,1.095,1.095C28.099,23.707,27.609,24.197,27.004,24.197z"/>
		<path d="M14.079,22.378H1.481v-4.51l3.78-3.78l5.044,3.7c0.285,0.209,0.678,0.189,0.938-0.05l7.905-7.217l3.22,4.507
			c0.237,0.333,0.701,0.41,1.034,0.171c0.333-0.237,0.411-0.701,0.172-1.033l-3.705-5.187c-0.123-0.173-0.314-0.285-0.524-0.307
			c-0.209-0.022-0.421,0.046-0.577,0.19l-8.073,7.371l-5.068-3.716c-0.295-0.216-0.704-0.185-0.962,0.074l-3.182,3.181V3.852h25.195
			v9.263c0,0.41,0.331,0.741,0.74,0.741c0.41,0,0.742-0.331,0.742-0.741V3.111c0-0.41-0.331-0.741-0.742-0.741H0.741
			C0.331,2.371,0,2.702,0,3.111v20.007c0,0.41,0.331,0.742,0.741,0.742h13.338c0.41,0,0.741-0.332,0.741-0.742
			C14.82,22.709,14.489,22.378,14.079,22.378L14.079,22.378z"/>
		<path d="M6.854,9.735c0,1.374,1.118,2.492,2.493,2.492c1.374,0,2.492-1.117,2.492-2.492c0-1.375-1.117-2.493-2.492-2.493
			C7.971,7.242,6.854,8.36,6.854,9.735L6.854,9.735z M10.592,9.735c0,0.686-0.559,1.245-1.245,1.245
			C8.66,10.98,8.1,10.421,8.1,9.735c0-0.687,0.559-1.246,1.246-1.246C10.033,8.488,10.592,9.048,10.592,9.735L10.592,9.735z"/>
	</g>
</g>
</svg>
