<?xml version="1.0" encoding="utf-8"?>
<!-- Generator: Adobe Illustrator 21.0.2, SVG Export Plug-In . SVG Version: 6.00 Build 0)  -->
<svg version="1.1" xmlns="http://www.w3.org/2000/svg" xmlns:xlink="http://www.w3.org/1999/xlink" x="0px" y="0px"
	 viewBox="0 0 30 30" enable-background="new 0 0 30 30" xml:space="preserve">
<g id="balloon">
	<g>
		<path d="M8.093,10.575c-1.089,0-1.973,0.887-1.973,1.976c0,1.086,0.884,1.973,1.973,1.973c1.089,0,1.973-0.887,1.973-1.973
			C10.066,11.462,9.181,10.575,8.093,10.575L8.093,10.575z"/>
		<path d="M15,10.575c-1.089,0-1.973,0.887-1.973,1.976c0,1.086,0.884,1.973,1.973,1.973c1.089,0,1.973-0.887,1.973-1.973
			C16.973,11.462,16.089,10.575,15,10.575L15,10.575z"/>
		<path d="M21.907,10.575c-1.089,0-1.973,0.887-1.973,1.976c0,1.086,0.884,1.973,1.973,1.973c1.089,0,1.973-0.887,1.973-1.973
			C23.88,11.462,22.996,10.575,21.907,10.575L21.907,10.575z"/>
		<path d="M15,29.03c-0.193,0-0.38-0.083-0.512-0.228l-4.235-4.706H3.159C1.447,24.096,0,22.649,0,20.937V4.656
			c0-1.712,1.447-3.159,3.159-3.159h23.682C28.553,1.497,30,2.944,30,4.656v16.282c0,1.712-1.447,3.159-3.159,3.159h-7.094
			l-4.234,4.705C15.38,28.947,15.193,29.03,15,29.03z M11.069,22.94L15,27.307l3.995-4.418l1.97-1.95
			c0.129-0.129,0.302-0.199,0.485-0.199c0.002,0,0.004,0,0.005,0c0.185,0.001,0.358,0.074,0.488,0.206
			c0.264,0.27,0.262,0.707-0.005,0.976l-0.802,0.79h5.706c0.963,0,1.776-0.813,1.776-1.775V4.656c0-0.962-0.813-1.775-1.776-1.775
			H3.159c-0.963,0-1.776,0.813-1.776,1.775v16.282c0,0.962,0.813,1.775,1.776,1.775h5.72L8.08,21.923
			c-0.269-0.267-0.273-0.705-0.009-0.976c0.269-0.274,0.707-0.275,0.98-0.008L11.069,22.94z"/>
	</g>
</g>
</svg>
