<?xml version="1.0" encoding="utf-8"?>
<!-- Generator: Adobe Illustrator 21.0.2, SVG Export Plug-In . SVG Version: 6.00 Build 0)  -->
<svg version="1.1" xmlns="http://www.w3.org/2000/svg" xmlns:xlink="http://www.w3.org/1999/xlink" x="0px" y="0px"
	 viewBox="0 0 30 30" enable-background="new 0 0 30 30" xml:space="preserve">
<g id="screen">
	<g>
		<path d="M24.565,25.88v-1.077c0-0.321,0.216-0.536,0.539-0.536h0.539c0.215,0,0.375-0.27,0.215-0.486l-1.077-1.074
			c-0.216-0.216-0.216-0.539,0-0.754l0.754-0.754c0.215-0.216,0.538-0.216,0.754,0l1.074,1.077c0.163,0.16,0.484,0.052,0.484-0.215
			v-0.539c0-0.323,0.215-0.539,0.539-0.539h1.077c0.323,0,0.539,0.216,0.539,0.539v4.305c0,0.321-0.215,0.536-0.539,0.536h-4.305
			C24.781,26.418,24.565,26.202,24.565,25.88L24.565,25.88z"/>
		<path d="M3.712,9.232L2.637,8.157C2.475,7.994,2.151,8.102,2.151,8.373v0.535c0,0.323-0.215,0.539-0.539,0.539H0.539
			C0.215,9.447,0,9.232,0,8.908V4.606c0-0.323,0.215-0.539,0.539-0.539h4.302c0.323,0,0.539,0.216,0.539,0.539v1.077
			c0,0.32-0.215,0.535-0.539,0.535H4.302c-0.215,0-0.375,0.271-0.215,0.486l1.077,1.075c0.215,0.215,0.215,0.539,0,0.754
			L4.411,9.287C4.25,9.447,3.927,9.447,3.712,9.232L3.712,9.232z"/>
		<path d="M24.486,4.551v1.077c0,0.323,0.216,0.538,0.539,0.538h0.539c0.215,0,0.375,0.268,0.215,0.483l-1.077,1.077
			c-0.216,0.215-0.216,0.538,0,0.751l0.754,0.754c0.215,0.215,0.538,0.215,0.754,0l1.074-1.075c0.163-0.163,0.484-0.055,0.484,0.216
			v0.535c0,0.323,0.215,0.539,0.539,0.539h1.077c0.323,0,0.539-0.215,0.539-0.539V4.606c0-0.323-0.215-0.539-0.539-0.539h-4.305
			C24.702,4.015,24.486,4.23,24.486,4.551L24.486,4.551z"/>
		<path d="M3.712,21.203L2.637,22.28c-0.163,0.16-0.486,0.052-0.486-0.215v-0.539c0-0.323-0.215-0.539-0.539-0.539H0.539
			C0.215,20.987,0,21.203,0,21.526v4.305c0,0.321,0.215,0.536,0.539,0.536h4.302c0.323,0,0.539-0.215,0.539-0.536v-1.077
			c0-0.323-0.215-0.539-0.539-0.539H4.302c-0.215,0-0.375-0.268-0.215-0.483l1.077-1.077c0.215-0.216,0.215-0.539,0-0.751
			L4.411,21.15C4.25,20.987,3.927,20.987,3.712,21.203L3.712,21.203z"/>
	</g>
	<path d="M20.984,26.375H9.016c-0.275,0-0.499-0.223-0.499-0.499v-0.997c0-0.275,0.223-0.499,0.499-0.499h11.968
		c0.275,0,0.499,0.223,0.499,0.499v0.997C21.483,26.152,21.26,26.375,20.984,26.375z M21.483,5.563V4.566
		c0-0.275-0.223-0.499-0.499-0.499H9.016c-0.275,0-0.499,0.223-0.499,0.499v0.997c0,0.275,0.223,0.499,0.499,0.499h11.968
		C21.26,6.062,21.483,5.839,21.483,5.563z M2.037,17.2v-4c0-0.276-0.224-0.5-0.5-0.5h-1c-0.276,0-0.5,0.224-0.5,0.5v4
		c0,0.276,0.224,0.5,0.5,0.5h1C1.813,17.7,2.037,17.476,2.037,17.2z M30,17.2v-4c0-0.276-0.224-0.5-0.5-0.5h-1
		c-0.276,0-0.5,0.224-0.5,0.5v4c0,0.276,0.224,0.5,0.5,0.5h1C29.776,17.7,30,17.476,30,17.2z"/>
</g>
</svg>
