<?xml version="1.0" encoding="utf-8"?>
<!-- Generator: Adobe Illustrator 21.0.2, SVG Export Plug-In . SVG Version: 6.00 Build 0)  -->
<svg version="1.1" xmlns="http://www.w3.org/2000/svg" xmlns:xlink="http://www.w3.org/1999/xlink" x="0px" y="0px"
	 viewBox="0 0 30 30" enable-background="new 0 0 30 30" xml:space="preserve">
<g id="indicators_1_">
	<path d="M0.335,26.092V14.095c0-0.277,0.224-0.501,0.5-0.501H1.83c0.276,0,0.5,0.224,0.5,0.501v11.997
		c0,0.277-0.224,0.501-0.5,0.501H0.835C0.559,26.594,0.335,26.369,0.335,26.092z M8.664,9.594H7.669c-0.276,0-0.5,0.224-0.5,0.5v16
		c0,0.276,0.224,0.5,0.5,0.5h0.995c0.276,0,0.5-0.224,0.5-0.5v-16C9.164,9.818,8.94,9.594,8.664,9.594z M15.497,18.594h-0.995
		c-0.276,0-0.5,0.224-0.5,0.5v7c0,0.276,0.224,0.5,0.5,0.5h0.995c0.276,0,0.5-0.224,0.5-0.5v-7
		C15.997,18.818,15.773,18.594,15.497,18.594z M22.331,10.594h-0.995c-0.276,0-0.5,0.224-0.5,0.5v15c0,0.276,0.224,0.5,0.5,0.5
		h0.995c0.276,0,0.5-0.224,0.5-0.5v-15C22.831,10.818,22.607,10.594,22.331,10.594z M29.165,16.585H28.17
		c-0.276,0-0.5,0.224-0.5,0.5v9.009c0,0.276,0.224,0.5,0.5,0.5h0.995c0.276,0,0.5-0.224,0.5-0.5v-9.009
		C29.665,16.809,29.441,16.585,29.165,16.585z"/>
	<path d="M2.013,10.822c0.929,0,1.677-0.749,1.677-1.677c0-0.156-0.032-0.312-0.072-0.461l3.527-2.542
		c0.22,0.11,0.461,0.164,0.719,0.164c0.491,0,0.927-0.212,1.24-0.553l3.331,1.933c-0.016,0.094-0.032,0.196-0.032,0.306
		c0,0.921,0.757,1.675,1.677,1.675c0.897,0,1.621-0.701,1.669-1.582l4.493-1.312c0.311,0.413,0.795,0.695,1.356,0.695
		c0.375,0,0.711-0.126,0.985-0.328l3.782,2.558c-0.03,0.134-0.062,0.274-0.062,0.421c0,0.929,0.757,1.677,1.677,1.677
		c0.929,0,1.683-0.749,1.683-1.677c0-0.929-0.755-1.685-1.683-1.685c-0.367,0-0.703,0.126-0.983,0.328l-3.776-2.558
		c0.032-0.132,0.054-0.274,0.054-0.413c0-0.929-0.749-1.677-1.677-1.677c-0.889,0-1.614,0.695-1.669,1.576l-4.493,1.318
		c-0.304-0.419-0.795-0.701-1.356-0.701c-0.413,0-0.781,0.156-1.076,0.405L9.531,4.697c0-0.024,0.008-0.046,0.008-0.07
		c0-0.929-0.749-1.677-1.675-1.677c-0.929,0-1.677,0.749-1.677,1.677c0,0.258,0.054,0.491,0.156,0.711L2.963,7.763
		C2.692,7.577,2.364,7.467,2.013,7.467c-0.929,0-1.677,0.749-1.677,1.677C0.335,10.073,1.084,10.822,2.013,10.822L2.013,10.822z"/>
</g>
</svg>
