<?xml version="1.0" encoding="utf-8"?>
<!-- Generator: Adobe Illustrator 21.0.2, SVG Export Plug-In . SVG Version: 6.00 Build 0)  -->
<svg version="1.1" xmlns="http://www.w3.org/2000/svg" xmlns:xlink="http://www.w3.org/1999/xlink" x="0px" y="0px"
	 viewBox="0 0 30 30" enable-background="new 0 0 30 30" xml:space="preserve">
<g id="maximize-panel">
	<path d="M11.712,16.836l-1.075,1.077c-0.163,0.16-0.486,0.052-0.486-0.215v-0.539c0-0.323-0.215-0.539-0.539-0.539H8.539
		C8.215,16.62,8,16.836,8,17.159v4.305C8,21.785,8.215,22,8.539,22h4.302c0.323,0,0.539-0.215,0.539-0.536v-1.077
		c0-0.323-0.215-0.539-0.539-0.539h-0.539c-0.215,0-0.375-0.268-0.215-0.483l1.077-1.077c0.215-0.216,0.215-0.539,0-0.751
		l-0.754-0.754C12.25,16.62,11.927,16.62,11.712,16.836L11.712,16.836z"/>
	<path d="M18.288,13.164l1.075-1.077c0.163-0.16,0.486-0.052,0.486,0.215v0.539c0,0.323,0.215,0.539,0.539,0.539h1.074
		c0.323,0,0.539-0.216,0.539-0.539V8.536C22,8.215,21.785,8,21.461,8h-4.302c-0.323,0-0.539,0.215-0.539,0.536v1.077
		c0,0.323,0.215,0.539,0.539,0.539h0.539c0.215,0,0.375,0.268,0.215,0.483l-1.077,1.077c-0.215,0.216-0.215,0.539,0,0.751
		l0.754,0.754C17.75,13.38,18.073,13.38,18.288,13.164L18.288,13.164z"/>
</g>
</svg>
