<?xml version="1.0" encoding="utf-8"?>
<!-- Generator: Adobe Illustrator 21.0.2, SVG Export Plug-In . SVG Version: 6.00 Build 0)  -->
<svg version="1.1" xmlns="http://www.w3.org/2000/svg" xmlns:xlink="http://www.w3.org/1999/xlink" x="0px" y="0px"
	 viewBox="0 0 30 30" enable-background="new 0 0 30 30" xml:space="preserve">
<g id="mobile-scroll-left">
	<path d="M9.317,14.638c1.625-2.125,3.228-4.27,4.845-6.401c0.207-0.273,0.591-0.317,0.852-0.098l0.57,0.48
		c0.253,0.214,0.296,0.598,0.095,0.865l-3.869,5.155c-0.16,0.213-0.16,0.507,0,0.72l3.869,5.155
		c0.201,0.267,0.158,0.652-0.095,0.865l-0.57,0.48c-0.26,0.219-0.644,0.175-0.851-0.099c-1.614-2.134-3.226-4.271-4.847-6.399
		C9.153,15.148,9.153,14.852,9.317,14.638z M14.317,14.638c1.625-2.125,3.228-4.27,4.845-6.401c0.207-0.273,0.591-0.317,0.852-0.098
		l0.57,0.48c0.253,0.214,0.296,0.598,0.095,0.865l-3.869,5.155c-0.16,0.213-0.16,0.507,0,0.72l3.869,5.155
		c0.201,0.267,0.158,0.652-0.095,0.865l-0.57,0.48c-0.26,0.219-0.644,0.175-0.851-0.099c-1.614-2.134-3.226-4.271-4.847-6.399
		C14.153,15.148,14.153,14.852,14.317,14.638z"/>
</g>
</svg>
