<?xml version="1.0" encoding="utf-8"?>
<!-- Generator: Adobe Illustrator 21.0.2, SVG Export Plug-In . SVG Version: 6.00 Build 0)  -->
<svg version="1.1" xmlns="http://www.w3.org/2000/svg" xmlns:xlink="http://www.w3.org/1999/xlink" x="0px" y="0px"
	 viewBox="0 0 30 30" enable-background="new 0 0 30 30" xml:space="preserve">
<g id="mobile-scroll-right">
	<path d="M20.684,15.362c-1.621,2.128-3.234,4.265-4.847,6.399c-0.207,0.274-0.59,0.318-0.851,0.099l-0.57-0.48
		c-0.253-0.214-0.296-0.598-0.095-0.865l3.869-5.155c0.16-0.213,0.16-0.507,0-0.72l-3.869-5.155
		c-0.201-0.267-0.158-0.652,0.095-0.865l0.57-0.48c0.26-0.219,0.644-0.175,0.852,0.098c1.617,2.131,3.221,4.276,4.845,6.401
		C20.847,14.852,20.847,15.148,20.684,15.362z M15.684,15.362c-1.621,2.128-3.234,4.265-4.847,6.399
		c-0.207,0.274-0.59,0.318-0.851,0.099l-0.57-0.48c-0.253-0.214-0.296-0.598-0.095-0.865l3.869-5.155c0.16-0.213,0.16-0.507,0-0.72
		L9.321,9.485C9.12,9.218,9.162,8.834,9.416,8.62l0.57-0.48c0.26-0.219,0.644-0.175,0.852,0.098
		c1.617,2.131,3.221,4.276,4.845,6.401C15.847,14.852,15.847,15.148,15.684,15.362z"/>
</g>
</svg>
