<?xml version="1.0" encoding="utf-8"?>
<!-- Generator: Adobe Illustrator 21.0.2, SVG Export Plug-In . SVG Version: 6.00 Build 0)  -->
<svg version="1.1" xmlns="http://www.w3.org/2000/svg" xmlns:xlink="http://www.w3.org/1999/xlink" x="0px" y="0px"
	 viewBox="0 0 30 30" enable-background="new 0 0 30 30" xml:space="preserve">
<g id="move-up">
	<path d="M14.993,8.892c-0.16-0.16-0.398-0.242-0.558-0.242c-0.161,0-0.403,0.082-0.563,0.242l-4.801,4.797
		c-0.16,0.16-0.238,0.321-0.238,0.563c0,0.238,0.078,0.398,0.238,0.558l1.121,1.121c0.161,0.161,0.321,0.239,0.563,0.239
		c0.238,0,0.398-0.078,0.558-0.239l0.801-0.8c0.239-0.239,0.719-0.078,0.719,0.32v5.199c0,0.481,0.32,0.801,0.801,0.801h1.597
		c0.481,0,0.801-0.32,0.801-0.801v-5.277c0-0.32,0.403-0.563,0.723-0.32l0.797,0.796c0.16,0.161,0.32,0.243,0.562,0.243
		c0.239,0,0.399-0.082,0.559-0.243l1.121-1.117c0.16-0.16,0.238-0.32,0.238-0.562c0-0.239-0.078-0.399-0.238-0.559L14.993,8.892z"/>
</g>
</svg>
