<?xml version="1.0" encoding="utf-8"?>
<!-- Generator: Adobe Illustrator 21.0.2, SVG Export Plug-In . SVG Version: 6.00 Build 0)  -->
<svg version="1.1" xmlns="http://www.w3.org/2000/svg" xmlns:xlink="http://www.w3.org/1999/xlink" x="0px" y="0px"
	 viewBox="0 0 30 30" enable-background="new 0 0 30 30" xml:space="preserve">
<g id="heikinAshi_1_">
	<path fill-rule="evenodd" clip-rule="evenodd" d="M8.422,17.226v3.869c0,0.42,0.34,0.759,0.759,0.759s0.759-0.34,0.759-0.759
		v-3.869 M9.941,4.77v-4.01C9.941,0.34,9.601,0,9.181,0S8.422,0.34,8.422,0.759v4.01 M13.314,16.466V5.529
		c0-0.42-0.34-0.759-0.759-0.759H5.779c-0.42,0-0.759,0.34-0.759,0.759v10.937c0,0.42,0.34,0.759,0.759,0.759h6.776
		C12.975,17.226,13.314,16.886,13.314,16.466z M20.102,24.903v4.337c0,0.42,0.34,0.759,0.759,0.759s0.759-0.34,0.759-0.759v-4.337
		 M21.621,11.259V7.248c0-0.42-0.34-0.759-0.759-0.759s-0.759,0.34-0.759,0.759v4.012 M24.995,24.071V12.09
		c0-0.46-0.34-0.832-0.759-0.832h-6.776c-0.42,0-0.759,0.372-0.759,0.832v11.981c0,0.46,0.34,0.832,0.759,0.832h6.776
		C24.655,24.903,24.995,24.531,24.995,24.071z"/>
</g>
</svg>
