<?xml version="1.0" encoding="utf-8"?>
<!-- Generator: Adobe Illustrator 21.0.2, SVG Export Plug-In . SVG Version: 6.00 Build 0)  -->
<svg version="1.1" xmlns="http://www.w3.org/2000/svg" xmlns:xlink="http://www.w3.org/1999/xlink" x="0px" y="0px"
	 viewBox="0 0 30 30" enable-background="new 0 0 30 30" xml:space="preserve">
<g id="renko">
	<path fill-rule="evenodd" clip-rule="evenodd" d="M4.781,29.5H0.5C0.224,29.5,0,29.276,0,29v-8.887c0-0.276,0.224-0.5,0.5-0.5
		h4.281c0.276,0,0.5,0.224,0.5,0.5V29C5.281,29.276,5.058,29.5,4.781,29.5z M1,28.5h3.281v-7.887H1V28.5z"/>
	<path fill-rule="evenodd" clip-rule="evenodd" d="M10.961,20.5H6.68c-0.276,0-0.5-0.224-0.5-0.5v-8.887c0-0.276,0.224-0.5,0.5-0.5
		h4.281c0.276,0,0.5,0.224,0.5,0.5V20C11.461,20.276,11.237,20.5,10.961,20.5z M7.18,19.5h3.281v-7.887H7.18V19.5z"/>
	<path fill-rule="evenodd" clip-rule="evenodd" d="M17.14,11.5h-4.281c-0.276,0-0.5-0.224-0.5-0.5V2.113c0-0.276,0.224-0.5,0.5-0.5
		h4.281c0.276,0,0.5,0.224,0.5,0.5V11C17.64,11.276,17.417,11.5,17.14,11.5z M13.359,10.5h3.281V2.613h-3.281V10.5z"/>
	<path fill-rule="evenodd" clip-rule="evenodd" d="M29.5,29.5h-4.281c-0.276,0-0.5-0.224-0.5-0.5v-8.887c0-0.276,0.224-0.5,0.5-0.5
		H29.5c0.276,0,0.5,0.224,0.5,0.5V29C30,29.276,29.776,29.5,29.5,29.5z"/>
	<path fill-rule="evenodd" clip-rule="evenodd" d="M23.32,20.5h-4.281c-0.276,0-0.5-0.224-0.5-0.5v-8.887c0-0.276,0.224-0.5,0.5-0.5
		h4.281c0.276,0,0.5,0.224,0.5,0.5V20C23.82,20.276,23.596,20.5,23.32,20.5z"/>
</g>
</svg>
