<?xml version="1.0" encoding="utf-8"?>
<!-- Generator: Adobe Illustrator 21.0.2, SVG Export Plug-In . SVG Version: 6.00 Build 0)  -->
<svg version="1.1" xmlns="http://www.w3.org/2000/svg" xmlns:xlink="http://www.w3.org/1999/xlink" x="0px" y="0px"
	 viewBox="0 0 30 30" enable-background="new 0 0 30 30" xml:space="preserve">
<g id="mountain">
	<path id="XMLID_596_" fill-rule="evenodd" clip-rule="evenodd" d="M30.002,6.591c-0.016-0.009-0.046-0.024-0.084-0.032
		c-0.691-0.138-0.971,2.71-2.859,3.771c-1.056,0.594-2.541,0.564-3.09,0.533c-0.505-0.028-1.106-0.122-2.243-0.133
		c-0.565-0.006-0.862-0.007-1.278,0.039c-0.457,0.051-1.26,0.148-2.165,0.584c-0.322,0.155-0.941,0.461-1.506,1.047
		c-0.537,0.557-0.687,1.02-1.2,2.247c-0.758,1.814-1.145,2.731-1.553,3.212c-0.629,0.741-1.308,1.05-2.388,1.541
		c-2.534,1.152-4.798,1.139-5.294,1.129c-0.439-0.009-2.322-0.07-4.529-0.988c-0.757-0.315-1.365-0.653-1.806-0.924
		c-0.001,1.741-0.002,3.481-0.003,5.222C0.002,25.893,0.001,27.946,0,30c10.001-0.001,20.001-0.001,30.002-0.002
		C30.001,17.659,30.001,6.94,30.002,6.591z"/>
</g>
</svg>
