<?xml version="1.0" encoding="utf-8"?>
<!-- Generator: Adobe Illustrator 21.0.2, SVG Export Plug-In . SVG Version: 6.00 Build 0)  -->
<svg version="1.1" xmlns="http://www.w3.org/2000/svg" xmlns:xlink="http://www.w3.org/1999/xlink" x="0px" y="0px"
	 viewBox="0 0 30 30" enable-background="new 0 0 30 30" xml:space="preserve">
<g id="line">
	<path fill-rule="evenodd" clip-rule="evenodd" d="M6.639,22c-2.159,0-4.317-0.533-6.239-1.541
		c-0.177-0.093-0.306-0.249-0.366-0.439c-0.06-0.19-0.04-0.392,0.052-0.569c0.19-0.362,0.64-0.502,1.007-0.315
		c3.625,1.902,7.965,1.821,11.33-0.208c1.38-0.832,1.818-2.06,2.281-3.36c0.539-1.511,1.093-3.066,3.002-4.066
		c1.827-0.956,3.704-0.838,5.362-0.731c1.704,0.11,3.163,0.206,4.275-0.808c0.586-0.534,0.984-1.277,1.18-2.21
		c0.041-0.197,0.158-0.365,0.326-0.474c0.167-0.107,0.366-0.146,0.559-0.102c0.402,0.085,0.66,0.481,0.576,0.883
		c-0.263,1.245-0.814,2.256-1.637,3.006c-1.574,1.434-3.493,1.314-5.349,1.195c-1.562-0.099-3.145-0.198-4.599,0.563
		c-1.393,0.728-1.788,1.837-2.287,3.239c-0.508,1.424-1.082,3.035-2.918,4.143C11.249,21.379,8.982,22,6.639,22z"/>
</g>
</svg>
