<?xml version="1.0" encoding="utf-8"?>
<!-- Generator: Adobe Illustrator 21.0.2, SVG Export Plug-In . SVG Version: 6.00 Build 0)  -->
<svg version="1.1" xmlns="http://www.w3.org/2000/svg" xmlns:xlink="http://www.w3.org/1999/xlink" x="0px" y="0px"
	 viewBox="0 0 30 30" enable-background="new 0 0 30 30" xml:space="preserve">
<g id="hollowCandle">
	<a>
		<path id="XMLID_4_" fill-rule="evenodd" clip-rule="evenodd" d="M10.004,23.117v3.809c0,0.444-0.36,0.805-0.805,0.805
			c-0.444,0-0.805-0.36-0.805-0.805v-3.809 M10.004,10.606V6.655c0-0.444-0.36-0.805-0.805-0.805c-0.444,0-0.805,0.36-0.805,0.805
			v3.95L10.004,10.606z M21.648,29.195v-4.754h-1.609v4.754c0,0.444,0.36,0.805,0.805,0.805C21.287,30,21.648,29.64,21.648,29.195z
			 M21.648,5.232V0.805C21.648,0.36,21.287,0,20.843,0c-0.444,0-0.805,0.36-0.805,0.805v4.427H21.648z M24.996,23.638V6.036
			c0-0.444-0.36-0.805-0.805-0.805h-6.755c-0.444,0-0.805,0.36-0.805,0.805v17.602c0,0.444,0.36,0.805,0.805,0.805h6.755
			C24.636,24.442,24.996,24.082,24.996,23.638z M18.241,6.841h5.146v15.993h-5.146V6.841z M13.367,22.312V11.41
			c0-0.444-0.36-0.805-0.805-0.805H5.808c-0.444,0-0.805,0.36-0.805,0.805v10.902c0,0.444,0.36,0.805,0.805,0.805h6.755
			C13.007,23.117,13.367,22.756,13.367,22.312z M6.613,12.215h5.146v9.293H6.613V12.215z"/>
	</a>
</g>
</svg>
