<?xml version="1.0" encoding="utf-8"?>
<!-- Generator: Adobe Illustrator 21.0.2, SVG Export Plug-In . SVG Version: 6.00 Build 0)  -->
<svg version="1.1" xmlns="http://www.w3.org/2000/svg" xmlns:xlink="http://www.w3.org/1999/xlink" x="0px" y="0px"
	 viewBox="0 0 30 30" enable-background="new 0 0 30 30" xml:space="preserve">
<g id="scroll-end">
	<g>
		<path d="M8.207,21.901c-0.39,0-0.707-0.316-0.707-0.707V8.828c0-0.39,0.316-0.707,0.707-0.707l11.483,6.36c0,0,0.53,0.53,0,1.06
			C19.16,16.071,8.207,21.901,8.207,21.901L8.207,21.901z"/>
		<path d="M20.138,8.88c0-0.423,0.343-0.766,0.766-0.766h0.83c0.423,0,0.766,0.343,0.766,0.766v12.255
			c0,0.423-0.343,0.766-0.766,0.766h-0.83c-0.423,0-0.766-0.343-0.766-0.766V8.88z"/>
	</g>
</g>
</svg>
