<?xml version="1.0" encoding="utf-8"?>
<!-- Generator: Adobe Illustrator 21.0.2, SVG Export Plug-In . SVG Version: 6.00 Build 0)  -->
<svg version="1.1" xmlns="http://www.w3.org/2000/svg" xmlns:xlink="http://www.w3.org/1999/xlink" x="0px" y="0px"
	 viewBox="0 0 30 30" enable-background="new 0 0 30 30" xml:space="preserve">
<g id="scroll-start">
	<g>
		<path d="M21.793,8.106c0.39,0,0.707,0.316,0.707,0.707V21.18c0,0.39-0.316,0.707-0.707,0.707l-11.483-6.36c0,0-0.53-0.53,0-1.06
			C10.84,13.936,21.793,8.106,21.793,8.106L21.793,8.106z"/>
		<path d="M9.862,21.128c0,0.423-0.343,0.766-0.766,0.766h-0.83c-0.423,0-0.766-0.343-0.766-0.766V8.872
			c0-0.423,0.343-0.766,0.766-0.766h0.83c0.423,0,0.766,0.343,0.766,0.766V21.128z"/>
	</g>
</g>
</svg>
