<?xml version="1.0" encoding="utf-8"?>
<!-- Generator: Adobe Illustrator 21.0.2, SVG Export Plug-In . SVG Version: 6.00 Build 0)  -->
<svg version="1.1" xmlns="http://www.w3.org/2000/svg" xmlns:xlink="http://www.w3.org/1999/xlink" x="0px" y="0px"
	 viewBox="0 0 30 30" enable-background="new 0 0 30 30" xml:space="preserve">
<g id="setting">
	<g>
		<path d="M22.436,17.286h-0.777c-0.199-0.737-0.491-1.443-0.871-2.103l0.549-0.55c0.201-0.201,0.313-0.472,0.313-0.756
			c0-0.288-0.111-0.557-0.313-0.758l-1.755-1.755c-0.405-0.405-1.11-0.405-1.515,0l-0.549,0.55c-0.662-0.38-1.366-0.672-2.104-0.869
			v-0.779c0-0.591-0.48-1.071-1.07-1.071h-2.482c-0.59,0-1.07,0.48-1.07,1.071v0.779c-0.737,0.197-1.441,0.489-2.103,0.869
			l-0.55-0.55c-0.405-0.405-1.11-0.405-1.515,0L4.87,13.12c-0.201,0.201-0.313,0.472-0.313,0.758c0,0.286,0.111,0.555,0.313,0.756
			l0.55,0.55c-0.38,0.66-0.672,1.366-0.869,2.103H3.771c-0.591,0-1.071,0.48-1.071,1.071v2.481c0,0.591,0.48,1.071,1.071,1.071H4.55
			c0.197,0.737,0.489,1.441,0.869,2.103l-0.55,0.549c-0.201,0.203-0.313,0.472-0.313,0.759c0,0.286,0.111,0.555,0.313,0.758
			l1.755,1.754c0.405,0.404,1.11,0.404,1.515,0l0.55-0.55c0.662,0.38,1.367,0.671,2.103,0.871v0.777c0,0.59,0.48,1.07,1.07,1.07
			h2.482c0.59,0,1.07-0.48,1.07-1.07v-0.777c0.738-0.199,1.441-0.491,2.104-0.871l0.549,0.55c0.405,0.404,1.11,0.404,1.517,0
			l1.753-1.754c0.201-0.203,0.314-0.472,0.314-0.758c0-0.286-0.113-0.555-0.314-0.759l-0.549-0.549
			c0.38-0.662,0.671-1.366,0.871-2.103h0.777c0.59,0,1.07-0.48,1.07-1.071v-2.481C23.506,17.766,23.026,17.286,22.436,17.286
			L22.436,17.286z M22.737,20.838c0,0.166-0.136,0.301-0.301,0.301h-1.385l-0.07,0.297c-0.199,0.862-0.538,1.68-1.007,2.433
			l-0.162,0.26l0.978,0.978c0.119,0.117,0.119,0.307,0,0.425l-1.753,1.754c-0.118,0.117-0.309,0.118-0.425,0l-0.978-0.979
			l-0.26,0.162c-0.753,0.469-1.571,0.807-2.433,1.007l-0.297,0.07v1.385c0,0.166-0.135,0.301-0.301,0.301h-2.482
			c-0.165,0-0.301-0.135-0.301-0.301v-1.385l-0.297-0.07c-0.862-0.199-1.68-0.538-2.431-1.007l-0.26-0.162l-0.978,0.979
			c-0.118,0.118-0.309,0.117-0.427,0l-1.753-1.754c-0.117-0.118-0.117-0.309,0-0.425l0.978-0.978l-0.162-0.26
			c-0.469-0.753-0.807-1.571-1.007-2.433l-0.069-0.297H3.771c-0.166,0-0.299-0.135-0.299-0.301v-2.481
			c0-0.166,0.133-0.301,0.299-0.301h1.385l0.069-0.298c0.201-0.862,0.538-1.68,1.007-2.43l0.162-0.26L5.416,14.09
			c-0.117-0.118-0.117-0.308,0-0.427l1.753-1.754c0.118-0.117,0.309-0.118,0.427,0l0.978,0.978l0.26-0.162
			c0.751-0.468,1.569-0.807,2.431-1.007l0.297-0.069v-1.385c0-0.166,0.136-0.299,0.301-0.299h2.482c0.166,0,0.301,0.133,0.301,0.299
			v1.385l0.297,0.069c0.862,0.201,1.68,0.538,2.433,1.007l0.26,0.162l0.978-0.978c0.117-0.118,0.309-0.117,0.425,0l1.753,1.754
			c0.119,0.118,0.119,0.308,0,0.427l-0.978,0.979l0.162,0.26c0.469,0.75,0.807,1.569,1.007,2.43l0.07,0.298h1.385
			c0.165,0,0.301,0.135,0.301,0.301V20.838z"/>
		<path d="M13.105,24.996c-2.975,0-5.396-2.418-5.396-5.391c0-2.975,2.421-5.396,5.396-5.396c2.973,0,5.391,2.421,5.391,5.396
			C18.497,22.578,16.078,24.996,13.105,24.996z"/>
	</g>
	<g>
		<g id="XMLID_26_">
			<g>
				<path d="M27.303,4.968v1.35c0,0.32-0.26,0.58-0.58,0.58h-0.43c-0.1,0.4-0.26,0.78-0.47,1.14l0.3,0.3
					c0.11,0.11,0.17,0.25,0.17,0.41c0,0.15-0.06,0.3-0.17,0.41l-0.95,0.95c-0.22,0.22-0.6,0.22-0.82,0l-0.3-0.3
					c-0.36,0.21-0.74,0.37-1.14,0.47v0.43c0,0.32-0.26,0.58-0.58,0.58h-1.35c-0.32,0-0.58-0.26-0.58-0.58v-0.43
					c-0.4-0.1-0.78-0.26-1.14-0.47l-0.3,0.3c-0.22,0.22-0.6,0.22-0.82,0l-0.95-0.95c-0.11-0.11-0.17-0.26-0.17-0.41
					c0-0.16,0.06-0.3,0.17-0.41l0.3-0.3c-0.21-0.36-0.37-0.74-0.48-1.14h-0.42c-0.32,0-0.58-0.26-0.58-0.58v-1.35
					c0-0.32,0.26-0.58,0.58-0.58h0.42c0.11-0.4,0.27-0.78,0.48-1.14l-0.3-0.3c-0.11-0.11-0.17-0.25-0.17-0.41
					c0-0.15,0.06-0.3,0.17-0.41l0.95-0.95c0.22-0.22,0.6-0.22,0.82,0l0.3,0.3c0.36-0.21,0.74-0.37,1.14-0.48v-0.42
					c0-0.32,0.26-0.58,0.58-0.58h1.35c0.32,0,0.58,0.26,0.58,0.58v0.42c0.4,0.11,0.78,0.27,1.14,0.48l0.3-0.3
					c0.22-0.22,0.6-0.22,0.82,0l0.95,0.95c0.11,0.11,0.17,0.26,0.17,0.41c0,0.16-0.06,0.3-0.17,0.41l-0.3,0.3
					c0.21,0.36,0.37,0.74,0.47,1.14h0.43C27.043,4.388,27.303,4.648,27.303,4.968z M23.333,5.638c0-0.92-0.75-1.67-1.68-1.67
					c-0.92,0-1.67,0.75-1.67,1.67c0,0.93,0.75,1.68,1.67,1.68C22.583,7.318,23.333,6.568,23.333,5.638z"/>
			</g>
		</g>
	</g>
</g>
</svg>
