<?xml version="1.0" encoding="utf-8"?>
<!-- Generator: Adobe Illustrator 21.0.2, SVG Export Plug-In . SVG Version: 6.00 Build 0)  -->
<svg version="1.1" xmlns="http://www.w3.org/2000/svg" xmlns:xlink="http://www.w3.org/1999/xlink" x="0px" y="0px"
	 viewBox="0 0 30 30" enable-background="new 0 0 30 30" xml:space="preserve">
<g id="show-drawings">
	<g id="XMLID_786_">
		<path id="XMLID_792_" d="M21.177,17.351c0.882-1.278,1.323-2.693,1.323-4.244c0-0.435-0.045-0.904-0.134-1.406l-4.687,8.404
			C19.129,19.547,20.295,18.629,21.177,17.351z"/>
		<path id="XMLID_788_" d="M21.864,5.774c0.011-0.022,0.016-0.072,0.016-0.151c0-0.19-0.089-0.34-0.268-0.452
			c-0.033-0.022-0.142-0.087-0.326-0.193c-0.184-0.106-0.36-0.209-0.527-0.31c-0.167-0.1-0.351-0.204-0.552-0.31
			c-0.201-0.106-0.374-0.193-0.519-0.26C19.542,4.033,19.442,4,19.386,4c-0.201,0-0.357,0.089-0.469,0.268l-0.904,1.624
			c-1.015-0.19-2.02-0.285-3.013-0.285c-3.002,0-5.77,0.759-8.304,2.277c-2.533,1.518-4.654,3.588-6.362,6.211
			C0.112,14.441,0,14.826,0,15.25s0.112,0.809,0.335,1.155c0.982,1.529,2.146,2.896,3.49,4.101c1.345,1.206,2.815,2.171,4.411,2.896
			C7.745,24.24,7.5,24.726,7.5,24.86c0,0.201,0.089,0.357,0.268,0.468C9.129,26.11,9.877,26.5,10.011,26.5
			c0.201,0,0.357-0.09,0.469-0.268l0.82-1.49c1.183-2.109,2.946-5.273,5.29-9.492C18.934,11.031,20.692,7.873,21.864,5.774z
			 M9.291,21.528C6.39,20.222,4.007,18.13,2.143,15.25c1.696-2.634,3.823-4.604,6.378-5.91C7.84,10.501,7.5,11.757,7.5,13.107
			c0,1.194,0.273,2.327,0.82,3.398c0.547,1.072,1.306,1.958,2.277,2.662L9.291,21.528z M15.569,9.39
			C15.413,9.547,15.223,9.625,15,9.625c-0.96,0-1.78,0.341-2.461,1.021c-0.681,0.681-1.021,1.501-1.021,2.461
			c0,0.224-0.078,0.413-0.235,0.569c-0.156,0.156-0.346,0.234-0.569,0.234c-0.223,0-0.413-0.078-0.569-0.234
			C9.988,13.52,9.91,13.33,9.91,13.107c0-1.395,0.5-2.592,1.498-3.591c0.999-0.999,2.196-1.498,3.591-1.498
			c0.223,0,0.413,0.078,0.569,0.234c0.156,0.156,0.234,0.346,0.234,0.569C15.803,9.045,15.725,9.235,15.569,9.39z"/>
		<path id="XMLID_787_" d="M29.665,14.095c-0.636-1.06-1.443-2.087-2.419-3.08c-0.976-0.993-1.995-1.847-3.055-2.561l-1.055,1.875
			c1.864,1.284,3.438,2.924,4.721,4.922c-1.35,2.098-3.033,3.811-5.047,5.139c-2.015,1.329-4.205,2.093-6.571,2.293L15,24.893
			c2.478,0,4.819-0.53,7.023-1.59c2.204-1.06,4.144-2.55,5.818-4.47c0.781-0.904,1.389-1.713,1.825-2.428
			C29.888,16.025,30,15.64,30,15.25C30,14.859,29.888,14.474,29.665,14.095z"/>
	</g>
</g>
</svg>
