<?xml version="1.0" encoding="utf-8"?>
<!-- Generator: Adobe Illustrator 21.0.2, SVG Export Plug-In . SVG Version: 6.00 Build 0)  -->
<svg version="1.1" xmlns="http://www.w3.org/2000/svg" xmlns:xlink="http://www.w3.org/1999/xlink" x="0px" y="0px"
	 viewBox="0 0 30 30" enable-background="new 0 0 30 30" xml:space="preserve">
<g id="theme">
	<path d="M25.733,26.667c0,0.258-0.209,0.467-0.467,0.467h-3.733c-0.258,0-0.467-0.209-0.467-0.467v-3.733
		c0-0.258,0.209-0.467,0.467-0.467h3.733c0.258,0,0.467,0.209,0.467,0.467V26.667z M19.667,26.667c0,0.258-0.209,0.467-0.467,0.467
		h-3.733c-0.258,0-0.467-0.209-0.467-0.467v-3.733c0-0.258,0.209-0.467,0.467-0.467H19.2c0.258,0,0.467,0.209,0.467,0.467V26.667z
		 M13.6,26.667c0,0.258-0.209,0.467-0.467,0.467H9.4c-0.258,0-0.467-0.209-0.467-0.467v-3.733c0-0.258,0.209-0.467,0.467-0.467
		h3.733c0.258,0,0.467,0.209,0.467,0.467V26.667z M5.2,27.133c-1.287,0-2.333-1.047-2.333-2.333s1.047-2.333,2.333-2.333
		s2.333,1.047,2.333,2.333S6.487,27.133,5.2,27.133L5.2,27.133z M3.333,1.933h5.6C9.26,1.933,9.4,2.073,9.4,2.4v8.018L2.867,20.585
		V2.4C2.867,2.073,3.006,1.933,3.333,1.933L3.333,1.933z M23.13,10.906c0.171-0.097,0.37-0.121,0.56-0.069
		c0.189,0.053,0.347,0.176,0.444,0.348l2.423,4.297c0.224,0.397,0.082,0.902-0.313,1.125L19.1,20.6H5.88l10.728-6.017
		c0.014-0.007,0.021-0.022,0.033-0.031L23.13,10.906z M27.6,20.603h-6.592l5.693-3.182c0.845-0.476,1.145-1.552,0.669-2.397
		l-2.423-4.297c-0.218-0.389-0.576-0.669-1.007-0.789c-0.429-0.121-0.88-0.065-1.269,0.154l-4.875,2.74l2.988-4.66
		c0.257-0.402,0.343-0.88,0.241-1.345c-0.102-0.466-0.379-0.864-0.781-1.122l-3.933-2.522c-0.429-0.275-0.938-0.366-1.436-0.258
		c-0.497,0.109-0.922,0.405-1.196,0.832l-3.347,5.208V2.4c0-0.837-0.563-1.4-1.4-1.4h-5.6c-0.837,0-1.4,0.563-1.4,1.4v18.289
		C1.392,20.882,1,21.396,1,22.003V27.6C1,28.372,1.628,29,2.4,29h25.2c0.772,0,1.4-0.628,1.4-1.4V22
		C29,21.23,28.372,20.603,27.6,20.603L27.6,20.603z"/>
</g>
</svg>
