<?xml version="1.0" encoding="utf-8"?>
<!-- Generator: Adobe Illustrator 21.0.2, SVG Export Plug-In . SVG Version: 6.00 Build 0)  -->
<svg version="1.1" xmlns="http://www.w3.org/2000/svg" xmlns:xlink="http://www.w3.org/1999/xlink" x="0px" y="0px"
	 viewBox="0 0 30 30" enable-background="new 0 0 30 30" xml:space="preserve">
<g id="drawings-tools">
	<path d="M27.931,15.317c-0.396-0.198-0.871,0-1.029,0.396c-0.91,2.058-2.335,3.839-4.156,5.185L17.284,9.855
		c0.792-0.673,1.306-1.662,1.306-2.77c0-1.702-1.227-3.166-2.81-3.522v-2.77C15.78,0.356,15.424,0,14.989,0
		c-0.435,0-0.792,0.356-0.792,0.792v2.77c-1.623,0.356-2.81,1.821-2.81,3.522c0,1.108,0.515,2.137,1.306,2.77L7.271,20.897
		c-1.821-1.346-3.245-3.127-4.156-5.185c-0.198-0.396-0.633-0.594-1.029-0.396s-0.594,0.633-0.396,1.029
		c1.069,2.414,2.77,4.433,4.908,5.976l-3.245,6.53c-0.198,0.396-0.04,0.871,0.356,1.069C3.828,29.96,3.946,30,4.065,30
		c0.277,0,0.554-0.158,0.712-0.435l3.127-6.372c2.177,1.187,4.591,1.821,7.084,1.821s4.908-0.633,7.084-1.821l3.127,6.372
		C25.319,29.842,25.635,30,25.912,30c0.119,0,0.237-0.04,0.356-0.079c0.396-0.198,0.554-0.673,0.356-1.069l-3.206-6.53
		c2.137-1.504,3.839-3.562,4.908-5.976C28.485,15.95,28.326,15.475,27.931,15.317z M14.989,5.066c1.108,0,2.018,0.91,2.018,2.018
		s-0.91,2.018-2.018,2.018s-2.018-0.91-2.018-2.018S13.881,5.066,14.989,5.066z M14.989,23.43c-2.256,0-4.433-0.594-6.372-1.662
		l5.501-11.161c0.277,0.079,0.594,0.119,0.871,0.119c0.277,0,0.594-0.04,0.871-0.119l5.501,11.161
		C19.421,22.836,17.245,23.43,14.989,23.43z"/>
</g>
</svg>
