<?xml version="1.0" encoding="utf-8"?>
<!-- Generator: Adobe Illustrator 21.0.2, SVG Export Plug-In . SVG Version: 6.00 Build 0)  -->
<svg version="1.1" xmlns="http://www.w3.org/2000/svg" xmlns:xlink="http://www.w3.org/1999/xlink" x="0px" y="0px"
	 viewBox="0 0 30 30" enable-background="new 0 0 30 30" xml:space="preserve">
<g id="drawings-trend-channel">
	<path d="M29.751,25.209c-0.151,0.151-0.352,0.221-0.553,0.221c-0.211,0-0.422-0.081-0.583-0.242l-9.889-10.237L9.179,26.688
		c-0.141,0.171-0.352,0.282-0.573,0.292c-0.231,0.01-0.442-0.06-0.603-0.211l-2.111-1.973l-4.311,4.932
		C1.42,29.909,1.199,30,0.968,30c-0.181,0-0.372-0.06-0.523-0.191c-0.342-0.292-0.372-0.805-0.08-1.137l4.864-5.556
		c0.141-0.171,0.342-0.272,0.563-0.282c0.221-0.02,0.432,0.07,0.593,0.221l2.09,1.953l9.125-11.224L11.42,7.392l-3.578,2.929
		c-0.171,0.141-0.382,0.201-0.603,0.171c-0.221-0.02-0.422-0.141-0.553-0.322L0.154,1.282c-0.261-0.362-0.181-0.866,0.171-1.127
		C0.687-0.107,1.189-0.027,1.45,0.325l6.03,8.214l3.497-2.859c0.322-0.272,0.794-0.242,1.085,0.06l6.563,6.795l9.949-12.24
		c0.281-0.342,0.784-0.393,1.126-0.111c0.342,0.282,0.402,0.785,0.121,1.127l-10.07,12.381l10.02,10.378
		C30.083,24.383,30.073,24.897,29.751,25.209z"/>
</g>
</svg>
