<?xml version="1.0" encoding="utf-8"?>
<!-- Generator: Adobe Illustrator 21.0.2, SVG Export Plug-In . SVG Version: 6.00 Build 0)  -->
<svg version="1.1" xmlns="http://www.w3.org/2000/svg" xmlns:xlink="http://www.w3.org/1999/xlink" x="0px" y="0px"
	 viewBox="0 0 30 30" enable-background="new 0 0 30 30" xml:space="preserve">
<g id="drawings-general">
	<path d="M27.797,5.13c-0.05-0.44-0.45-0.759-0.89-0.719l-0.08,0.01c0.02-0.15,0.03-0.3,0.03-0.45c0-2.098-1.72-3.806-3.819-3.806
		c-2.1,0-3.819,1.708-3.819,3.806c0,0.43,0.07,0.849,0.21,1.239L9,6.308l-6.399-0.53c-0.44-0.03-0.83,0.29-0.87,0.739l-1.73,20.73
		c-0.01,0.21,0.05,0.42,0.19,0.579c0.14,0.17,0.33,0.27,0.55,0.28l7.239,0.599c0.14,0.12,0.32,0.19,0.51,0.19h0.09l0.72-0.08
		l12.188,1.019h0.07c0.41,0,0.76-0.31,0.8-0.729l0.14-1.688l6.779-0.719c0.21-0.02,0.41-0.13,0.54-0.3
		c0.14-0.16,0.2-0.37,0.18-0.589L27.797,5.13z M23.037,1.763c1.22,0,2.21,0.989,2.21,2.208c0,0.22-0.03,0.43-0.09,0.629
		c-0.27,0.909-1.12,1.578-2.12,1.578c-0.59,0-1.13-0.23-1.52-0.619c-0.03-0.01-0.05-0.03-0.07-0.06c-0.13-0.14-0.25-0.3-0.35-0.47
		c-0.17-0.31-0.27-0.669-0.27-1.059C20.828,2.752,21.818,1.763,23.037,1.763z M1.671,26.579l1.59-19.131l2.24,0.19l2.07,19.431
		L1.671,26.579z M20.818,28.167l-3.02-0.25l3.07-0.33L20.818,28.167z M22.637,25.79l-1.64,0.17L9.23,27.208H9.2L7.17,8.127l1.88-0.2
		l8.499-0.899l1.51-0.16l-0.26,0.26l-1.45,1.489l-0.72,0.729c-0.31,0.32-0.31,0.829,0.01,1.139c0.16,0.15,0.36,0.23,0.56,0.23
		c0.21,0,0.42-0.08,0.57-0.24l1.66-1.688l1.46-1.489l0.11-0.11c0.07,0.05,0.15,0.1,0.23,0.14h0.01c0.54,0.3,1.15,0.46,1.8,0.46
		c0.26,0,0.52-0.03,0.77-0.08c0.99-0.2,1.84-0.789,2.4-1.598l0.07-0.01l2.03,19.092L22.637,25.79z"/>
</g>
</svg>
