<?xml version="1.0" encoding="utf-8"?>
<!-- Generator: Adobe Illustrator 21.0.2, SVG Export Plug-In . SVG Version: 6.00 Build 0)  -->
<svg version="1.1" xmlns="http://www.w3.org/2000/svg" xmlns:xlink="http://www.w3.org/1999/xlink" x="0px" y="0px"
	 viewBox="0 0 30 30" enable-background="new 0 0 30 30" xml:space="preserve">
<g id="drawings-geometric">
	<path d="M29.2,11.4h-9.73c0.09-0.52,0.13-1.06,0.13-1.6c0-5.4-4.4-9.8-9.8-9.8C4.4,0,0,4.4,0,9.8s4.4,9.8,9.8,9.8
		c0.54,0,1.08-0.04,1.6-0.13v9.73c0,0.44,0.36,0.8,0.8,0.8h17c0.44,0,0.8-0.36,0.8-0.8v-17C30,11.76,29.64,11.4,29.2,11.4z M9.8,18
		c-4.52,0-8.2-3.68-8.2-8.2s3.68-8.2,8.2-8.2c4.52,0,8.2,3.68,8.2,8.2c0,0.55-0.05,1.08-0.16,1.6H12.2c-0.44,0-0.8,0.36-0.8,0.8
		v5.64C10.88,17.95,10.35,18,9.8,18z M28.4,28.4H13V13h15.4V28.4z"/>
</g>
</svg>
