<?xml version="1.0" encoding="utf-8"?>
<!-- Generator: Adobe Illustrator 21.0.2, SVG Export Plug-In . SVG Version: 6.00 Build 0)  -->
<svg version="1.1" xmlns="http://www.w3.org/2000/svg" xmlns:xlink="http://www.w3.org/1999/xlink" x="0px" y="0px"
	 viewBox="0 0 30 30" enable-background="new 0 0 30 30" xml:space="preserve">
<g id="zoom-in">
	<g>
		<path d="M21.474,13.75h-5.31c-0.19,0-0.315-0.125-0.315-0.311V8.126c0-0.376-0.25-0.626-0.626-0.626h-1.248
			c-0.376,0-0.626,0.25-0.626,0.626v5.314c0,0.186-0.125,0.311-0.311,0.311H7.725C7.35,13.75,7.1,14,7.1,14.376v1.248
			C7.1,16,7.35,16.25,7.725,16.25h5.314c0.186,0,0.311,0.125,0.311,0.315v5.31c0,0.376,0.25,0.626,0.626,0.626h1.248
			c0.376,0,0.626-0.25,0.626-0.626v-5.31c0-0.19,0.125-0.315,0.315-0.315h5.31c0.376,0,0.626-0.25,0.626-0.626v-1.248
			C22.1,14,21.849,13.75,21.474,13.75L21.474,13.75z"/>
	</g>
</g>
</svg>
